<svg width="212" height="211" viewBox="0 0 212 211" fill="none" xmlns="http://www.w3.org/2000/svg">
<path d="M166.824 144.312L166.807 148.521L147.341 163.966C145.482 165.438 141.796 165.611 139.55 164.319L101.454 142.58C100.421 141.986 99.9126 141.211 99.9126 140.436L99.9302 136.227C99.9302 137.001 100.43 137.776 101.472 138.371L139.559 160.109C141.806 161.401 145.49 161.229 147.359 159.756L166.824 144.312Z" fill="#EE5F35"/>
<path d="M166.821 144.313L147.354 159.752C145.494 161.228 141.808 161.395 139.56 160.111L101.47 138.372C99.2224 137.074 99.4686 134.944 101.976 133.85L128.363 122.355L166.821 144.313Z" fill="#EE5F35"/>
<path d="M166.818 144.312L156.116 152.802L113.845 128.687L128.36 122.359L166.818 144.312Z" fill="#EE5F35"/>
<path d="M143.183 165.603C141.809 165.603 140.429 165.298 139.345 164.675L101.25 142.938C100.123 142.29 99.5024 141.402 99.5024 140.438L99.52 136.226C99.52 135.11 100.357 134.106 101.815 133.474L128.194 121.981C128.314 121.93 128.448 121.937 128.562 122.001L167.027 143.954C167.155 144.028 167.235 144.164 167.234 144.312L167.216 148.523C167.215 148.647 167.159 148.765 167.06 148.843L147.596 164.287C146.501 165.156 144.848 165.603 143.183 165.603ZM128.333 122.817L102.144 134.228C101.015 134.717 100.342 135.465 100.342 136.228L100.324 140.44C100.324 141.096 100.798 141.731 101.659 142.226L139.755 163.964C141.855 165.171 145.351 165.02 147.087 163.645L166.397 148.323L166.413 144.55L128.333 122.817Z" fill="#303F4C"/>
<path d="M88.6589 3.69667C87.0142 2.74714 85.672 3.51263 85.6661 5.41053L85.4258 96.8999C85.4199 98.7896 86.754 101.1 88.3987 102.05L202.896 168.278C204.548 169.232 205.891 168.467 205.896 166.577L206.136 75.0876C206.142 73.1897 204.808 70.8792 203.155 69.925L88.6589 3.69667Z" fill="#EE5F35"/>
<path d="M200.278 76.3826C200.281 75.6371 199.753 74.7215 199.107 74.3476L95.0031 14.1201C93.444 13.2198 91.4957 14.3417 91.491 16.1411L91.2847 95.5972C91.2823 96.3428 91.8098 97.2583 92.4558 97.6323L196.562 157.861C198.121 158.761 200.07 157.639 200.074 155.84L200.278 76.3826Z" fill="white"/>
<path d="M197.732 158.59C197.26 158.59 196.787 158.466 196.356 158.217L92.2493 97.9874C91.4756 97.5408 90.8707 96.4904 90.8731 95.5972L91.0794 16.1399C91.0829 15.1458 91.5975 14.2572 92.4591 13.7614C93.3196 13.2667 94.3476 13.2667 95.2081 13.7637L199.313 73.9923C200.088 74.439 200.692 75.4893 200.69 76.3837L200.486 155.84C200.483 156.833 199.968 157.723 199.107 158.217C198.676 158.466 198.203 158.59 197.732 158.59ZM93.8318 14.2138C93.5013 14.2138 93.1707 14.3006 92.8694 14.4741C92.2645 14.8223 91.9035 15.4459 91.9011 16.1434L91.6948 95.5995C91.6936 96.195 92.145 96.9793 92.6608 97.277L196.767 157.507C197.372 157.855 198.093 157.855 198.697 157.508C199.302 157.161 199.663 156.536 199.664 155.84L199.868 76.3837C199.869 75.7871 199.419 75.004 198.903 74.7062L94.7978 14.4776C94.4942 14.3006 94.1624 14.2138 93.8318 14.2138Z" fill="#303F4C"/>
<path d="M86.5444 3.49397C87.0825 3.17745 87.8327 3.22434 88.6639 3.69325L203.155 69.9286C204.806 70.8769 206.141 73.1828 206.141 75.0924L205.895 166.575C205.895 167.511 205.567 168.178 205.029 168.483L209.982 165.615C210.508 165.298 210.848 164.643 210.848 163.695L211.082 72.2121C211.094 70.3154 209.759 67.9967 208.108 67.0483L93.605 0.823546C92.7856 0.34409 92.0365 0.297197 91.4855 0.612536L86.5444 3.49397Z" fill="#EE5F35"/>
<path d="M204.247 169.106C203.764 169.106 203.229 168.951 202.686 168.638L88.1948 102.402C86.4317 101.396 85.0062 98.9285 85.0191 96.9029L85.2512 5.41226C85.2653 4.33612 85.6522 3.53077 86.3414 3.14041C86.3778 3.11931 86.42 3.09352 86.4704 3.0689C86.4727 3.06773 86.4751 3.06656 86.4774 3.06538L86.4762 3.06304L91.2814 0.255464C91.9824 -0.148967 92.9061 -0.0657373 93.8111 0.478194L208.32 66.6994C210.085 67.7052 211.51 70.1822 211.497 72.222L211.265 163.701C211.265 164.732 210.876 165.559 210.196 165.966L205.363 168.754C205.049 168.988 204.668 169.106 204.247 169.106ZM87.019 3.69489C86.9745 3.73943 86.9217 3.77343 86.8584 3.79336C86.8326 3.80274 86.7986 3.82149 86.7576 3.84728C86.3203 4.09463 86.0812 4.65029 86.0718 5.41812L85.8397 96.9064C85.828 98.639 87.094 100.829 88.6027 101.69L203.096 167.928C203.814 168.342 204.474 168.395 204.908 168.07L209.776 165.258C210.196 165.006 210.441 164.436 210.441 163.699L210.673 72.2173V72.2161C210.685 70.4718 209.419 68.2715 207.909 67.411L93.3926 1.18507C92.742 0.795877 92.1254 0.716164 91.6905 0.965856L87.019 3.69489Z" fill="#303F4C"/>
<path d="M128.142 64.0909C128.126 69.0766 129.644 74.544 132.175 79.5965C135.485 86.201 140.554 92.1327 146.229 95.4092C151.904 98.695 156.989 98.62 160.324 95.8488C162.88 93.7246 164.414 90.0249 164.431 85.0381C164.464 73.5148 156.367 59.4933 146.345 53.7117C136.33 47.9301 128.175 52.5593 128.142 64.0909Z" fill="#68C180"/>
<path d="M146.372 77.8894C140.942 74.7548 136.084 74.8216 132.897 77.4897C136.059 83.807 140.901 89.4749 146.331 92.6095C151.761 95.7442 156.619 95.6773 159.806 93.0257C156.644 86.6919 151.802 81.024 146.372 77.8894Z" fill="white"/>
<path d="M146.42 60.12C143.048 58.1729 140.303 59.7296 140.292 63.6122C140.281 67.4877 143.008 72.2107 146.38 74.1579C149.753 76.105 152.498 74.5412 152.509 70.6657C152.519 66.7832 149.793 62.0671 146.42 60.12Z" fill="white"/>
<path d="M173.625 118.434C174.376 118.868 174.983 119.923 174.979 120.787L174.945 132.865C174.943 133.729 174.333 134.076 173.582 133.642L115.027 99.8431C114.276 99.4094 113.664 98.3578 113.666 97.4939L113.7 85.416C113.702 84.5521 114.318 84.2016 115.069 84.6353L173.625 118.434Z" fill="#CED7F4"/>
<path d="M121.842 90.6398C122.002 90.7324 122.129 90.9516 122.129 91.131L122.119 94.4168L124.598 94.2023C124.643 94.1988 124.693 94.2128 124.741 94.241C124.839 94.2984 124.935 94.4121 124.987 94.5505L125.656 96.2678C125.729 96.4671 125.684 96.643 125.547 96.6547L123.069 96.8692L125.538 99.9405C125.674 100.109 125.717 100.337 125.643 100.45L124.966 101.391C124.913 101.469 124.817 101.473 124.718 101.415C124.669 101.387 124.62 101.344 124.575 101.289L122.107 98.2173L122.097 101.503C122.097 101.683 121.969 101.755 121.809 101.663L120.471 100.891C120.311 100.799 120.184 100.579 120.184 100.4L120.193 97.1142L117.715 97.3287C117.67 97.3322 117.62 97.3182 117.572 97.29C117.474 97.2326 117.378 97.1189 117.326 96.9806L116.661 95.2655C116.584 95.0639 116.629 94.8869 116.766 94.8763L119.244 94.6618L116.775 91.5905C116.639 91.4217 116.596 91.1943 116.674 91.0829L117.346 90.1404C117.399 90.0619 117.495 90.0583 117.593 90.1158C117.643 90.1439 117.692 90.1873 117.736 90.2424L120.205 93.3137L120.214 90.0279C120.214 89.8485 120.342 89.7758 120.503 89.8684L121.842 90.6398Z" fill="white"/>
<path d="M133.426 97.3273C133.582 97.4176 133.713 97.6391 133.713 97.8185L133.704 101.104L136.182 100.89C136.225 100.885 136.274 100.899 136.322 100.926C136.42 100.982 136.517 101.097 136.572 101.238L137.237 102.953C137.314 103.155 137.27 103.332 137.128 103.34L134.65 103.554L137.118 106.626C137.259 106.797 137.302 107.024 137.224 107.136L136.552 108.078C136.496 108.154 136.4 108.158 136.301 108.102C136.253 108.073 136.205 108.031 136.161 107.976L133.692 104.905L133.682 108.191C133.682 108.37 133.55 108.439 133.394 108.35L132.052 107.575C131.896 107.485 131.769 107.266 131.769 107.086L131.779 103.801L129.3 104.015C129.255 104.019 129.206 104.005 129.156 103.976C129.058 103.919 128.962 103.805 128.91 103.667L128.241 101.95C128.163 101.748 128.213 101.573 128.35 101.563L130.828 101.348L128.359 98.2769C128.223 98.1081 128.175 97.8783 128.254 97.7669L128.931 96.8268C128.984 96.7482 129.08 96.7447 129.179 96.8022C129.228 96.8303 129.277 96.8737 129.322 96.9288L131.79 100L131.8 96.7142C131.8 96.5349 131.928 96.4622 132.083 96.5525L133.426 97.3273Z" fill="white"/>
<path d="M145.005 104.013C145.166 104.105 145.293 104.325 145.293 104.504L145.283 107.79L147.761 107.575C147.807 107.572 147.856 107.586 147.904 107.614C148.003 107.671 148.099 107.785 148.151 107.924L148.82 109.641C148.893 109.84 148.848 110.017 148.711 110.028L146.233 110.242L148.702 113.314C148.838 113.482 148.881 113.71 148.807 113.824L148.129 114.764C148.077 114.842 147.981 114.846 147.882 114.788C147.833 114.76 147.784 114.717 147.739 114.662L145.27 111.59L145.261 114.876C145.261 115.056 145.133 115.128 144.973 115.036L143.635 114.264C143.474 114.172 143.348 113.952 143.348 113.773L143.357 110.487L140.879 110.702C140.833 110.705 140.784 110.691 140.735 110.663C140.636 110.606 140.54 110.492 140.489 110.354L139.824 108.639C139.747 108.437 139.791 108.26 139.927 108.249L142.411 108.037L139.937 104.964C139.801 104.795 139.757 104.567 139.836 104.456L140.507 103.513C140.56 103.435 140.656 103.431 140.755 103.489C140.804 103.517 140.853 103.56 140.898 103.615L143.367 106.687L143.376 103.401C143.376 103.222 143.504 103.149 143.664 103.241L145.005 104.013Z" fill="white"/>
<path d="M156.589 110.7C156.744 110.791 156.876 111.012 156.876 111.192L156.866 114.477L159.345 114.263C159.388 114.258 159.437 114.272 159.485 114.299C159.583 114.355 159.68 114.47 159.735 114.611L160.4 116.326C160.477 116.528 160.432 116.705 160.291 116.713L157.812 116.927L160.281 119.999C160.422 120.17 160.465 120.397 160.387 120.509L159.715 121.451C159.659 121.527 159.563 121.531 159.464 121.475C159.416 121.447 159.368 121.404 159.323 121.349L156.855 118.278L156.845 121.564C156.845 121.743 156.713 121.812 156.557 121.723L155.215 120.948C155.059 120.858 154.932 120.639 154.932 120.459L154.942 117.174L152.463 117.388C152.418 117.392 152.368 117.378 152.32 117.349C152.222 117.292 152.126 117.178 152.074 117.04L151.405 115.323C151.327 115.121 151.377 114.946 151.514 114.936L153.992 114.721L151.523 111.65C151.387 111.481 151.339 111.251 151.418 111.14L152.095 110.2C152.148 110.121 152.244 110.118 152.343 110.175C152.392 110.203 152.441 110.247 152.486 110.302L154.954 113.373L154.964 110.087C154.964 109.908 155.092 109.835 155.248 109.926L156.589 110.7Z" fill="white"/>
<path d="M168.168 117.386C168.329 117.478 168.455 117.698 168.455 117.877L168.446 121.163L170.924 120.948C170.97 120.945 171.019 120.959 171.067 120.987C171.166 121.045 171.262 121.158 171.313 121.297L171.983 123.014C172.06 123.216 172.011 123.389 171.874 123.401L169.395 123.615L171.864 126.687C172 126.855 172.048 127.085 171.97 127.197L171.292 128.137C171.239 128.215 171.143 128.219 171.045 128.161C170.996 128.133 170.946 128.09 170.902 128.035L168.433 124.963L168.424 128.249C168.424 128.429 168.296 128.501 168.135 128.409L166.799 127.637C166.638 127.545 166.512 127.326 166.512 127.146L166.521 123.86L164.043 124.075C163.997 124.078 163.948 124.064 163.899 124.036C163.8 123.979 163.704 123.865 163.653 123.727L162.988 122.012C162.91 121.81 162.955 121.633 163.097 121.625L165.575 121.41L163.106 118.339C162.966 118.168 162.922 117.94 163.001 117.829L163.672 116.887C163.725 116.808 163.821 116.804 163.92 116.862C163.969 116.89 164.018 116.933 164.063 116.988L166.532 120.06L166.541 116.774C166.541 116.595 166.669 116.522 166.829 116.615L168.168 117.386Z" fill="white"/>
<path d="M74.72 88.2256L74.3835 200.314C74.3753 203.047 73.4129 204.973 71.8549 205.881L64.7768 209.991C66.3348 209.091 67.3054 207.165 67.3136 204.424L67.6418 92.3426C67.6571 86.8224 63.7816 80.1206 58.9905 77.3493L10.0016 49.0837C7.59022 47.6899 5.39808 47.5644 3.82373 48.4811L10.9019 44.363C12.475 43.4463 14.6684 43.5799 17.0797 44.9737L66.0604 73.2323C70.8609 76.0036 74.7364 82.7136 74.72 88.2256Z" fill="#EE5F35"/>
<path d="M58.9878 77.3511C63.7812 80.1188 67.6579 86.8277 67.6426 92.342L67.3121 204.427C67.2968 209.935 63.3944 212.159 58.601 209.392L9.61435 181.128C4.81979 178.36 0.944278 171.646 0.959517 166.137L1.2901 54.0523C1.30534 48.538 5.20781 46.3201 10.0012 49.0878L58.9878 77.3511Z" fill="#EE5F35"/>
<path d="M56.0278 79.7008C60.5973 82.3396 64.2923 88.7343 64.2782 93.9896L63.9629 202.959C63.9477 208.209 60.2292 210.329 55.6586 207.691L9.16304 180.865C4.59355 178.226 0.898571 171.827 0.912638 166.575L1.22798 57.606C1.24322 52.3495 4.96164 50.2359 9.5323 52.8735L56.0278 79.7008Z" fill="white"/>
<path d="M59.3713 209.24C58.1603 209.24 56.8275 208.839 55.4536 208.047L8.95803 181.222C4.28069 178.522 0.488413 171.951 0.50248 166.575L0.81782 57.6064C0.824854 54.9219 1.76032 52.908 3.4519 51.935C5.15286 50.955 7.38602 51.1636 9.73758 52.5211L56.2331 79.3461C60.9116 82.047 64.7039 88.6163 64.6887 93.9923L64.3733 202.961C64.3651 205.645 63.4297 207.659 61.7381 208.632C61.0312 209.038 60.2317 209.24 59.3713 209.24ZM5.81988 52.1472C5.10128 52.1472 4.44129 52.3124 3.86219 52.6454C2.43555 53.466 1.64661 55.229 1.63958 57.6087L1.32424 166.578C1.31017 171.691 4.91958 177.942 9.36949 180.51L55.865 207.335C57.9505 208.539 59.8906 208.747 61.3301 207.919C62.7568 207.097 63.5469 205.335 63.5539 202.958L63.8693 93.9888C63.8833 88.8754 60.2751 82.626 55.824 80.0564L9.32729 53.2315C8.08117 52.5106 6.88664 52.1472 5.81988 52.1472Z" fill="#303F4C"/>
<path d="M62.4917 210.999C61.2269 210.999 59.8331 210.58 58.3935 209.745L9.40338 181.48C4.50448 178.654 0.531679 171.772 0.546919 166.138L0.875151 54.0493C0.883357 51.2488 1.85751 49.1457 3.61708 48.1282L10.6952 44.01C12.4712 42.9749 14.8134 43.1918 17.2845 44.6196L66.2664 72.877C71.1712 75.7092 75.1475 82.5963 75.1311 88.2279L74.7947 200.316C74.7876 203.112 73.817 205.214 72.0621 206.236L65.0778 210.292C64.3111 210.764 63.4366 210.999 62.4917 210.999ZM13.1781 44.187C12.4173 44.187 11.7186 44.364 11.1079 44.7192L4.02855 48.8374C2.53156 49.7037 1.70394 51.5547 1.69574 54.0505L1.3675 166.139C1.35226 171.51 5.14102 178.073 9.81367 180.768L58.8038 209.032C61.0475 210.332 63.1248 210.529 64.6546 209.587L71.6483 205.526C73.1406 204.656 73.9659 202.805 73.9729 200.313L74.3093 88.2243C74.3246 82.8542 70.5323 76.2883 65.855 73.5874L16.8731 45.33C15.5589 44.5704 14.3011 44.187 13.1781 44.187Z" fill="#303F4C"/>
<path d="M71.1469 101.399C72.0741 100.864 72.8361 101.299 72.8396 102.364L72.9334 118.239C72.9369 119.322 72.1796 120.616 71.2524 121.152C70.3251 121.688 69.5631 121.27 69.5596 120.187L69.4658 104.312C69.4635 103.247 70.2208 101.935 71.1469 101.399Z" fill="white"/>
<path d="M70.4915 121.797C70.2606 121.797 70.0437 121.741 69.8479 121.63C69.399 121.372 69.1504 120.86 69.1493 120.189L69.0567 104.315C69.0531 103.093 69.8819 101.657 70.9428 101.045C71.5172 100.713 72.1022 100.671 72.5477 100.929C72.9931 101.184 73.2487 101.707 73.251 102.364L73.3436 118.237C73.3471 119.459 72.5184 120.895 71.4575 121.508C71.1234 121.7 70.7951 121.797 70.4915 121.797ZM71.8994 101.582C71.7411 101.582 71.5524 101.64 71.3531 101.755C70.5501 102.218 69.8749 103.389 69.8772 104.311L69.9699 120.184C69.971 120.545 70.0753 120.813 70.2571 120.916C70.4434 121.023 70.7307 120.978 71.0472 120.795C71.8502 120.332 72.5254 119.161 72.523 118.24L72.4304 102.366C72.4293 102.01 72.3226 101.745 72.1397 101.639C72.0705 101.6 71.9897 101.582 71.8994 101.582Z" fill="#303F4C"/>
<path d="M47.024 74.9039L46.3055 78.9494C45.9632 80.8789 44.3501 81.4932 42.4686 80.4065L23.2833 69.3227C21.4077 68.2395 19.8029 65.7649 19.4723 63.4473L18.7783 58.5859L47.024 74.9039Z" fill="#303F4C"/>
<path d="M14.7443 100.345C14.7279 105.25 16.2213 110.63 18.7112 115.6C21.9678 122.098 26.9558 127.934 32.5393 131.159C38.1228 134.391 43.126 134.318 46.4072 131.591C48.9217 129.501 50.4315 125.861 50.4479 120.955C50.4808 109.617 42.5141 95.8219 32.653 90.1329C22.8013 84.4439 14.7771 88.9982 14.7443 100.345Z" fill="#FF5555"/>
<path d="M24.3545 177.076C24.3498 178.331 24.732 179.707 25.3697 180.979C26.2032 182.641 27.4786 184.133 28.9064 184.957C30.3343 185.784 31.6144 185.765 32.4537 185.068C33.0973 184.533 33.483 183.602 33.4876 182.347C33.4959 179.447 31.4585 175.918 28.9369 174.463C26.4154 173.01 24.3627 174.175 24.3545 177.076Z" fill="#303F4C"/>
<path d="M32.6797 113.921C27.3377 110.837 22.5572 110.904 19.4214 113.528C22.5326 119.744 27.2967 125.32 32.6387 128.405C37.9807 131.49 42.7612 131.423 45.897 128.815C42.787 122.583 38.0229 117.006 32.6797 113.921Z" fill="white"/>
<path d="M32.7279 96.4365C29.4092 94.521 26.7095 96.052 26.6978 99.8724C26.6872 103.685 29.3705 108.333 32.6881 110.248C36.0056 112.164 38.7065 110.624 38.7182 106.812C38.7287 102.993 36.0454 98.3532 32.7279 96.4365Z" fill="white"/>
<path d="M56.3445 152.085C56.9541 152.437 57.4441 153.293 57.4417 153.993L57.4136 163.781C57.4113 164.481 56.9177 164.762 56.3082 164.41L8.85017 137.017C8.2406 136.665 7.7459 135.813 7.74707 135.113L7.77521 125.325C7.77755 124.625 8.27577 124.34 8.88534 124.692L56.3445 152.085Z" fill="#CED7F4"/>
<path d="M14.3749 129.559C14.505 129.634 14.6082 129.812 14.607 129.958L14.6 132.621L16.6092 132.448C16.6456 132.445 16.6866 132.456 16.7253 132.479C16.805 132.525 16.8824 132.618 16.9246 132.73L17.4673 134.123C17.5259 134.284 17.4908 134.428 17.3794 134.436L15.3701 134.609L17.3712 137.098C17.4814 137.235 17.5165 137.419 17.4568 137.512L16.9081 138.274C16.8659 138.337 16.7874 138.341 16.7077 138.294C16.6678 138.271 16.628 138.236 16.5916 138.19L14.5906 135.702L14.5835 138.365C14.5835 138.511 14.4804 138.569 14.3491 138.494L13.2659 137.868C13.1358 137.793 13.0326 137.615 13.0338 137.47L13.0408 134.806L11.0316 134.98C10.9952 134.982 10.9542 134.971 10.9155 134.948C10.8358 134.902 10.7584 134.81 10.7162 134.697L10.177 133.307C10.1137 133.143 10.15 133 10.2614 132.991L12.2707 132.818L10.2696 130.329C10.1594 130.192 10.1242 130.008 10.1875 129.918L10.7326 129.153C10.7749 129.09 10.8534 129.087 10.9331 129.134C10.973 129.156 11.0128 129.191 11.0492 129.237L13.0502 131.725L13.0573 129.062C13.0573 128.917 13.1604 128.858 13.2917 128.933L14.3749 129.559Z" fill="white"/>
<path d="M23.7637 134.979C23.8903 135.052 23.997 135.233 23.9958 135.378L23.9888 138.041L25.9981 137.868C26.0332 137.864 26.0731 137.875 26.1118 137.898C26.1903 137.944 26.2689 138.037 26.3146 138.152L26.8538 139.542C26.9171 139.706 26.8808 139.849 26.7659 139.855L24.7567 140.028L26.7577 142.517C26.8726 142.657 26.9078 142.841 26.8433 142.931L26.2982 143.695C26.2525 143.757 26.1739 143.76 26.0954 143.714C26.0567 143.692 26.0168 143.658 25.9817 143.613L23.9806 141.124L23.9736 143.788C23.9736 143.933 23.8657 143.989 23.7391 143.917L22.6513 143.288C22.5247 143.216 22.4227 143.038 22.4227 142.892L22.4297 140.229L20.4204 140.402C20.3841 140.405 20.3431 140.394 20.3044 140.371C20.2247 140.325 20.1473 140.232 20.1051 140.12L19.5623 138.727C19.499 138.563 19.5389 138.422 19.6503 138.414L21.6595 138.241L19.6585 135.752C19.5483 135.615 19.5084 135.428 19.5729 135.338L20.1215 134.576C20.1637 134.513 20.2423 134.509 20.322 134.556C20.3618 134.579 20.4017 134.614 20.438 134.659L22.4391 137.148L22.4461 134.485C22.4461 134.339 22.5493 134.281 22.6759 134.353L23.7637 134.979Z" fill="white"/>
<path d="M33.1488 140.397C33.2789 140.472 33.3821 140.65 33.3809 140.796L33.3739 143.459L35.3831 143.285C35.4195 143.283 35.4605 143.294 35.4992 143.317C35.5789 143.363 35.6563 143.455 35.6985 143.568L36.2412 144.961C36.2999 145.122 36.2647 145.265 36.1533 145.274L34.1441 145.447L36.1451 147.936C36.2553 148.073 36.2905 148.257 36.2307 148.35L35.6821 149.112C35.6399 149.175 35.5613 149.178 35.4816 149.132C35.4418 149.109 35.4019 149.074 35.3656 149.028L33.3645 146.54L33.3575 149.203C33.3575 149.348 33.2543 149.407 33.123 149.332L32.0398 148.706C31.9097 148.631 31.8066 148.453 31.8077 148.307L31.8148 145.644L29.8055 145.818C29.7692 145.82 29.7281 145.809 29.6894 145.786C29.6097 145.74 29.5324 145.648 29.4902 145.535L28.9509 144.145C28.8876 143.981 28.924 143.838 29.0353 143.829L31.0481 143.658L29.0424 141.167C28.9322 141.03 28.897 140.846 28.9603 140.756L29.5054 139.991C29.5476 139.928 29.6261 139.925 29.7059 139.971C29.7457 139.994 29.7856 140.029 29.8219 140.075L31.823 142.563L31.83 139.9C31.83 139.755 31.9332 139.696 32.0645 139.771L33.1488 140.397Z" fill="white"/>
<path d="M42.5372 145.819C42.6638 145.891 42.7705 146.072 42.7693 146.217L42.7623 148.88L44.7715 148.707C44.8067 148.703 44.8465 148.714 44.8852 148.736C44.9638 148.782 45.0423 148.875 45.088 148.989L45.6273 150.38C45.6906 150.544 45.6542 150.687 45.5394 150.693L43.5301 150.866L45.5311 153.355C45.646 153.495 45.6812 153.679 45.6167 153.769L45.0716 154.533C45.0259 154.595 44.9474 154.598 44.8688 154.552C44.8301 154.53 44.7903 154.496 44.7551 154.451L42.7541 151.962L42.747 154.626C42.747 154.771 42.6392 154.827 42.5126 154.755L41.4247 154.126C41.2981 154.054 41.1961 153.875 41.1961 153.73L41.2031 151.067L39.1939 151.24C39.1575 151.243 39.1165 151.232 39.0778 151.209C38.9981 151.163 38.9207 151.07 38.8785 150.958L38.3358 149.565C38.2725 149.401 38.3123 149.26 38.4237 149.252L40.433 149.079L38.4319 146.59C38.3217 146.453 38.2819 146.266 38.3463 146.176L38.895 145.414C38.9372 145.351 39.0157 145.347 39.0954 145.394C39.1353 145.416 39.1751 145.452 39.2115 145.497L41.2125 147.986L41.2196 145.323C41.2196 145.177 41.3227 145.119 41.4493 145.191L42.5372 145.819Z" fill="white"/>
<path d="M51.9211 151.237C52.0513 151.312 52.1544 151.49 52.1532 151.635L52.1462 154.299L54.1555 154.125C54.1918 154.123 54.2328 154.133 54.2715 154.157C54.3512 154.203 54.4298 154.295 54.4708 154.408L55.0136 155.8C55.0769 155.965 55.037 156.105 54.9257 156.113L52.9164 156.287L54.9174 158.776C55.0276 158.913 55.0675 159.099 55.003 159.189L54.4544 159.951C54.4122 160.015 54.3337 160.018 54.2539 159.971C54.2141 159.949 54.1742 159.914 54.1379 159.868L52.1368 157.38L52.1298 160.043C52.1298 160.188 52.0266 160.247 51.8953 160.172L50.8122 159.546C50.6821 159.471 50.5789 159.293 50.5801 159.147L50.5871 156.484L48.5778 156.657C48.5415 156.66 48.5005 156.649 48.4618 156.626C48.3821 156.58 48.3047 156.487 48.2625 156.375L47.7233 154.985C47.66 154.82 47.6963 154.677 47.8112 154.672L49.8204 154.498L47.8194 152.009C47.7045 151.87 47.6693 151.686 47.7338 151.596L48.2789 150.831C48.3211 150.768 48.3997 150.764 48.4794 150.811C48.5192 150.834 48.5591 150.869 48.5954 150.914L50.5965 153.403L50.6035 150.74C50.6035 150.594 50.7067 150.536 50.838 150.611L51.9211 151.237Z" fill="white"/>
<path d="M121.894 186.518L121.887 189.524L91.3718 171.906C91.0259 171.707 90.856 171.445 90.856 171.184L90.863 168.182C90.863 168.443 91.0365 168.704 91.3788 168.904L121.894 186.518Z" fill="#D3DDF4"/>
<path d="M130.2 181.693L99.6875 164.076C99.0006 163.68 97.8893 163.68 97.207 164.076V164.075L128.964 182.411L130.2 181.693Z" fill="#E6ECFC"/>
<path d="M128.963 182.412L127.588 183.206L97.2075 165.667V164.076L128.963 182.412Z" fill="#CED7F4"/>
<path d="M127.588 183.205L97.2074 165.666L95.0728 166.899L125.41 184.474L127.588 183.205Z" fill="#D3DDF4"/>
<path d="M116.914 189.354L116.925 192.359L123.739 196.319L123.728 193.313L116.914 189.354Z" fill="#D3DDF4"/>
<path d="M116.914 189.354L123.728 193.314L141.234 183.207L134.419 179.248L116.914 189.354Z" fill="#E6ECFC"/>
<path d="M95.0726 166.901L94.3892 166.506L93.7058 166.111L91.3753 167.469C90.6907 167.866 90.6942 168.507 91.38 168.905L121.893 186.524L125.41 184.476L95.0726 166.901Z" fill="#E6ECFC"/>
<path d="M123.738 196.731C123.667 196.731 123.595 196.712 123.532 196.674L116.717 192.716C116.592 192.643 116.513 192.508 116.513 192.362L116.504 189.357C116.503 189.211 116.581 189.075 116.709 189.001L118.435 188.003L91.1655 172.263C90.7024 171.995 90.4492 171.611 90.4492 171.186L90.4539 168.18C90.4539 167.765 90.7153 167.376 91.1702 167.113L93.4995 165.756C93.6272 165.682 93.7843 165.682 93.9121 165.755L95.075 166.426L96.7994 165.431V164.077C96.7994 163.931 96.8768 163.796 97.0045 163.722C97.8122 163.254 99.0806 163.254 99.8942 163.721L130.193 181.215L134.216 178.89C134.344 178.816 134.502 178.817 134.627 178.891L141.442 182.85C141.568 182.924 141.646 183.059 141.646 183.205C141.646 183.352 141.567 183.486 141.44 183.56L124.141 193.549L124.151 196.317C124.152 196.465 124.073 196.599 123.946 196.673C123.88 196.712 123.808 196.731 123.738 196.731ZM117.333 192.125L123.325 195.606L123.318 193.317C123.317 193.169 123.396 193.035 123.524 192.961L140.415 183.206L134.419 179.722L130.396 182.046C130.27 182.118 130.113 182.118 129.986 182.046L99.4839 164.434C98.9857 164.148 98.1862 164.115 97.62 164.335V165.668C97.62 165.815 97.5414 165.951 97.4148 166.023L95.2801 167.256C95.1535 167.329 94.9964 167.329 94.8698 167.256L93.7081 166.585L91.584 167.823C91.3929 167.933 91.2757 168.069 91.2757 168.18L91.271 171.186C91.271 171.303 91.3859 171.439 91.5781 171.552L119.462 187.646C119.588 187.719 119.667 187.854 119.667 188.001C119.667 188.147 119.589 188.282 119.462 188.356L117.327 189.592L117.333 192.125Z" fill="#303F4C"/>
<path d="M159.805 193.086L159.783 199.657C159.775 202.448 157.94 205.235 154.277 207.364C146.9 211.651 134.905 211.651 127.48 207.364C123.744 205.207 121.878 202.376 121.886 199.548L121.908 192.977C121.9 195.804 123.766 198.635 127.502 200.792C134.927 205.079 146.922 205.079 154.299 200.792C157.962 198.663 159.797 195.877 159.805 193.086Z" fill="#425060"/>
<path d="M154.211 185.272C146.787 180.987 134.789 180.987 127.417 185.272C120.038 189.557 120.081 196.506 127.5 200.795C134.929 205.08 146.922 205.08 154.299 200.795C161.673 196.507 161.636 189.557 154.211 185.272ZM151.853 198.595C149.085 200.204 144.582 200.204 141.796 198.595C139.009 196.985 138.995 194.381 141.763 192.771C144.531 191.162 149.033 191.162 151.82 192.771C154.603 194.381 154.616 196.985 151.853 198.595Z" fill="#545F6E"/>
<path d="M152.634 198.056C152.398 197.86 152.127 197.67 151.821 197.493C149.034 195.884 144.532 195.884 141.764 197.493C141.471 197.666 141.211 197.843 140.982 198.033C139.037 196.428 139.298 194.204 141.764 192.772C144.532 191.162 149.034 191.162 151.821 192.772C154.31 194.209 154.584 196.447 152.634 198.056Z" fill="#425060"/>
<path d="M146.83 200.207C144.935 200.207 143.037 199.789 141.59 198.953C140.106 198.096 139.288 196.932 139.286 195.677C139.284 194.428 140.091 193.271 141.557 192.419C144.433 190.746 149.13 190.746 152.027 192.418C153.509 193.276 154.326 194.44 154.328 195.695C154.329 196.944 153.524 198.1 152.061 198.953H152.06C150.62 199.789 148.726 200.207 146.83 200.207ZM146.785 191.972C145.038 191.972 143.294 192.357 141.969 193.128C140.767 193.828 140.106 194.732 140.106 195.675C140.107 196.626 140.78 197.538 142.001 198.243C144.668 199.784 148.996 199.784 151.646 198.244C152.846 197.545 153.506 196.64 153.505 195.698C153.504 194.747 152.832 193.835 151.614 193.13C150.28 192.358 148.531 191.972 146.785 191.972Z" fill="#303F4C"/>
<path d="M140.897 210.979C135.97 210.979 131.037 209.893 127.272 207.723C123.524 205.557 121.465 202.654 121.476 199.551L121.499 193.001C121.493 189.929 123.522 187.056 127.21 184.916C134.686 180.572 146.89 180.572 154.416 184.916C158.164 187.077 160.224 189.98 160.213 193.088L160.19 199.662C160.184 202.721 158.157 205.584 154.483 207.723C150.746 209.893 145.824 210.979 140.897 210.979ZM140.796 182.467C136.018 182.467 131.248 183.519 127.623 185.626C124.199 187.614 122.315 190.233 122.321 193.002L122.297 199.554C122.288 202.351 124.201 204.999 127.684 207.012C134.985 211.222 146.822 211.222 154.072 207.013C157.484 205.027 159.366 202.415 159.37 199.659L159.394 193.085C159.403 190.285 157.49 187.635 154.007 185.627C150.358 183.521 145.573 182.467 140.796 182.467Z" fill="#303F4C"/>
<path d="M64.6256 51.3205L61.0924 53.3707C67.058 49.902 70.0356 40.8017 69.2912 24.6678C69.2654 24.1098 68.9465 23.6011 68.4507 23.3443C68.004 23.1122 67.5597 22.8696 67.1155 22.614C61.5871 19.4208 56.4138 14.4117 51.4915 8.12366C51.0976 7.62076 50.4775 7.34059 49.8421 7.40741C45.0089 7.91851 39.9377 6.90919 34.5335 3.78979C33.8313 3.38419 33.1209 2.94225 32.4082 2.46045L35.9414 0.410156C36.653 0.886096 37.3645 1.32804 38.0656 1.73364C43.465 4.85773 48.5409 5.86236 53.3742 5.35125C54.0095 5.28443 54.6308 5.56461 55.0247 6.06751C59.9459 12.3602 65.1203 17.3646 70.6475 20.5626C71.0883 20.8181 71.5325 21.0608 71.9792 21.2917C72.4739 21.5484 72.7939 22.0572 72.8197 22.614C73.5688 38.7456 70.59 47.8505 64.6256 51.3205Z" fill="#D3DDF4"/>
<path d="M49.8429 7.40516C50.4783 7.33834 51.0984 7.61851 51.4923 8.12142C56.4123 14.4118 61.5866 19.4185 67.1162 22.613C67.5582 22.8685 68.0025 23.1123 68.4491 23.3444C68.9438 23.6012 69.2626 24.1088 69.2884 24.6656C70.388 48.4239 63.4083 56.9416 50.7057 54.6592C37.8717 42.123 30.9495 25.3162 32.4078 2.46289C33.1217 2.94117 33.8309 3.38312 34.5331 3.7899C39.9361 6.91047 45.0085 7.91627 49.8429 7.40516Z" fill="#E6ECFC"/>
<path d="M54.4396 55.4228C53.2369 55.4228 51.9661 55.3033 50.6309 55.0641C50.55 55.0501 50.475 55.0114 50.4164 54.9539C36.6282 41.4846 30.6028 24.3062 31.999 2.43528C32.0083 2.29813 32.0834 2.17504 32.2029 2.10588L35.735 0.0555879C35.8709 -0.0229538 36.0386 -0.0182654 36.1699 0.0696545C36.8533 0.526838 37.5613 0.967607 38.2717 1.37907C43.343 4.31208 48.27 5.47614 53.3318 4.94159C54.0997 4.86422 54.8663 5.19831 55.3469 5.81375C60.5553 12.4746 65.6289 17.1835 70.8525 20.208C71.2898 20.4612 71.7317 20.6992 72.1725 20.9325C72.7903 21.2548 73.1959 21.8914 73.2275 22.5947C73.966 38.4449 71.2194 47.9578 64.8306 51.6751L61.3583 53.6914C59.4042 54.8437 57.0854 55.4228 54.4396 55.4228ZM50.9005 54.2775C54.9202 54.9774 58.2987 54.5425 60.9445 52.9822L64.4179 50.9647C70.4328 47.4655 73.1208 37.9326 72.4093 22.6322C72.3905 22.2196 72.1537 21.8468 71.7915 21.6581C71.339 21.4189 70.8877 21.1763 70.4422 20.9172C65.1248 17.84 59.9762 13.0642 54.701 6.319C54.3916 5.92277 53.9062 5.70708 53.4174 5.75748C48.175 6.31079 43.0874 5.11157 37.8614 2.08829C37.2085 1.71083 36.5591 1.30874 35.9272 0.892583L32.8055 2.7049C31.482 24.1726 37.4019 41.0427 50.9005 54.2775Z" fill="#303F4C"/>
<path d="M50.8348 21.2964C55.6856 24.0993 59.6057 30.8878 59.5905 36.4655C59.5752 42.0373 55.6282 44.2868 50.7774 41.4851C45.9312 38.6858 42.0112 31.8913 42.0264 26.3195C42.044 20.7419 45.9898 18.497 50.8348 21.2964Z" fill="white"/>
<path d="M48.6827 34.9836L47.5702 34.7667L45.5316 31.8947C45.269 31.5254 45.3558 31.012 45.7262 30.7505C46.0966 30.488 46.6077 30.5747 46.8715 30.9451L48.4564 33.1783L54.9742 29.005C55.3564 28.76 55.8628 28.8714 56.1078 29.2536C56.3528 29.6357 56.2414 30.1433 55.8593 30.3871L48.6827 34.9836Z" fill="#D3DDF4"/>
<path d="M206.023 15.6531L198.216 20.1897L190.358 15.6531L198.164 11.1152L206.023 15.6531Z" fill="#E6ECFC"/>
<path d="M206.023 29.5367L198.216 34.0745L190.358 29.5367L198.164 25L206.023 29.5367Z" fill="#E6ECFC"/>
<path d="M198.216 20.189V29.5273L206.023 15.6523L198.216 20.189Z" fill="#CED7F4"/>
<path d="M190.358 15.6523L198.216 29.5273V20.189L190.358 15.6523Z" fill="#D3DDF4"/>
<path d="M98.6889 186.373L90.8816 190.909L83.0239 186.373L90.8312 181.836L98.6889 186.373Z" fill="#E6ECFC"/>
<path d="M98.6889 200.257L90.8816 204.794L83.0239 200.257L90.8312 195.721L98.6889 200.257Z" fill="#E6ECFC"/>
<path d="M90.8818 190.91V200.248L98.6891 186.373L90.8818 190.91Z" fill="#CED7F4"/>
<path d="M83.0239 186.373L90.8816 200.248V190.91L83.0239 186.373Z" fill="#D3DDF4"/>
</svg>
