<svg width="340" height="383" viewBox="0 0 340 383" fill="none" xmlns="http://www.w3.org/2000/svg">
<path d="M200.014 195.138C200.014 195.138 192.312 163.704 236.123 155.442C239.669 155.144 293.545 150.43 294.727 102.906C295.611 103.204 296.581 61.0021 247.11 54.5143C247.072 52.4426 250.917 -5.98524 171.595 0.502613C172.479 1.68109 115.952 9.35982 114.173 80.4781C115.056 80.1803 113.576 132.418 163.906 161.334C163.309 160.156 125.72 121.787 163.906 69.2639C165.685 68.6684 163.309 78.853 170.127 86.5317C169.393 85.9363 163.321 67.9365 178.862 59.9725C178.563 60.2702 195.435 54.812 201.358 43.4489C200.624 43.5978 201.694 54.812 186.415 60.8657C187.597 61.1634 218.977 59.836 234.667 34.4553C234.368 34.753 238.076 48.3241 230.972 57.9132C231.121 58.0621 222.685 62.7884 223.27 82.4132C223.568 81.8178 223.12 83.294 223.12 83.294H216.016L215.568 87.276L212.308 88.1568L212.158 89.9307L208.612 90.7743C208.612 90.7743 208.612 99.9664 202.839 99.0732C202.839 98.7755 198.695 100.103 195.137 95.8231C194.54 95.8231 191.292 91.99 188.629 89.7695C189.077 90.216 175.901 94.1981 178.414 113.227C178.713 112.93 182.856 132.852 208.612 136.251C207.729 136.847 198.845 131.971 197.065 127.692C197.8 129.763 197.949 120.013 197.949 120.013L198.832 110.87L204.581 109.99L206.236 108.811L208.898 104.085C208.898 104.085 207.716 89.5462 226.069 90.7619C226.069 90.7991 225.472 97.5598 225.472 97.5598C225.472 97.5598 233.759 88.7274 245.89 99.3586C244.708 98.4778 258.32 109.394 249.735 126.216C249.138 126.513 244.708 134.676 233.846 137.231C234.045 137.628 202.266 150.802 197.936 172.052C198.932 171.271 194.988 184.172 200.014 195.138Z" fill="#FFFDFD"/>
<path d="M101.059 97.5723C101.059 97.5723 100.275 131.711 132.825 152.068C131.642 152.068 176.336 177.746 179.298 204.008C179.298 203.412 180.032 213.895 180.032 213.895C180.032 213.895 156.702 218.571 134.392 193.19C133.795 193.389 120.531 179.669 117.57 171.99C116.973 171.544 124.924 216.996 175.839 227.615C176.038 227.019 225.373 235.479 247.072 202.432C247.471 203.028 258.918 188.861 260.685 184.135C261.469 184.333 256.541 212.468 232.465 230.567C233.062 230.567 196.742 256.345 151.75 243.94C153.131 243.94 121.751 240.206 94.1281 194.952C91.7764 193.774 71.0595 157.973 101.059 97.5723Z" fill="#FFFDFD"/>
<path d="M5.5376 332.536H16.0889V353.563H58.2818V332.536H68.8331V364.082H5.55005V332.536H5.5376ZM25.284 327.276L31.7044 321.83L37.1667 326.52L42.629 321.83L49.0494 327.276L42.629 332.722L37.1667 328.132L31.7044 332.722L25.284 327.276ZM30.7587 317.526L37.1791 312.08L43.5995 317.526L37.1791 322.972L30.7587 317.526Z" fill="#FFFDFD"/>
<path d="M71.6951 368.001L78.414 370.197V332.535H88.9653V353.562H95.6719V364.081H88.9653V375.841L78.414 381.287L68.4351 377.938L71.6951 368.001Z" fill="#FFFDFD"/>
<path d="M124.439 353.563V364.083H95.6714C94.8377 364.083 94.1534 363.81 93.6059 363.264C93.0584 362.718 92.7847 362.036 92.7847 361.205V356.429C92.7847 355.598 93.0584 354.915 93.6059 354.37C94.1534 353.824 94.8377 353.551 95.6714 353.551H124.439V353.563Z" fill="#FFFDFD"/>
<path d="M153.205 353.563V364.083H124.438C123.604 364.083 122.92 363.81 122.372 363.264C121.825 362.718 121.551 362.036 121.551 361.205V356.429C121.551 355.598 121.825 354.915 122.372 354.37C122.92 353.824 123.604 353.551 124.438 353.551H153.205V353.563Z" fill="#FFFDFD"/>
<path d="M181.974 353.563V364.083H153.206C152.373 364.083 151.688 363.81 151.141 363.264C150.594 362.718 150.32 362.036 150.32 361.205V356.429C150.32 355.598 150.594 354.915 151.141 354.37C151.688 353.824 152.373 353.551 153.206 353.551H181.974V353.563Z" fill="#FFFDFD"/>
<path d="M210.728 353.563V364.083H181.961C181.127 364.083 180.443 363.81 179.895 363.264C179.348 362.718 179.086 362.036 179.086 361.205V356.429C179.086 355.598 179.36 354.915 179.895 354.37C180.443 353.824 181.127 353.551 181.961 353.551H210.728V353.563Z" fill="#FFFDFD"/>
<path d="M239.496 353.563V364.083H210.729C209.895 364.083 209.211 363.81 208.663 363.264C208.116 362.718 207.854 362.036 207.854 361.205V356.429C207.854 355.598 208.128 354.915 208.663 354.37C209.211 353.824 209.895 353.551 210.729 353.551H239.496V353.563Z" fill="#FFFDFD"/>
<path d="M268.263 353.563V364.083H239.495C238.662 364.083 237.977 363.81 237.43 363.264C236.882 362.718 236.621 362.036 236.621 361.205V356.429C236.621 355.598 236.895 354.915 237.43 354.37C237.977 353.824 238.662 353.551 239.495 353.551H268.263V353.563Z" fill="#FFFDFD"/>
<path d="M297.03 353.563V364.083H268.262C267.429 364.083 266.744 363.81 266.197 363.264C265.649 362.718 265.388 362.036 265.388 361.205V356.429C265.388 355.598 265.662 354.915 266.197 354.37C266.744 353.824 267.429 353.551 268.262 353.551H297.03V353.563Z" fill="#FFFDFD"/>
<path d="M297.03 364.082C296.197 364.082 295.513 363.809 294.965 363.263C294.418 362.717 294.156 362.035 294.156 361.204V356.428C294.156 355.597 294.43 354.915 294.965 354.369C295.513 353.823 296.197 353.55 297.03 353.55H303.737V332.523H314.288V353.55H320.995V364.07H297.03V364.082ZM298.312 375.842L304.098 369.441L309.013 374.887L313.928 369.441L319.713 375.842L313.928 382.243L309.013 376.797L304.098 382.243L298.312 375.842Z" fill="#FFFDFD"/>
<path d="M327.715 353.562V332.535H338.266V364.081H321.008C320.174 364.081 319.49 363.808 318.943 363.262C318.395 362.717 318.134 362.034 318.134 361.203V356.427C318.134 355.596 318.407 354.914 318.943 354.368C319.49 353.822 320.174 353.549 321.008 353.549H327.715V353.562ZM324.268 376.598L330.688 370.197L337.109 376.598L330.688 382.999L324.268 376.598Z" fill="#FFFDFD"/>
<path d="M50.4423 280.831V249.918H64.0172V307.899C64.0172 314.052 65.0997 318.357 71.4206 318.357H72.3413V321.433H59.8489C56.141 321.433 53.8267 320.664 52.4456 318.667C50.9027 316.508 50.4423 313.134 50.4423 307.899V285.446H22.0607V321.433H8.48586V263.601C8.48586 257.299 7.40338 253.143 1.08254 253.143H0V249.918H12.6541C16.362 249.918 18.6763 250.836 20.2192 252.846C21.6128 255.004 22.0732 258.378 22.0732 263.613V280.831H50.4423Z" fill="#FFFDFD"/>
<path d="M103.671 316.979C110.925 316.979 114.932 313.283 118.64 308.37L121.875 310.678C120.332 313.134 118.329 315.912 115.243 317.91C112.008 320.217 107.84 321.755 102.129 321.755C94.5759 321.755 88.703 318.989 84.3854 314.374C80.2171 309.76 77.9028 303.458 77.9028 294.377C77.9028 286.078 80.3665 279.615 84.6965 275.311C88.703 271.155 94.4142 268.848 101.046 268.848C107.678 268.848 113.227 270.845 117.557 274.542C121.564 278.238 124.04 283.461 124.04 289.763C124.04 291.301 124.04 292.988 123.891 294.216C123.741 294.985 123.741 295.605 123.741 296.213H92.1123C92.0998 311.744 96.8778 316.979 103.671 316.979ZM92.0998 291.599H109.992C109.992 284.528 108.91 280.223 107.367 277.296C105.824 274.529 103.659 273.45 101.046 273.45C98.5824 273.45 96.4174 274.529 94.8745 277.296C93.1823 280.223 92.0998 284.528 92.0998 291.599Z" fill="#FFFDFD"/>
<path d="M152.571 268.836C166.295 268.836 174.01 276.068 174.01 290.669V321.272H165.064L161.356 316.509H160.895C159.352 318.816 157.349 320.354 154.102 321.433C152.559 322.054 150.556 322.351 148.241 322.351C136.67 322.351 130.498 316.509 130.498 305.89C130.498 300.816 131.892 296.971 136.209 294.353C140.377 291.587 147.47 290.197 158.73 290.197H160.423C160.423 277.582 156.715 273.438 150.394 273.438C147.93 273.438 145.765 273.897 143.911 275.287C142.219 276.676 140.676 278.983 139.905 282.829H134.194C134.194 279.293 134.194 275.287 136.819 272.371C139.307 269.605 145.628 268.836 152.571 268.836ZM160.435 310.368V294.986H158.743C148.714 294.986 144.708 298.521 144.708 305.902C144.708 314.052 147.333 317.129 151.489 317.129C154.724 317.129 156.74 315.442 158.282 313.742C159.041 312.824 159.813 311.596 160.435 310.368Z" fill="#FFFDFD"/>
<path d="M205.166 321.135L187.423 281.923C185.569 277.928 184.188 275.311 182.795 273.772C181.401 272.085 179.858 271.155 178.166 271.155V268.997C178.477 268.997 178.937 268.997 179.858 268.848H182.023C186.192 268.848 190.049 269.307 193.284 271.155C196.681 273.003 199.605 276.39 202.23 281.923L211.338 301.92L225.684 269.778H231.395L209.024 321.147H205.166V321.135Z" fill="#FFFDFD"/>
<path d="M261.468 316.979C268.722 316.979 272.728 313.283 276.436 308.37L279.671 310.678C278.128 313.134 276.125 315.912 273.039 317.91C269.804 320.217 265.636 321.755 259.925 321.755C252.36 321.755 246.499 318.989 242.182 314.374C238.014 309.76 235.699 303.458 235.699 294.377C235.699 286.078 238.163 279.615 242.493 275.311C246.499 271.155 252.211 268.848 258.842 268.848C265.474 268.848 271.024 270.845 275.354 274.542C279.36 278.238 281.836 283.461 281.836 289.763C281.836 291.301 281.836 292.988 281.687 294.216C281.538 294.985 281.538 295.605 281.538 296.213H249.909C249.909 311.744 254.687 316.979 261.468 316.979ZM249.909 291.599H267.801C267.801 284.528 266.719 280.223 265.176 277.296C263.633 274.529 261.468 273.45 258.855 273.45C256.391 273.45 254.226 274.529 252.683 277.296C250.979 280.223 249.909 284.528 249.909 291.599Z" fill="#FFFDFD"/>
<path d="M316.242 274.07C311.613 274.07 308.378 275.46 306.524 277.296C306.673 277.606 306.673 278.214 306.835 278.685C307.146 279.603 307.295 281.141 307.295 282.841V321.445H293.571V283.461C293.571 280.384 293.26 277.618 292.339 275.77C291.419 273.921 289.403 273.003 286.317 273.003H285.396V269.778H295.724C300.502 269.778 302.978 270.857 304.521 273.772C305.753 272.544 307.457 271.316 309.921 270.386C312.384 269.468 315.632 268.848 319.788 268.848C332.902 268.848 339.845 274.542 339.845 288.076V321.445H326.121V287.914C326.109 277.755 321.94 274.07 316.242 274.07Z" fill="#FFFDFD"/>
</svg>
