<svg width="121" height="143" viewBox="0 0 121 143" fill="none" xmlns="http://www.w3.org/2000/svg">
<path d="M34.1893 29.623H5.34375V55.8185H34.1893V29.623Z" fill="#EE5F35"/>
<mask id="mask0_424_14218" style="mask-type:luminance" maskUnits="userSpaceOnUse" x="5" y="29" width="30" height="27">
<path d="M34.1893 29.623H5.34375V55.8185H34.1893V29.623Z" fill="white"/>
</mask>
<g mask="url(#mask0_424_14218)">
<path opacity="0.37" d="M34.1893 29.623H5.34375V55.8185H34.1893V29.623Z" fill="#272727"/>
</g>
<path d="M25.8997 29.623H5.34375V55.8185H25.8997V29.623Z" fill="#EE5F35"/>
<path d="M17.7098 29.623H13.293V36.9352H17.7098V29.623Z" fill="white"/>
<path d="M23.9548 39.0703H18.8359V41.6835H23.9548V39.0703Z" fill="white"/>
<path d="M21.6153 48.3778L16.3398 47.0723L15.562 50.2154L20.8374 51.5209L21.6153 48.3778Z" fill="white"/>
<path d="M55.6854 29.623H26.8398V55.8185H55.6854V29.623Z" fill="#EE5F35"/>
<mask id="mask1_424_14218" style="mask-type:luminance" maskUnits="userSpaceOnUse" x="26" y="29" width="30" height="27">
<path d="M55.6854 29.623H26.8398V55.8185H55.6854V29.623Z" fill="white"/>
</mask>
<g mask="url(#mask1_424_14218)">
<path opacity="0.37" d="M55.6854 29.623H26.8398V55.8185H55.6854V29.623Z" fill="#272727"/>
</g>
<path d="M47.3958 29.623H26.8398V55.8185H47.3958V29.623Z" fill="#EE5F35"/>
<path d="M39.2059 29.623H34.7891V36.9352H39.2059V29.623Z" fill="white"/>
<path d="M45.4548 39.0703H40.3359V41.6835H45.4548V39.0703Z" fill="white"/>
<path d="M43.1075 48.3798L37.832 47.0742L37.0542 50.2173L42.3296 51.5228L43.1075 48.3798Z" fill="white"/>
<path d="M77.1854 29.623H48.3398V55.8185H77.1854V29.623Z" fill="#EE5F35"/>
<mask id="mask2_424_14218" style="mask-type:luminance" maskUnits="userSpaceOnUse" x="48" y="29" width="30" height="27">
<path d="M77.1854 29.623H48.3398V55.8185H77.1854V29.623Z" fill="white"/>
</mask>
<g mask="url(#mask2_424_14218)">
<path opacity="0.37" d="M77.1854 29.623H48.3398V55.8185H77.1854V29.623Z" fill="#272727"/>
</g>
<path d="M68.8958 29.623H48.3398V55.8185H68.8958V29.623Z" fill="#EE5F35"/>
<path d="M60.702 29.623H56.2852V36.9352H60.702V29.623Z" fill="white"/>
<path d="M66.9509 39.0703H61.832V41.6835H66.9509V39.0703Z" fill="white"/>
<path d="M64.6036 48.3817L59.3281 47.0762L58.5503 50.2193L63.8257 51.5248L64.6036 48.3817Z" fill="white"/>
<path d="M98.6815 29.623H69.8359V55.8185H98.6815V29.623Z" fill="#EE5F35"/>
<mask id="mask3_424_14218" style="mask-type:luminance" maskUnits="userSpaceOnUse" x="69" y="29" width="30" height="27">
<path d="M98.6815 29.623H69.8359V55.8185H98.6815V29.623Z" fill="white"/>
</mask>
<g mask="url(#mask3_424_14218)">
<path opacity="0.37" d="M98.6815 29.623H69.8359V55.8185H98.6815V29.623Z" fill="#272727"/>
</g>
<path d="M90.3919 29.623H69.8359V55.8185H90.3919V29.623Z" fill="#EE5F35"/>
<path d="M82.1981 29.623H77.7812V36.9352H82.1981V29.623Z" fill="white"/>
<path d="M88.447 39.0703H83.3281V41.6835H88.447V39.0703Z" fill="white"/>
<path d="M86.1036 48.3837L80.8281 47.0781L80.0503 50.2212L85.3257 51.5268L86.1036 48.3837Z" fill="white"/>
<path d="M34.1893 65.5625H5.34375V91.758H34.1893V65.5625Z" fill="#EE5F35"/>
<mask id="mask4_424_14218" style="mask-type:luminance" maskUnits="userSpaceOnUse" x="5" y="65" width="30" height="27">
<path d="M34.1893 65.5625H5.34375V91.758H34.1893V65.5625Z" fill="white"/>
</mask>
<g mask="url(#mask4_424_14218)">
<path opacity="0.37" d="M34.1893 65.5625H5.34375V91.758H34.1893V65.5625Z" fill="#272727"/>
</g>
<path d="M25.8997 65.5625H5.34375V91.758H25.8997V65.5625Z" fill="#EE5F35"/>
<path d="M17.7098 65.5625H13.293V72.8747H17.7098V65.5625Z" fill="white"/>
<path d="M23.9548 75.0117H18.8359V77.6249H23.9548V75.0117Z" fill="white"/>
<path d="M21.6075 84.3173L16.332 83.0117L15.5542 86.1548L20.8296 87.4603L21.6075 84.3173Z" fill="white"/>
<path d="M55.6854 65.5625H26.8398V91.758H55.6854V65.5625Z" fill="#EE5F35"/>
<mask id="mask5_424_14218" style="mask-type:luminance" maskUnits="userSpaceOnUse" x="26" y="65" width="30" height="27">
<path d="M55.6854 65.5625H26.8398V91.758H55.6854V65.5625Z" fill="white"/>
</mask>
<g mask="url(#mask5_424_14218)">
<path opacity="0.37" d="M55.6854 65.5625H26.8398V91.758H55.6854V65.5625Z" fill="#272727"/>
</g>
<path d="M47.3958 65.5625H26.8398V91.758H47.3958V65.5625Z" fill="#EE5F35"/>
<path d="M39.2059 65.5625H34.7891V72.8747H39.2059V65.5625Z" fill="white"/>
<path d="M45.4548 75.0117H40.3359V77.6249H45.4548V75.0117Z" fill="white"/>
<path d="M43.1075 84.3192L37.832 83.0137L37.0542 86.1568L42.3296 87.4623L43.1075 84.3192Z" fill="white"/>
<path d="M77.1854 65.5625H48.3398V91.758H77.1854V65.5625Z" fill="#EE5F35"/>
<mask id="mask6_424_14218" style="mask-type:luminance" maskUnits="userSpaceOnUse" x="48" y="65" width="30" height="27">
<path d="M77.1854 65.5625H48.3398V91.758H77.1854V65.5625Z" fill="white"/>
</mask>
<g mask="url(#mask6_424_14218)">
<path opacity="0.37" d="M77.1854 65.5625H48.3398V91.758H77.1854V65.5625Z" fill="#272727"/>
</g>
<path d="M68.8958 65.5625H48.3398V91.758H68.8958V65.5625Z" fill="#EE5F35"/>
<path d="M60.702 65.5625H56.2852V72.8747H60.702V65.5625Z" fill="white"/>
<path d="M66.9509 75.0117H61.832V77.6249H66.9509V75.0117Z" fill="white"/>
<path d="M64.6036 84.3192L59.3281 83.0137L58.5503 86.1568L63.8257 87.4623L64.6036 84.3192Z" fill="white"/>
<path d="M98.6815 65.5625H69.8359V91.758H98.6815V65.5625Z" fill="#EE5F35"/>
<mask id="mask7_424_14218" style="mask-type:luminance" maskUnits="userSpaceOnUse" x="69" y="65" width="30" height="27">
<path d="M98.6815 65.5625H69.8359V91.758H98.6815V65.5625Z" fill="white"/>
</mask>
<g mask="url(#mask7_424_14218)">
<path opacity="0.37" d="M98.6815 65.5625H69.8359V91.758H98.6815V65.5625Z" fill="#272727"/>
</g>
<path d="M90.3919 65.5625H69.8359V91.758H90.3919V65.5625Z" fill="#EE5F35"/>
<path d="M82.1981 65.5625H77.7812V72.8747H82.1981V65.5625Z" fill="white"/>
<path d="M88.447 75.0117H83.3281V77.6249H88.447V75.0117Z" fill="white"/>
<path d="M86.0957 84.3212L80.8203 83.0156L80.0425 86.1587L85.3179 87.4643L86.0957 84.3212Z" fill="white"/>
<path d="M34.1893 101.502H5.34375V127.697H34.1893V101.502Z" fill="#EE5F35"/>
<mask id="mask8_424_14218" style="mask-type:luminance" maskUnits="userSpaceOnUse" x="5" y="101" width="30" height="27">
<path d="M34.1893 101.5H5.34375V127.695H34.1893V101.5Z" fill="white"/>
</mask>
<g mask="url(#mask8_424_14218)">
<path opacity="0.37" d="M34.1893 101.5H5.34375V127.695H34.1893V101.5Z" fill="#272727"/>
</g>
<path d="M25.8997 101.502H5.34375V127.697H25.8997V101.502Z" fill="#EE5F35"/>
<path d="M17.7098 101.502H13.293V108.814H17.7098V101.502Z" fill="white"/>
<path d="M23.9548 110.949H18.8359V113.562H23.9548V110.949Z" fill="white"/>
<path d="M21.6075 120.255L16.332 118.949L15.5542 122.092L20.8296 123.398L21.6075 120.255Z" fill="white"/>
<path d="M55.6854 101.502H26.8398V127.697H55.6854V101.502Z" fill="#EE5F35"/>
<mask id="mask9_424_14218" style="mask-type:luminance" maskUnits="userSpaceOnUse" x="26" y="101" width="30" height="27">
<path d="M55.6893 101.5H26.8438V127.695H55.6893V101.5Z" fill="white"/>
</mask>
<g mask="url(#mask9_424_14218)">
<path opacity="0.37" d="M55.6893 101.5H26.8438V127.695H55.6893V101.5Z" fill="#272727"/>
</g>
<path d="M47.3958 101.502H26.8398V127.697H47.3958V101.502Z" fill="#EE5F35"/>
<path d="M39.2059 101.502H34.7891V108.814H39.2059V101.502Z" fill="white"/>
<path d="M45.4548 110.949H40.3359V113.562H45.4548V110.949Z" fill="white"/>
<path d="M43.1075 120.257L37.832 118.951L37.0542 122.094L42.3296 123.4L43.1075 120.257Z" fill="white"/>
<path d="M77.1854 101.502H48.3398V127.697H77.1854V101.502Z" fill="#EE5F35"/>
<mask id="mask10_424_14218" style="mask-type:luminance" maskUnits="userSpaceOnUse" x="48" y="101" width="30" height="27">
<path d="M77.1854 101.5H48.3398V127.695H77.1854V101.5Z" fill="white"/>
</mask>
<g mask="url(#mask10_424_14218)">
<path opacity="0.37" d="M77.1854 101.5H48.3398V127.695H77.1854V101.5Z" fill="#272727"/>
</g>
<path d="M68.8958 101.502H48.3398V127.697H68.8958V101.502Z" fill="#EE5F35"/>
<path d="M60.702 101.502H56.2852V108.814H60.702V101.502Z" fill="white"/>
<path d="M66.9509 110.949H61.832V113.562H66.9509V110.949Z" fill="white"/>
<path d="M64.5997 120.259L59.3242 118.953L58.5464 122.096L63.8218 123.402L64.5997 120.259Z" fill="white"/>
<path d="M98.6815 101.502H69.8359V127.697H98.6815V101.502Z" fill="#EE5F35"/>
<mask id="mask11_424_14218" style="mask-type:luminance" maskUnits="userSpaceOnUse" x="69" y="101" width="30" height="27">
<path d="M98.6815 101.5H69.8359V127.695H98.6815V101.5Z" fill="white"/>
</mask>
<g mask="url(#mask11_424_14218)">
<path opacity="0.37" d="M98.6815 101.5H69.8359V127.695H98.6815V101.5Z" fill="#272727"/>
</g>
<path d="M90.3919 101.502H69.8359V127.697H90.3919V101.502Z" fill="#EE5F35"/>
<path d="M82.1981 101.502H77.7812V108.814H82.1981V101.502Z" fill="white"/>
<path d="M88.447 110.949H83.3281V113.562H88.447V110.949Z" fill="white"/>
<path d="M86.0957 120.261L80.8203 118.955L80.0425 122.098L85.3179 123.404L86.0957 120.261Z" fill="white"/>
<path d="M101.351 19.9961H0.585938V24.6984H101.351V19.9961Z" fill="#8D8D8D"/>
<path d="M101.351 54.9277H0.585938V59.6301H101.351V54.9277Z" fill="#8D8D8D"/>
<path d="M101.351 89.8574H0.585938V94.5598H101.351V89.8574Z" fill="#8D8D8D"/>
<path d="M101.351 124.789H0.585938V129.491H101.351V124.789Z" fill="#8D8D8D"/>
<path d="M120.495 0.179688H116.129V142.93H120.495V0.179688Z" fill="#8D8D8D"/>
<path d="M27.4563 0.179688H23.0898V142.93H27.4563V0.179688Z" fill="#8D8D8D"/>
<path d="M119.489 19.9961H99V24.6984H119.489V19.9961Z" fill="#8D8D8D"/>
<path d="M119.489 54.9277H99V59.6301H119.489V54.9277Z" fill="#8D8D8D"/>
<path d="M119.489 89.8574H99V94.5598H119.489V89.8574Z" fill="#8D8D8D"/>
<path d="M119.489 124.789H99V129.491H119.489V124.789Z" fill="#8D8D8D"/>
<path d="M4.61647 0.179688H0.25V142.93H4.61647V0.179688Z" fill="#8D8D8D"/>
<path d="M52.9837 0.179688H48.6172V142.93H52.9837V0.179688Z" fill="#8D8D8D"/>
<path d="M101.351 0.179688H96.9844V142.93H101.351V0.179688Z" fill="#8D8D8D"/>
</svg>
