<svg width="204" height="204" viewBox="0 0 204 204" fill="none" xmlns="http://www.w3.org/2000/svg">
<path d="M155.334 128.234C157.234 117.379 160.903 93.1914 160.903 93.1914C159.165 88.5278 159.461 80.8324 161.018 80.8891C162.574 80.9458 164.014 86.2819 164.014 86.2819C164.014 86.2819 168.262 75.2413 169.818 75.8061C171.375 76.3709 169.508 83.22 169.452 83.4372C169.531 83.2483 172.226 76.6844 174.01 77.3304C175.793 77.9764 173.226 84.5536 173.097 84.886C173.248 84.6008 175.804 79.786 177.234 80.3073C178.664 80.8287 175.322 87.3718 175.237 87.5399C175.345 87.4001 177.659 84.3496 178.743 84.8086C179.858 85.277 172.223 96.5763 172.223 96.5763C172.223 96.5763 169.2 130.627 168.067 135.204C166.688 140.812 163.67 145.489 157.831 145.489C152.873 145.489 147.389 142.384 144.254 140.094" fill="white"/>
<path d="M167.331 94.187C167.271 94.1863 167.213 94.1715 167.16 94.1438C167.107 94.1161 167.062 94.0763 167.027 94.0277C166.993 93.979 166.971 93.9229 166.962 93.864C166.953 93.805 166.959 93.7448 166.978 93.6884C167.968 90.7039 164.968 87.7214 164.938 87.693C164.866 87.6229 164.825 87.5272 164.824 87.4269C164.823 87.3267 164.862 87.2301 164.932 87.1585C165.002 87.0868 165.098 87.046 165.198 87.0449C165.298 87.0439 165.395 87.0827 165.467 87.1528C166.066 87.7685 166.582 88.4601 167.002 89.2098C167.932 90.8626 168.17 92.4946 167.696 93.932C167.67 94.0077 167.62 94.0731 167.555 94.1189C167.489 94.1647 167.411 94.1886 167.331 94.187Z" fill="#7B3A01"/>
<path d="M157.833 145.864C154.335 145.864 150.729 144.353 148.319 143.072C148.23 143.025 148.164 142.945 148.134 142.849C148.104 142.753 148.114 142.65 148.161 142.561C148.208 142.472 148.288 142.406 148.384 142.376C148.48 142.347 148.583 142.356 148.672 142.403C151.007 143.639 154.49 145.108 157.833 145.108C163.959 145.108 166.58 139.672 167.701 135.11C168.806 130.613 171.816 96.8811 171.847 96.5392C171.853 96.4755 171.875 96.4144 171.911 96.3617C175.122 91.6073 178.365 86.2467 178.477 85.1322C177.94 85.1435 176.711 86.2353 175.543 87.7578C175.486 87.8338 175.403 87.8856 175.309 87.9027C175.216 87.9199 175.119 87.9012 175.039 87.8503C174.96 87.8006 174.902 87.7232 174.876 87.6332C174.851 87.5432 174.86 87.4469 174.901 87.363C176.274 84.6883 177.493 81.5603 177.168 80.7519C177.139 80.6801 177.115 80.6706 177.1 80.665C176.469 80.4364 174.856 82.365 173.426 85.0661C173.384 85.1573 173.308 85.2282 173.214 85.2633C173.12 85.2983 173.016 85.2947 172.925 85.2531C172.834 85.2115 172.763 85.1354 172.728 85.0415C172.693 84.9477 172.697 84.8437 172.738 84.7525C173.452 82.9222 174.657 79.1425 174.113 77.9525C174.094 77.8957 174.062 77.8436 174.021 77.8C173.979 77.7563 173.929 77.722 173.873 77.6994C172.967 77.3708 171.051 80.5025 169.795 83.5947C169.761 83.6861 169.692 83.7605 169.604 83.8024C169.516 83.8443 169.415 83.8504 169.322 83.8193C169.229 83.7883 169.152 83.7225 169.107 83.6359C169.062 83.5493 169.052 83.4485 169.079 83.3548C170.069 79.6299 170.339 76.4131 169.682 76.177C169.659 76.177 168.889 76.2148 166.584 81.1882C165.385 83.776 164.37 86.4053 164.361 86.4318C164.333 86.5063 164.281 86.57 164.215 86.6137C164.148 86.6573 164.069 86.6787 163.989 86.6747C163.909 86.6707 163.833 86.6416 163.771 86.5915C163.709 86.5414 163.664 86.4729 163.643 86.3959C162.976 83.9592 161.775 81.3091 160.999 81.2827C160.925 81.2827 160.834 81.3941 160.799 81.4432C159.854 82.7465 159.729 88.9855 161.254 93.075C161.276 93.1353 161.283 93.2003 161.273 93.2639C161.237 93.5057 157.582 117.58 155.702 128.314C155.694 128.363 155.676 128.41 155.649 128.452C155.623 128.494 155.588 128.531 155.548 128.559C155.507 128.588 155.461 128.608 155.413 128.619C155.364 128.63 155.314 128.631 155.265 128.623C155.216 128.614 155.169 128.596 155.127 128.569C155.085 128.542 155.049 128.508 155.02 128.467C154.992 128.426 154.972 128.38 154.961 128.332C154.95 128.283 154.949 128.233 154.958 128.184C156.775 117.795 160.247 94.9261 160.511 93.2393C158.981 89.0384 159.025 82.603 160.187 80.9937C160.274 80.8488 160.397 80.7291 160.544 80.646C160.692 80.5629 160.858 80.5194 161.027 80.5195C162.38 80.5687 163.509 83.4454 164.049 85.1398C164.474 84.0876 165.183 82.3631 165.976 80.6801C168.32 75.6651 169.291 75.2269 169.943 75.4592C170.995 75.837 170.927 78.0168 170.545 80.2494C171.563 78.404 172.929 76.5472 174.134 76.9835C175.579 77.5087 174.876 80.4478 174.472 81.9305C175.396 80.6725 176.473 79.6336 177.36 79.9566C177.478 79.9995 177.585 80.0672 177.675 80.1552C177.764 80.2432 177.833 80.3495 177.878 80.4667C178.241 81.396 177.472 83.5625 176.694 85.3494C177.46 84.66 178.269 84.1915 178.89 84.4541C178.966 84.4865 179.033 84.5354 179.087 84.5971C179.141 84.6589 179.18 84.7321 179.202 84.8111C179.295 85.1265 179.489 85.7801 175.991 91.4222C174.48 93.8778 172.895 96.2351 172.591 96.696C172.377 99.0854 169.535 130.807 168.435 135.282C166.735 142.209 163.069 145.864 157.833 145.864Z" fill="#7B3A01"/>
<path d="M66.6594 184.308C67.4263 162.527 69.2226 141.183 71.6593 120.108L50.2298 121.143C47.7743 111.089 51.1233 96.79 51.1233 96.79L93.7838 93.6885L110.123 94.1777C114.732 94.3874 126.008 95.566 133.167 100.398C146.361 109.298 155.781 124.345 155.781 124.345C151.586 132.601 146.353 138.903 141 141.534C127.023 126.931 127.669 127.622 127.678 127.556C124.746 145.123 125.851 165.629 126.439 186.369C102.036 188.001 80.9809 187.893 66.6594 184.308Z" fill="#FF7700"/>
<path d="M49.8519 119.742C49.8519 119.742 35.4491 121.078 34.397 110.035C33.615 101.803 41.0081 96.2463 47.1584 89.2574C54.1472 81.307 61.7028 74.082 61.7028 74.082L70.6372 81.1011L49.6271 108.146L49.8519 119.742Z" fill="white"/>
<path d="M49.6279 108.524C49.5571 108.524 49.4877 108.504 49.4276 108.467C49.3675 108.429 49.3191 108.376 49.288 108.312C49.2569 108.248 49.2443 108.177 49.2516 108.107C49.2589 108.036 49.2859 107.969 49.3295 107.914L68.6622 83.0161C68.7246 82.94 68.8143 82.8913 68.9121 82.8803C69.0098 82.8692 69.1081 82.8968 69.1858 82.9571C69.2636 83.0174 69.3148 83.1057 69.3285 83.2031C69.3422 83.3006 69.3173 83.3995 69.2591 83.4789L49.9264 108.376C49.8912 108.422 49.846 108.459 49.7942 108.485C49.7425 108.51 49.6856 108.524 49.6279 108.524ZM44.3409 119.827C36.4491 118.454 34.3732 113.763 34.0219 110.071C33.2191 101.641 40.7671 95.9588 46.8664 89.002C51.6849 83.5148 56.7943 78.3562 59.4105 75.7685C59.4818 75.6978 59.5784 75.6584 59.6788 75.659C59.7285 75.6592 59.7777 75.6693 59.8236 75.6886C59.8694 75.7078 59.911 75.7359 59.946 75.7713C59.9809 75.8066 60.0086 75.8485 60.0274 75.8946C60.0462 75.9406 60.0557 75.9899 60.0555 76.0396C60.0552 76.0894 60.0451 76.1385 60.0259 76.1844C60.0066 76.2302 59.9785 76.2718 59.9431 76.3068C57.3327 78.8851 52.2365 84.0305 47.433 89.5007C41.4094 96.3592 34.0011 101.967 34.7661 109.999C35.3574 116.215 40.3648 118.369 44.4618 119.083C44.5108 119.091 44.5577 119.109 44.5998 119.135C44.6419 119.162 44.6783 119.197 44.707 119.237C44.7356 119.278 44.756 119.324 44.7669 119.372C44.7778 119.421 44.7789 119.471 44.7704 119.52C44.7618 119.569 44.7436 119.616 44.7169 119.658C44.6901 119.7 44.6554 119.736 44.6146 119.765C44.5738 119.793 44.5278 119.813 44.4792 119.824C44.4306 119.835 44.3804 119.836 44.3315 119.827H44.3409ZM73.7547 83.9757C73.7547 83.9568 74.1457 84.2817 63.1656 75.7023C62.6401 75.2904 62.2993 74.6869 62.2178 74.0241C62.1364 73.3613 62.321 72.6933 62.7311 72.1663L78.5015 51.9836C78.9125 51.4573 79.5158 51.1159 80.1786 51.0344C80.8413 50.953 81.5093 51.1381 82.0356 51.5491L92.6266 59.8225C93.1521 60.2345 93.4929 60.8379 93.5743 61.5007C93.6558 62.1635 93.4712 62.8315 93.061 63.3585L77.2907 83.5412C76.879 84.0672 76.2755 84.4083 75.6125 84.4897C74.9496 84.5712 74.2814 84.3863 73.7547 83.9757ZM74.2212 83.3807C74.5898 83.6681 75.0574 83.7976 75.5214 83.7405C75.9853 83.6835 76.4077 83.4447 76.6957 83.0766L92.4641 62.8995C92.7516 62.5309 92.881 62.0633 92.824 61.5993C92.767 61.1354 92.5282 60.713 92.16 60.425L81.5709 52.1517C81.2023 51.8642 80.7347 51.7348 80.2708 51.7918C79.8068 51.8488 79.3845 52.0876 79.0965 52.4558L63.3261 72.6329C63.0392 73.0017 62.91 73.4692 62.967 73.9329C63.024 74.3967 63.2625 74.819 63.6302 75.1073C74.2345 83.3845 74.2212 83.3996 74.2212 83.3807Z" fill="#7B3A01"/>
<path d="M91.449 61.2297L80.9553 53.0311C80.6758 52.8128 80.2722 52.8623 80.0538 53.1418L64.2335 73.3909C64.0151 73.6704 64.0647 74.074 64.3442 74.2924L74.8379 82.4909C75.1174 82.7093 75.521 82.6597 75.7393 82.3802L91.5597 62.1312C91.778 61.8517 91.7285 61.4481 91.449 61.2297Z" fill="#D16608"/>
<path d="M147.271 75.4966C145.963 75.4966 144.685 75.1089 143.598 74.3825C142.511 73.656 141.663 72.6235 141.163 71.4155C140.663 70.2075 140.532 68.8782 140.787 67.5958C141.042 66.3133 141.672 65.1353 142.596 64.2108C143.521 63.2862 144.699 62.6565 145.981 62.4014C147.264 62.1464 148.593 62.2773 149.801 62.7777C151.009 63.278 152.041 64.1254 152.768 65.2126C153.494 66.2998 153.882 67.578 153.882 68.8855C153.882 70.6389 153.185 72.3205 151.946 73.5603C150.706 74.8001 149.024 75.4966 147.271 75.4966ZM147.271 63.03C146.113 63.03 144.981 63.3734 144.018 64.0168C143.055 64.6602 142.304 65.5747 141.861 66.6447C141.418 67.7147 141.302 68.892 141.528 70.0279C141.754 71.1638 142.311 72.2071 143.13 73.026C143.949 73.8449 144.993 74.4026 146.129 74.6286C147.264 74.8545 148.442 74.7385 149.512 74.2954C150.582 73.8522 151.496 73.1016 152.14 72.1387C152.783 71.1758 153.126 70.0436 153.126 68.8855C153.125 67.3332 152.508 65.8448 151.41 64.7475C150.312 63.6502 148.823 63.0337 147.271 63.0337V63.03ZM16.9073 88.6716C16.8315 88.6729 16.7571 88.6512 16.6937 88.6096C16.6303 88.5679 16.581 88.5082 16.552 88.4381C16.5231 88.368 16.5159 88.2908 16.5314 88.2165C16.547 88.1423 16.5845 88.0745 16.6391 88.0219L27.4303 77.2325C27.5012 77.1616 27.5973 77.1218 27.6976 77.1218C27.7978 77.1218 27.894 77.1616 27.9649 77.2325C28.0358 77.3034 28.0756 77.3996 28.0756 77.4998C28.0756 77.6001 28.0358 77.6962 27.9649 77.7671L17.1737 88.5602C17.1031 88.6311 17.0074 88.6712 16.9073 88.6716Z" fill="#FF7700"/>
<path d="M27.6976 88.672C27.5975 88.6716 27.5017 88.6315 27.4312 88.5606L16.64 77.7712C16.5691 77.7004 16.5293 77.6042 16.5293 77.504C16.5293 77.4037 16.5691 77.3076 16.64 77.2367C16.7109 77.1658 16.807 77.126 16.9073 77.126C17.0075 77.126 17.1037 77.1658 17.1746 77.2367L27.9658 88.0222C28.0204 88.0749 28.0579 88.1427 28.0734 88.2169C28.089 88.2912 28.0818 88.3683 28.0529 88.4384C28.0239 88.5085 27.9746 88.5683 27.9112 88.61C27.8478 88.6516 27.7734 88.6732 27.6976 88.672ZM189.927 146.548H175.082C175.016 146.548 174.951 146.53 174.893 146.497C174.836 146.464 174.788 146.416 174.755 146.359C174.722 146.301 174.704 146.236 174.704 146.17C174.705 146.103 174.722 146.038 174.755 145.981L182.177 133.125C182.21 133.067 182.257 133.02 182.315 132.986C182.372 132.953 182.438 132.935 182.504 132.935C182.571 132.935 182.636 132.953 182.694 132.986C182.751 133.02 182.799 133.067 182.832 133.125L190.253 145.981C190.287 146.038 190.304 146.103 190.304 146.17C190.304 146.236 190.287 146.301 190.254 146.359C190.22 146.416 190.173 146.464 190.115 146.497C190.058 146.53 189.993 146.548 189.927 146.548ZM175.737 145.792H189.267L182.5 134.07L175.737 145.792Z" fill="#FF7700"/>
<path d="M106.981 32.3637C106.928 32.3639 106.876 32.353 106.827 32.3317C106.779 32.3104 106.735 32.2792 106.7 32.24C106.664 32.2008 106.637 32.1546 106.621 32.1043C106.604 32.054 106.598 32.0008 106.603 31.9481L107.459 23.1327C107.464 23.083 107.478 23.0348 107.502 22.9908C107.525 22.9468 107.557 22.9078 107.595 22.876C107.634 22.8443 107.678 22.8204 107.725 22.8058C107.773 22.7912 107.823 22.7861 107.873 22.7908C107.922 22.7955 107.971 22.8099 108.015 22.8333C108.059 22.8566 108.098 22.8884 108.129 22.9268C108.161 22.9652 108.185 23.0095 108.2 23.0571C108.214 23.1048 108.219 23.1548 108.215 23.2044L107.359 32.0218C107.35 32.1156 107.306 32.2027 107.236 32.266C107.167 32.3292 107.076 32.3641 106.981 32.3637ZM112.884 34.5755C112.815 34.5756 112.747 34.5565 112.687 34.5204C112.628 34.4843 112.58 34.4326 112.548 34.3709C112.516 34.3093 112.502 34.2401 112.507 34.1709C112.512 34.1017 112.536 34.0352 112.576 33.9787L117.727 26.7707C117.756 26.7291 117.792 26.6936 117.834 26.6663C117.876 26.6389 117.924 26.6203 117.973 26.6116C118.023 26.6028 118.074 26.604 118.123 26.6152C118.172 26.6264 118.218 26.6472 118.259 26.6766C118.3 26.7059 118.335 26.7431 118.361 26.786C118.388 26.8289 118.405 26.8767 118.413 26.9265C118.42 26.9762 118.418 27.027 118.406 27.0758C118.393 27.1247 118.371 27.1705 118.341 27.2108L113.192 34.4169C113.157 34.466 113.111 34.506 113.057 34.5336C113.004 34.5612 112.944 34.5756 112.884 34.5755ZM115.995 39.855C115.909 39.855 115.825 39.8255 115.758 39.7714C115.691 39.7172 115.644 39.6417 115.626 39.5574C115.607 39.4731 115.618 39.3851 115.657 39.3079C115.696 39.2308 115.76 39.1692 115.838 39.1334L124.797 35.0591C124.842 35.0385 124.891 35.027 124.941 35.0253C124.99 35.0235 125.04 35.0316 125.086 35.0489C125.133 35.0663 125.175 35.0926 125.212 35.1265C125.248 35.1603 125.277 35.201 125.298 35.2461C125.318 35.2912 125.33 35.34 125.332 35.3896C125.333 35.4392 125.325 35.4886 125.308 35.5351C125.291 35.5816 125.264 35.6242 125.23 35.6605C125.197 35.6968 125.156 35.7261 125.111 35.7467C115.519 40.1043 116.116 39.855 115.995 39.855Z" fill="#FF7802"/>
<path d="M183.577 54.8664H131.089C131.017 54.8665 130.946 54.8459 130.886 54.8072C130.825 54.7685 130.777 54.7132 130.746 54.6479C130.716 54.5826 130.705 54.51 130.714 54.4386C130.724 54.3672 130.754 54.3 130.8 54.245L137.914 45.7884V19.9975C137.915 18.8362 138.377 17.723 139.198 16.9018C140.019 16.0807 141.133 15.6187 142.294 15.6172H183.528C184.69 15.6182 185.803 16.08 186.625 16.9013C187.446 17.7225 187.908 18.8361 187.909 19.9975V50.4861C187.907 51.6389 187.452 52.7448 186.641 53.5646C185.831 54.3843 184.73 54.852 183.577 54.8664ZM131.905 54.1109H183.528C184.489 54.1099 185.411 53.7276 186.09 53.0481C186.77 52.3685 187.152 51.4471 187.153 50.4861V19.9975C187.152 19.0365 186.77 18.1151 186.09 17.4355C185.411 16.756 184.489 16.3737 183.528 16.3727H142.3C141.339 16.3737 140.417 16.756 139.738 17.4355C139.058 18.1151 138.676 19.0365 138.675 19.9975V45.9263C138.675 46.0155 138.643 46.1018 138.586 46.17L131.905 54.1109Z" fill="#D16608"/>
<path d="M177.556 27.8454H147.866C147.766 27.8454 147.67 27.8056 147.599 27.7348C147.528 27.6639 147.488 27.5678 147.488 27.4676C147.488 27.3674 147.528 27.2713 147.599 27.2005C147.67 27.1296 147.766 27.0898 147.866 27.0898H177.556C177.656 27.0898 177.752 27.1296 177.823 27.2005C177.894 27.2713 177.933 27.3674 177.933 27.4676C177.933 27.5678 177.894 27.6639 177.823 27.7348C177.752 27.8056 177.656 27.8454 177.556 27.8454ZM177.556 36.0375H147.866C147.766 36.0375 147.67 35.9977 147.599 35.9269C147.528 35.856 147.488 35.7599 147.488 35.6597C147.488 35.5595 147.528 35.4635 147.599 35.3926C147.67 35.3218 147.766 35.282 147.866 35.282H177.556C177.656 35.282 177.752 35.3218 177.823 35.3926C177.894 35.4635 177.933 35.5595 177.933 35.6597C177.933 35.7599 177.894 35.856 177.823 35.9269C177.752 35.9977 177.656 36.0375 177.556 36.0375ZM169.558 44.2315H147.866C147.766 44.2315 147.67 44.1917 147.599 44.1209C147.528 44.05 147.488 43.9539 147.488 43.8537C147.488 43.7535 147.528 43.6574 147.599 43.5866C147.67 43.5158 147.766 43.476 147.866 43.476H169.558C169.658 43.476 169.754 43.5158 169.825 43.5866C169.896 43.6574 169.936 43.7535 169.936 43.8537C169.936 43.9539 169.896 44.05 169.825 44.1209C169.754 44.1917 169.658 44.2315 169.558 44.2315Z" fill="#D16608"/>
<path d="M140.722 141.799L122.043 122.27C122.006 122.234 121.977 122.192 121.957 122.145C121.937 122.098 121.927 122.048 121.927 121.997C121.927 121.946 121.937 121.895 121.957 121.848C121.977 121.801 122.007 121.759 122.044 121.724C122.081 121.689 122.124 121.661 122.172 121.643C122.22 121.625 122.271 121.617 122.322 121.62C122.372 121.622 122.422 121.634 122.468 121.657C122.514 121.679 122.555 121.71 122.589 121.748L141.079 141.073C146.087 138.499 151.138 132.585 155.344 124.366C154.23 122.64 145.155 108.94 132.953 100.704C128.337 97.5875 121.998 96.0631 117.491 95.3303C117.439 95.3253 117.389 95.3098 117.344 95.2848C117.299 95.2598 117.259 95.2258 117.228 95.1849C117.196 95.1439 117.174 95.097 117.161 95.0469C117.148 94.9968 117.146 94.9447 117.154 94.8937C117.163 94.8427 117.181 94.7939 117.209 94.7504C117.237 94.7069 117.273 94.6696 117.316 94.6408C117.359 94.6119 117.408 94.5922 117.458 94.5828C117.509 94.5734 117.561 94.5745 117.612 94.586C122.192 95.3284 128.647 96.8848 133.376 100.077C146.485 108.926 156.005 123.992 156.1 124.143C156.135 124.199 156.156 124.264 156.159 124.33C156.162 124.396 156.147 124.462 156.117 124.521C151.748 133.121 146.438 139.287 141.168 141.882C141.095 141.918 141.012 141.93 140.931 141.915C140.851 141.9 140.778 141.859 140.722 141.799ZM126.437 186.758C126.338 186.758 126.244 186.72 126.173 186.652C126.103 186.583 126.062 186.49 126.059 186.392C125.541 168.096 124.599 150.514 126.323 134.564C126.334 134.464 126.384 134.372 126.463 134.309C126.541 134.246 126.641 134.216 126.742 134.227C126.842 134.238 126.934 134.288 126.997 134.367C127.06 134.445 127.09 134.545 127.079 134.646C125.349 150.648 126.312 168.491 126.816 186.369C126.818 186.42 126.809 186.47 126.791 186.518C126.772 186.565 126.744 186.608 126.709 186.644C126.674 186.681 126.631 186.709 126.584 186.729C126.538 186.748 126.487 186.758 126.437 186.758ZM50.2293 121.52C50.145 121.52 50.063 121.491 49.9966 121.439C49.9302 121.387 49.8831 121.314 49.8629 121.233C49.0828 118.042 48.8013 114.111 49.0261 109.55C49.0285 109.5 49.0406 109.452 49.0617 109.407C49.0829 109.362 49.1127 109.321 49.1495 109.288C49.1862 109.255 49.2292 109.229 49.2759 109.212C49.3226 109.195 49.3722 109.188 49.4218 109.19C49.4714 109.192 49.5201 109.204 49.565 109.226C49.61 109.247 49.6503 109.277 49.6837 109.313C49.7171 109.35 49.743 109.393 49.7598 109.44C49.7766 109.486 49.784 109.536 49.7817 109.586C49.5682 113.93 49.8194 117.685 50.5259 120.749L65.9222 120.007C65.9718 120.004 66.0214 120.012 66.0682 120.029C66.1149 120.045 66.1579 120.071 66.1946 120.105C66.2314 120.138 66.2612 120.178 66.2823 120.223C66.3035 120.268 66.3156 120.317 66.3179 120.367C66.3203 120.416 66.3129 120.466 66.2961 120.512C66.2793 120.559 66.2534 120.602 66.22 120.639C66.1866 120.676 66.1463 120.705 66.1013 120.727C66.0564 120.748 66.0077 120.76 65.9581 120.762C47.9098 121.633 50.4768 121.52 50.2293 121.52ZM61.5457 96.4088C61.4455 96.4126 61.3479 96.3764 61.2744 96.3082C61.2009 96.24 61.1575 96.1454 61.1537 96.0452C61.15 95.945 61.1862 95.8474 61.2544 95.7739C61.3225 95.7004 61.4171 95.657 61.5173 95.6533L86.4148 93.8418C86.4644 93.8382 86.5142 93.8444 86.5614 93.8601C86.6086 93.8757 86.6523 93.9006 86.6899 93.9331C86.7276 93.9656 86.7584 94.0053 86.7807 94.0497C86.803 94.0942 86.8164 94.1426 86.8199 94.1922C86.8235 94.2418 86.8173 94.2916 86.8017 94.3389C86.786 94.3861 86.7612 94.4297 86.7287 94.4674C86.6961 94.505 86.6565 94.5358 86.612 94.5581C86.5676 94.5804 86.5192 94.5938 86.4696 94.5974L61.5457 96.4088ZM66.6589 184.686C66.6081 184.686 66.5579 184.676 66.5112 184.656C66.4645 184.636 66.4222 184.607 66.387 184.571C66.3517 184.534 66.3242 184.491 66.306 184.444C66.2878 184.396 66.2793 184.346 66.2811 184.295C67.0688 161.955 68.986 138.584 72.1367 112.829C72.1427 112.779 72.1585 112.731 72.1831 112.688C72.2077 112.644 72.2407 112.606 72.28 112.575C72.3194 112.545 72.3645 112.522 72.4126 112.508C72.4608 112.495 72.5111 112.491 72.5607 112.497C72.6103 112.504 72.6583 112.519 72.7018 112.544C72.7453 112.568 72.7835 112.601 72.8143 112.641C72.8451 112.68 72.8678 112.725 72.8812 112.773C72.8946 112.822 72.8983 112.872 72.8922 112.921C69.7378 138.65 67.8206 162.004 67.0367 184.321C67.0332 184.419 66.9919 184.512 66.9215 184.58C66.851 184.648 66.7568 184.686 66.6589 184.686Z" fill="#7B3A01"/>
<path d="M111.633 70.8574L110.122 94.172C110.122 94.172 102.404 104.147 95.8454 102.772C92.0507 101.977 93.5599 94.0341 93.5599 94.0341L96.1552 83.1862L111.633 70.8574Z" fill="white"/>
<path d="M95.7675 103.142C91.6591 102.281 93.123 94.3023 93.191 93.9642L95.7901 83.0974C95.8145 83.0012 95.8759 82.9184 95.9608 82.867C96.0458 82.8156 96.1476 82.7998 96.2441 82.8229C96.3407 82.8459 96.4243 82.9061 96.4769 82.9904C96.5294 83.0746 96.5467 83.1762 96.5249 83.2731L93.9296 94.1229C93.7045 95.4356 93.614 96.7679 93.6595 98.099C93.7803 100.666 94.5416 102.113 95.9261 102.402C101.855 103.647 108.959 95.0144 109.755 94.0303L110.248 85.5813C110.251 85.5317 110.263 85.4831 110.285 85.4384C110.306 85.3936 110.337 85.3536 110.374 85.3205C110.411 85.2875 110.454 85.262 110.501 85.2457C110.548 85.2293 110.598 85.2224 110.647 85.2253C110.697 85.2281 110.745 85.2407 110.79 85.2623C110.835 85.2839 110.875 85.3142 110.908 85.3513C110.941 85.3884 110.966 85.4316 110.983 85.4785C110.999 85.5255 111.006 85.5751 111.003 85.6247L110.501 94.1946C110.497 94.2703 110.47 94.3429 110.423 94.4024C109.001 96.1714 107.417 97.803 105.69 99.2758C102.945 101.597 99.2751 103.877 95.7675 103.142Z" fill="#7B3A01"/>
<path d="M101.497 84.3087C96.5766 86.4922 91.0383 87.2799 86.386 86.2599C76.1331 84.0083 78.5244 70.2667 79.2932 61.5778C80.555 47.3393 90.9911 44.2227 101.015 46.9521C111.04 49.6816 116.801 60.6031 113.877 71.3433C113.068 74.3146 111.382 76.9533 109.155 79.169" fill="white"/>
<path d="M86.3219 86.6273C76.6414 84.5023 77.8219 72.6269 78.6946 63.9607C78.7796 63.1144 78.8589 62.3173 78.9269 61.5486C79.469 55.4304 81.6828 50.9708 85.5097 48.3131C89.4858 45.544 95.0335 44.932 101.129 46.5923C111.212 49.3369 117.277 60.351 114.255 71.4482C113.463 74.3609 111.839 77.0488 109.429 79.442C109.358 79.5126 109.261 79.5521 109.161 79.5518C109.061 79.5514 108.965 79.5112 108.894 79.4401C108.824 79.369 108.784 79.2727 108.784 79.1724C108.785 79.0722 108.825 78.9762 108.896 78.9055C111.212 76.6087 112.768 74.0322 113.526 71.2499C116.38 60.7665 110.817 50.0131 100.931 47.3214C95.0448 45.7102 89.7219 46.2882 85.9309 48.9213C82.2986 51.4524 80.1925 55.7213 79.6711 61.6052C78.8457 70.9023 76.7169 83.743 86.4711 85.885C90.9478 86.8672 96.367 86.1646 101.342 83.9564C101.388 83.9329 101.438 83.9189 101.489 83.9154C101.541 83.9119 101.592 83.9189 101.641 83.936C101.689 83.9531 101.734 83.98 101.772 84.0149C101.809 84.0498 101.84 84.0921 101.861 84.1391C101.881 84.1861 101.892 84.2369 101.893 84.2883C101.894 84.3398 101.884 84.3908 101.864 84.4382C101.844 84.4857 101.815 84.5286 101.777 84.5643C101.74 84.6 101.697 84.6278 101.648 84.6459C96.9413 86.7426 91.2935 87.721 86.3219 86.6273Z" fill="#7B3A01"/>
<path d="M87.8347 74.3428C87.7043 74.3428 86.0535 74.3201 85.6511 73.1962C85.2582 72.1025 87.2302 70.6292 87.8441 70.2023C87.9265 70.1452 88.0283 70.1232 88.1269 70.1411C88.2256 70.1589 88.3131 70.2153 88.3702 70.2977C88.4273 70.3801 88.4493 70.4818 88.4314 70.5805C88.4135 70.6791 88.3572 70.7666 88.2748 70.8238C87.2642 71.5245 86.2329 72.5804 86.3614 72.9412C86.5351 73.4229 87.353 73.5872 87.8366 73.5872C87.9368 73.5872 88.0329 73.627 88.1037 73.6978C88.1745 73.7687 88.2143 73.8648 88.2143 73.965C88.2143 74.0652 88.1745 74.1613 88.1037 74.2321C88.0329 74.303 87.9368 74.3428 87.8366 74.3428H87.8347ZM83.545 67.7675C83.4873 67.7674 83.4303 67.7541 83.3785 67.7285C83.3267 67.7029 83.2815 67.6658 83.2463 67.62C83.2111 67.5742 83.1868 67.521 83.1754 67.4644C83.164 67.4078 83.1657 67.3493 83.1805 67.2934L83.5582 65.8881C83.5691 65.8384 83.5898 65.7915 83.6192 65.75C83.6486 65.7086 83.6861 65.6735 83.7294 65.6469C83.7727 65.6202 83.8209 65.6026 83.8711 65.5951C83.9214 65.5875 83.9726 65.5902 84.0218 65.6029C84.071 65.6156 84.1172 65.6381 84.1575 65.6691C84.1978 65.7 84.2314 65.7388 84.2564 65.783C84.2813 65.8273 84.2971 65.8762 84.3028 65.9267C84.3084 65.9772 84.3038 66.0283 84.2892 66.077L83.9115 67.4823C83.8909 67.5639 83.8436 67.6362 83.7772 67.6879C83.7109 67.7395 83.6291 67.7676 83.545 67.7675ZM84.2458 61.8988C84.1728 61.8986 84.1014 61.8773 84.0403 61.8374C83.9791 61.7975 83.9309 61.7408 83.9013 61.674C83.8717 61.6073 83.8621 61.5334 83.8736 61.4613C83.8852 61.3893 83.9173 61.3221 83.9662 61.2679C84.3327 60.8618 85.3073 60.2611 86.3651 60.8901C86.4463 60.9437 86.5036 61.0265 86.5252 61.1213C86.5468 61.2161 86.531 61.3156 86.4812 61.3991C86.4313 61.4826 86.3511 61.5436 86.2574 61.5694C86.1636 61.5953 86.0635 61.584 85.9779 61.538C85.1808 61.0601 84.5537 61.7401 84.5272 61.7684C84.4922 61.8088 84.449 61.8413 84.4005 61.8638C84.352 61.8863 84.2993 61.8982 84.2458 61.8988ZM94.1549 69.6319C94.0969 69.6318 94.0398 69.6185 93.9878 69.5928C93.9358 69.5671 93.8905 69.5298 93.8552 69.4838C93.82 69.4378 93.7958 69.3843 93.7845 69.3274C93.7733 69.2705 93.7753 69.2118 93.7903 69.1559L94.1681 67.7505C94.179 67.7009 94.1997 67.6539 94.2291 67.6125C94.2585 67.571 94.296 67.5359 94.3393 67.5093C94.3825 67.4827 94.4308 67.4651 94.481 67.4575C94.5313 67.4499 94.5825 67.4526 94.6317 67.4653C94.6809 67.478 94.7271 67.5005 94.7674 67.5315C94.8077 67.5625 94.8413 67.6012 94.8663 67.6455C94.8912 67.6898 94.907 67.7386 94.9127 67.7891C94.9183 67.8396 94.9137 67.8907 94.8991 67.9394L94.5213 69.3448C94.5011 69.4267 94.454 69.4994 94.3876 69.5515C94.3212 69.6035 94.2393 69.6318 94.1549 69.6319ZM96.7332 63.9199C96.67 63.9198 96.6079 63.9038 96.5524 63.8734C96.497 63.8431 96.45 63.7993 96.4159 63.7461C96.3611 63.663 95.8625 62.949 95.0219 63.2739C94.9751 63.2955 94.9244 63.3073 94.8729 63.3085C94.8213 63.3098 94.7701 63.3005 94.7223 63.2812C94.6745 63.262 94.6311 63.2331 94.5949 63.1964C94.5586 63.1598 94.5303 63.1161 94.5116 63.0681C94.4929 63.02 94.4842 62.9687 94.486 62.9172C94.4879 62.8657 94.5003 62.8151 94.5224 62.7685C94.5446 62.722 94.576 62.6805 94.6148 62.6465C94.6536 62.6126 94.6989 62.587 94.748 62.5712C95.8983 62.1235 96.7578 62.8772 97.0525 63.34C97.0886 63.3971 97.1088 63.4629 97.1109 63.5305C97.113 63.5981 97.0969 63.665 97.0642 63.7243C97.0316 63.7835 96.9837 63.8329 96.9255 63.8673C96.8673 63.9017 96.8009 63.9199 96.7332 63.9199ZM84.9296 77.399C84.9131 77.3318 84.9153 77.2614 84.9361 77.1954C84.9569 77.1294 84.9954 77.0704 85.0474 77.0248C85.0995 76.9791 85.163 76.9487 85.2312 76.9368C85.2993 76.9248 85.3695 76.9318 85.4339 76.957C86.0006 77.1799 88.4297 77.7125 91.2687 77.4764C91.3312 77.4712 91.3941 77.4816 91.4517 77.5067C91.5092 77.5319 91.5595 77.571 91.5982 77.6205C91.6368 77.67 91.6625 77.7283 91.6729 77.7902C91.6833 77.8521 91.6781 77.9157 91.6578 77.9751C90.4262 81.5791 85.9061 81.3298 84.9296 77.399ZM85.8891 77.875C86.2102 78.6154 86.9035 79.6694 88.271 79.7639C89.6386 79.8583 90.3488 78.9233 90.7039 78.2754C89.0883 78.3565 87.4691 78.2218 85.8891 77.875Z" fill="#7B3A01"/>
<path d="M91.2989 77.8516C88.3466 78.1028 85.8797 77.54 85.2941 77.3076C85.5302 78.2615 86.3538 80.0106 88.2446 80.1409C89.9823 80.2524 90.9513 78.8678 91.2989 77.8516ZM110.367 84.0037C109.784 83.2482 110.071 81.4216 110.59 78.4995C111.147 75.3639 111.837 71.4879 110.42 70.8571C110.054 71.1291 109.534 71.6126 109.03 72.0754C107.589 73.3976 107.181 73.7263 106.792 73.5733C106.709 73.5394 106.637 73.4824 106.585 73.4091C106.534 73.3358 106.504 73.2492 106.501 73.1596C106.078 67.5156 101.778 65.4548 103.025 58.9457C99.712 59.6616 89.0266 59.4784 80.7211 55.1472C74.943 52.8654 74.8051 43.2472 78.496 39.4127C86.214 31.3868 111.714 33.5081 115.96 48.0412C127.105 50.9689 124.538 75.9382 111.238 84.2946C110.992 84.4533 110.575 84.2701 110.367 84.0037ZM110.452 70.0713C112.751 70.6625 111.997 74.8974 111.334 78.6317C111.187 79.4591 110.464 83.0782 110.987 83.5655C123.871 75.2978 126.026 51.1616 115.571 48.7325C115.505 48.7172 115.444 48.6842 115.394 48.637C115.345 48.5897 115.31 48.5301 115.292 48.4643C111.408 34.3392 86.4104 32.2841 79.0419 39.9473C75.6872 43.4342 75.7703 52.4139 81.0158 54.4615C81.3936 54.6088 86.1649 57.4516 94.782 58.3092C99.202 58.7493 102.474 58.4338 103.386 58.0693C103.449 58.0457 103.517 58.0395 103.584 58.0512C103.65 58.0629 103.712 58.0921 103.763 58.1358C103.815 58.1796 103.853 58.2362 103.875 58.2999C103.897 58.3636 103.902 58.432 103.888 58.4981C102.351 64.9977 106.58 66.9754 107.209 72.6647C108.002 72.0527 109.406 70.604 110.146 70.1185C110.191 70.0904 110.242 70.0722 110.295 70.065C110.348 70.0579 110.401 70.0619 110.452 70.077V70.0713Z" fill="#7B3A01"/>
<path d="M103.526 58.4112C101.915 65.2301 106.435 67.2191 106.879 73.1313C106.926 73.766 109.351 71.0989 110.36 70.4378C113.881 71.3426 108.726 83.8036 111.044 83.9754C124.221 75.6908 126.606 50.9086 115.657 48.3548C111.679 33.8897 86.3032 31.8402 78.7665 39.6753C75.2626 43.319 75.3325 52.6331 80.8764 54.8034C89.7995 59.4652 101.386 59.2669 103.526 58.4112Z" fill="#7B3A01"/>
<path d="M108.629 79.259C109.362 80.1883 110.312 80.993 111.542 81.3367C114.596 82.1679 118.002 79.6028 119.084 75.6266C119.915 72.5723 117.705 69.0741 114.524 69.1496C113.249 69.1799 111.734 69.6256 110.369 70.4454" fill="white"/>
<path d="M108.331 79.4938C108.301 79.4549 108.278 79.4102 108.264 79.3625C108.251 79.3147 108.247 79.2648 108.253 79.2155C108.258 79.1662 108.274 79.1185 108.298 79.0752C108.322 79.0319 108.355 78.9938 108.394 78.963C108.433 78.9323 108.477 78.9095 108.525 78.896C108.573 78.8824 108.623 78.8785 108.672 78.8843C108.721 78.89 108.769 78.9055 108.812 78.9297C108.856 78.9539 108.894 78.9864 108.924 79.0253C112.285 83.2829 117.383 80.4288 118.718 75.5196C119.474 72.7278 117.472 69.4487 114.531 69.5205C113.278 69.5507 111.828 70.004 110.553 70.7634C110.467 70.8019 110.371 70.8074 110.282 70.7789C110.193 70.7504 110.118 70.6898 110.07 70.609C110.023 70.5281 110.008 70.4327 110.027 70.3412C110.047 70.2497 110.099 70.1686 110.175 70.1136C111.558 69.29 113.142 68.7913 114.519 68.7649C117.985 68.6856 120.343 72.4539 119.453 75.7179C117.942 81.2542 112.086 84.2444 108.331 79.4938Z" fill="#7B3A01"/>
<path d="M111.684 78.2546C111.598 78.2554 111.515 78.2269 111.447 78.1739C111.38 78.1209 111.332 78.0465 111.313 77.963C111.293 77.8794 111.303 77.7917 111.34 77.7143C111.377 77.6368 111.439 77.5742 111.516 77.5368C113.56 76.5206 112.593 75.0813 110.978 75.459C110.917 75.4732 110.854 75.4722 110.794 75.4562C110.734 75.4402 110.679 75.4097 110.634 75.3673C110.588 75.3249 110.554 75.272 110.534 75.2132C110.514 75.1544 110.509 75.0916 110.519 75.0303C110.896 72.6862 112.396 72.1875 113.256 72.1006C114.835 71.9382 116.597 72.8713 116.933 73.7477C116.969 73.8414 116.966 73.9455 116.925 74.037C116.884 74.1286 116.809 74.2002 116.715 74.236C116.621 74.2718 116.517 74.2689 116.426 74.228C116.334 74.1871 116.263 74.1115 116.227 74.0178C115.906 73.1791 112.26 71.5623 111.376 74.643C113.494 74.5562 114.476 76.9097 111.852 78.2074C111.801 78.236 111.743 78.2522 111.684 78.2546Z" fill="#7B3A01"/>
<path d="M75.4251 58.0736C77.314 59.2787 77.6257 60.4687 77.2064 60.9636C76.2411 62.0969 73.4985 60.9844 73.4985 60.9844C73.4985 60.9844 75.6669 62.5861 74.8207 63.7025C74.0179 64.7546 71.5397 63.4607 71.5397 63.4607C71.5397 63.4607 72.8619 65.1607 71.9741 65.7141C70.7086 66.5056 69.0577 65.359 69.0577 65.359C70.14 66.9646 69.0275 68.8629 66.8911 66.9514C65.6841 65.8709 66.8005 63.7251 67.7827 63.7138C67.7204 62.8109 68.1057 61.1071 69.715 61.3017C69.6961 60.0928 70.6293 58.8461 71.8098 59.2636C71.8098 58.1926 73.4116 57.624 74.1841 57.675C74.6252 57.699 75.0526 57.8363 75.4251 58.0736Z" fill="white"/>
<path d="M68.4902 68.1281C68.035 68.1281 67.4154 67.9279 66.6372 67.2328C65.315 66.056 66.216 63.8328 67.3928 63.4078C67.4324 62.1517 68.0747 60.9787 69.3516 60.9126C69.4989 59.7566 70.364 58.7007 71.5011 58.8121C71.5979 58.5403 71.7608 58.2969 71.9752 58.1038C72.5953 57.5742 73.3868 57.2883 74.2022 57.2991C74.7078 57.3262 75.1978 57.4837 75.6246 57.7562C76.858 58.542 77.6041 59.4241 77.7288 60.2439C77.7613 60.4123 77.7571 60.5857 77.7163 60.7523C77.6755 60.9189 77.5993 61.0748 77.4927 61.2091C76.8731 61.9401 75.7681 61.9326 74.8237 61.755C75.3526 62.4426 75.634 63.2491 75.1146 63.931C74.5139 64.7187 73.322 64.5336 72.4342 64.2446C72.727 64.9189 72.7893 65.6442 72.1679 66.0352C71.3651 66.5377 70.4679 66.3922 69.7973 66.1523C70.0165 67.1856 69.5121 68.1281 68.4902 68.1281ZM69.463 61.6643C69.3228 61.6599 69.183 61.6831 69.0517 61.7327C68.9205 61.7823 68.8003 61.8572 68.698 61.9533C68.2711 62.3595 68.1181 63.1358 68.1559 63.6874C68.1595 63.7391 68.1524 63.7911 68.1351 63.8401C68.1177 63.889 68.0905 63.9338 68.055 63.9717C68.0196 64.0097 67.9767 64.0399 67.9291 64.0605C67.8814 64.0811 67.83 64.0917 67.7781 64.0916C67.5118 64.0916 67.0868 64.4694 66.8639 65.0568C66.7732 65.2986 66.5258 66.124 67.1359 66.6699C67.8631 67.3216 68.5242 67.5445 68.8604 67.2498C69.1664 66.9853 69.2061 66.2676 68.7377 65.5706C68.6884 65.4975 68.6663 65.4095 68.675 65.3218C68.6838 65.2341 68.723 65.1523 68.7857 65.0904C68.8485 65.0285 68.9309 64.9906 69.0187 64.983C69.1065 64.9755 69.1942 64.9989 69.2666 65.0492C69.2798 65.0587 70.7286 66.0428 71.7656 65.3949C72.1679 65.1418 71.5257 64.0727 71.2329 63.6949C71.1796 63.6268 71.1514 63.5424 71.1528 63.456C71.1543 63.3695 71.1853 63.2862 71.2408 63.2199C71.2963 63.1535 71.3729 63.1083 71.4577 63.0916C71.5425 63.0749 71.6305 63.0878 71.707 63.1282C72.4229 63.506 74.053 64.0727 74.512 63.4739C74.5618 63.411 74.5976 63.3382 74.6172 63.2604C74.6367 63.1825 74.6395 63.1014 74.6253 63.0225C74.5309 62.3557 73.6148 61.5454 73.271 61.2904C73.1974 61.2355 73.1463 61.1558 73.1271 61.066C73.108 60.9763 73.1222 60.8826 73.1671 60.8026C73.212 60.7225 73.2845 60.6616 73.371 60.631C73.4576 60.6005 73.5523 60.6026 73.6374 60.6368C74.2834 60.8993 76.2725 61.4792 76.9147 60.7218C76.9501 60.6691 76.9742 60.6098 76.9856 60.5474C76.9969 60.485 76.9953 60.4209 76.9808 60.3591C76.8297 59.3599 75.1788 58.3701 75.2166 58.3947C74.8972 58.1903 74.5299 58.0731 74.1512 58.0547C73.4712 58.0075 72.1849 58.5231 72.1792 59.2692C72.1788 59.3295 72.1639 59.3888 72.1359 59.4421C72.1079 59.4955 72.0675 59.5414 72.0182 59.5759C71.9688 59.6105 71.9119 59.6328 71.8522 59.6409C71.7925 59.649 71.7317 59.6426 71.6749 59.6225C70.772 59.2976 70.0693 60.3421 70.0845 61.2979C70.0852 61.352 70.0742 61.4057 70.0524 61.4552C70.0306 61.5048 69.9983 61.549 69.9579 61.585C69.8049 61.7267 69.6613 61.6643 69.463 61.6643Z" fill="#7B3A01"/>
<path d="M160.615 198.446C157.176 198.448 153.797 197.549 150.813 195.84C150.77 195.815 150.732 195.782 150.702 195.742C150.672 195.703 150.65 195.658 150.637 195.61C150.624 195.562 150.621 195.512 150.627 195.463C150.633 195.414 150.65 195.366 150.674 195.323C150.699 195.28 150.732 195.242 150.772 195.212C150.811 195.182 150.856 195.16 150.904 195.147C150.952 195.134 151.002 195.13 151.051 195.137C151.1 195.143 151.148 195.159 151.191 195.184C155.378 197.589 160.324 198.308 165.022 197.194C169.721 196.08 173.818 193.218 176.479 189.189C179.141 185.161 180.167 180.269 179.349 175.51C178.531 170.752 175.93 166.484 172.076 163.576C168.221 160.667 163.403 159.338 158.603 159.857C153.802 160.376 149.38 162.706 146.237 166.371C143.094 170.036 141.466 174.762 141.684 179.585C141.903 184.409 143.951 188.968 147.413 192.334C147.485 192.404 147.526 192.499 147.528 192.6C147.529 192.7 147.491 192.797 147.421 192.868C147.351 192.94 147.255 192.981 147.155 192.983C147.055 192.984 146.958 192.946 146.886 192.876C143.609 189.692 141.54 185.467 141.035 180.925C140.53 176.383 141.619 171.807 144.117 167.98C146.614 164.154 150.365 161.314 154.725 159.948C159.086 158.583 163.786 158.775 168.021 160.494C172.255 162.212 175.76 165.349 177.936 169.367C180.112 173.386 180.823 178.036 179.948 182.521C179.072 187.006 176.665 191.047 173.137 193.953C169.61 196.858 165.182 198.446 160.613 198.446H160.615Z" fill="#FF7802"/>
<path d="M174.654 186.824C173.235 189.293 171.189 191.343 168.724 192.769C166.259 194.194 163.462 194.945 160.614 194.945C157.767 194.945 154.969 194.194 152.505 192.769C150.04 191.343 147.994 189.293 146.574 186.824C147.994 184.356 150.04 182.306 152.505 180.881C154.97 179.456 157.767 178.705 160.614 178.705C163.462 178.705 166.259 179.456 168.724 180.881C171.189 182.306 173.234 184.356 174.654 186.824Z" fill="#FF7802"/>
<path d="M160.615 179.41C164.528 179.41 167.7 176.238 167.7 172.324C167.7 168.411 164.528 165.239 160.615 165.239C156.701 165.239 153.529 168.411 153.529 172.324C153.529 176.238 156.701 179.41 160.615 179.41Z" fill="#FF7802"/>
<path d="M22.3725 175.351C22.2923 175.351 22.2141 175.326 22.1493 175.278C22.0844 175.231 22.0362 175.165 22.0118 175.088L18.4021 163.825C18.3868 163.777 18.3811 163.727 18.3852 163.678C18.3893 163.628 18.4031 163.58 18.4259 163.536C18.4488 163.492 18.4801 163.452 18.5181 163.42C18.5562 163.388 18.6002 163.364 18.6477 163.349C18.7431 163.319 18.8466 163.327 18.9355 163.373C19.0244 163.419 19.0914 163.499 19.1218 163.594L22.6162 174.499L57.3718 163.354L49.3005 138.193L14.545 149.326L17.5238 158.619C17.5423 158.71 17.5269 158.804 17.4806 158.884C17.4343 158.964 17.3603 159.024 17.2725 159.053C17.1848 159.082 17.0894 159.078 17.0045 159.042C16.9195 159.005 16.8509 158.939 16.8117 158.855L13.7195 149.203C13.7042 149.156 13.6984 149.106 13.7024 149.056C13.7063 149.007 13.72 148.959 13.7427 148.914C13.7653 148.87 13.7964 148.831 13.8343 148.799C13.8721 148.767 13.9159 148.742 13.9632 148.727L49.4328 137.358C49.528 137.327 49.6313 137.336 49.7201 137.382C49.809 137.427 49.8761 137.506 49.9069 137.601L58.2029 163.492C58.2181 163.54 58.2239 163.59 58.2198 163.639C58.2157 163.689 58.2019 163.737 58.179 163.781C58.1562 163.826 58.1249 163.865 58.0868 163.897C58.0488 163.929 58.0048 163.953 57.9573 163.968C20.8407 175.855 22.4632 175.351 22.3725 175.351Z" fill="#FF7802"/>
<path d="M33.1334 160.275L13.8894 149.41C13.8462 149.385 13.8084 149.352 13.778 149.313C13.7476 149.274 13.7253 149.228 13.7123 149.18C13.6994 149.132 13.696 149.082 13.7024 149.033C13.7088 148.983 13.7248 148.936 13.7496 148.893C13.7744 148.85 13.8075 148.812 13.8469 148.781C13.8864 148.751 13.9314 148.729 13.9795 148.716C14.0275 148.703 14.0777 148.699 14.127 148.706C14.1764 148.712 14.224 148.728 14.2672 148.753L33.5036 159.61C34.0483 159.92 34.6512 160.114 35.2744 160.179C35.8977 160.244 36.5276 160.179 37.1245 159.988C37.7214 159.798 38.2723 159.486 38.7425 159.071C39.2126 158.657 39.5917 158.15 39.856 157.582L49.2022 137.559C49.2231 137.514 49.2528 137.474 49.2894 137.44C49.326 137.407 49.3688 137.381 49.4155 137.364C49.4621 137.347 49.5117 137.339 49.5613 137.341C49.6109 137.343 49.6596 137.355 49.7046 137.376C49.7497 137.397 49.7901 137.427 49.8237 137.463C49.8573 137.5 49.8833 137.543 49.9003 137.589C49.9173 137.636 49.925 137.686 49.9228 137.735C49.9207 137.785 49.9088 137.834 49.8878 137.879L40.5435 157.91C40.2331 158.571 39.7896 159.161 39.2409 159.642C38.6921 160.124 38.0498 160.487 37.3543 160.709C36.6588 160.931 35.9249 161.007 35.1986 160.932C34.4723 160.858 33.7693 160.634 33.1334 160.275Z" fill="#FF7802"/>
<path d="M57.8413 163.985C57.6883 163.985 58.7858 164.58 41.527 154.83C41.4838 154.805 41.446 154.772 41.4156 154.733C41.3852 154.693 41.3629 154.648 41.3499 154.6C41.3369 154.552 41.3336 154.502 41.34 154.452C41.3464 154.403 41.3624 154.355 41.3872 154.312C41.412 154.269 41.4451 154.231 41.4845 154.201C41.524 154.17 41.569 154.148 41.6171 154.135C41.6651 154.122 41.7153 154.119 41.7646 154.125C41.814 154.132 41.8616 154.148 41.9048 154.172L58.034 163.279C58.1071 163.32 58.1643 163.385 58.1966 163.462C58.2289 163.54 58.2344 163.626 58.2123 163.707C58.1902 163.788 58.1417 163.859 58.0746 163.91C58.0074 163.96 57.9253 163.987 57.8413 163.985ZM22.3699 175.351C22.3063 175.351 22.2437 175.335 22.188 175.304C22.1323 175.273 22.0852 175.229 22.0511 175.175C22.017 175.122 21.997 175.06 21.9929 174.997C21.9889 174.933 22.001 174.87 22.028 174.812L29.8612 158.03C29.8805 157.982 29.9093 157.939 29.9457 157.903C29.9822 157.867 30.0256 157.839 30.0732 157.82C30.1209 157.802 30.1718 157.793 30.223 157.795C30.2742 157.796 30.3245 157.808 30.3709 157.83C30.4172 157.852 30.4587 157.882 30.4928 157.921C30.5269 157.959 30.5529 158.003 30.5692 158.052C30.5855 158.101 30.5917 158.152 30.5876 158.203C30.5834 158.254 30.5689 158.304 30.545 158.349L22.7118 175.132C22.6816 175.197 22.6333 175.252 22.5728 175.291C22.5122 175.33 22.4418 175.351 22.3699 175.351ZM66.6152 53.8914L49.9798 49.6111V37.2578H62.335L66.6152 53.8914Z" fill="#FF7802"/>
<path d="M42.6337 53.8933C55.8782 53.8933 66.615 43.1565 66.615 29.912C66.615 16.6675 55.8782 5.93066 42.6337 5.93066C29.3892 5.93066 18.6523 16.6675 18.6523 29.912C18.6523 43.1565 29.3892 53.8933 42.6337 53.8933Z" fill="#FF7802"/>
<path d="M47.3208 35.652C48.5221 35.5935 47.9743 33.7896 49.306 32.5051C50.6377 31.2207 58.9185 35.7956 55.1483 39.8416C51.3781 43.8876 46.7352 44.8415 38.0558 36.2527C29.3763 27.6639 27.4251 23.7313 30.9535 18.7767C34.482 13.8221 40.4811 21.5326 39.633 23.6104C38.7849 25.6881 36.5447 25.4369 36.5522 26.2114C36.5749 28.6594 43.0802 35.8598 47.3208 35.652Z" fill="white"/>
</svg>
