<svg width="382" height="347" viewBox="0 0 382 347" fill="none" xmlns="http://www.w3.org/2000/svg">
<path d="M215.707 346.386C307.451 346.386 381.824 272.013 381.824 180.269C381.824 88.5255 307.451 14.1523 215.707 14.1523C123.963 14.1523 49.5898 88.5255 49.5898 180.269C49.5898 272.013 123.963 346.386 215.707 346.386Z" fill="#FFECE1"/>
<path d="M173.972 143.929C235.172 143.063 284.616 130.369 284.407 115.575C284.198 100.781 234.415 89.4899 173.214 90.3552C112.013 91.2204 62.5699 103.915 62.7791 118.709C62.9883 133.502 112.771 144.794 173.972 143.929Z" fill="black"/>
<path d="M284.402 115.417C284.464 118.852 281.853 122.175 277.035 125.267C260.976 115.413 220.442 108.862 173.104 109.596C126.108 110.325 86.0754 118.018 70.1434 128.252C65.4431 125.369 62.8382 122.205 62.7765 118.854C62.5078 104.062 111.906 91.2962 173.102 90.349C234.308 89.3998 284.134 100.625 284.402 115.417Z" fill="#C6591C"/>
<path d="M194.517 187.632C192.032 192.991 186.125 195.867 180.368 194.541C165.499 191.121 135.006 183.449 133.355 177.74C131.166 170.176 147.175 96.0048 160.729 93.1451C174.281 90.2855 208.805 99.531 213.438 109.111C216.903 116.275 204.429 166.256 194.517 187.632Z" fill="#FD7A31"/>
<path d="M181.096 186.949C179.944 185.546 152.858 152.37 152.818 134.648C152.814 133.147 152.805 128.58 178.056 116.958C190.292 111.327 202.692 106.702 202.815 106.656L203.484 108.457C184.631 115.468 154.723 128.779 154.737 134.644C154.775 151.688 182.3 185.392 182.579 185.731L181.096 186.949Z" fill="#EA5401"/>
<path d="M164.507 142.045C166.807 142.045 168.672 140.18 168.672 137.88C168.672 135.58 166.807 133.715 164.507 133.715C162.207 133.715 160.342 135.58 160.342 137.88C160.342 140.18 162.207 142.045 164.507 142.045Z" fill="#EA5401"/>
<path d="M159.736 165.032L137.619 173.879L138.332 175.662L160.449 166.815L159.736 165.032Z" fill="#EA5401"/>
<path d="M170.431 115.273C166.788 109.182 161.231 99.9304 160.863 99.4051L161.405 99.025L162.358 98.2031C162.569 98.4479 165.838 103.861 172.077 114.288L170.431 115.273Z" fill="#EA5401"/>
<path d="M89.0202 179.497C83.3288 179.998 77.8424 176.412 75.8584 170.918C70.7381 156.725 60.7722 127.305 64.5472 123.146C69.5501 117.636 138.545 95.1925 148.087 105.232C157.629 115.272 168.457 148.853 163.11 157.4C159.114 163.792 111.724 177.495 89.0202 179.497Z" fill="#FD7A31"/>
<path d="M84.2468 168.476L82.418 167.889C82.9493 166.235 95.6017 127.297 110.063 118.656C112.194 117.382 117.404 117.313 137.937 131.344C149.037 138.93 159.403 147.141 159.506 147.222L158.312 148.727C142.564 136.23 115.804 117.466 111.048 120.306C97.2056 128.574 84.3741 168.078 84.2468 168.476Z" fill="#EA5401"/>
<path d="M116.599 133.004C118.119 131.448 118.017 128.884 116.372 127.276C114.727 125.669 112.161 125.627 110.641 127.183C109.121 128.739 109.223 131.303 110.868 132.911C112.513 134.518 115.079 134.56 116.599 133.004Z" fill="#EA5401"/>
<path d="M70.0023 124.836L68.8438 126.367L87.8232 140.725L88.9818 139.193L70.0023 124.836Z" fill="#EA5401"/>
<path d="M136.905 125.019L135.189 124.155C138.212 118.141 142.797 108.985 143.036 108.406L143.657 108.663L144.855 109.017C144.765 109.32 142.091 114.703 136.905 125.019Z" fill="#EA5401"/>
<path d="M62.7852 118.852L62.9563 120.227C62.8508 119.773 62.7911 119.315 62.7852 118.852Z" fill="#FF8E50"/>
<path d="M284.169 117.277L259.778 313.232C260.046 328.026 221.194 345.649 173.593 346.39C136.842 346.959 105.625 337.293 93.1771 326.052C89.5036 322.733 87.4678 319.278 87.4061 315.905L62.957 120.225C66.1848 134.334 114.794 144.841 174.082 143.923C219.367 143.221 258.19 136.051 275.202 126.374C280.215 123.524 283.337 120.455 284.169 117.277Z" fill="#FF8E50"/>
<path d="M284.17 117.277L259.778 313.232C260.047 328.026 221.194 345.649 173.594 346.39C136.842 346.959 105.625 337.293 93.1777 326.052C121.565 332.726 150.332 336.211 179.138 332.434C201.388 329.513 224.135 321.511 238.652 304.407C251.452 289.321 256.276 269.19 260.047 249.763C267.957 209.058 273.024 167.789 275.201 126.376C280.216 123.524 283.338 120.455 284.17 117.277Z" fill="#C6591C"/>
<path d="M284.403 115.422C284.415 116.039 284.341 116.65 284.176 117.263L284.403 115.422Z" fill="#FF8E50"/>
<path d="M170.42 325.549C156.558 325.549 143.016 324.533 130.998 322.576L131.41 320.049C144.546 322.186 159.539 323.191 174.774 322.955C221.274 322.234 251.023 312.732 260.798 295.473L263.026 296.734C252.778 314.827 222.273 324.779 174.814 325.516C173.347 325.54 171.881 325.549 170.42 325.549Z" fill="black"/>
<path d="M179.778 171.772C160.82 171.772 138.971 170.355 114.479 166.551L114.873 164.019C170.216 172.614 211.925 168.95 237.17 164.363C264.518 159.394 278.968 152.302 279.109 152.23L280.251 154.523C279.658 154.817 265.424 161.818 237.763 166.859C223.485 169.462 203.987 171.772 179.778 171.772Z" fill="black"/>
<path d="M130.624 306.109C119.691 275.282 105.476 229.21 108.242 185.219L110.798 185.38C108.061 228.903 122.178 274.639 133.036 305.253L130.624 306.109Z" fill="black"/>
<path d="M159.711 305.83C156.075 275.07 151.347 229.107 152.267 185.27L154.828 185.323C153.912 229 158.629 274.845 162.256 305.529L159.711 305.83Z" fill="black"/>
<path d="M191.406 305.83L188.863 305.529C192.491 274.845 197.207 229.002 196.292 185.323L198.853 185.27C199.77 229.107 195.042 275.07 191.406 305.83Z" fill="black"/>
<path d="M220.492 306.109L218.078 305.253C228.936 274.637 243.053 228.903 240.316 185.38L242.871 185.219C245.64 229.21 231.425 275.282 220.492 306.109Z" fill="black"/>
<path d="M305.265 117.51L303.385 117.142L303.612 115.301L305.524 115.398C305.538 116.111 305.45 116.819 305.265 117.51Z" fill="black"/>
<path d="M201.235 4.64357C208.91 17.7596 170.303 54.6482 115.002 87.0394C71.0653 112.778 29.8147 127.928 10.86 126.491C5.9606 126.123 2.55173 124.64 0.971672 121.946C-6.70176 108.83 31.9102 71.9373 87.2102 39.5461C98.5353 32.9135 109.685 26.9813 120.322 21.8551C161.606 1.95707 195.132 -5.788 201.235 4.64357Z" fill="#FF8E50"/>
<path d="M15.5803 147.389C23.2557 160.505 74.3051 144.878 129.607 112.486C184.909 80.0952 223.517 43.2027 215.842 30.0866L200.757 3.17188C208.433 16.2879 169.823 53.1805 114.523 85.5717C59.2229 117.963 8.17151 133.59 0.496094 120.474L15.5803 147.389Z" fill="#7A5946"/>
<path d="M75.8713 86.4176C71.746 88.8494 66.387 87.6932 63.6487 83.6814L54.447 70.1932C51.0998 65.2858 49.9456 59.3198 51.1973 53.3936C52.5187 47.1311 56.4827 41.5491 62.0707 38.0786L90.3664 20.5009C99.8746 14.5986 112.111 15.918 119.49 23.6292C119.643 23.7884 119.791 23.9556 119.932 24.1267L132.21 38.9741C135.438 42.8765 134.891 48.6574 130.986 51.8832C127.084 55.109 121.305 54.5637 118.077 50.6594L106.079 36.1503C104.647 34.8449 102.125 34.7931 100.044 36.0786L71.748 53.6563C70.3849 54.502 69.4356 55.7876 69.1411 57.1826C68.9939 57.881 68.9521 58.9139 69.5968 59.8571L78.7986 73.3453C81.6522 77.5283 80.5756 83.2336 76.3927 86.0873C76.2195 86.2047 76.0464 86.3141 75.8713 86.4176Z" fill="black"/>
<path d="M201.234 4.64351C208.91 17.7596 170.302 54.6482 115.002 87.0393C71.0648 112.778 29.8141 127.928 10.8594 126.491C21.4641 124.945 31.6728 120.909 41.5531 116.619C88.4971 96.2252 132.436 68.9383 171.528 35.9024C176.493 31.6975 181.884 25.9026 180.174 19.6322C178.204 12.4343 168.728 10.8662 161.293 11.4951C147.327 12.6732 133.598 16.6711 121.185 23.1783L120.321 21.857C161.606 1.95702 195.131 -5.78805 201.234 4.64351Z" fill="#C6591C"/>
<path d="M309.266 176.115L312.515 198.886C313.646 206.814 308.5 214.112 301.025 215.178L224.942 226.036C217.467 227.102 210.49 221.534 209.358 213.606L206.108 190.835C205.808 188.735 205.945 186.678 206.464 184.769C207.863 179.476 212.098 175.327 217.592 174.543L293.676 163.685C301.152 162.621 308.135 168.187 309.266 176.115Z" fill="#FF8A4A"/>
<path d="M309.266 176.113L312.516 198.885C313.646 206.813 308.5 214.11 301.026 215.177L296.854 215.772C302.277 208.644 305.762 199.816 305.089 190.7C304.743 186.075 303.175 181.279 299.75 178.334C295.569 174.738 289.72 174.67 284.381 174.865C272.903 175.287 261.443 176.125 250.03 177.379C240.068 178.473 230.15 179.882 220.283 181.606C217.909 182.019 211.935 184.019 206.465 184.77C207.864 179.476 212.099 175.327 217.593 174.543L293.676 163.686C301.153 162.619 308.136 168.185 309.266 176.113Z" fill="#EF6A20"/>
<path d="M224.683 207.263C224.345 207.291 224.068 207.219 223.855 207.044C223.642 206.869 223.519 206.648 223.487 206.383C223.461 206.164 223.513 205.193 223.646 203.468C223.817 201.709 223.919 199.217 223.955 195.993C223.965 195.327 223.978 194.863 224.002 194.602C224.024 194.342 224.189 194.033 224.498 193.679C224.806 193.325 225.147 193.124 225.519 193.078C225.72 193.054 226.203 193.184 226.969 193.47C227.843 193.802 228.38 193.984 228.581 194.013C230.255 194.368 231.68 195.06 232.858 196.091C234.034 197.12 234.705 198.312 234.87 199.665C235.071 201.319 234.595 202.99 233.445 204.676C232.295 206.363 230.39 207.366 227.73 207.689C226.575 207.826 225.56 207.685 224.683 207.263ZM226.358 196.089L226.03 205.04C226.478 205.281 227.075 205.354 227.819 205.265C229.142 205.104 230.076 204.807 230.617 204.373C231.158 203.939 231.614 203.36 231.986 202.638C232.356 201.916 232.496 201.157 232.4 200.367C232.317 199.671 232.026 199.054 231.534 198.521C231.041 197.987 230.448 197.568 229.753 197.261C229.059 196.955 227.929 196.563 226.358 196.089ZM240.181 193.749C240.117 195.207 240.05 196.399 239.976 197.327C240.702 197.179 241.861 196.927 243.455 196.573C244.581 196.328 245.303 196.186 245.616 196.149C245.946 196.109 246.221 196.169 246.438 196.328C246.654 196.487 246.782 196.718 246.82 197.018C246.861 197.361 246.788 197.683 246.599 197.981C246.41 198.28 246.073 198.479 245.588 198.58C245.102 198.682 244.352 198.845 243.337 199.074C242.322 199.301 241.116 199.554 239.723 199.83C239.584 201.544 239.548 202.696 239.62 203.287C239.646 203.494 239.685 203.629 239.741 203.695C239.797 203.76 240.163 203.752 240.836 203.671L241.526 203.587L244.151 203.215C244.229 203.205 244.499 203.143 244.965 203.026C245.361 202.925 245.693 202.95 245.964 203.104C246.235 203.257 246.39 203.502 246.432 203.838C246.507 204.471 246.306 204.919 245.825 205.185C245.345 205.45 243.964 205.721 241.683 205.997C239.769 206.23 238.565 206.15 238.076 205.764C237.586 205.378 237.284 204.714 237.168 203.774C237.047 202.769 237.126 200.958 237.409 198.34C237.672 196.047 237.757 194.527 237.666 193.777C237.618 193.142 237.616 192.684 237.658 192.405C237.699 192.127 237.825 191.886 238.038 191.681C238.249 191.476 238.541 191.351 238.913 191.305C239.18 191.273 239.413 191.325 239.616 191.462C240.955 190.941 242.199 190.61 243.345 190.471C244.255 190.362 245.184 190.346 246.133 190.425C247.08 190.505 247.588 190.819 247.655 191.371C247.703 191.767 247.602 192.129 247.351 192.455C247.1 192.782 246.788 192.969 246.416 193.014C246.286 193.03 246.157 193.028 246.028 193.006C245.074 192.865 244.147 192.847 243.244 192.957C242.29 193.07 241.271 193.335 240.181 193.749ZM248.76 203.141L249.044 200.284C249.287 197.784 249.466 194.863 249.584 191.522C249.594 191.204 249.719 190.903 249.96 190.622C250.201 190.342 250.503 190.179 250.863 190.135C251.176 190.097 251.442 190.161 251.659 190.326C251.876 190.491 252.004 190.726 252.041 191.026C252.069 191.257 252.033 192.22 251.932 193.918L251.689 197.778C251.627 198.656 251.478 200.18 251.245 202.355C252.638 202.168 254.445 201.599 256.668 200.646C256.811 200.592 256.943 200.558 257.06 200.545C257.42 200.501 257.697 200.578 257.888 200.777C258.079 200.976 258.19 201.193 258.218 201.43C258.284 201.967 258.077 202.409 257.601 202.751C257.124 203.094 256.139 203.496 254.644 203.955C253.15 204.415 251.882 204.708 250.843 204.833C249.586 204.986 248.897 204.576 248.78 203.609C248.764 203.466 248.756 203.311 248.76 203.141ZM263.331 190.945C263.267 192.403 263.199 193.595 263.126 194.523C263.85 194.376 265.01 194.123 266.604 193.769C267.731 193.524 268.453 193.383 268.765 193.345C269.096 193.305 269.37 193.365 269.587 193.524C269.804 193.683 269.931 193.914 269.967 194.214C270.009 194.557 269.935 194.877 269.746 195.176C269.557 195.474 269.221 195.675 268.735 195.775C268.25 195.876 267.5 196.039 266.483 196.268C265.468 196.495 264.262 196.748 262.869 197.024C262.73 198.738 262.694 199.89 262.765 200.481C262.791 200.688 262.831 200.823 262.887 200.889C262.943 200.954 263.307 200.947 263.981 200.865L264.672 200.781L267.299 200.409C267.374 200.399 267.647 200.338 268.113 200.22C268.509 200.119 268.841 200.145 269.112 200.296C269.382 200.449 269.537 200.694 269.577 201.03C269.653 201.663 269.452 202.111 268.972 202.377C268.491 202.642 267.112 202.913 264.831 203.189C262.917 203.42 261.713 203.342 261.223 202.956C260.732 202.57 260.429 201.906 260.316 200.966C260.194 199.961 260.274 198.151 260.557 195.532C260.819 193.239 260.905 191.719 260.813 190.969C260.766 190.334 260.764 189.876 260.805 189.598C260.847 189.319 260.972 189.078 261.185 188.873C261.398 188.668 261.689 188.543 262.061 188.497C262.328 188.465 262.561 188.517 262.763 188.654C264.103 188.133 265.347 187.803 266.493 187.663C267.402 187.554 268.331 187.538 269.279 187.618C270.226 187.697 270.733 188.012 270.801 188.561C270.849 188.957 270.747 189.319 270.497 189.645C270.246 189.972 269.933 190.159 269.561 190.205C269.432 190.22 269.303 190.218 269.173 190.197C268.22 190.055 267.293 190.037 266.389 190.147C265.44 190.266 264.419 190.531 263.331 190.945ZM279.193 189.556L279.278 193.755C279.312 195.213 279.316 196.266 279.292 196.909C279.278 197.048 279.284 197.347 279.31 197.806C279.374 198.927 279.247 199.693 278.928 200.111C278.61 200.527 278.285 200.755 277.953 200.795C277.629 200.835 277.352 200.767 277.123 200.59C276.894 200.413 276.763 200.186 276.731 199.91C276.719 199.81 276.735 199.625 276.781 199.355C276.835 199.048 276.853 198.716 276.835 198.354C276.819 197.993 276.793 196.927 276.757 195.158L276.666 190.015L275.722 190.165C274.652 190.336 273.794 190.392 273.147 190.328C272.501 190.266 272.148 189.996 272.091 189.516C272.045 189.132 272.136 188.772 272.369 188.435C272.602 188.099 272.932 187.904 273.364 187.852L275.891 187.709C276.335 187.655 277.08 187.532 278.122 187.341C279.161 187.148 279.871 187.03 280.256 186.983L283.046 186.698C283.513 186.642 283.816 186.617 283.955 186.625C284.094 186.632 284.249 186.708 284.423 186.851C284.596 186.995 284.697 187.198 284.729 187.458C284.775 187.83 284.667 188.183 284.407 188.513C284.146 188.843 283.844 189.03 283.493 189.074L279.678 189.5L279.193 189.556ZM289.113 187.822C289.049 189.281 288.982 190.473 288.908 191.401C289.632 191.253 290.793 191.001 292.387 190.646C293.513 190.402 294.235 190.26 294.548 190.222C294.878 190.183 295.153 190.242 295.37 190.402C295.586 190.561 295.714 190.792 295.752 191.092C295.793 191.434 295.72 191.755 295.531 192.053C295.342 192.352 295.005 192.553 294.52 192.652C294.034 192.754 293.284 192.917 292.269 193.146C291.254 193.373 290.048 193.625 288.655 193.902C288.516 195.615 288.48 196.768 288.552 197.359C288.578 197.566 288.618 197.701 288.673 197.767C288.729 197.832 289.093 197.824 289.768 197.743L290.458 197.659L293.085 197.287C293.161 197.277 293.433 197.215 293.899 197.098C294.295 196.996 294.627 197.022 294.898 197.173C295.169 197.327 295.324 197.571 295.366 197.908C295.441 198.541 295.24 198.988 294.759 199.255C294.279 199.52 292.898 199.79 290.617 200.067C288.703 200.298 287.499 200.22 287.01 199.834C286.518 199.448 286.218 198.783 286.102 197.844C285.981 196.839 286.06 195.028 286.343 192.409C286.606 190.117 286.691 188.597 286.6 187.846C286.552 187.212 286.55 186.754 286.592 186.475C286.634 186.197 286.759 185.956 286.972 185.751C287.183 185.546 287.475 185.421 287.847 185.375C288.114 185.343 288.347 185.395 288.55 185.532C289.889 185.011 291.133 184.68 292.279 184.541C293.189 184.432 294.118 184.416 295.067 184.495C296.014 184.575 296.522 184.889 296.589 185.438C296.637 185.834 296.536 186.197 296.285 186.523C296.034 186.849 295.722 187.036 295.35 187.082C295.22 187.098 295.091 187.096 294.962 187.074C294.008 186.933 293.081 186.915 292.178 187.025C291.222 187.144 290.202 187.409 289.113 187.822Z" fill="white"/>
<path d="M299.474 6.87726C305.954 4.90716 312.923 7.75883 316.188 13.691C324.622 29.01 341.362 60.9296 337.746 66.7006C332.954 74.3501 257.34 117.328 244.544 107.931C231.747 98.5345 213.274 61.9703 217.92 50.693C221.395 42.2594 273.634 14.7377 299.474 6.87726Z" fill="#FD7A31"/>
<path d="M281.664 84.1808C277.459 84.1808 269.079 82.36 251.707 74.8079C237.55 68.6549 224.131 61.5944 223.998 61.5227L224.894 59.8233C245.323 70.5971 279.614 85.9957 284.669 81.4565C299.24 68.3723 307.025 19.0522 307.102 18.5547L309.001 18.8492C308.682 20.9049 301.033 69.3454 285.953 82.8853C285.443 83.343 284.512 84.1808 281.664 84.1808Z" fill="#EA5401"/>
<path d="M279.883 75.3098C282.521 75.3098 284.659 73.1715 284.659 70.5338C284.659 67.8961 282.521 65.7578 279.883 65.7578C277.246 65.7578 275.107 67.8961 275.107 70.5338C275.107 73.1715 277.246 75.3098 279.883 75.3098Z" fill="#EA5401"/>
<path d="M307.651 52.0104L306.797 53.7305L331.253 65.8728L332.107 64.1528L307.651 52.0104Z" fill="#EA5401"/>
<path d="M249.65 103.004L247.756 102.694C247.816 102.246 251.222 91.2611 254.07 82.125L255.905 82.6961C253.477 90.483 249.81 102.317 249.65 103.004Z" fill="#EA5401"/>
</svg>
