<svg width="18" height="18" viewBox="0 0 18 18" fill="none" xmlns="http://www.w3.org/2000/svg">
<path fill-rule="evenodd" clip-rule="evenodd" d="M11.4176 0.537609C11.0376 0.254146 10.5949 0.11044 10.124 0.0683222C9.83512 0.042481 9.48862 0.0421005 9.10407 0.0416783C9.07011 0.041641 9.03585 0.0416034 9.0013 0.0415478C8.96664 0.0414921 8.93196 0.0414005 8.89727 0.0413088C8.56788 0.0404384 8.23753 0.0395654 7.90957 0.0694219C7.42809 0.113254 6.97657 0.262895 6.59181 0.558063C6.30731 0.776321 6.11286 1.04274 5.94861 1.33063C5.79633 1.59753 5.64473 1.93015 5.4726 2.30782L5.17637 2.95768L1.5013 2.95827C1.04106 2.95827 0.667969 3.33137 0.667969 3.7916C0.667969 4.25184 1.04106 4.62494 1.5013 4.62494H2.22596L2.66899 12.0371C2.73149 13.0829 2.78109 13.9128 2.88428 14.5758C2.9901 15.2556 3.16024 15.8218 3.50153 16.3171C3.81375 16.7702 4.216 17.1527 4.68264 17.4402C5.19273 17.7544 5.76255 17.8918 6.4408 17.9576L11.5456 17.9577C12.223 17.8921 12.7922 17.7549 13.302 17.4413C13.7683 17.1543 14.1704 16.7725 14.4828 16.3201C14.8241 15.8256 14.9948 15.2603 15.1014 14.5814C15.2054 13.9194 15.2561 13.0907 15.32 12.0463L15.7743 4.62494H16.5013C16.9615 4.62494 17.3346 4.25184 17.3346 3.7916C17.3346 3.33137 16.9615 2.95827 16.5013 2.95827L12.9029 2.95768L12.5476 2.22469C12.371 1.86043 12.2154 1.53933 12.0608 1.28179C11.894 1.00387 11.6987 0.747246 11.4176 0.537609ZM11.0507 2.95768C10.862 2.56852 10.7412 2.32181 10.6318 2.13952C10.4716 1.87258 10.2796 1.75555 9.97557 1.72836C9.7595 1.70904 9.47791 1.70827 9.03008 1.70827C8.57106 1.70827 8.28211 1.70907 8.06067 1.72922C7.74892 1.75761 7.55454 1.87909 7.39623 2.15657C7.29253 2.33832 7.17965 2.58157 7.00804 2.95768H11.0507ZM6.5013 8.63802C6.15612 8.63802 5.8763 8.91784 5.8763 9.26302C5.8763 9.6082 6.15612 9.88802 6.5013 9.88802H11.5013C11.8465 9.88802 12.1263 9.6082 12.1263 9.26302C12.1263 8.91784 11.8465 8.63802 11.5013 8.63802H6.5013ZM7.1263 12.528C7.1263 12.1828 7.40612 11.903 7.7513 11.903H10.2513C10.5965 11.903 10.8763 12.1828 10.8763 12.528C10.8763 12.8732 10.5965 13.153 10.2513 13.153H7.7513C7.40612 13.153 7.1263 12.8732 7.1263 12.528Z" fill="#E63237"/>
</svg>
