<svg width="21" height="20" viewBox="0 0 21 20" fill="none" xmlns="http://www.w3.org/2000/svg">
<path d="M2.625 5.32099C2.625 4.91728 2.92721 4.59001 3.3 4.59001L5.63121 4.58961C6.0944 4.5769 6.50301 4.25796 6.66062 3.78611C6.66477 3.77371 6.66953 3.75841 6.68662 3.70288L6.78707 3.37648C6.84854 3.17635 6.90209 3.002 6.97703 2.84616C7.27308 2.23048 7.82082 1.80295 8.45378 1.69349C8.614 1.66578 8.78367 1.6659 8.97843 1.66603H12.0217C12.2165 1.6659 12.3861 1.66578 12.5464 1.69349C13.1793 1.80295 13.7271 2.23048 14.0231 2.84616C14.0981 3.002 14.1516 3.17635 14.2131 3.37648L14.3135 3.70288C14.3306 3.75841 14.3354 3.77371 14.3395 3.78611C14.4971 4.25796 14.9868 4.57729 15.45 4.59001H17.7C18.0728 4.59001 18.375 4.91728 18.375 5.32099C18.375 5.72471 18.0728 6.05198 17.7 6.05198H3.3C2.92721 6.05198 2.625 5.72471 2.625 5.32099Z" fill="#D70000"/>
<path fill-rule="evenodd" clip-rule="evenodd" d="M10.1462 18.3328H10.8538C13.2887 18.3328 14.5062 18.3328 15.2977 17.5945C16.0893 16.8562 16.1703 15.6452 16.3322 13.2232L16.5656 9.73329C16.6535 8.41913 16.6974 7.76205 16.3003 7.34566C15.9032 6.92928 15.2326 6.92928 13.8915 6.92928H7.10854C5.76736 6.92928 5.09677 6.92928 4.69967 7.34566C4.30257 7.76205 4.34651 8.41913 4.43439 9.73329L4.66777 13.2232C4.82973 15.6452 4.91072 16.8562 5.70228 17.5945C6.49384 18.3328 7.71128 18.3328 10.1462 18.3328ZM8.96549 10.1565C8.92943 9.79498 8.60784 9.5312 8.2472 9.56735C7.88656 9.60351 7.62344 9.9259 7.65951 10.2874L8.09701 14.6734C8.13307 15.035 8.45466 15.2987 8.8153 15.2626C9.17594 15.2264 9.43906 14.904 9.40299 14.5425L8.96549 10.1565ZM12.7528 9.56735C13.1134 9.60351 13.3766 9.9259 13.3405 10.2874L12.903 14.6734C12.8669 15.035 12.5453 15.2987 12.1847 15.2626C11.8241 15.2264 11.5609 14.904 11.597 14.5425L12.0345 10.1565C12.0706 9.79498 12.3922 9.5312 12.7528 9.56735Z" fill="#D70000"/>
</svg>
