<svg width="25" height="24" viewBox="0 0 25 24" fill="none" xmlns="http://www.w3.org/2000/svg">
<path fill-rule="evenodd" clip-rule="evenodd" d="M12.566 1.25H12.502C11.9967 1.24999 11.5681 1.24997 11.2125 1.28231C10.8351 1.31662 10.4836 1.39095 10.1437 1.57145C10.0096 1.64269 9.88152 1.72494 9.76095 1.81732C9.45541 2.05142 9.2418 2.34018 9.05392 2.66907C8.87689 2.97896 8.69911 3.36853 8.48955 3.82771L8.07061 4.74561H3.5C3.08579 4.74561 2.75 5.0814 2.75 5.49561C2.75 5.90982 3.08579 6.24561 3.5 6.24561H4.23295L5.06723 18.2289L5.06788 18.2371C5.12433 18.9378 5.40614 19.9117 5.99823 20.7603C6.60219 21.626 7.5569 22.3944 8.93611 22.5476C10.9738 22.774 14.804 22.7539 16.1791 22.7467C16.35 22.7458 16.483 22.7451 16.5699 22.7451C17.1108 22.7451 18.003 22.5646 18.7808 22.0164C19.5986 21.4401 20.2629 20.4713 20.2629 19.0059C20.2629 17.5449 19.6349 16.5476 18.7642 15.9477C17.9362 15.3771 16.9465 15.202 16.2017 15.2135H14.1598L15.4811 14.0567C15.7927 13.7838 15.8242 13.31 15.5513 12.9983C15.2785 12.6867 14.8046 12.6553 14.493 12.9281L12.3337 14.8186C11.9925 15.1173 11.816 15.5309 11.8056 15.9447C11.7946 16.3859 11.9723 16.8347 12.3381 17.1525L14.4951 19.0271C14.8077 19.2988 15.2814 19.2656 15.5531 18.9529C15.8248 18.6403 15.7916 18.1666 15.479 17.8949L14.1196 16.7135L16.2077 16.7136L16.2204 16.7134C16.7505 16.7044 17.4099 16.8361 17.9131 17.1828C18.3761 17.5019 18.7629 18.0366 18.7629 19.0059C18.7629 19.9483 18.3655 20.474 17.9167 20.7904C17.428 21.1348 16.8487 21.2451 16.5699 21.2451C16.4728 21.2451 16.3293 21.2458 16.1481 21.2467C14.7369 21.2536 11.0365 21.2717 9.10173 21.0568C8.24382 20.9615 7.64352 20.497 7.22839 19.902C6.80255 19.2917 6.60112 18.5795 6.56335 18.1204L5.73658 6.24561H8.53576C8.54679 6.24585 8.5578 6.24585 8.56879 6.24561H16.5401C16.5507 6.24584 16.5614 6.24584 16.572 6.24561H19.193L18.7537 13.4335C18.7285 13.8469 19.0432 14.2026 19.4566 14.2278C19.87 14.2531 20.2257 13.9384 20.251 13.525L20.6958 6.24561H21.5C21.9142 6.24561 22.25 5.90982 22.25 5.49561C22.25 5.0814 21.9142 4.74561 21.5 4.74561H17.0252L16.534 3.73354C16.3189 3.29047 16.1364 2.9143 15.9566 2.61524C15.7659 2.29791 15.5513 2.01969 15.2495 1.79485C15.1302 1.70591 15.0038 1.62688 14.8719 1.55851C14.5377 1.38534 14.1937 1.31399 13.8247 1.28103C13.4771 1.24998 13.0588 1.24999 12.566 1.25ZM11.3483 2.77615C11.0828 2.80029 10.9477 2.84289 10.8473 2.89621C10.7863 2.92861 10.728 2.96602 10.6732 3.008C10.5831 3.07704 10.4884 3.18198 10.3564 3.41311C10.2173 3.65666 10.0673 3.98343 9.84071 4.47994L9.71946 4.74561H15.3579L15.1982 4.41661C14.9657 3.93759 14.812 3.62259 14.671 3.38796C14.5372 3.16538 14.4425 3.06411 14.3533 2.99763C14.2993 2.9574 14.2418 2.92146 14.1817 2.89033C14.0828 2.83908 13.9503 2.79822 13.6913 2.77508C13.4182 2.75069 13.0673 2.75 12.5343 2.75C11.988 2.75 11.628 2.75072 11.3483 2.77615Z" fill="#E63237"/>
</svg>
