<svg width="18" height="18" viewBox="0 0 18 18" fill="none" xmlns="http://www.w3.org/2000/svg">
<path d="M11.6691 0.49461C12.6563 -0.0924849 13.8737 -0.110883 14.8777 0.446515C15.2942 0.677731 15.6741 1.06605 16.2391 1.64358L16.3925 1.80031C16.9594 2.37909 17.3388 2.76644 17.5641 3.1899C18.1046 4.20582 18.087 5.43482 17.5173 6.4344C17.3444 6.73787 17.0902 7.01971 16.7396 7.36736C16.5762 7.52936 16.4945 7.61036 16.3912 7.61014C16.288 7.60992 16.2056 7.52751 16.0408 7.36271L10.7147 2.03665C10.5533 1.87526 10.4726 1.79457 10.4711 1.69318C10.4696 1.5918 10.5471 1.50961 10.702 1.34523C11.0663 0.958718 11.3557 0.681003 11.6691 0.49461Z" fill="#0D9774"/>
<path d="M15.0802 8.8651C15.0793 8.97003 14.9929 9.05319 14.8202 9.21953L8.29055 15.5087C7.13983 16.6174 6.43062 17.3008 5.53317 17.6513C4.63444 18.0023 3.65714 17.9766 2.07618 17.9349C2.06069 17.9345 1.20272 17.912 1.01108 17.88C0.788971 17.8429 0.525164 17.7578 0.316457 17.5209C0.109617 17.2862 0.056539 17.0153 0.0441191 16.7924C0.0331526 16.5956 0.1042 15.6867 0.104393 15.6843L0.10458 15.6818C0.212199 14.2978 0.278016 13.4514 0.612249 12.6821C0.947123 11.9114 1.5192 11.2918 2.45258 10.2808L8.89086 3.30522C9.05667 3.12557 9.13958 3.03574 9.24606 3.03361C9.35253 3.03148 9.43897 3.11792 9.61184 3.29078L14.8269 8.50585C14.9965 8.6754 15.0812 8.76018 15.0802 8.8651Z" fill="#0D9774"/>
<path d="M10.4572 16.291C9.99696 16.291 9.62386 16.6641 9.62386 17.1243C9.62386 17.5846 9.99696 17.9577 10.4572 17.9577H17.1239C17.5841 17.9577 17.9572 17.5846 17.9572 17.1243C17.9572 16.6641 17.5841 16.291 17.1239 16.291H10.4572Z" fill="#0D9774"/>
</svg>
