<svg width="450" height="402" viewBox="0 0 450 402" fill="none" xmlns="http://www.w3.org/2000/svg">
<path d="M415.465 210.795C415.465 311.431 333.884 393.012 233.247 393.012C132.611 393.012 50.1902 311.427 51.0298 210.795C51.8829 108.569 136.358 21.5929 233.247 28.5771C333.624 35.815 415.465 110.16 415.465 210.795Z" fill="#EAF0E4"/>
<path d="M247.807 367.265C247.807 367.265 238.445 348.697 240.423 316.234C243.431 266.817 267.482 223.395 280.548 224.335C299.478 225.698 307.622 306.273 308.175 312.267C308.727 318.262 305.478 345.464 305.478 345.464C305.478 345.464 289.602 356.13 284.479 358.523C279.356 360.917 247.807 367.265 247.807 367.265Z" fill="black"/>
<path d="M135.415 206.324L118.391 237.685C116.691 247.19 115.933 258.177 116.177 269.287C110.484 270.506 106.043 271.09 104.342 270.536C92.5015 266.645 83.3307 233.718 96.3472 224.399C106.51 217.116 135.415 206.324 135.415 206.324Z" fill="#FBA986"/>
<path d="M290.07 359.935C290.07 359.935 157.941 349.554 135.228 331.569C122.8 321.732 116.749 295.194 116.177 269.289C115.934 258.178 116.693 247.191 118.391 237.686C118.391 237.686 120.303 217.611 124.861 213.224C146.042 192.849 221.521 191.623 241.235 196.508C253.683 199.593 278.746 237.578 278.746 237.578L312.388 244.3C335.92 286.223 327.723 324.684 290.07 359.935Z" fill="#FBA986"/>
<path d="M161.947 207.676C165.261 228.137 174.544 246.137 191.588 259.708C207.804 272.619 222.003 288.473 242.222 293.035C235.188 295.094 227.726 292.833 220.528 291.448C213.331 290.063 204.957 289.899 199.715 295.02C194.318 300.291 194.48 309.123 196.857 316.282C198.671 321.742 201.545 326.899 202.427 332.583C203.311 338.27 201.533 344.975 196.37 347.517C191.619 349.856 185.964 347.91 181.088 345.851C169.125 340.8 157.417 335.14 146.028 328.899C138.932 325.011 131.458 320.323 128.652 312.733C126.225 306.168 127.866 298.803 130.419 292.288C132.971 285.773 136.433 279.536 137.762 272.664C139.089 265.794 137.775 257.818 132.284 253.478C128.387 250.396 122.377 248.869 121.308 244.016C120.572 240.673 122.835 237.287 125.726 235.458C128.618 233.628 132.062 232.945 135.335 231.949C144.259 229.235 158.414 227.632 164.48 220.546" fill="#EF9672"/>
<path d="M249.016 367.419L288.974 378.251L289.857 378.485L376.451 399.482C376.451 399.482 441.118 304.647 403.995 246.367C403.687 245.594 403.359 244.818 403.034 244.043C399.202 243.408 330.264 233.415 321.857 231.785C299.791 227.506 282.796 224.285 282.037 224.137C282.064 224.161 282.093 224.186 282.12 224.209C300.491 240.249 314.522 325.965 249.016 367.419Z" fill="#EE5F35"/>
<path d="M293.893 379.463L249.02 367.421C314.529 325.964 300.5 240.248 282.124 224.203C286.235 224.998 310.723 229.391 329.972 233.125C339.437 254.515 356.288 337.69 293.893 379.463Z" fill="#EE5F35"/>
<path d="M129.089 330.879C129.089 330.879 114.148 336.496 122.205 350.934C127.079 359.667 135.137 365.021 149.954 363.061C158.175 361.974 179.244 346.603 181.909 338.882C185.645 328.064 180.315 313.108 170.556 316.322C160.797 319.537 129.089 330.879 129.089 330.879Z" fill="#FBA986"/>
<path d="M181.905 338.884C179.25 346.602 158.176 361.969 149.952 363.056C137.618 364.686 129.976 361.258 124.945 355.019C129.667 357.976 135.953 359.262 144.452 358.135C152.673 357.037 173.736 341.672 176.403 333.952C178.441 328.045 177.779 320.902 175.177 316.16C181.874 318.136 184.997 329.92 181.905 338.884Z" fill="#EF9672"/>
<path d="M144.066 364.585C133.554 364.585 126.016 360.27 121.119 351.497C118.533 346.861 117.929 342.577 119.326 338.763C121.593 332.571 128.29 329.992 128.573 329.886C128.58 329.884 128.584 329.882 128.591 329.88C128.907 329.765 160.425 318.495 170.085 315.312C173.484 314.194 176.753 314.997 179.294 317.577C183.867 322.215 185.412 331.743 182.814 339.268C179.97 347.505 158.274 363.074 149.968 364.174C147.902 364.448 145.936 364.585 144.066 364.585ZM129.336 331.938C129.109 332.026 123.257 334.363 121.371 339.533C120.21 342.719 120.767 346.385 123.025 350.435C128.38 360.03 136.846 363.707 149.676 362.01C157.338 360.998 178.136 346.102 180.74 338.559C183.05 331.864 181.701 323.142 177.729 319.115C175.745 317.103 173.401 316.524 170.763 317.393C161.202 320.543 130.095 331.667 129.336 331.938Z" fill="#E27E5A"/>
<path d="M117.332 299.433C117.332 299.433 106.249 305.192 107.584 315.788C108.92 326.387 114.905 336.332 124.413 335.162C129.213 334.572 169.585 322.894 173.848 319.275C184.729 310.034 180.174 287.528 167.865 287.09C160.144 286.819 117.332 299.433 117.332 299.433Z" fill="#FBA986"/>
<path d="M173.843 319.271C169.586 322.895 129.21 334.573 124.413 335.166C119.346 335.783 115.287 333.262 112.391 329.158C114.321 330.117 116.506 330.532 118.91 330.236C123.708 329.643 164.084 317.965 168.343 314.353C175.857 307.968 176.007 295.261 171.335 287.859C180.928 291.912 183.629 310.958 173.843 319.271Z" fill="#EF9672"/>
<path d="M122.744 336.383C113.275 336.383 107.64 326.067 106.365 315.956C104.951 304.731 116.214 298.741 116.694 298.492C116.757 298.461 116.822 298.434 116.89 298.414C118.625 297.902 159.035 286.023 167.494 286.023C167.591 286.023 167.683 286.026 167.77 286.028C172.992 286.212 177.417 290.087 179.606 296.393C182.105 303.586 181.548 314.086 174.42 320.138C169.806 324.058 129.116 335.701 124.41 336.278C123.845 336.35 123.288 336.383 122.744 336.383ZM117.619 300.481C116.625 301.034 107.373 306.457 108.536 315.684C109.69 324.835 114.611 334.194 122.783 334.197C123.229 334.197 123.683 334.17 124.148 334.111C129.01 333.514 169.057 321.829 173.008 318.475C179.069 313.327 179.877 303.833 177.543 297.114C175.659 291.694 171.98 288.369 167.696 288.217C160.386 287.956 120.046 299.77 117.619 300.481Z" fill="#E27E5A"/>
<path d="M107.911 268.455C107.911 268.455 96.3269 274.342 97.6065 284.954C98.8884 295.566 105.011 305.475 114.909 304.207C119.906 303.567 162.007 291.446 166.476 287.771C177.885 278.396 173.378 255.877 160.583 255.565C152.562 255.372 107.911 268.455 107.911 268.455Z" fill="#FBA986"/>
<path d="M166.484 287.778C162.005 291.446 119.909 303.567 114.912 304.209C109.566 304.898 105.312 302.319 102.34 298.12C104.421 299.167 106.78 299.613 109.409 299.279C114.409 298.646 156.507 286.525 160.981 282.848C168.801 276.416 169.14 263.821 164.459 256.422C174.173 260.625 176.643 279.422 166.484 287.778Z" fill="#EF9672"/>
<path d="M113.059 305.449C110.076 305.449 107.33 304.486 104.874 302.573C100.467 299.141 97.2948 292.617 96.3901 285.121C95.0341 273.878 106.784 267.771 107.285 267.518C107.346 267.486 107.409 267.461 107.474 267.443C109.29 266.911 151.711 254.508 160.287 254.508C160.355 254.508 160.417 254.508 160.483 254.51C165.94 254.643 170.511 258.531 172.709 264.911C175.178 272.075 174.458 282.561 167.042 288.654C162.211 292.626 119.814 304.702 114.918 305.328C114.287 305.409 113.668 305.449 113.059 305.449ZM108.194 269.509C107.189 270.054 97.443 275.597 98.561 284.858C99.3984 291.788 102.261 297.764 106.219 300.847C108.699 302.78 111.533 303.557 114.64 303.159C119.707 302.51 161.504 290.374 165.653 286.964C171.966 281.776 172.94 272.302 170.639 265.623C168.751 260.143 164.934 256.804 160.429 256.697C160.373 256.694 160.314 256.694 160.254 256.694C152.225 256.692 110.61 268.804 108.194 269.509Z" fill="#E27E5A"/>
<path d="M160.585 255.566C156.102 258.099 131.56 266.003 116.177 269.29C115.934 258.18 116.693 247.193 118.391 237.687C118.391 237.687 144.821 228.941 152.205 228.712C164.442 228.335 169.433 250.589 160.585 255.566Z" fill="#FBA986"/>
<path d="M160.583 255.568C154.441 259.028 110.628 272.604 104.344 270.534C101.475 269.593 99.1242 267.577 97.3125 264.966C97.8131 265.22 98.3205 265.428 98.8436 265.604C105.13 267.673 148.943 254.107 155.083 250.638C160.978 247.327 160.731 236.347 156.295 229.488C165.446 233.442 168.367 251.191 160.583 255.568Z" fill="#EF9672"/>
<path d="M106.049 271.865C105.131 271.865 104.393 271.784 103.865 271.611C97.8799 269.647 92.2989 261.374 89.9798 251.029C87.4205 239.615 89.5173 229.365 95.59 223.608C96.0301 223.193 96.7215 223.211 97.1368 223.651C97.5522 224.089 97.5342 224.783 97.0964 225.198C91.5872 230.418 89.7239 239.896 92.1148 250.551C94.2385 260.022 99.3526 267.828 104.55 269.534C104.922 269.658 105.457 269.714 106.128 269.714C115.802 269.714 154.351 257.786 159.918 254.652C163.977 252.367 164.581 245.722 163.079 240.336C161.699 235.381 157.972 229.663 152.101 229.843C144.958 230.063 118.859 238.672 118.597 238.76C118.024 238.951 117.405 238.639 117.216 238.066C117.025 237.494 117.337 236.874 117.912 236.686C118.996 236.326 144.576 227.89 152.036 227.658C157.907 227.477 163.09 232.222 165.187 239.752C166.864 245.767 166.265 253.593 160.991 256.563C155.484 259.654 117.317 271.865 106.049 271.865Z" fill="#E27E5A"/>
<path d="M157.113 216.939C167.123 191.499 140.233 165.275 139.694 150.02C139.157 134.772 150.513 101.104 172.453 104.696C174.869 105.096 176.869 105.563 178.514 106.137C191.812 110.695 182.035 121.266 182.888 145.501C182.975 148.058 183.391 150.512 184.089 152.862C190.779 175.566 223.493 188.94 241.233 196.508C259.871 204.448 276.199 233.837 276.199 233.837L157.113 216.939Z" fill="#FBA986"/>
<path d="M184.087 152.862C177.727 151.517 168.756 148.612 167.204 143.543C165.119 136.752 171.283 114.827 178.512 106.137C191.809 110.694 182.032 121.266 182.886 145.501C182.973 148.058 183.388 150.511 184.087 152.862Z" fill="#EF9672"/>
<path d="M241.229 197.597C241.085 197.597 240.942 197.568 240.8 197.51L239.361 196.897C219.578 188.48 182.756 172.815 181.795 145.538C181.478 136.556 182.594 129.493 183.49 123.82C185.308 112.321 185.988 108.017 172.274 105.775C166.565 104.841 161.233 106.516 156.42 110.754C145.65 120.237 140.419 139.631 140.783 149.985C140.967 155.239 144.606 162.194 148.457 169.557C148.737 170.092 148.531 170.754 147.994 171.032C147.46 171.313 146.798 171.106 146.519 170.57C142.55 162.982 138.801 155.813 138.597 150.062C138.217 139.275 143.695 119.04 154.974 109.111C160.301 104.419 166.241 102.571 172.626 103.615C188.487 106.21 187.479 112.586 185.649 124.161C184.767 129.742 183.669 136.688 183.979 145.462C184.891 171.347 220.883 186.657 240.216 194.883L241.655 195.496C242.212 195.732 242.47 196.376 242.232 196.931C242.06 197.348 241.656 197.597 241.229 197.597Z" fill="#E27E5A"/>
<path d="M191.584 260.802C191.391 260.802 191.196 260.75 191.019 260.643C163.461 243.924 159.966 206.067 159.544 198.647L159.535 198.483C159.488 197.884 159.937 197.354 160.536 197.305C161.144 197.255 161.663 197.697 161.715 198.297L161.728 198.524C162.139 205.75 165.531 242.624 192.152 258.773C192.669 259.087 192.832 259.758 192.52 260.275C192.314 260.616 191.952 260.802 191.584 260.802Z" fill="#E27E5A"/>
<path d="M211.703 138.116C210.365 137.84 209.328 137.166 208.587 136.093C207.846 135.022 207.597 133.848 207.84 132.571C208.271 130.292 209.023 126.895 210.103 122.379C211.18 117.862 211.935 114.465 212.366 112.186C212.844 109.656 213.508 105.853 214.364 100.775C215.217 95.6967 215.884 91.8937 216.362 89.3636C216.6 88.1109 217.437 86.9771 218.876 85.9624C220.317 84.9477 221.718 84.5705 223.083 84.8287C223.833 84.9701 225.589 86.0342 228.346 88.0188C231.551 90.3716 233.466 91.7118 234.086 92.0418C240.341 95.4677 245.394 99.8904 249.246 105.314C253.842 111.778 255.523 118.277 254.289 124.817C253.543 128.759 251.869 132.324 249.262 135.514C246.644 138.772 243.445 141.176 239.665 142.727C235.424 144.474 229.881 144.701 223.034 143.407C221.373 143.093 219.509 142.494 217.437 141.607C214.934 140.52 213.023 139.357 211.703 138.116ZM237.519 106.603C235.574 104.796 231.257 101.716 224.567 97.358L218.171 131.197C218.95 131.935 219.889 132.555 220.982 133.056C222.077 133.559 223.33 133.943 224.74 134.207C229.652 135.137 233.307 135.119 235.705 134.156C237.974 133.24 239.916 131.778 241.533 129.771C243.149 127.764 244.186 125.553 244.642 123.137C245.708 117.487 243.333 111.975 237.519 106.603ZM274.902 156.727C268.56 154.136 263.906 150.104 260.941 144.635C257.78 138.785 257.465 132.757 260 126.554C262.981 119.256 267.981 113.533 275.001 109.387C282.883 104.717 290.716 103.97 298.495 107.148C305.973 110.204 310.874 114.211 313.202 119.168C315.526 124.127 315.283 130.05 312.466 136.942C309.484 144.24 304.682 149.994 298.062 154.204C290.424 159.073 282.701 159.915 274.902 156.727ZM294.93 115.873C290.15 113.919 285.11 114.568 279.81 117.812C274.844 120.845 271.283 125.001 269.126 130.283C267.669 133.846 267.869 137.31 269.721 140.671C271.501 143.904 274.415 146.346 278.465 148.001C283.18 149.927 288.058 149.215 293.103 145.863C297.723 142.817 301.133 138.599 303.335 133.208C305.176 128.7 305.45 125.153 304.155 122.572C302.913 120.111 299.838 117.877 294.93 115.873ZM350.011 189.944C349.326 190.88 348.085 192.243 346.289 194.03C344.149 196.172 341.902 196.38 339.547 194.659C338.24 193.702 337.304 191.881 336.743 189.201C334.303 177.444 332.848 162.4 332.381 144.07C328.708 148.854 326.468 151.797 325.659 152.902C324.58 154.381 322.981 156.63 320.871 159.655C318.758 162.679 317.162 164.93 316.08 166.407C312.039 171.928 308.674 173.704 305.984 171.737C304.619 170.738 303.836 169.519 303.632 168.076C303.45 166.794 303.751 165.619 304.532 164.553C305.08 163.805 305.969 162.717 307.199 161.289C308.429 159.861 309.32 158.774 309.868 158.025C310.676 156.92 311.927 155.292 313.615 153.137C315.306 150.984 316.554 149.354 317.362 148.25C318.224 147.071 319.497 145.273 321.181 142.855C322.864 140.437 324.137 138.639 324.999 137.46C325.821 136.338 326.935 134.58 328.34 132.189C329.745 129.798 330.859 128.04 331.681 126.918C332.502 125.795 333.715 125.147 335.322 124.969C336.927 124.794 338.346 125.158 339.578 126.058C340.961 127.068 341.617 129.387 341.545 133.013C341.152 151.346 342.284 167.362 344.94 181.056C345.398 180.47 346.448 179.056 348.089 176.809C354.84 167.582 359.301 161.291 361.469 157.935C361.829 157.365 362.446 156.265 363.324 154.637C364.096 153.191 364.756 152.093 365.304 151.344C367.194 148.762 369.502 148.468 372.23 150.463C375.274 152.691 373.352 158.512 366.465 167.925C366.314 168.132 365.214 169.595 363.164 172.319C356.093 181.75 351.708 187.623 350.011 189.944ZM403.833 197.164C403.53 196.814 403.262 196.401 403.033 195.927C401.345 192.427 399.34 189.338 397.019 186.664C395.881 185.353 394.554 184.037 393.039 182.717C391.523 181.397 389.819 180.071 387.927 178.739C385.596 180.762 382.07 183.685 377.346 187.51C378.264 188.429 381.555 191.565 387.217 196.919C390.448 199.97 392.45 201.939 393.225 202.83C394.121 203.861 394.559 205.03 394.538 206.333C394.518 207.637 393.966 208.759 392.882 209.702C390.796 211.512 388.652 211.429 386.443 209.451C385.123 208.144 383.136 206.207 380.478 203.641C378.042 201.403 374.452 197.956 369.711 193.307C367.381 195.117 365.533 196.612 364.166 197.799C360.733 200.778 358.955 202.675 358.832 203.488C358.771 203.879 359.613 205.078 361.357 207.089C362.298 208.173 363.744 209.783 365.692 211.925C367.641 214.064 369.085 215.676 370.027 216.761C370.33 217.111 370.831 217.58 371.529 218.17C372.225 218.761 372.719 219.221 373.007 219.553C373.887 220.566 374.347 221.684 374.392 222.901C374.457 224.286 373.902 225.487 372.73 226.504C370.768 228.206 368.707 228.203 366.545 226.493C364.696 225.033 361.38 221.551 356.6 216.044C351.652 210.347 349.201 205.962 349.239 202.893C349.284 199.514 352.133 195.368 357.79 190.458C360.136 188.422 363.809 185.533 368.808 181.79C373.806 178.05 377.467 175.167 379.798 173.147C380.411 172.615 381.241 171.742 382.29 170.525C383.338 169.308 384.166 168.435 384.779 167.903C387.442 165.593 389.835 165.66 391.959 168.107C392.626 168.877 393.021 169.775 393.146 170.801C395.414 172.388 397.468 173.984 399.309 175.59C401.148 177.195 402.773 178.811 404.185 180.436C408.011 184.841 410.559 188.804 411.834 192.326C412.617 194.465 412.204 196.237 410.592 197.633C409.681 198.423 408.601 198.81 407.355 198.787C405.95 198.789 404.773 198.246 403.833 197.164Z" fill="#FF4A60"/>
<path d="M437.233 150.024C422.371 154.938 387.484 148.778 389.157 147.612C387.329 146.856 413.681 122.549 428.464 119.824C450.804 115.709 457.858 143.203 437.233 150.024Z" fill="#FFCD3B"/>
<path d="M344.929 68.0171C338.353 78.9795 313.486 93.7673 313.899 92.1554C312.365 92.6605 315.71 63.5765 323.404 54.0106C335.031 39.555 354.053 52.805 344.929 68.0171Z" fill="#509DFF"/>
<path d="M400.409 119.948C394.249 124.768 376.799 127.758 377.389 126.928C376.401 126.88 384.692 110.999 391.187 107.223C403.189 100.244 410.494 112.057 400.409 119.948Z" fill="#509DFF"/>
<path d="M246.845 45.0359C253.19 53.2549 257.013 76.4412 255.915 75.651C255.843 76.962 234.835 65.8201 229.878 57.1679C222.386 44.0953 238.038 33.6313 246.845 45.0359Z" fill="#509DFF"/>
<path d="M297.034 21.5821C297.815 41.9285 277.534 83.3128 276.681 80.8029C275.075 82.8144 254.199 41.1136 256.125 21.6517C259.039 -7.75334 295.949 -6.65329 297.034 21.5821Z" fill="#FFCD3B"/>
<path d="M112.402 106.28C95.0327 77.8227 57.8847 68.8292 29.427 86.1988C0.962701 103.573 -8.01954 140.723 9.35002 169.181C26.7196 197.638 63.8676 206.632 92.3319 189.258C97.3495 186.196 101.761 182.523 105.524 178.374C110.781 172.622 114.784 165.961 117.442 158.84C123.683 142.081 122.444 122.732 112.402 106.28Z" fill="#86BB6B"/>
<path d="M117.441 158.84L101.538 149.57C101.538 149.57 101.297 163.95 105.523 178.374C110.78 172.622 114.785 165.961 117.441 158.84Z" fill="#86BB6B"/>
<path d="M101.538 149.57L73.2109 179.483C73.3367 180.257 131.193 192.032 131.193 192.032C131.193 192.032 101.431 151.09 101.538 149.57Z" fill="#86BB6B"/>
<path d="M46.8755 167.402C45.9416 167.402 45.0099 167.045 44.2983 166.334L30.1144 152.15C28.691 150.726 28.691 148.419 30.1144 146.995C31.5377 145.572 33.8456 145.572 35.2689 146.995L46.8755 158.602L91.9686 113.509C93.3919 112.086 95.6998 112.086 97.1231 113.509C98.5464 114.932 98.5464 117.24 97.1231 118.663L49.4528 166.334C48.7411 167.045 47.8095 167.402 46.8755 167.402Z" fill="white"/>
<path d="M60.8787 227.945C60.8787 227.945 65.2654 238.086 67.8247 240.645C70.384 243.205 80.5247 247.591 80.5247 247.591C80.5247 247.591 70.384 251.978 67.8247 254.537C65.2654 257.097 60.8787 267.237 60.8787 267.237C60.8787 267.237 56.4897 257.097 53.9304 254.537C51.3711 251.978 41.2305 247.591 41.2305 247.591C41.2305 247.591 51.3711 243.205 53.9304 240.645C56.4897 238.086 60.8787 227.945 60.8787 227.945Z" fill="#FFCD3B"/>
<path d="M213.593 372.625C213.593 372.625 213.932 381.419 215.097 384.057C216.26 386.694 222.53 392.87 222.53 392.87C222.53 392.87 213.737 393.209 211.099 394.375C208.461 395.537 202.285 401.808 202.285 401.808C202.285 401.808 201.946 393.014 200.781 390.376C199.618 387.738 193.348 381.562 193.348 381.562C193.348 381.562 202.141 381.223 204.779 380.058C207.417 378.893 213.593 372.625 213.593 372.625Z" fill="#FF4A60"/>
<path d="M442.618 228.322C442.618 228.322 433.817 228.284 431.132 229.333C428.447 230.381 422.007 236.38 422.007 236.38C422.007 236.38 422.045 227.579 420.996 224.894C419.948 222.209 413.949 215.768 413.949 215.768C413.949 215.768 422.75 215.806 425.435 214.758C428.12 213.71 434.561 207.711 434.561 207.711C434.561 207.711 434.522 216.511 435.571 219.196C436.621 221.881 442.618 228.322 442.618 228.322Z" fill="#FFCD3B"/>
<path d="M163.488 48.0781C163.488 48.0781 173.211 57.0491 177.254 58.6072C181.297 60.1652 194.525 60.0462 194.525 60.0462C194.525 60.0462 185.554 69.7693 183.996 73.8126C182.438 77.8558 182.557 91.0833 182.557 91.0833C182.557 91.0833 172.834 82.1123 168.79 80.5543C164.747 78.9963 151.52 79.1152 151.52 79.1152C151.52 79.1152 160.491 69.3921 162.049 65.3489C163.607 61.3057 163.488 48.0781 163.488 48.0781Z" fill="#FF4A60"/>
</svg>
