<svg width="205" height="231" viewBox="0 0 205 231" fill="none" xmlns="http://www.w3.org/2000/svg">
<path d="M120.65 117.694C120.65 117.694 116.005 98.7351 142.428 93.7521C144.567 93.5726 177.062 90.7294 177.774 62.0663C178.307 62.2458 178.893 36.7924 149.055 32.8794C149.032 31.6299 151.351 -3.60989 103.509 0.303143C104.042 1.01392 69.9491 5.64522 68.876 48.539C69.4088 48.3594 68.5158 79.8657 98.8716 97.306C98.5114 96.5953 75.8402 73.4537 98.8716 41.7753C99.9448 41.4162 98.5114 47.5588 102.624 52.1901C102.181 51.831 98.5189 40.9748 107.892 36.1714C107.712 36.351 117.888 33.0589 121.46 26.2055C121.018 26.2953 121.663 33.0589 112.447 36.7101C113.16 36.8897 132.087 36.0891 141.55 20.7811C141.37 20.9607 143.606 29.1459 139.321 34.9294C139.411 35.0192 134.323 37.8698 134.676 49.7062C134.856 49.347 134.586 50.2374 134.586 50.2374H130.301L130.03 52.6391L128.064 53.1703L127.974 54.2402L125.835 54.749C125.835 54.749 125.835 60.2931 122.353 59.7544C122.353 59.5748 119.854 60.3754 117.708 57.7941C117.348 57.7941 115.389 55.4822 113.783 54.1429C114.053 54.4123 106.106 56.814 107.622 68.2912C107.802 68.1116 110.301 80.1276 125.835 82.1776C125.303 82.5368 119.944 79.5964 118.871 77.0151C119.314 78.2646 119.404 72.3838 119.404 72.3838L119.937 66.8696L123.404 66.3384L124.402 65.6276L126.008 62.777C126.008 62.777 125.295 54.0083 136.364 54.7415C136.364 54.7639 136.004 58.8416 136.004 58.8416C136.004 58.8416 141.002 53.5144 148.319 59.9264C147.606 59.3952 155.816 65.9793 150.638 76.1248C150.278 76.3043 147.606 81.2274 141.055 82.7687C141.175 83.0081 122.008 90.9539 119.397 103.77C119.997 103.299 117.618 111.08 120.65 117.694Z" fill="#EE5F35"/>
<path d="M60.9659 58.8496C60.9659 58.8496 60.4931 79.4398 80.125 91.7176C79.4121 91.7176 106.368 107.205 108.154 123.044C108.154 122.685 108.597 129.007 108.597 129.007C108.597 129.007 94.5262 131.828 81.0706 116.52C80.7104 116.64 72.7105 108.365 70.9245 103.734C70.5642 103.464 75.3596 130.878 106.068 137.282C106.188 136.923 135.944 142.026 149.032 122.094C149.272 122.453 156.176 113.909 157.242 111.058C157.715 111.178 154.743 128.147 140.221 139.063C140.582 139.063 118.676 154.61 91.5394 147.129C92.3724 147.129 73.446 144.877 56.7859 117.583C55.3675 116.872 42.8725 95.279 60.9659 58.8496Z" fill="#EE5F35"/>
<path d="M3.354 200.564H9.71787V213.246H35.1658V200.564H41.5296V219.591H3.36152V200.564H3.354ZM15.2637 197.392L19.1361 194.107L22.4306 196.936L25.725 194.107L29.5974 197.392L25.725 200.676L22.4306 197.908L19.1361 200.676L15.2637 197.392ZM18.5657 191.511L22.4381 188.227L26.3104 191.511L22.4381 194.796L18.5657 191.511Z" fill="#EE5F35"/>
<path d="M43.2558 221.955L47.3082 223.28V200.564H53.672V213.246H57.717V219.591H53.672V226.684L47.3082 229.968L41.2896 227.948L43.2558 221.955Z" fill="#EE5F35"/>
<path d="M75.0672 213.246V219.59H57.7166C57.2138 219.59 56.8011 219.426 56.4709 219.097C56.1407 218.767 55.9756 218.356 55.9756 217.855V214.974C55.9756 214.473 56.1407 214.061 56.4709 213.732C56.8011 213.403 57.2138 213.238 57.7166 213.238H75.0672V213.246Z" fill="#EE5F35"/>
<path d="M92.4172 213.246V219.59H75.0667C74.5639 219.59 74.1512 219.426 73.821 219.097C73.4908 218.767 73.3257 218.356 73.3257 217.855V214.974C73.3257 214.473 73.4908 214.061 73.821 213.732C74.1512 213.403 74.5639 213.238 75.0667 213.238H92.4172V213.246Z" fill="#EE5F35"/>
<path d="M109.768 213.246V219.59H92.4178C91.915 219.59 91.5022 219.426 91.172 219.097C90.8418 218.767 90.6768 218.356 90.6768 217.855V214.974C90.6768 214.473 90.8418 214.061 91.172 213.732C91.5022 213.403 91.915 213.238 92.4178 213.238H109.768V213.246Z" fill="#EE5F35"/>
<path d="M127.111 213.246V219.59H109.76C109.258 219.59 108.845 219.426 108.515 219.097C108.184 218.767 108.027 218.356 108.027 217.855V214.974C108.027 214.473 108.192 214.061 108.515 213.732C108.845 213.403 109.258 213.238 109.76 213.238H127.111V213.246Z" fill="#EE5F35"/>
<path d="M144.462 213.246V219.59H127.111C126.609 219.59 126.196 219.426 125.866 219.097C125.536 218.767 125.378 218.356 125.378 217.855V214.974C125.378 214.473 125.543 214.061 125.866 213.732C126.196 213.403 126.609 213.238 127.111 213.238H144.462V213.246Z" fill="#EE5F35"/>
<path d="M161.812 213.246V219.59H144.462C143.959 219.59 143.546 219.426 143.216 219.097C142.886 218.767 142.728 218.356 142.728 217.855V214.974C142.728 214.473 142.893 214.061 143.216 213.732C143.546 213.403 143.959 213.238 144.462 213.238H161.812V213.246Z" fill="#EE5F35"/>
<path d="M179.162 213.246V219.59H161.812C161.309 219.59 160.896 219.426 160.566 219.097C160.236 218.767 160.078 218.356 160.078 217.855V214.974C160.078 214.473 160.243 214.061 160.566 213.732C160.896 213.403 161.309 213.238 161.812 213.238H179.162V213.246Z" fill="#EE5F35"/>
<path d="M179.163 219.591C178.66 219.591 178.248 219.426 177.918 219.097C177.587 218.768 177.43 218.356 177.43 217.855V214.974C177.43 214.473 177.595 214.061 177.918 213.732C178.248 213.403 178.66 213.238 179.163 213.238H183.208V200.557H189.572V213.238H193.617V219.583H179.163V219.591ZM179.936 226.683L183.426 222.823L186.39 226.107L189.354 222.823L192.844 226.683L189.354 230.544L186.39 227.26L183.426 230.544L179.936 226.683Z" fill="#EE5F35"/>
<path d="M197.67 213.246V200.564H204.033V219.591H193.625C193.122 219.591 192.709 219.426 192.379 219.097C192.049 218.768 191.891 218.356 191.891 217.855V214.975C191.891 214.473 192.056 214.062 192.379 213.733C192.709 213.403 193.122 213.239 193.625 213.239H197.67V213.246ZM195.591 227.14L199.463 223.28L203.336 227.14L199.463 231.001L195.591 227.14Z" fill="#EE5F35"/>
<path d="M30.4376 169.379V150.734H38.625V185.705C38.625 189.416 39.278 192.012 43.0903 192.012H43.6456V193.868H36.111C33.8747 193.868 32.4788 193.404 31.6458 192.199C30.7153 190.897 30.4376 188.862 30.4376 185.705V172.163H13.3197V193.868H5.13226V158.987C5.13226 155.186 4.47938 152.68 0.667075 152.68H0.0141602V150.734H7.64629C9.88265 150.734 11.2785 151.288 12.209 152.5C13.0496 153.802 13.3272 155.837 13.3272 158.994V169.379H30.4376Z" fill="#EE5F35"/>
<path d="M62.5419 191.182C66.9171 191.182 69.3335 188.953 71.5699 185.99L73.5211 187.381C72.5905 188.863 71.3823 190.539 69.5211 191.743C67.57 193.135 65.0559 194.063 61.6113 194.063C57.0561 194.063 53.5139 192.394 50.9099 189.611C48.3958 186.828 47 183.027 47 177.55C47 172.545 48.4859 168.647 51.0975 166.05C53.5139 163.544 56.9585 162.152 60.9585 162.152C64.9584 162.152 68.3054 163.357 70.917 165.587C73.3334 167.816 74.8268 170.966 74.8268 174.767C74.8268 175.695 74.8268 176.712 74.7368 177.453C74.6467 177.917 74.6467 178.291 74.6467 178.657H55.5702C55.5627 188.025 58.4444 191.182 62.5419 191.182ZM55.5627 175.874H66.3542C66.3542 171.609 65.7013 169.013 64.7708 167.248C63.8402 165.579 62.5344 164.928 60.9585 164.928C59.4726 164.928 58.1667 165.579 57.2362 167.248C56.2156 169.013 55.5627 171.609 55.5627 175.874Z" fill="#EE5F35"/>
<path d="M92.0348 162.145C100.312 162.145 104.965 166.506 104.965 175.313V193.771H99.5693L97.333 190.897H97.0553C96.1247 192.289 94.9165 193.217 92.9578 193.868C92.0272 194.242 90.819 194.421 89.4232 194.421C82.4439 194.421 78.7217 190.897 78.7217 184.493C78.7217 181.433 79.5622 179.113 82.1663 177.535C84.6803 175.866 88.9579 175.028 95.7495 175.028H96.7701C96.7701 167.419 94.5338 164.92 90.7215 164.92C89.2356 164.92 87.9298 165.197 86.8116 166.035C85.791 166.873 84.8604 168.265 84.3951 170.584H80.9505C80.9505 168.452 80.9505 166.035 82.534 164.277C84.0349 162.608 87.8472 162.145 92.0348 162.145ZM96.7776 187.194V177.916H95.757C89.7083 177.916 87.2919 180.049 87.2919 184.5C87.2919 189.416 88.8753 191.272 91.3818 191.272C93.333 191.272 94.5488 190.254 95.4793 189.229C95.9371 188.675 96.4024 187.935 96.7776 187.194Z" fill="#EE5F35"/>
<path d="M123.757 193.689L113.056 170.038C111.937 167.629 111.104 166.05 110.264 165.123C109.423 164.105 108.493 163.544 107.472 163.544V162.242C107.66 162.242 107.937 162.242 108.493 162.152H109.799C112.313 162.152 114.639 162.429 116.59 163.544C118.639 164.659 120.402 166.701 121.986 170.038L127.479 182.099L136.132 162.713H139.577L126.083 193.696H123.757V193.689Z" fill="#EE5F35"/>
<path d="M157.714 191.182C162.089 191.182 164.506 188.953 166.742 185.99L168.693 187.381C167.763 188.863 166.555 190.539 164.693 191.743C162.742 193.135 160.228 194.063 156.784 194.063C152.221 194.063 148.686 192.394 146.082 189.611C143.568 186.828 142.172 183.027 142.172 177.55C142.172 172.545 143.658 168.647 146.27 166.05C148.686 163.544 152.131 162.152 156.131 162.152C160.131 162.152 163.478 163.357 166.089 165.587C168.506 167.816 169.999 170.966 169.999 174.767C169.999 175.695 169.999 176.712 169.909 177.453C169.819 177.917 169.819 178.291 169.819 178.657H150.743C150.743 188.025 153.624 191.182 157.714 191.182ZM150.743 175.874H161.534C161.534 171.609 160.881 169.013 159.951 167.248C159.02 165.579 157.714 164.928 156.138 164.928C154.652 164.928 153.347 165.579 152.416 167.248C151.388 169.013 150.743 171.609 150.743 175.874Z" fill="#EE5F35"/>
<path d="M190.75 165.302C187.959 165.302 186.007 166.14 184.889 167.248C184.979 167.435 184.979 167.801 185.077 168.086C185.264 168.639 185.354 169.567 185.354 170.592V193.876H177.077V170.966C177.077 169.111 176.889 167.442 176.334 166.327C175.779 165.212 174.563 164.659 172.702 164.659H172.146V162.713H178.375C181.257 162.713 182.75 163.364 183.681 165.123C184.424 164.382 185.452 163.641 186.938 163.08C188.424 162.526 190.383 162.152 192.889 162.152C200.799 162.152 204.986 165.587 204.986 173.749V193.876H196.709V173.652C196.701 167.524 194.187 165.302 190.75 165.302Z" fill="#EE5F35"/>
</svg>
