<svg width="21" height="24" viewBox="0 0 21 24" fill="none" xmlns="http://www.w3.org/2000/svg">
<path d="M11.7873 18.9366C11.7873 18.9366 11.0399 15.8862 15.2913 15.0844C15.6354 15.0555 20.8637 14.5981 20.9784 9.98626C21.0642 10.0152 21.1583 5.91978 16.3575 5.29018C16.3539 5.08914 16.727 -0.58082 9.02944 0.0487747C9.11517 0.163137 3.6297 0.908297 3.45703 7.80976C3.54276 7.78087 3.39907 12.8501 8.28324 15.6562C8.22528 15.5419 4.57755 11.8185 8.28324 6.72152C8.4559 6.66373 8.22528 7.65206 8.88696 8.39722C8.81572 8.33944 8.22648 6.59271 9.7346 5.81986C9.70562 5.84875 11.3429 5.31907 11.9177 4.21638C11.8464 4.23082 11.9503 5.31907 10.4675 5.90653C10.5822 5.93542 13.6274 5.80662 15.15 3.34361C15.1211 3.37251 15.4809 4.68948 14.7914 5.62002C14.8059 5.63447 13.9873 6.09312 14.044 7.99756C14.073 7.93977 14.0295 8.08303 14.0295 8.08303H13.3401L13.2966 8.46945L12.9802 8.55492L12.9658 8.72707L12.6216 8.80893C12.6216 8.80893 12.6216 9.70096 12.0614 9.61428C12.0614 9.58539 11.6593 9.7142 11.314 9.29888C11.256 9.29888 10.9408 8.9269 10.6825 8.71142C10.7259 8.75476 9.44722 9.14118 9.69113 10.9878C9.72011 10.9589 10.1222 12.8923 12.6216 13.2221C12.5359 13.2799 11.6738 12.8068 11.5011 12.3915C11.5723 12.5925 11.5868 11.6463 11.5868 11.6463L11.6726 10.7591L12.2304 10.6736L12.391 10.5593L12.6494 10.1006C12.6494 10.1006 12.5347 8.68975 14.3157 8.80773C14.3157 8.81134 14.2577 9.46741 14.2577 9.46741C14.2577 9.46741 15.0619 8.6103 16.2392 9.64197C16.1245 9.5565 17.4454 10.6159 16.6123 12.2482C16.5543 12.2771 16.1245 13.0692 15.0703 13.3172C15.0897 13.3557 12.0058 14.6342 11.5856 16.6963C11.6822 16.6205 11.2995 17.8724 11.7873 18.9366Z" fill="#EE5F35"/>
<path d="M2.18387 9.46875C2.18387 9.46875 2.1078 12.7816 5.26651 14.7571C5.1518 14.7571 9.48898 17.249 9.77636 19.7975C9.77636 19.7397 9.8476 20.7569 9.8476 20.7569C9.8476 20.7569 7.58362 21.2108 5.41865 18.7477C5.36069 18.767 4.07354 17.4356 3.78617 16.6904C3.72821 16.6471 4.49977 21.0579 9.44069 22.0883C9.46 22.0305 14.2476 22.8516 16.3534 19.6446C16.392 19.7024 17.5029 18.3276 17.6743 17.869C17.7504 17.8882 17.2722 20.6185 14.9358 22.3748C14.9938 22.3748 11.4692 24.8764 7.10305 23.6726C7.23708 23.6726 4.19187 23.3102 1.51132 18.9187C1.28311 18.8043 -0.727308 15.3301 2.18387 9.46875Z" fill="#EE5F35"/>
</svg>
