<svg width="20" height="20" viewBox="0 0 20 20" fill="none" xmlns="http://www.w3.org/2000/svg">
<path d="M10.0017 16.0327C7.69339 16.0327 5.38508 15.6493 3.46008 14.8743C2.02674 14.2993 1.29337 13.1827 1.49337 11.8994C1.59965 11.2045 2.01874 10.6459 2.38867 10.1529L2.41007 10.1244C2.4934 10.016 2.57672 9.90769 2.65172 9.79936C3.07672 9.19102 3.11004 8.50771 3.11004 7.73271C3.11004 4.04104 6.20173 1.04102 10.0101 1.04102C10.4684 1.04102 10.9351 1.08266 11.3767 1.17433C11.7184 1.24099 11.935 1.566 11.8684 1.90766C11.8017 2.24933 11.4767 2.46602 11.135 2.39935C10.7684 2.32435 10.3851 2.29102 10.0017 2.29102C6.88506 2.29102 4.3517 4.73271 4.3517 7.73271C4.3517 8.64937 4.30174 9.61601 3.66841 10.516C3.58508 10.6327 3.4934 10.7577 3.40174 10.8743C3.08507 11.291 2.78507 11.691 2.72674 12.091C2.57674 13.0244 3.41841 13.5077 3.92674 13.716C7.50174 15.1494 12.5017 15.1577 16.0767 13.716C16.585 13.5077 17.4267 13.0244 17.2767 12.091C17.21 11.691 16.9184 11.291 16.6017 10.8743C16.51 10.7577 16.4267 10.641 16.3434 10.5244C16.26 10.3994 16.1851 10.2827 16.1184 10.166C15.9601 9.85769 16.0767 9.48268 16.3767 9.32435C16.6851 9.16602 17.06 9.28268 17.2184 9.58268C17.26 9.65768 17.3017 9.7327 17.3601 9.8077C17.3916 9.84971 17.4231 9.89319 17.4552 9.93752C17.4995 9.99868 17.5451 10.0616 17.5934 10.1244C17.9684 10.6243 18.3934 11.1911 18.5101 11.8994C18.7101 13.1827 17.9767 14.2993 16.5434 14.8743C14.6184 15.6493 12.3101 16.0327 10.0017 16.0327Z" fill="#EE5F35"/>
<path d="M17.4851 8.12435H14.5184C13.6851 8.12435 13.0184 8.12435 12.7684 7.54935C12.5434 7.01601 12.9434 6.60766 13.2684 6.28266C13.3115 6.23959 13.3564 6.19284 13.404 6.14327C13.4577 6.08735 13.5149 6.02783 13.5767 5.96599L16.4517 3.17435C16.4517 3.17435 16.4767 3.14102 16.4934 3.12435H13.3434C13.0018 3.12435 12.7184 2.84102 12.7184 2.49935C12.7184 2.15768 13.0018 1.87435 13.3434 1.87435H16.4017C17.1684 1.87435 17.7767 1.87435 18.0267 2.44935C18.2684 3.02435 17.8851 3.44937 17.3434 4.0327L14.4601 6.82435C14.4601 6.82435 14.4351 6.85768 14.4184 6.87435H17.4851C17.8267 6.87435 18.1101 7.15768 18.1101 7.49935C18.1101 7.84102 17.8267 8.12435 17.4851 8.12435Z" fill="#EE5F35"/>
<path d="M7.11738 17.9911C7.90905 18.6161 8.93406 18.9577 10.0007 18.9577C11.0591 18.9577 12.0841 18.6161 12.8841 17.9911C13.1591 17.7827 13.2008 17.391 12.9924 17.116C12.7841 16.841 12.3924 16.791 12.1174 17.0077C10.959 17.9077 9.04242 17.9077 7.88408 17.0077C7.61742 16.791 7.21738 16.841 7.00904 17.116C6.80071 17.3827 6.84238 17.7827 7.11738 17.9911Z" fill="#EE5F35"/>
</svg>
