<svg width="32" height="32" viewBox="0 0 32 32" fill="none" xmlns="http://www.w3.org/2000/svg">
<path fill-rule="evenodd" clip-rule="evenodd" d="M16.0009 1.66602C9.93903 1.66602 4.96781 6.42815 4.96776 12.3718C4.96764 13.7413 4.8729 14.7629 4.2306 15.6825C4.11288 15.8487 3.98825 16.014 3.85176 16.195L3.74248 16.3401C3.56736 16.5732 3.37845 16.8288 3.20169 17.0976C2.85144 17.6303 2.50545 18.278 2.38629 19.0361C1.99663 21.5154 3.79423 23.0986 5.53729 23.7995C11.727 26.2882 20.2748 26.2882 26.4646 23.7995C28.2076 23.0986 30.0052 21.5154 29.6156 19.0361C29.4964 18.278 29.1504 17.6303 28.8002 17.0976C28.6234 16.8288 28.4345 16.5732 28.2594 16.3401L28.1502 16.1951C28.0138 16.0142 27.889 15.8487 27.7713 15.6826C27.129 14.7629 27.0342 13.7415 27.0341 12.3719C27.0341 6.4282 22.0629 1.66602 16.0009 1.66602ZM6.96776 12.3719C6.96776 7.59477 10.9805 3.66602 16.0009 3.66602C21.0213 3.66602 25.0341 7.59477 25.0341 12.3719C25.0342 13.7753 25.1055 15.3609 26.134 16.8312L26.1373 16.8359C26.2746 17.0298 26.4229 17.2264 26.562 17.4108L26.6603 17.5414C26.8318 17.7696 26.9888 17.9832 27.1291 18.1964C27.4128 18.6279 27.5847 18.9962 27.6398 19.3467C27.8172 20.4755 27.0796 21.3966 25.7185 21.9438C20.0075 24.2401 11.9943 24.2401 6.28339 21.9438C4.92229 21.3966 4.18462 20.4755 4.36203 19.3467C4.41712 18.9962 4.58907 18.6279 4.87279 18.1964C5.01302 17.9832 5.1701 17.7696 5.34153 17.5414L5.43993 17.4108C5.57898 17.2264 5.72724 17.0298 5.86452 16.8359L5.86782 16.8312C6.89637 15.3609 6.96764 13.7753 6.96776 12.3719Z" fill="#EE5F35"/>
<path d="M12.6174 27.2113C12.1822 26.8713 11.5537 26.9486 11.2138 27.3838C10.8738 27.8191 10.951 28.4475 11.3863 28.7875C12.6276 29.7571 14.2472 30.3327 16.0018 30.3327C17.7564 30.3327 19.376 29.7571 20.6174 28.7875C21.0527 28.4475 21.1299 27.8191 20.7899 27.3838C20.4499 26.9486 19.8215 26.8713 19.3863 27.2113C18.5046 27.9 17.3207 28.3327 16.0018 28.3327C14.683 28.3327 13.4991 27.9 12.6174 27.2113Z" fill="#EE5F35"/>
</svg>
