<svg width="366" height="358" viewBox="0 0 366 358" fill="none" xmlns="http://www.w3.org/2000/svg">
<path d="M287.856 227.688C274.706 216.221 273.466 197.434 275.814 180.928C276.205 178.172 276.222 175.215 277.796 172.934C279.37 170.652 282.626 169.319 284.974 170.752C286.923 171.943 287.564 174.424 288.497 176.531C289.754 179.332 291.774 181.721 294.326 183.426C295.992 184.526 298.107 185.325 299.948 184.551C302.446 183.493 303.121 180.22 303.395 177.472C303.917 172.342 304.439 167.21 304.961 162.074C305.236 159.326 305.536 156.511 306.668 153.996C307.801 151.481 309.958 149.258 312.656 148.8C315.354 148.342 318.427 150.207 318.685 152.964C318.666 154.113 318.569 155.259 318.394 156.395C318.352 157.544 318.743 158.893 319.793 159.301C320.842 159.709 322.041 159.085 322.957 158.368C326.097 155.87 328.403 152.539 330.594 149.158C332.784 145.777 334.916 142.338 337.822 139.589C340.728 136.841 344.543 134.818 348.507 135.018C352.471 135.217 356.41 138.107 356.984 142.079C357.559 146.052 354.886 149.758 352.079 152.631C347.927 156.901 343.178 160.547 337.98 163.457C336.985 163.878 336.148 164.604 335.59 165.53C334.799 167.296 336.34 169.311 338.089 170.102C340.062 171.01 342.311 171.035 344.426 171.518C346.541 172.001 348.773 173.183 349.364 175.315C350.197 178.247 347.516 180.945 344.992 182.627C339.938 185.993 334.344 188.466 328.453 189.939C326.355 190.455 324.148 190.88 322.366 192.121C320.584 193.361 319.326 195.735 320.109 197.783C320.892 199.832 323.349 200.723 325.514 200.557C327.679 200.39 329.678 199.441 331.793 198.891C335.732 197.875 340.587 198.658 342.619 202.222C343.985 204.537 343.801 207.544 342.719 210.017C341.525 212.442 339.857 214.602 337.814 216.371C331.046 222.923 322.66 227.561 313.513 229.812C304.42 231.902 296.2 231.852 287.831 227.73" fill="#F5F5F5"/>
<path d="M293.254 217.753C296.978 209.024 301.199 200.516 305.895 192.27L309.56 185.757C310.767 183.626 311.958 181.51 313.257 179.512C315.765 175.665 318.487 171.961 321.41 168.419C324.158 165.03 326.89 161.915 329.471 159.017C332.053 156.119 334.509 153.479 336.858 151.156C340.541 147.478 344.509 144.098 348.725 141.046C350.215 139.963 351.398 139.164 352.206 138.631L353.13 138.031C353.234 137.96 353.342 137.896 353.455 137.84C353.369 137.931 353.271 138.009 353.163 138.073L352.264 138.714C351.473 139.272 350.315 140.105 348.841 141.213C344.68 144.318 340.758 147.731 337.108 151.422C334.784 153.754 332.352 156.419 329.779 159.309C327.206 162.198 324.508 165.338 321.768 168.727C318.886 172.257 316.197 175.94 313.715 179.762C312.424 181.744 311.217 183.842 310.034 185.982L306.387 192.495C301.694 200.723 297.468 209.208 293.729 217.911" fill="#E0E0E0"/>
<path d="M313.398 179.503C313.308 179.11 313.261 178.708 313.256 178.304C313.198 177.53 313.14 176.397 313.098 174.973C313.006 172.192 313.006 168.353 313.023 164.147C313.04 159.942 313.023 156.069 312.856 153.321C312.79 151.93 312.723 150.823 312.673 150.04C312.63 149.636 312.63 149.228 312.673 148.824C312.785 149.213 312.858 149.612 312.89 150.015C313.006 150.79 313.123 151.905 313.239 153.296C313.464 156.069 313.573 159.958 313.556 164.172C313.539 168.386 313.506 172.133 313.481 174.998V178.329C313.502 178.723 313.474 179.117 313.398 179.503Z" fill="#E0E0E0"/>
<path d="M349.491 176.748C349.014 176.793 348.535 176.793 348.058 176.748C347.142 176.748 345.818 176.698 344.178 176.748C340.897 176.748 336.375 176.906 331.386 177.298C326.398 177.689 321.901 178.264 318.653 178.755C317.029 178.997 315.722 179.221 314.822 179.371C314.355 179.48 313.878 179.544 313.398 179.563C313.848 179.397 314.31 179.269 314.781 179.18C315.68 178.963 316.979 178.68 318.603 178.397C321.834 177.806 326.348 177.189 331.345 176.79C335.615 176.433 339.901 176.297 344.186 176.382C345.852 176.382 347.151 176.507 348.067 176.582C348.545 176.594 349.022 176.65 349.491 176.748Z" fill="#E0E0E0"/>
<path d="M293.753 217.153C293.667 217.01 293.602 216.856 293.562 216.695C293.437 216.328 293.279 215.862 293.095 215.346C292.696 214.18 292.163 212.473 291.521 210.349C290.256 206.11 288.682 200.206 287.041 193.694C285.401 187.181 283.885 181.202 282.702 176.98C282.119 174.906 281.645 173.207 281.295 171.942C281.137 171.392 281.02 170.942 280.912 170.568C280.804 170.193 280.795 170.084 280.82 170.076C280.902 170.221 280.967 170.374 281.012 170.534C281.137 170.901 281.295 171.367 281.478 171.883C281.878 173.049 282.419 174.756 283.052 176.88C284.318 181.11 285.892 187.023 287.532 193.535C289.173 200.048 290.689 206.027 291.871 210.249C292.454 212.323 292.929 214.021 293.279 215.246C293.437 215.795 293.553 216.253 293.662 216.62C293.77 216.986 293.778 217.144 293.753 217.153Z" fill="#E0E0E0"/>
<path d="M342.394 207.068C342.24 207.136 342.077 207.183 341.911 207.21L340.495 207.518L335.282 208.609C330.885 209.533 324.823 210.874 318.127 212.364C311.432 213.855 305.352 215.138 300.939 215.97C298.724 216.387 296.933 216.703 295.692 216.895L294.26 217.111C294.091 217.132 293.921 217.132 293.752 217.111C293.909 217.043 294.074 216.995 294.243 216.97L295.659 216.661L300.864 215.571C305.261 214.646 311.323 213.305 318.019 211.815C324.714 210.324 330.794 209.042 335.216 208.209C337.422 207.792 339.213 207.476 340.454 207.285L341.886 207.068C342.055 207.048 342.225 207.048 342.394 207.068Z" fill="#E0E0E0"/>
<path d="M13.7503 85.3016C13.7503 85.3016 8.56212 87.4001 14.5414 98.4177C20.5207 109.435 24.6263 114.865 24.6263 114.865C24.6263 114.865 25.7005 117.438 23.527 117.896C21.3535 118.354 16.5317 117.713 15.6323 120.395C14.733 123.076 16.7732 125.749 20.9121 127.931C25.051 130.113 33.9366 135.243 34.7444 135.709C35.5522 136.176 36.335 137.375 34.911 137.908C33.487 138.441 22.7026 139.865 23.6769 144.936C24.6513 150.008 37.1761 154.263 38.5419 154.713C39.9076 155.163 40.2074 155.762 40.1491 156.503C40.0908 157.245 36.385 157.378 33.3371 157.903C30.2891 158.427 26.8414 159.568 27.6492 162.449C28.457 165.331 35.9769 171.235 53.8732 172.526L62.2009 172.576L66.5813 165.422C74.909 149.55 73.918 140.056 71.8943 137.849C69.8707 135.643 67.0893 137.958 65.024 140.264C62.9587 142.571 60.9184 145.619 60.2356 145.303C59.5527 144.986 59.2612 144.403 59.5693 142.996C59.8775 141.589 62.9004 128.731 59.153 125.216C55.4055 121.702 48.4602 130.113 47.236 131.046C46.0118 131.978 45.4372 130.654 45.4622 129.747C45.4872 128.839 45.8453 118.562 46.1784 113.924C46.5115 109.285 45.4372 106.137 42.5725 105.455C39.7078 104.772 37.8007 109.235 36.2601 110.834C34.7195 112.433 33.1122 110.16 33.1122 110.16C33.1122 110.16 30.6722 103.822 24.4847 92.9131C18.2972 82.0038 13.6587 85.4181 13.6587 85.4181" fill="#EBEBEB"/>
<path d="M62.6849 174.524C58.1713 166.496 50.3932 152.089 43.6561 139.756C36.919 127.423 30.7731 116.263 26.3261 108.211L21.0214 98.6837C20.4051 97.5595 19.9138 96.6934 19.5807 96.0855C19.4224 95.8023 19.2975 95.5775 19.2142 95.4109C19.171 95.3354 19.1321 95.2576 19.0977 95.1777L19.2392 95.4026L19.6306 96.0605L21.113 98.6337C22.3954 100.866 24.2359 104.105 26.4843 108.127C30.998 116.155 37.1355 127.281 43.8809 139.631C50.6264 151.981 58.3795 166.38 62.8431 174.433" fill="#E0E0E0"/>
<path d="M22.3438 121.576C22.5434 121.602 22.7391 121.653 22.9267 121.726C23.3014 121.834 23.8344 122.009 24.4923 122.226C25.7997 122.667 27.5985 123.325 29.5639 124.091L34.5605 126.056L36.0845 126.648C36.2783 126.705 36.4654 126.783 36.6424 126.881C36.4406 126.857 36.2422 126.809 36.0512 126.739C35.6847 126.631 35.1518 126.456 34.4939 126.231C33.1864 125.773 31.396 125.09 29.4306 124.333L24.384 122.401L22.8517 121.818C22.6747 121.754 22.5045 121.674 22.3438 121.576Z" fill="#E0E0E0"/>
<path d="M37.2351 126.34C37.1684 126.34 38.3676 122.551 39.9083 117.929C41.4489 113.307 42.748 109.602 42.8146 109.602C42.8813 109.602 41.6904 113.382 40.1498 118.004C38.6091 122.626 37.31 126.357 37.2351 126.34Z" fill="#E0E0E0"/>
<path d="M46.7363 145.743C46.8205 145.555 46.9298 145.378 47.0611 145.219L48.0105 143.845C48.8432 142.679 49.9175 141.071 51.0667 139.248C52.216 137.424 53.207 135.75 53.9065 134.526L54.7393 133.077C54.8267 132.891 54.9387 132.717 55.0724 132.561C55.0049 132.756 54.9213 132.945 54.8225 133.127C54.656 133.485 54.3895 133.96 54.0564 134.617C53.3985 135.867 52.3908 137.565 51.2749 139.389C50.159 141.213 48.9931 142.812 48.152 143.953C47.7357 144.519 47.3859 144.969 47.1361 145.277C47.019 145.446 46.8851 145.602 46.7363 145.743Z" fill="#E0E0E0"/>
<path d="M32.3203 144.402C32.5086 144.382 32.6984 144.382 32.8866 144.402L34.4272 144.485C35.7347 144.568 37.5335 144.693 39.5155 144.851C41.4974 145.009 43.2962 145.176 44.5954 145.301L46.136 145.468C46.3248 145.477 46.512 145.508 46.6939 145.559C46.5057 145.579 46.3159 145.579 46.1277 145.559L44.587 145.476C43.2796 145.393 41.4808 145.268 39.4988 145.101C37.5168 144.935 35.718 144.785 34.4189 144.66L32.8783 144.493C32.6892 144.486 32.5017 144.456 32.3203 144.402Z" fill="#E0E0E0"/>
<path d="M38.5234 162.59C38.7672 162.569 39.0125 162.569 39.2563 162.59L41.2299 162.69C42.8955 162.782 45.2106 162.932 47.7589 163.107C50.3071 163.282 52.6056 163.465 54.2711 163.606L56.2448 163.79C56.4886 163.803 56.7309 163.836 56.9693 163.889C56.7283 163.911 56.4858 163.911 56.2448 163.889L54.2628 163.79C52.5973 163.698 50.2822 163.548 47.7339 163.365C45.1856 163.182 42.8872 163.015 41.2216 162.874L39.248 162.69C39.0041 162.677 38.7618 162.643 38.5234 162.59Z" fill="#E0E0E0"/>
<path d="M56.5371 163.74C56.6471 163.503 56.7781 163.278 56.9285 163.065L58.0777 161.283C59.0437 159.776 60.3595 157.685 61.7586 155.329C63.1576 152.972 64.3652 150.823 65.2312 149.258C65.6476 148.508 65.9974 147.884 66.2555 147.401C66.374 147.168 66.5104 146.945 66.6636 146.734C66.577 146.981 66.4712 147.22 66.3471 147.451C66.1306 147.9 65.8058 148.55 65.3978 149.349C64.565 150.94 63.3825 153.113 61.9834 155.462C60.5844 157.81 59.2353 159.9 58.2276 161.383C57.728 162.124 57.3116 162.724 57.0118 163.123C56.8726 163.343 56.7137 163.549 56.5371 163.74Z" fill="#E0E0E0"/>
<path d="M295.367 260.559L286.232 307.598L356.022 321.151L365.157 274.112L295.367 260.559Z" fill="#EBEBEB"/>
<path d="M365.28 274.731C365.037 274.919 364.778 275.086 364.506 275.231L362.216 276.555L353.788 281.327L325.799 296.908L325.565 297.033L325.399 296.833L324.983 296.35L304.013 271.567L297.718 264.005L296.052 261.932C295.843 261.697 295.656 261.443 295.494 261.174C295.732 261.38 295.952 261.606 296.152 261.848L297.926 263.839L304.388 271.267C309.826 277.621 317.271 286.323 325.499 295.925L325.915 296.417L325.516 296.342L353.597 280.935L362.124 276.339C363.09 275.831 363.865 275.423 364.456 275.123C364.719 274.969 364.995 274.838 365.28 274.731Z" fill="#E0E0E0"/>
<path d="M286.351 308.216C286.243 308.083 292.738 302.653 300.866 296.091C308.994 289.528 315.681 284.332 315.798 284.474C315.914 284.615 309.41 290.036 301.274 296.599C293.138 303.161 286.434 308.324 286.351 308.216Z" fill="#E0E0E0"/>
<path d="M339.106 288.389C339.265 288.306 343.212 295.718 347.909 304.937C352.606 314.155 356.303 321.692 356.145 321.775C355.987 321.858 352.039 314.447 347.334 305.228C342.629 296.009 338.948 288.473 339.106 288.389Z" fill="#E0E0E0"/>
<path d="M334.801 55.6957C334.407 55.7591 334.009 55.7869 333.61 55.779L330.196 55.8456L317.621 55.9705L276.157 56.0871H272.826V55.6957C272.868 40.2062 272.909 26.3156 272.943 16.1974C272.993 11.2008 273.034 7.2118 273.068 4.33041C273.068 2.99798 273.118 1.9237 273.134 1.11591C273.121 0.742009 273.149 0.36776 273.218 0C273.275 0.369106 273.3 0.742475 273.293 1.11591L273.359 4.33041C273.359 7.2118 273.434 11.2424 273.484 16.1974C273.484 26.3156 273.559 40.2062 273.601 55.6957L273.218 55.3043H276.174L317.638 55.4209L330.212 55.5458L333.627 55.6208C334.02 55.6143 334.412 55.6393 334.801 55.6957Z" fill="#E0E0E0"/>
<path d="M327.954 13.5234C327.391 14.1542 326.779 14.739 326.122 15.2723L320.917 19.8442C316.504 23.6749 310.375 28.9214 303.571 34.6758L302.538 35.5086L302.272 35.7334L302.022 35.5003L294.302 28.3301H294.76L283.451 37.7238L280.162 40.347C279.789 40.6873 279.378 40.9835 278.938 41.2297C279.262 40.8422 279.625 40.4879 280.02 40.1721C280.842 39.4393 281.894 38.5093 283.176 37.3823L294.327 27.8138L294.569 27.6056L294.802 27.8304L302.555 34.959H302.039L303.071 34.1262C309.875 28.3634 316.062 23.1836 320.559 19.4611L325.922 15.0807C326.556 14.5067 327.235 13.9859 327.954 13.5234Z" fill="#E0E0E0"/>
<path d="M327.956 26.4156C327.742 25.1477 327.653 23.8618 327.69 22.5765C327.615 20.1948 327.573 16.8887 327.565 13.2078L327.956 13.5992H327.29C323.459 13.5992 319.995 13.5576 317.48 13.4826C316.12 13.5244 314.758 13.4324 313.416 13.2078C314.759 12.9884 316.12 12.8964 317.48 12.933C319.978 12.8664 323.459 12.8164 327.29 12.8164H328.348V13.2078C328.348 16.8887 328.298 20.1948 328.231 22.5765C328.269 23.8622 328.176 25.1483 327.956 26.4156Z" fill="#E0E0E0"/>
<path d="M11.1837 261.007C12.358 260.285 13.6241 259.725 14.9479 259.341L15.7223 255.619L22.0098 255.502L22.9175 259.199C24.2495 259.528 25.532 260.032 26.7316 260.698L29.9128 258.617L34.4347 262.989L32.4361 266.27C33.1564 267.439 33.7166 268.699 34.1016 270.017L37.8241 270.792L37.9323 277.079L34.2432 277.987C33.9157 279.319 33.4116 280.602 32.7442 281.801L34.8261 284.982L30.4541 289.512L27.2063 287.539C26.032 288.26 24.7659 288.821 23.4421 289.204L22.6677 292.927L16.3802 293.043L15.4725 289.346C14.14 289.018 12.8573 288.514 11.6584 287.847L8.47724 289.929L3.94697 285.557L5.92063 282.309C5.19896 281.135 4.63874 279.869 4.25509 278.545L0.532603 277.77L0.416016 271.483L4.12185 270.558C4.45085 269.226 4.9549 267.944 5.62083 266.744L3.53891 263.563L7.91095 259.033L11.1588 261.007H11.1837ZM14.5148 269.384C13.5993 270.35 12.99 271.565 12.7634 272.876C12.5368 274.188 12.7032 275.537 13.2415 276.754C13.7799 277.971 14.6661 279.001 15.7888 279.716C16.9115 280.43 18.2204 280.796 19.5508 280.769C20.8813 280.741 22.1738 280.32 23.2658 279.56C24.3577 278.799 25.2003 277.733 25.6875 276.494C26.1747 275.256 26.2847 273.901 26.0037 272.6C25.7227 271.3 25.0633 270.111 24.1083 269.184C23.4684 268.567 22.7125 268.081 21.8843 267.757C21.0561 267.432 20.1718 267.275 19.2825 267.293C18.3932 267.312 17.5163 267.506 16.7023 267.865C15.8884 268.224 15.1534 268.74 14.5398 269.384H14.5148Z" fill="#E0E0E0"/>
<path d="M14.5407 269.384C14.8919 268.953 15.311 268.582 15.7815 268.285C17.0812 267.436 18.6364 267.068 20.1785 267.244C21.3272 267.368 22.426 267.78 23.3725 268.442C24.319 269.105 25.0824 269.996 25.5916 271.033C26.1978 272.263 26.4267 273.645 26.2494 275.005C26.0571 276.471 25.3988 277.836 24.3717 278.899C23.3446 279.962 22.0031 280.667 20.545 280.91C19.8583 281.022 19.158 281.022 18.4714 280.91C17.809 280.824 17.1633 280.638 16.556 280.36C15.5012 279.889 14.5829 279.159 13.8868 278.237C13.1907 277.315 12.7395 276.232 12.5753 275.089C12.3451 273.551 12.6604 271.98 13.4664 270.65C13.7433 270.161 14.1009 269.721 14.524 269.351C14.524 269.351 14.116 269.801 13.5913 270.725C12.8692 272.043 12.6083 273.564 12.8502 275.047C13.0086 276.061 13.4053 277.023 14.0077 277.854C14.6928 278.809 15.6217 279.562 16.6976 280.035C17.2768 280.295 17.8915 280.466 18.5213 280.543C19.1745 280.633 19.8379 280.619 20.4867 280.502C21.8612 280.267 23.1247 279.599 24.0926 278.595C25.0604 277.591 25.682 276.304 25.8664 274.922C25.9748 274.272 25.9748 273.607 25.8664 272.957C25.7714 272.332 25.5804 271.725 25.3001 271.158C24.7879 270.097 23.9998 269.194 23.0183 268.543C22.1615 267.979 21.1821 267.627 20.1619 267.519C18.6727 267.324 17.1614 267.638 15.8731 268.41C14.9487 268.968 14.574 269.426 14.5407 269.384Z" fill="#E0E0E0"/>
<path d="M11.1853 261.006L10.9771 260.898L10.3525 260.54L7.90417 259.091H7.97912L3.63206 263.638V263.521L5.78893 266.686V266.744V266.802C5.1338 267.998 4.63824 269.275 4.31493 270.6V270.675H4.23998L0.550803 271.591L0.659065 271.458C0.700703 273.431 0.742343 275.538 0.783981 277.745L0.659065 277.595L4.38988 278.361H4.48148V278.453C4.85587 279.76 5.40193 281.012 6.10539 282.175L6.15535 282.259L6.10539 282.342L4.12339 285.631V285.415C5.54743 286.789 7.07973 288.271 8.65366 289.779H8.42881L11.6017 287.688L11.7016 287.63L11.7932 287.68C12.9626 288.339 14.2144 288.841 15.5157 289.171H15.624V289.279C15.9071 290.437 16.2152 291.694 16.5317 292.968L16.3401 292.827L22.6359 292.71L22.4444 292.868C22.6942 291.686 22.9523 290.42 23.2188 289.146V289.029H23.3354C24.6377 288.66 25.8843 288.116 27.0412 287.414L27.1412 287.355L27.2411 287.414L30.4889 289.387H30.2474L34.6195 284.857V285.098L32.5375 281.917L32.4709 281.817L32.5292 281.717C33.2223 280.543 33.7518 279.279 34.1031 277.962V277.845H34.2197L37.9089 276.946L37.7673 277.129C37.734 274.98 37.7007 272.882 37.6674 270.833L37.809 271.008L34.1031 270.2H34.0032V270.1C33.6377 268.793 33.097 267.54 32.396 266.378L32.3377 266.286L32.396 266.203L34.3696 262.955V263.155L29.856 258.775H30.0392L26.8081 260.856L26.7415 260.906L26.6665 260.865C25.4787 260.199 24.2072 259.695 22.8857 259.366H22.8108V259.291L21.9197 255.593L22.028 255.677L15.7405 255.76L15.8238 255.693C15.5074 257.176 15.2409 258.391 14.9911 259.407C13.9976 259.684 13.0328 260.055 12.1097 260.515L11.4351 260.865L11.2103 260.981L11.4185 260.84C11.56 260.748 11.7849 260.615 12.0847 260.457C12.9992 259.969 13.9621 259.579 14.9577 259.291L14.9078 259.333C15.116 258.317 15.3658 257.092 15.6656 255.61V255.543H15.7405L22.028 255.41H22.1196V255.493C22.411 256.634 22.7108 257.842 23.0439 259.183L22.944 259.091C24.291 259.418 25.5879 259.925 26.7997 260.598H26.6582L29.831 258.508L29.931 258.441L30.0142 258.525L34.5528 262.888L34.6444 262.98L34.5778 263.088L32.6125 266.344V266.17C33.3318 267.357 33.8918 268.634 34.278 269.967L34.1448 269.85L37.8756 270.617H38.0088V270.85C38.0422 272.893 38.081 274.989 38.1254 277.137V277.287H37.9839L34.2864 278.195L34.4279 278.053C34.0946 279.402 33.585 280.701 32.9123 281.917V281.726C33.5952 282.775 34.2947 283.833 34.9942 284.899L35.0775 285.032L34.9692 285.14L30.6055 289.67L30.4972 289.779L30.364 289.695L27.1162 287.73H27.3077C26.1202 288.455 24.84 289.015 23.502 289.396L23.6435 289.246C23.3771 290.52 23.1106 291.794 22.8691 292.968V293.118H22.7108L16.4234 293.226H16.2735V293.076L15.3741 289.379L15.5157 289.52C14.1657 289.186 12.8662 288.674 11.6516 287.996H11.8432L8.66199 290.078L8.53708 290.162L8.43714 290.062L3.9152 285.681L3.81527 285.59L3.89022 285.473C4.57309 284.341 5.24763 283.225 5.86388 282.225V282.392C5.14246 281.203 4.58238 279.923 4.19834 278.586L4.32326 278.703L0.600771 277.92H0.484183V277.795C0.450873 275.574 0.420337 273.479 0.392578 271.508V271.399H0.49251L4.12339 270.433L4.03179 270.525C4.36721 269.185 4.87676 267.894 5.54743 266.686V266.802L3.47383 263.613V263.555L3.5238 263.496L7.92083 258.991L10.3192 260.482L10.9355 260.873L11.1853 261.006Z" fill="#E0E0E0"/>
<path d="M56.4798 243.368C57.1819 242.944 57.9383 242.616 58.7283 242.394L59.1946 240.162L62.9587 240.096L63.5 242.311C64.3006 242.506 65.071 242.808 65.7902 243.21L67.6889 241.961L70.3954 244.576L69.2212 246.525C69.6458 247.227 69.9736 247.983 70.1955 248.773L72.4107 249.198L72.4773 252.962L70.2621 253.503C70.0688 254.302 69.7662 255.07 69.3627 255.785L70.6119 257.692L67.997 260.399L66.0483 259.224C65.3444 259.646 64.5885 259.973 63.7998 260.199L63.3335 262.431L59.5694 262.497L59.0281 260.282C58.2297 260.089 57.4618 259.786 56.7463 259.383L54.8392 260.632L52.1327 258.017L53.3069 256.068C52.8857 255.364 52.5581 254.608 52.3326 253.82L50.1174 253.362L50.0508 249.598L52.2659 249.056C52.4606 248.256 52.7632 247.485 53.1653 246.766L51.9162 244.867L54.5311 242.161L56.4798 243.368ZM58.4867 248.365C57.9321 248.94 57.5603 249.666 57.4184 250.452C57.2765 251.238 57.3708 252.049 57.6894 252.781C58.0081 253.513 58.5367 254.135 59.2085 254.567C59.8803 254.999 60.6651 255.222 61.4637 255.208C62.2623 255.194 63.0389 254.944 63.6951 254.488C64.3514 254.033 64.858 253.394 65.1508 252.65C65.4436 251.907 65.5096 251.094 65.3402 250.314C65.1709 249.533 64.774 248.82 64.1996 248.265C63.818 247.896 63.3675 247.607 62.8738 247.412C62.3801 247.218 61.853 247.122 61.3224 247.131C60.7919 247.141 60.2684 247.254 59.7819 247.466C59.2953 247.678 58.8552 247.983 58.4867 248.365Z" fill="#F5F5F5"/>
<path d="M58.4863 248.365C58.6971 248.102 58.9505 247.877 59.2358 247.698C60.0187 247.196 60.951 246.978 61.8756 247.082C62.5145 247.147 63.1285 247.364 63.6661 247.715C64.2888 248.131 64.789 248.706 65.1151 249.381C65.2929 249.738 65.4164 250.119 65.4815 250.513C65.5482 250.924 65.5482 251.343 65.4815 251.754C65.3619 252.63 64.9665 253.445 64.3527 254.081C63.7388 254.718 62.9383 255.142 62.0672 255.293C61.6562 255.36 61.2373 255.36 60.8263 255.293C60.4283 255.247 60.0403 255.138 59.6771 254.968C59.0088 254.66 58.4341 254.18 58.0116 253.578C57.6431 253.052 57.4035 252.447 57.3121 251.812C57.1771 250.892 57.3655 249.953 57.845 249.156C58.0095 248.863 58.2237 248.601 58.4779 248.381C58.4779 248.381 58.2364 248.639 57.92 249.214C57.4896 250.004 57.3343 250.916 57.4786 251.804C57.5803 252.455 57.8452 253.07 58.2485 253.591C58.6519 254.113 59.1806 254.523 59.7854 254.785C60.1279 254.944 60.4932 255.048 60.868 255.093C61.2597 255.156 61.6588 255.156 62.0505 255.093C62.8719 254.952 63.6271 254.554 64.2066 253.955C64.7861 253.356 65.1597 252.588 65.2733 251.762C65.336 251.373 65.336 250.977 65.2733 250.588C65.2127 250.213 65.0977 249.848 64.9319 249.505C64.6206 248.874 64.1499 248.334 63.5662 247.94C62.9353 247.523 62.1993 247.293 61.4433 247.277C60.6873 247.261 59.9422 247.459 59.294 247.848C59.0142 248.003 58.7444 248.176 58.4863 248.365Z" fill="#F5F5F5"/>
<path d="M56.4781 243.369L56.3532 243.302L55.9785 243.085C55.637 242.886 55.1457 242.602 54.5128 242.253L51.9146 244.976V244.901C52.2976 245.475 52.7473 246.117 53.172 246.8C52.7799 247.516 52.4831 248.28 52.2893 249.073V249.115L50.0825 249.664L50.1408 249.581C50.1408 250.764 50.1907 252.021 50.2157 253.345L50.1491 253.253L52.3726 253.72H52.4225V253.778C52.648 254.559 52.9756 255.307 53.3969 256.002V256.052V256.102C53.0305 256.71 52.6307 257.376 52.2144 258.05V257.925C53.0471 258.758 53.9882 259.591 54.9292 260.54H54.7959L56.6947 259.291H56.753H56.8112C57.5221 259.682 58.2808 259.979 59.0681 260.174H59.1347V260.24C59.3096 260.932 59.4928 261.689 59.676 262.447L59.5677 262.364L63.3318 262.297L63.2236 262.389C63.3652 261.681 63.5234 260.923 63.6816 260.157V260.091H63.7482C64.5297 259.871 65.2777 259.546 65.9717 259.125H66.0384H66.0966L68.037 260.299H67.8954L70.5103 257.584V257.725L69.2612 255.827V255.768V255.71C69.6604 255.002 69.9602 254.243 70.1522 253.453V253.387H70.2189L72.434 252.845L72.3508 252.954C72.3508 251.671 72.3508 250.414 72.2841 249.19L72.3674 249.29L70.1439 248.823H70.0773V248.757C69.8587 247.975 69.5336 247.226 69.1113 246.533V246.483V246.425L70.3021 244.484V244.601L67.604 241.986H67.7122L65.8052 243.227C65.0936 242.829 64.3317 242.53 63.54 242.336V242.294C63.3485 241.461 63.1736 240.762 63.0071 240.079L63.0737 240.129L59.3096 240.179L59.3595 240.137C59.168 241.028 59.0098 241.803 58.8849 242.369C58.2924 242.534 57.7178 242.757 57.1693 243.035L56.7613 243.244L56.628 243.31L56.753 243.227C56.8362 243.177 56.9695 243.094 57.1527 243.002C57.6991 242.709 58.2739 242.472 58.8682 242.294C58.9931 241.686 59.1347 240.953 59.3179 240.062V240.021L63.082 239.938H63.132V239.987C63.2985 240.67 63.4817 241.395 63.6816 242.194L63.6233 242.144C64.4287 242.341 65.2044 242.643 65.9301 243.044H65.7469L67.6456 241.795H67.7039L67.7539 241.845C68.5866 242.677 69.5193 243.51 70.4687 244.459L70.527 244.509V244.576C70.1439 245.209 69.7608 245.859 69.3528 246.525V246.416C69.7835 247.129 70.1168 247.897 70.3438 248.698L70.2688 248.623L72.5007 249.081H72.5839V249.165C72.5839 250.397 72.5839 251.663 72.6506 252.937V253.02H72.5673L70.3604 253.562L70.4354 253.478C70.2394 254.288 69.9341 255.067 69.5277 255.793V255.677L70.7768 257.576L70.8268 257.651L70.7602 257.717L68.1453 260.432L68.0786 260.499L68.0037 260.449L66.055 259.266H66.1716C65.4625 259.696 64.6975 260.027 63.8981 260.249L63.9814 260.166C63.8149 260.932 63.6566 261.689 63.5151 262.389V262.481H63.4235L59.651 262.547H59.5594V262.464C59.3762 261.698 59.1846 260.94 59.0181 260.249L59.1014 260.332C58.294 260.13 57.5159 259.825 56.7863 259.424H56.9029L54.9209 260.757L54.8542 260.798L54.7876 260.74L52.0811 258.125L52.0228 258.067V257.992C52.4392 257.317 52.8556 256.651 53.2054 256.052V256.152C52.7775 255.441 52.447 254.676 52.2227 253.878L52.2976 253.945L50.0658 253.478H49.9992V253.362C49.9992 252.046 49.9992 250.78 49.9492 249.598V249.531H50.0158L52.231 248.998L52.1727 249.056C52.3746 248.253 52.6827 247.48 53.0888 246.758V246.825L51.8479 244.917V244.876L54.4795 242.186L55.9202 243.077L56.2866 243.31L56.4781 243.369Z" fill="#F5F5F5"/>
<path d="M68.5801 341.978L66.8646 334.982C64.3405 334.367 61.9116 333.411 59.6445 332.143L53.6069 336.098L45.0044 327.771L48.7352 321.616C47.392 319.394 46.3529 317.003 45.6456 314.504L38.5754 313.03L38.3672 301.08L45.3625 299.365C45.9987 296.828 46.9734 294.388 48.2605 292.111L44.3048 286.074L52.6326 277.471L58.7867 281.21C61.0129 279.868 63.4071 278.826 65.9069 278.112L67.3726 271.05L79.3229 270.834L81.03 277.829C83.5545 278.452 85.9851 279.407 88.2585 280.669L94.2878 276.713L102.882 285.041L99.1511 291.195C100.494 293.42 101.533 295.815 102.241 298.315L109.311 299.789L109.519 311.731L102.524 313.447C101.899 315.968 100.945 318.396 99.6841 320.667L103.64 326.696L95.3121 335.29L89.1329 331.643C86.9081 332.986 84.5134 334.025 82.0127 334.732L80.547 341.803L68.5801 341.978ZM59.6362 332.076C61.9077 333.344 64.3388 334.301 66.8646 334.924L68.5801 341.911L80.4804 341.703L81.9461 334.649C84.4499 333.939 86.8474 332.898 89.0746 331.551L95.2288 335.282L103.49 326.721L99.5425 320.692C100.809 318.417 101.767 315.983 102.391 313.455L109.386 311.79L109.178 299.889L102.199 298.332C101.489 295.829 100.447 293.431 99.1012 291.204L102.832 285.049L94.2628 276.788L88.2335 280.736C85.9601 279.474 83.5295 278.519 81.0051 277.896L79.2646 270.851L67.3643 271.059L65.8986 278.112C63.3904 278.817 60.9895 279.859 58.7617 281.21L52.5826 277.513L44.3215 286.074L48.2605 292.111C46.9938 294.386 46.036 296.82 45.4124 299.348L38.4172 301.064L38.6253 312.964L45.6872 314.43C46.4009 316.932 47.4426 319.329 48.7851 321.558L45.0627 327.704L53.6235 335.973L59.6362 332.076ZM74.3096 318.843C71.7923 318.842 69.331 318.101 67.2324 316.711C65.1337 315.32 63.4906 313.344 62.5077 311.026C61.5248 308.709 61.2456 306.153 61.7049 303.678C62.1643 301.203 63.3418 298.918 65.0908 297.108C66.2602 295.896 67.6573 294.926 69.2021 294.254C70.7468 293.583 72.4089 293.222 74.0931 293.194H74.3262C77.6737 293.246 80.8681 294.605 83.227 296.981C85.5858 299.357 86.9221 302.561 86.9504 305.909C86.9787 309.256 85.6967 312.483 83.3783 314.898C81.0599 317.313 77.8889 318.726 74.5428 318.835L74.3096 318.843ZM65.1491 297.125C63.4117 298.928 62.2422 301.202 61.7859 303.664C61.3295 306.126 61.6063 308.668 62.5821 310.974C63.5578 313.281 65.1893 315.249 67.2742 316.637C69.3591 318.024 71.8055 318.768 74.3096 318.777H74.5428C77.878 318.668 81.0385 317.26 83.3492 314.852C85.6599 312.445 86.9376 309.229 86.9093 305.892C86.881 302.555 85.5491 299.362 83.1979 296.994C80.8467 294.626 77.6628 293.271 74.3262 293.219H74.0764C72.3977 293.242 70.7404 293.598 69.2006 294.267C67.6609 294.936 66.2696 295.905 65.1075 297.116L65.1491 297.125Z" fill="#E0E0E0"/>
<path d="M65.106 297.125C65.7792 296.302 66.584 295.596 67.4877 295.035C69.9527 293.436 72.8949 292.739 75.8154 293.061C77.9946 293.295 80.0792 294.076 81.8748 295.333C83.6703 296.589 85.1182 298.281 86.0835 300.248C86.6501 301.382 87.0431 302.595 87.2494 303.846C87.4798 305.147 87.5023 306.477 87.316 307.785C86.9539 310.566 85.7053 313.157 83.7553 315.173C81.8053 317.189 79.2577 318.523 76.49 318.977C73.9232 319.413 71.2847 319.074 68.9117 318.003C66.914 317.108 65.1749 315.722 63.8558 313.975C62.5368 312.228 61.6806 310.176 61.3668 308.01C60.9345 305.095 61.5229 302.121 63.0324 299.59C63.5618 298.667 64.2399 297.837 65.0394 297.134C64.4098 297.969 63.8233 298.836 63.2822 299.732C61.9053 302.228 61.4067 305.113 61.8665 307.926C62.195 309.989 63.0357 311.937 64.3116 313.591C65.5875 315.246 67.2579 316.553 69.1699 317.395C71.4221 318.395 73.921 318.702 76.3484 318.278C78.9578 317.834 81.3569 316.567 83.1953 314.663C85.0336 312.759 86.2149 310.317 86.5665 307.693C86.9003 305.255 86.5063 302.772 85.4339 300.556C84.5262 298.674 83.1609 297.05 81.4631 295.833C79.7652 294.615 77.7891 293.842 75.7155 293.586C72.8908 293.215 70.0233 293.801 67.571 295.252C66.7188 295.835 65.8961 296.46 65.106 297.125Z" fill="#E0E0E0"/>
<path d="M58.7439 281.235L58.3442 281.018L57.1616 280.336L52.5148 277.596H52.6647L44.4202 286.232V285.998L48.4009 292.019L48.4675 292.128L48.4092 292.236C47.1597 294.5 46.216 296.919 45.6028 299.431V299.573H45.4612L38.4576 301.313L38.6575 301.055C38.7324 304.811 38.8157 308.8 38.899 312.98L38.6658 312.705L45.761 314.154H45.9442L45.9942 314.338C46.7069 316.814 47.7429 319.186 49.0754 321.391L49.1754 321.549L49.0754 321.716L45.3446 327.887L45.2946 327.479L53.8472 335.806H53.4225L59.4434 331.842L59.6266 331.726L59.8098 331.834C62.0595 333.082 64.465 334.026 66.9633 334.641L67.1715 334.69L67.2215 334.899C67.7628 337.097 68.3541 339.487 68.9453 341.902L68.5872 341.627L80.5209 341.419L80.1711 341.711C80.6374 339.479 81.1371 337.072 81.6368 334.649L81.6867 334.424L81.8949 334.366C84.3679 333.662 86.7368 332.634 88.9402 331.309L89.1317 331.201L89.3232 331.318L95.4857 335.049L95.036 335.107L103.364 326.529L103.322 326.979C101.998 324.947 100.674 322.94 99.3748 320.95L99.2582 320.767L99.3581 320.575C100.612 318.326 101.562 315.921 102.181 313.421L102.231 313.213L102.439 313.163L109.443 311.456L109.176 311.798C109.11 307.728 109.046 303.75 108.985 299.864L109.251 300.189L102.19 298.715L101.998 298.673L101.94 298.482C101.239 296.002 100.211 293.627 98.8834 291.42L98.7835 291.253L98.8834 291.087C100.174 288.98 101.382 286.923 102.631 284.932L102.681 285.307L94.1117 276.979H94.4614L88.4238 280.918L88.2906 281.002L88.149 280.927C85.897 279.661 83.4854 278.703 80.9789 278.079H80.8373V277.937L79.1718 270.925L79.3883 271.092L67.4547 271.25L67.6129 271.117C67.005 273.932 66.5053 276.247 66.0973 278.17V278.245H66.0306C64.1467 278.76 62.3193 279.463 60.576 280.344L59.2852 281.01C59.151 281.098 59.0088 281.173 58.8605 281.235C58.9833 281.129 59.1174 281.037 59.2602 280.96C59.535 280.794 59.9431 280.544 60.5177 280.236C62.2504 279.308 64.0759 278.566 65.964 278.02L65.8807 278.104C66.2721 276.18 66.7135 273.857 67.3048 271.033V270.909H67.438L79.3716 270.65H79.5382V270.817C80.0795 272.982 80.6458 275.272 81.2787 277.812L81.1038 277.637C83.6576 278.259 86.1167 279.219 88.4155 280.494H88.1407L94.1616 276.521L94.3532 276.405L94.5114 276.555L103.114 284.832L103.289 284.999L103.164 285.207C101.956 287.214 100.716 289.263 99.4331 291.378V291.053C100.797 293.303 101.853 295.726 102.573 298.257L102.323 298.024L109.385 299.489L109.651 299.539V299.814C109.718 303.7 109.79 307.678 109.868 311.748V312.022L109.593 312.089L102.589 313.813L102.847 313.555C102.223 316.115 101.256 318.58 99.9744 320.883V320.508L103.93 326.538L104.088 326.779L103.888 326.987L95.6023 335.582L95.4025 335.79L95.1526 335.64L88.9818 331.901H89.3566C87.1004 333.264 84.6722 334.32 82.1364 335.04L82.3946 334.757C81.8949 337.189 81.3869 339.595 80.9289 341.819L80.8623 342.11H80.5708L68.6455 342.319H68.3541L68.2874 342.044C67.6962 339.629 67.1132 337.23 66.5719 335.04L66.8384 335.298C64.2788 334.663 61.8146 333.691 59.51 332.409H59.8681L53.8389 336.356L53.6057 336.506L53.4142 336.323L44.8366 327.995L44.6451 327.812L44.7867 327.587L48.5341 321.433V321.758C47.1748 319.501 46.1245 317.073 45.4112 314.537L45.6361 314.754L38.5409 313.322L38.316 313.272V313.047C38.2494 308.883 38.1911 304.869 38.1328 301.113V300.83L38.3327 300.78L45.3446 299.114L45.1697 299.289C45.8091 296.744 46.7807 294.294 48.0594 292.003V292.227L44.1371 286.182L44.0538 286.057L44.1537 285.948L52.4815 277.412L52.5398 277.346L52.623 277.396L57.1616 280.219L58.3358 280.96C58.4812 281.037 58.6179 281.129 58.7439 281.235Z" fill="#E0E0E0"/>
<path d="M297.185 20.3977L47.4941 38.8652L71.0656 357.562L320.756 339.095L297.185 20.3977Z" fill="white"/>
<path d="M70.7451 357.999V357.583L47.0527 38.5069H47.4691L297.575 19.9277V20.3441L321.201 339.454H320.785L70.7451 357.999ZM47.9438 39.2397L71.4779 357.108L320.335 338.687L296.801 20.8188L47.9438 39.2397Z" fill="#263238"/>
<path d="M275.152 34.3038L207.881 39.2793L208.2 43.5979L275.471 38.6224L275.152 34.3038Z" fill="#E63237"/>
<path d="M274.347 67.4535L273.939 67.5284L272.748 67.6533L268.385 68.0531L253.953 69.2522C248.315 69.7103 243.218 70.085 239.521 70.3182L235.14 70.5764L233.95 70.6263C233.811 70.6409 233.672 70.6409 233.533 70.6263C233.665 70.5812 233.802 70.5559 233.941 70.5514L235.132 70.4181L239.496 70.0267L253.953 68.8192C259.582 68.3529 264.679 67.9864 268.376 67.7449L272.757 67.4868L273.948 67.4368C274.081 67.4205 274.216 67.4262 274.347 67.4535Z" fill="#E63237"/>
<path d="M278.379 83.7339C278.379 83.8588 263.723 85.0414 245.627 86.3821C227.53 87.7229 212.84 88.7056 212.832 88.589C212.824 88.4724 227.489 87.2899 245.593 85.9491C263.698 84.6083 278.371 83.6173 278.379 83.7339Z" fill="#263238"/>
<path d="M279.488 104.496C279.488 104.621 264.831 105.803 246.735 107.144C228.639 108.485 213.982 109.476 213.982 109.351C213.982 109.226 228.639 108.052 246.744 106.711C264.848 105.37 279.48 104.379 279.488 104.496Z" fill="#263238"/>
<path d="M279.488 94.1188C279.488 94.2354 264.831 95.4179 246.735 96.7586C228.639 98.0994 213.982 99.0904 213.982 98.9738C213.982 98.8572 228.639 97.6664 246.744 96.3256C264.848 94.9848 279.48 94.0022 279.488 94.1188Z" fill="#263238"/>
<path d="M141.904 239.489C141.904 239.605 134.309 240.272 124.924 240.963C115.538 241.654 107.918 242.129 107.91 242.004C107.902 241.879 115.505 241.229 124.89 240.53C134.276 239.83 141.896 239.372 141.904 239.489Z" fill="#E63237"/>
<path d="M127.698 259.441C127.698 259.566 117.521 260.415 104.946 261.348C92.3714 262.281 82.1783 262.93 82.1699 262.814C82.1616 262.697 92.3381 261.848 104.921 260.915C117.504 259.982 127.689 259.325 127.698 259.441Z" fill="#E63237"/>
<path d="M210.648 261.132C210.648 261.248 182.034 263.464 146.725 266.078C111.415 268.693 82.7681 270.717 82.7598 270.6C82.7514 270.484 111.365 268.26 146.692 265.645C182.018 263.03 210.648 261.015 210.648 261.132Z" fill="#263238"/>
<path d="M129.129 278.802C129.129 278.919 118.953 279.768 106.386 280.701C93.8197 281.634 83.6099 282.292 83.6016 282.167C83.5932 282.042 93.778 281.201 106.353 280.268C118.928 279.335 129.121 278.677 129.129 278.802Z" fill="#E63237"/>
<path d="M212.064 280.485C212.064 280.61 183.45 282.825 148.141 285.44C112.831 288.055 84.1841 290.07 84.1758 289.954C84.1675 289.837 112.781 287.622 148.108 285.007C183.434 282.392 212.056 280.369 212.064 280.485Z" fill="#263238"/>
<path d="M130.563 298.156C130.563 298.272 120.386 299.122 107.82 300.055C95.2533 300.987 85.0435 301.645 85.0352 301.529C85.0268 301.412 95.2116 300.554 107.786 299.622C120.361 298.689 130.554 298.031 130.563 298.156Z" fill="#E63237"/>
<path d="M213.498 299.839C213.498 299.964 184.884 302.179 149.575 304.794C114.265 307.409 85.6177 309.432 85.6094 309.307C85.601 309.182 114.215 306.976 149.541 304.361C184.867 301.746 213.49 299.722 213.498 299.839Z" fill="#263238"/>
<path d="M133.729 317.752C133.729 317.868 123.544 318.718 110.977 319.65C98.4108 320.583 88.2344 321.241 88.2344 321.116C88.2344 320.991 98.4108 320.15 110.986 319.217C123.561 318.285 133.712 317.627 133.729 317.752Z" fill="#E63237"/>
<path d="M216.663 319.434C216.663 319.559 188.04 321.774 152.731 324.431C117.421 327.088 88.774 329.07 88.7656 328.945C88.7573 328.82 117.38 326.613 152.697 323.998C188.015 321.383 216.646 319.318 216.663 319.434Z" fill="#263238"/>
<path d="M99.3713 235.638L83.7578 236.793L84.4912 246.709L100.105 245.554L99.3713 235.638Z" fill="#E63237"/>
<path d="M95.4246 245.905L89.1543 246.369L89.384 249.475L95.6543 249.011L95.4246 245.905Z" fill="#E63237"/>
<path d="M98.0696 248.715C96.3483 249.089 94.5991 249.32 92.8398 249.406C91.0928 249.637 89.3294 249.721 87.5684 249.656C89.2904 249.288 91.0393 249.059 92.7982 248.973C94.5456 248.747 96.3084 248.661 98.0696 248.715Z" fill="#E63237"/>
<path d="M225.533 224.364L235.293 219.01L244.903 222.657L235.901 228.32L225.533 224.364Z" fill="#E63237"/>
<path d="M227.873 226.606L228.264 232.685L243.304 231.361L242.788 225.498L235.843 229.695L227.873 226.606Z" fill="#E63237"/>
<path d="M287.265 225.547C287.265 225.672 279.67 226.33 270.285 227.021C260.9 227.713 253.28 228.187 253.271 228.071C253.263 227.954 260.866 227.288 270.252 226.588C279.637 225.889 287.265 225.431 287.265 225.547Z" fill="#E63237"/>
<path d="M252.399 246.449C252.399 246.566 247.177 247.049 240.74 247.524C234.303 247.998 229.04 248.298 229.031 248.173C229.023 248.048 234.253 247.574 240.69 247.091C247.127 246.608 252.39 246.324 252.399 246.449Z" fill="#263238"/>
<path d="M295.294 251.696C295.294 251.821 280.612 253.004 262.491 254.345C244.37 255.685 229.655 256.676 229.646 256.56C229.638 256.443 244.328 255.252 262.458 253.912C280.587 252.571 295.285 251.613 295.294 251.696Z" fill="#263238"/>
<path d="M254.147 268.069C254.147 268.194 248.933 268.677 242.488 269.152C236.042 269.626 230.829 269.926 230.787 269.801C230.746 269.676 236.001 269.202 242.446 268.719C248.892 268.236 254.138 267.953 254.147 268.069Z" fill="#263238"/>
<path d="M297.042 273.348C297.042 273.473 282.36 274.655 264.239 275.996C246.118 277.337 231.411 278.328 231.395 278.211C231.378 278.095 246.076 276.904 264.206 275.563C282.335 274.222 297.034 273.24 297.042 273.348Z" fill="#263238"/>
<path d="M255.479 289.438C255.479 289.563 250.258 290.046 243.82 290.521C237.383 290.996 232.162 291.287 232.112 291.17C232.062 291.054 237.333 290.571 243.77 290.088C250.208 289.605 255.471 289.322 255.479 289.438Z" fill="#263238"/>
<path d="M298.376 294.726C298.376 294.851 283.694 296.034 265.573 297.374C247.452 298.715 232.737 299.706 232.729 299.589C232.72 299.473 247.41 298.282 265.54 296.941C283.669 295.601 298.368 294.61 298.376 294.726Z" fill="#263238"/>
<path d="M257.859 312.039C257.859 312.156 252.646 312.639 246.201 313.122C239.755 313.605 234.542 313.888 234.5 313.772C234.459 313.655 239.713 313.164 246.159 312.689C252.605 312.214 257.851 311.923 257.859 312.039Z" fill="#263238"/>
<path d="M300.758 317.327C300.758 317.444 286.076 318.626 267.955 319.975C249.834 321.324 235.127 322.307 235.119 322.182C235.111 322.057 249.793 320.883 267.922 319.542C286.051 318.201 300.75 317.202 300.758 317.327Z" fill="#263238"/>
<path d="M220.168 66.8206C220.823 66.4703 221.361 65.9359 221.716 65.2833C222.072 64.6307 222.228 63.8884 222.166 63.148C222.166 62.6585 222.064 62.1744 221.869 61.7256C221.673 61.2768 221.388 60.873 221.03 60.5393C220.671 60.2055 220.249 59.9489 219.787 59.7854C219.326 59.6218 218.836 59.5548 218.347 59.5886C217.859 59.6223 217.383 59.756 216.948 59.9815C216.514 60.2069 216.13 60.5193 215.822 60.8991C215.513 61.2789 215.285 61.7182 215.153 62.1895C215.021 62.6609 214.988 63.1544 215.054 63.6394C215.101 64.3776 215.362 65.0861 215.806 65.6779C216.25 66.2696 216.857 66.7189 217.553 66.9705C212.148 68.1946 212.839 74.124 212.839 74.124L225.772 73.2246C225.772 73.2246 225.639 67.2453 220.168 66.8206Z" fill="#E63237"/>
<path d="M241.238 150.782C241.238 150.906 235.983 151.389 229.48 151.872C222.976 152.355 217.696 152.647 217.688 152.53C217.679 152.414 222.942 151.922 229.446 151.439C235.95 150.956 241.23 150.665 241.238 150.782Z" fill="#263238"/>
<path d="M242.131 161.183C242.131 161.3 236.876 161.791 230.372 162.274C223.868 162.757 218.588 163.049 218.58 162.924C218.572 162.799 223.835 162.316 230.339 161.841C236.843 161.367 242.123 161.067 242.131 161.183Z" fill="#263238"/>
<path d="M287.815 148.557L249.508 151.397C249.164 151.422 248.825 151.31 248.564 151.085C248.303 150.86 248.142 150.541 248.117 150.197C248.092 149.854 248.204 149.515 248.429 149.254C248.653 148.993 248.973 148.832 249.316 148.807L287.623 145.967C287.794 145.953 287.965 145.974 288.127 146.027C288.29 146.08 288.44 146.165 288.569 146.276C288.699 146.388 288.805 146.524 288.881 146.677C288.957 146.829 289.003 146.996 289.014 147.166C289.028 147.336 289.007 147.508 288.954 147.67C288.901 147.832 288.817 147.983 288.705 148.112C288.593 148.241 288.457 148.347 288.305 148.424C288.152 148.5 287.985 148.545 287.815 148.557Z" fill="#E0E0E0"/>
<path d="M282.218 148.974L249.482 151.398C249.139 151.423 248.799 151.311 248.539 151.086C248.278 150.861 248.117 150.542 248.091 150.198C248.066 149.855 248.178 149.516 248.403 149.255C248.628 148.994 248.947 148.833 249.291 148.808L282.027 146.384C282.37 146.359 282.71 146.471 282.97 146.696C283.231 146.921 283.392 147.24 283.418 147.584C283.441 147.926 283.328 148.265 283.103 148.525C282.879 148.785 282.561 148.947 282.218 148.974Z" fill="#E63237"/>
<path d="M288.539 158.342L250.232 161.174C249.888 161.199 249.549 161.087 249.288 160.862C249.027 160.637 248.866 160.318 248.841 159.974C248.818 159.631 248.931 159.293 249.155 159.033C249.38 158.773 249.697 158.611 250.04 158.584L288.347 155.752C288.518 155.739 288.689 155.759 288.851 155.812C289.014 155.865 289.164 155.95 289.293 156.061C289.423 156.173 289.529 156.309 289.605 156.462C289.681 156.615 289.727 156.781 289.738 156.951C289.763 157.295 289.651 157.634 289.426 157.895C289.202 158.156 288.882 158.317 288.539 158.342Z" fill="#E0E0E0"/>
<path d="M277.107 159.183L250.208 161.174C249.865 161.199 249.525 161.087 249.265 160.862C249.004 160.637 248.843 160.318 248.817 159.974C248.794 159.631 248.907 159.293 249.132 159.033C249.356 158.773 249.674 158.611 250.017 158.584L276.915 156.593C277.259 156.568 277.598 156.68 277.859 156.905C278.119 157.13 278.28 157.449 278.306 157.793C278.331 158.136 278.219 158.475 277.994 158.736C277.769 158.997 277.45 159.158 277.107 159.183Z" fill="#E63237"/>
<path d="M243.262 171.8C243.262 171.917 238.007 172.408 231.503 172.883C224.999 173.358 219.719 173.657 219.711 173.541C219.703 173.424 224.966 172.933 231.47 172.45C237.974 171.967 243.253 171.675 243.262 171.8Z" fill="#263238"/>
<path d="M244.154 182.194C244.154 182.319 238.899 182.802 232.396 183.285C225.892 183.768 220.612 184.059 220.604 183.942C220.595 183.826 225.858 183.335 232.362 182.852C238.866 182.369 244.146 182.077 244.154 182.194Z" fill="#263238"/>
<path d="M289.838 169.568L251.531 172.408C251.188 172.433 250.848 172.321 250.587 172.096C250.327 171.871 250.166 171.552 250.14 171.209C250.115 170.865 250.227 170.526 250.452 170.265C250.677 170.004 250.996 169.843 251.339 169.818L289.647 166.978C289.99 166.953 290.33 167.065 290.59 167.29C290.851 167.515 291.012 167.834 291.038 168.177C291.051 168.348 291.031 168.519 290.978 168.681C290.925 168.844 290.84 168.994 290.728 169.123C290.617 169.252 290.481 169.358 290.328 169.435C290.175 169.511 290.009 169.556 289.838 169.568Z" fill="#E0E0E0"/>
<path d="M284.233 169.984L251.506 172.407C251.162 172.433 250.823 172.32 250.562 172.096C250.301 171.871 250.14 171.552 250.115 171.208C250.09 170.865 250.202 170.525 250.427 170.265C250.651 170.004 250.971 169.843 251.314 169.817L284.042 167.394C284.385 167.369 284.725 167.481 284.985 167.706C285.246 167.931 285.407 168.25 285.433 168.593C285.446 168.764 285.426 168.935 285.373 169.097C285.32 169.26 285.235 169.41 285.124 169.539C285.012 169.668 284.876 169.774 284.723 169.851C284.57 169.927 284.404 169.972 284.233 169.984Z" fill="#E63237"/>
<path d="M290.596 179.353L252.289 182.193C251.945 182.218 251.606 182.106 251.345 181.881C251.084 181.656 250.924 181.337 250.898 180.994C250.873 180.65 250.985 180.311 251.21 180.05C251.435 179.789 251.754 179.629 252.097 179.603L290.405 176.763C290.748 176.738 291.087 176.85 291.348 177.075C291.609 177.3 291.77 177.619 291.795 177.962C291.821 178.306 291.709 178.645 291.484 178.906C291.259 179.167 290.94 179.328 290.596 179.353Z" fill="#E0E0E0"/>
<path d="M279.129 180.203L252.23 182.193C251.887 182.218 251.547 182.106 251.287 181.881C251.026 181.657 250.865 181.337 250.839 180.994C250.814 180.651 250.926 180.311 251.151 180.05C251.376 179.79 251.695 179.629 252.039 179.603L278.937 177.58C279.281 177.554 279.62 177.667 279.881 177.891C280.141 178.116 280.302 178.435 280.328 178.779C280.345 178.952 280.327 179.126 280.276 179.292C280.225 179.457 280.141 179.611 280.029 179.744C279.917 179.877 279.78 179.986 279.625 180.065C279.471 180.143 279.302 180.19 279.129 180.203Z" fill="#E63237"/>
<path d="M245.493 193.278C245.493 193.403 240.23 193.886 233.726 194.369C227.222 194.852 221.942 195.143 221.934 195.026C221.925 194.91 227.188 194.419 233.692 193.936C240.196 193.452 245.484 193.161 245.493 193.278Z" fill="#263238"/>
<path d="M292.07 191.054L253.762 193.886C253.419 193.911 253.08 193.799 252.819 193.574C252.558 193.349 252.397 193.03 252.372 192.687C252.351 192.344 252.464 192.007 252.688 191.747C252.912 191.488 253.229 191.326 253.571 191.296L291.878 188.464C292.222 188.439 292.563 188.551 292.825 188.776C293.087 189 293.25 189.32 293.277 189.664C293.3 190.008 293.186 190.347 292.96 190.608C292.734 190.868 292.414 191.029 292.07 191.054Z" fill="#E0E0E0"/>
<path d="M274.998 192.312L253.729 193.886C253.386 193.911 253.046 193.799 252.786 193.574C252.525 193.349 252.364 193.03 252.338 192.686C252.318 192.344 252.431 192.007 252.655 191.747C252.879 191.487 253.196 191.325 253.538 191.296L274.773 189.722C275.116 189.699 275.454 189.812 275.715 190.036C275.975 190.26 276.136 190.578 276.164 190.921C276.19 191.259 276.082 191.594 275.864 191.854C275.646 192.113 275.335 192.278 274.998 192.312Z" fill="#E63237"/>
<path d="M228.488 140.188L227.139 137.814C227.991 136.465 228.308 134.845 228.026 133.275C227.744 131.704 226.884 130.295 225.616 129.327C224.347 128.358 222.762 127.899 221.173 128.041C219.583 128.182 218.104 128.914 217.027 130.091C215.949 131.269 215.352 132.807 215.352 134.403C215.351 135.999 215.949 137.537 217.026 138.714C218.103 139.892 219.582 140.623 221.172 140.765C222.762 140.907 224.347 140.448 225.615 139.48L228.488 140.188Z" fill="#E63237"/>
<path d="M277.714 131.152C277.714 131.277 268.845 132.034 257.878 132.817C246.91 133.6 238.016 134.191 238.008 134.075C237.999 133.958 246.877 133.2 257.844 132.409C268.812 131.618 277.706 131.035 277.714 131.152Z" fill="#E63237"/>
<path d="M52.5 38.8229L68.4059 226.988L208.753 216.545L193.596 28.0469L52.5 38.8229Z" fill="#EBEBEB"/>
<path d="M197.19 22.5874L58.0918 32.3242L71.3199 221.297L210.418 211.56L197.19 22.5874Z" fill="#FAFAFA"/>
<path d="M71.5774 220.725V220.309L57.6035 31.4363H58.0116L197.143 21.1016V21.5179L211.125 210.39H210.708L71.5774 220.725ZM58.4946 32.2024L72.4102 219.834L210.292 209.624L196.376 22.001L58.4946 32.2024Z" fill="#263238"/>
<path d="M168.855 50.0824C168.827 49.9786 168.807 49.8728 168.796 49.7659C168.796 49.5327 168.721 49.2246 168.663 48.8332C168.555 48.0005 168.397 46.7763 168.205 45.2357C168.013 43.695 167.772 41.7463 167.497 39.5312C167.387 38.35 167.206 37.1765 166.956 36.0169C166.812 35.3953 166.555 34.8055 166.198 34.2764C165.83 33.7272 165.292 33.3145 164.666 33.1022C163.98 32.9125 163.257 32.9049 162.568 33.0802C161.878 33.2554 161.247 33.6075 160.735 34.1015C159.637 35.2396 158.931 36.6983 158.72 38.2654C158.204 41.7285 158.305 45.2556 159.02 48.6833C159.344 50.5071 159.694 52.3892 160.11 54.2879C160.487 56.2215 161.176 58.0808 162.151 59.7925C163.174 61.5439 164.78 62.8795 166.689 63.5649C167.654 63.9061 168.692 63.9809 169.696 63.7815C170.71 63.5711 171.644 63.0807 172.394 62.3658C173.889 60.902 174.823 58.9598 175.034 56.8778C175.223 54.8412 175.17 52.7893 174.875 50.7653C174.426 46.7346 173.993 42.8539 173.576 39.1065C173.368 37.2577 173.168 35.4506 172.977 33.7018C172.785 31.953 172.61 30.2458 172.294 28.6302C172.029 27.0673 171.55 25.5485 170.87 24.1166C170.242 22.8041 169.329 21.6489 168.197 20.7355C166.185 19.207 163.69 18.4533 161.168 18.612C159.261 18.6728 157.427 19.3573 155.947 20.5607C155.038 21.3483 154.349 22.3583 153.948 23.492C153.681 24.2748 153.623 24.7079 153.59 24.7079C153.635 24.2854 153.728 23.8692 153.865 23.467C154.238 22.2995 154.917 21.253 155.83 20.4357C157.327 19.1792 159.198 18.453 161.151 18.3705C163.738 18.181 166.306 18.9354 168.38 20.494C169.561 21.4255 170.515 22.6129 171.17 23.9667C171.872 25.424 172.37 26.9707 172.652 28.5636C172.968 30.2291 173.152 31.8947 173.36 33.6601C173.568 35.4256 173.76 37.2161 173.976 39.0648C174.392 42.7623 174.809 46.6514 175.292 50.6736C175.598 52.7329 175.654 54.8217 175.458 56.8944C175.237 59.0784 174.256 61.1152 172.685 62.6489C171.876 63.4135 170.869 63.9382 169.779 64.1645C168.704 64.3747 167.592 64.2971 166.556 63.9397C164.553 63.2135 162.865 61.8118 161.784 59.9757C160.795 58.2199 160.095 56.3163 159.711 54.3378C159.294 52.4225 158.953 50.5487 158.628 48.7083C157.904 45.2254 157.805 41.6413 158.337 38.1238C158.581 36.4957 159.333 34.9862 160.485 33.81C161.041 33.279 161.727 32.9033 162.474 32.7206C163.221 32.5379 164.002 32.5546 164.741 32.7691C165.422 33.01 166.007 33.4659 166.406 34.0682C166.776 34.6264 167.041 35.2472 167.189 35.9003C167.432 37.077 167.604 38.2672 167.705 39.4646C167.947 41.6797 168.163 43.6284 168.338 45.169C168.513 46.7097 168.63 47.9255 168.721 48.7749C168.721 49.1747 168.788 49.4828 168.805 49.716C168.833 49.8362 168.85 49.9589 168.855 50.0824Z" fill="#263238"/>
<path d="M111.735 43.3961L100.726 38.8242C97.7529 40.7146 92.8978 45.9194 91.5654 51.7322C90.7985 54.9166 90.5177 58.1988 90.7326 61.4673C90.9158 64.9899 90.5993 68.7207 88.6507 71.6604C87.2599 73.7506 85.0198 75.5744 84.9781 78.0894C84.9365 80.9791 87.9262 83.4691 87.3182 86.3005C86.8269 88.5656 84.3036 89.7065 82.9878 91.6136C81.0724 94.3784 81.9968 98.1591 83.246 101.282C86.2606 108.819 79.8483 119.661 85.4945 125.491C91.0657 120.919 107.538 112.441 113.109 107.869C114.42 106.947 115.504 105.74 116.282 104.338C117.248 102.215 116.723 99.7581 116.224 97.4846C112.311 79.7377 110.801 61.5453 111.735 43.3961Z" fill="#263238"/>
<path d="M177.575 173.365L172.145 167.869L114.101 184.241C114.101 184.241 110.911 209.758 111.236 211.39C111.561 213.022 111.236 217.685 111.236 217.685L191.34 211.44C191.34 211.44 192.248 189.713 177.575 173.365Z" fill="#263238"/>
<path d="M129.798 195.55C129.721 195.783 129.609 196.002 129.465 196.2C129.223 196.591 128.873 197.166 128.374 197.865C127.796 198.659 127.131 199.385 126.392 200.031C125.453 200.8 124.372 201.377 123.211 201.729C121.13 202.393 118.957 202.716 116.773 202.687C116.117 202.685 115.46 202.646 114.808 202.571C114.563 202.569 114.321 202.524 114.092 202.437C114.092 202.371 115.124 202.437 116.773 202.379C118.914 202.315 121.035 201.957 123.077 201.313C124.188 200.953 125.222 200.388 126.125 199.648C126.857 199.029 127.526 198.34 128.124 197.591C129.165 196.366 129.74 195.509 129.798 195.55Z" fill="#455A64"/>
<path d="M148.893 214.805C148.784 214.552 148.708 214.286 148.669 214.014C148.552 213.506 148.394 212.756 148.227 211.823C147.877 209.966 147.469 207.393 147.153 204.528C146.836 201.664 146.67 199.049 146.603 197.167C146.603 196.226 146.553 195.501 146.562 194.927C146.534 194.648 146.551 194.367 146.612 194.094C146.771 195.1 146.871 196.115 146.911 197.133C147.061 199.007 147.269 201.605 147.586 204.462C147.902 207.318 148.26 209.891 148.527 211.757C148.718 212.763 148.84 213.782 148.893 214.805Z" fill="#455A64"/>
<path d="M154.441 213.472C154.316 213.472 153.825 209.159 153.342 203.82C152.859 198.482 152.509 194.144 152.667 194.127C152.826 194.11 153.284 198.441 153.767 203.779C154.25 209.117 154.558 213.464 154.441 213.472Z" fill="#455A64"/>
<path d="M182.586 183.692C182.432 183.932 182.25 184.152 182.044 184.349C181.678 184.757 181.137 185.332 180.379 186.015C179.548 186.817 178.642 187.537 177.672 188.164C176.467 188.941 175.12 189.473 173.708 189.729C172.281 189.957 170.819 189.793 169.478 189.254C168.402 188.815 167.391 188.233 166.471 187.522C165.853 187.053 165.264 186.547 164.706 186.007C164.486 185.823 164.291 185.614 164.123 185.382C164.173 185.324 165.072 186.148 166.621 187.272C167.537 187.932 168.533 188.472 169.586 188.88C170.866 189.371 172.254 189.515 173.608 189.296C174.963 189.054 176.258 188.554 177.422 187.822C178.387 187.222 179.298 186.539 180.146 185.782C181.67 184.491 182.536 183.642 182.586 183.692Z" fill="#455A64"/>
<path d="M187.025 199.848C186.79 200.029 186.533 200.18 186.259 200.297L184.119 201.413C182.312 202.363 179.839 203.72 177.199 205.352C174.559 206.985 172.202 208.6 170.537 209.791L168.58 211.207C168.353 211.401 168.1 211.563 167.83 211.69C168.022 211.463 168.237 211.256 168.471 211.073C168.904 210.699 169.546 210.174 170.353 209.541C174.597 206.271 179.172 203.455 184.002 201.138C184.927 200.697 185.668 200.356 186.218 200.139C186.472 200.005 186.744 199.906 187.025 199.848Z" fill="#455A64"/>
<path d="M134.078 193.044C134.02 193.044 133.82 192.644 133.553 191.936C133.212 191.006 132.966 190.043 132.82 189.063C132.678 188.068 132.735 187.055 132.987 186.082C133.067 185.67 133.241 185.283 133.495 184.949C133.208 186.281 133.126 187.649 133.253 189.005C133.395 189.962 133.592 190.91 133.845 191.845C133.99 192.228 134.069 192.634 134.078 193.044Z" fill="#455A64"/>
<path d="M137.575 193.252C137.375 192.88 137.237 192.478 137.167 192.062C136.897 191.08 136.716 190.077 136.626 189.064C136.591 188.507 136.619 187.948 136.709 187.398C136.799 186.937 136.953 186.492 137.167 186.074C137.533 185.366 137.908 185.041 137.941 185.075C137.802 185.461 137.635 185.837 137.442 186.199C137.105 187.117 136.974 188.098 137.059 189.072C137.134 190.221 137.358 191.262 137.475 192.028C137.576 192.428 137.61 192.842 137.575 193.252Z" fill="#455A64"/>
<path d="M159.02 191.237C159.01 189.159 158.579 187.105 157.753 185.199C156.928 183.292 155.724 181.573 154.215 180.145C154.764 180.439 155.255 180.832 155.664 181.302C156.714 182.382 157.561 183.643 158.162 185.025C158.761 186.406 159.103 187.884 159.17 189.388C159.23 190.009 159.179 190.635 159.02 191.237Z" fill="#455A64"/>
<path d="M162.875 189.888C162.499 188.016 161.987 186.174 161.343 184.376C160.555 182.646 159.642 180.976 158.611 179.379C159.056 179.735 159.439 180.163 159.744 180.645C161.371 182.878 162.424 185.478 162.809 188.215C162.917 188.766 162.94 189.33 162.875 189.888Z" fill="#455A64"/>
<path d="M148.128 187.016C148.128 187.016 148.278 186.791 148.711 186.591C149.331 186.321 150.03 186.294 150.668 186.516C151.12 186.664 151.523 186.932 151.834 187.29C152.187 187.716 152.389 188.246 152.409 188.798C152.432 189.403 152.272 190 151.951 190.513C151.776 190.793 151.548 191.036 151.28 191.228C151.011 191.419 150.707 191.556 150.385 191.629C149.765 191.757 149.12 191.674 148.552 191.396C147.984 191.117 147.524 190.657 147.246 190.089C147.034 189.583 146.982 189.026 147.096 188.49C147.159 188.016 147.353 187.57 147.654 187.199C148.123 186.714 148.754 186.418 149.427 186.366C149.55 186.345 149.675 186.35 149.795 186.38C149.916 186.41 150.029 186.465 150.127 186.541C149.9 186.522 149.671 186.522 149.444 186.541C148.839 186.649 148.29 186.96 147.887 187.424C147.644 187.756 147.495 188.147 147.454 188.556C147.366 189.022 147.418 189.503 147.604 189.939C147.855 190.413 148.252 190.794 148.736 191.025C149.221 191.256 149.767 191.325 150.294 191.221C150.807 191.075 151.257 190.759 151.568 190.325C151.88 189.891 152.035 189.365 152.009 188.831C152.003 188.361 151.845 187.905 151.559 187.532C151.292 187.218 150.952 186.975 150.568 186.824C149.993 186.599 149.358 186.578 148.77 186.766C148.353 186.891 148.195 187.049 148.128 187.016Z" fill="#455A64"/>
<path d="M96.2459 106.17C95.7879 106.728 82.4303 115.239 80.4233 120.718C78.4163 126.198 81.6474 148.55 82.2054 152.414C82.7634 156.278 90.3416 170.868 90.3416 170.868C90.3416 170.868 88.751 177.164 90.8329 181.044C92.1858 183.445 94.2124 185.396 96.6623 186.657L110.087 179.304L101.759 141.613L96.2459 106.17Z" fill="#E63237"/>
<path d="M97.7012 145.758C98.0842 145.217 98.6006 144.867 98.917 144.459C99.2335 144.051 99.9163 143.868 100.241 144.259C100.566 144.651 100.241 145.375 99.8164 145.808C101.165 145.858 102.19 144.01 103.497 144.376C103.697 144.466 103.877 144.595 104.027 144.754C104.177 144.914 104.294 145.102 104.372 145.307C104.449 145.512 104.485 145.73 104.478 145.949C104.471 146.168 104.421 146.383 104.33 146.583C103.91 147.373 103.247 148.006 102.44 148.39C101.631 148.764 100.904 149.293 100.299 149.947C100.016 150.314 99.8331 150.872 100.141 151.221C100.666 151.821 101.882 151.113 102.348 151.754C102.656 152.187 102.281 152.77 101.923 153.17C100.608 154.591 99.2973 156.021 97.9926 157.459C97.6779 157.869 97.2617 158.191 96.7851 158.392C96.5445 158.481 96.2792 158.476 96.0417 158.379C95.8042 158.282 95.6119 158.099 95.5026 157.867C95.4654 157.617 95.5082 157.361 95.6248 157.137C95.7415 156.913 95.9261 156.731 96.1522 156.618C96.6144 156.413 97.0576 156.168 97.4763 155.885C97.6809 155.739 97.8205 155.519 97.8656 155.272C97.9107 155.025 97.8577 154.77 97.7178 154.561C97.2765 154.111 96.527 154.486 96.0523 154.877L91.472 158.475C91.158 158.77 90.7693 158.975 90.3478 159.066C90.1376 159.101 89.9219 159.054 89.7453 158.935C89.5687 158.815 89.4446 158.633 89.3984 158.425C89.4035 158.202 89.4729 157.985 89.5983 157.8C90.4278 156.348 91.5647 155.095 92.9294 154.128C93.4824 153.811 93.9802 153.406 94.4034 152.929C94.6091 152.686 94.7335 152.386 94.7589 152.069C94.7843 151.752 94.7095 151.435 94.545 151.163C93.6451 152.011 92.6503 152.751 91.5803 153.37C91.2056 153.595 90.6559 153.778 90.3728 153.437C90.0896 153.095 90.3728 152.604 90.6809 152.229L95.4194 146.666C95.5899 146.406 95.8101 146.183 96.0674 146.008C96.3246 145.834 96.6139 145.712 96.9184 145.65L97.7012 145.758Z" fill="white"/>
<path d="M104.307 93.9768L103.224 100.564L93.3641 108.459C93.3641 108.459 91.0323 123.332 93.2558 138.438C93.2558 138.438 107.704 177.579 108.054 179.244C108.712 182.417 114.541 185.074 114.541 185.074C114.541 185.074 136.552 185.282 144.113 184.191C151.675 183.1 169.929 171.566 171.678 170.034C173.427 168.502 175.4 161.14 175.4 161.14L161.943 123.449L161.185 96.9332L141.074 91.77L134.245 86.4902L104.307 93.9768Z" fill="#E63237"/>
<path d="M163.617 121.475C164 120.934 164.516 120.584 164.824 120.176C165.132 119.768 165.832 119.585 166.157 119.976C166.482 120.368 166.157 121.092 165.724 121.525C167.081 121.575 168.105 119.726 169.413 120.093C169.613 120.183 169.793 120.311 169.943 120.471C170.093 120.631 170.21 120.818 170.287 121.023C170.365 121.228 170.401 121.447 170.394 121.666C170.386 121.885 170.336 122.1 170.246 122.3C169.826 123.089 169.163 123.723 168.355 124.107C167.547 124.481 166.82 125.01 166.215 125.664C165.932 126.039 165.749 126.588 166.057 126.938C166.573 127.538 167.797 126.83 168.264 127.471C168.572 127.904 168.197 128.487 167.839 128.887C166.523 130.314 165.213 131.743 163.908 133.176C163.593 133.586 163.177 133.908 162.701 134.108C162.46 134.199 162.194 134.196 161.956 134.099C161.718 134.001 161.526 133.817 161.418 133.584C161.38 133.335 161.423 133.08 161.54 132.857C161.656 132.634 161.841 132.454 162.068 132.343C162.529 132.132 162.971 131.884 163.392 131.602C163.595 131.454 163.733 131.235 163.778 130.988C163.823 130.741 163.771 130.487 163.633 130.278C163.192 129.828 162.443 130.203 161.968 130.594L157.354 134.192C157.044 134.488 156.658 134.693 156.238 134.783C156.028 134.818 155.813 134.771 155.636 134.652C155.459 134.532 155.335 134.35 155.289 134.142C155.294 133.919 155.363 133.702 155.489 133.517C156.318 132.065 157.455 130.811 158.82 129.845C159.373 129.527 159.871 129.122 160.294 128.645C160.5 128.403 160.624 128.102 160.65 127.786C160.675 127.469 160.6 127.152 160.436 126.88C159.536 127.727 158.541 128.468 157.471 129.087C157.088 129.312 156.547 129.495 156.263 129.153C155.98 128.812 156.263 128.321 156.572 127.946C158.154 126.086 159.733 124.232 161.31 122.383C161.481 122.123 161.701 121.9 161.958 121.725C162.215 121.551 162.504 121.429 162.809 121.367L163.617 121.475Z" fill="white"/>
<path d="M160.859 97.0586C160.859 97.0586 171.993 100.964 174.908 107.626C177.823 114.289 188.982 145.934 188.283 151.763C187.583 157.593 185.726 164.255 180.679 164.555C175.633 164.854 169.853 159.716 169.853 159.716L165.323 152.346L165.564 144.626L160.418 124.074L160.859 97.0586Z" fill="#E63237"/>
<path d="M104.732 97.2002C104.732 97.2501 127.734 125.381 127.734 125.381L130.856 99.3154L135.212 86.4824L105.232 93.8858L104.732 97.2002Z" fill="#967262"/>
<g opacity="0.3">
<path d="M152.198 95.1759C150.841 94.493 149.209 95.0343 147.835 95.6755C140.056 99.3481 131.604 103.803 129.322 112.089L129.23 117.086C129.947 120.101 133.061 122.083 136.151 122.349C139.24 122.616 142.28 121.466 145.045 120.067C147.529 118.818 149.897 117.353 152.123 115.687C153.356 114.763 154.622 113.63 154.863 112.106C155.171 110.024 153.422 108.209 153.031 106.143C152.656 104.22 153.481 102.288 153.864 100.364C154.247 98.4403 153.955 96.0503 152.198 95.1759Z" fill="black"/>
</g>
<path d="M93.2324 138.48C93.328 138.631 93.4036 138.793 93.4573 138.963L94.0236 140.379C94.4982 141.62 95.1811 143.41 95.9972 145.634C97.6628 150.081 99.7364 156.285 102.093 163.122C103.284 166.537 104.442 169.784 105.507 172.724C106.04 174.198 106.532 175.605 107.048 176.888C107.525 178.079 108.114 179.222 108.805 180.302C109.821 181.858 111.159 183.179 112.728 184.175C113.852 184.866 114.543 185.132 114.518 185.174C114.345 185.131 114.178 185.07 114.018 184.991C113.544 184.802 113.084 184.576 112.644 184.316C111.007 183.361 109.609 182.045 108.555 180.469C107.831 179.385 107.214 178.233 106.715 177.029C106.174 175.73 105.674 174.331 105.124 172.866C104.042 169.926 102.868 166.686 101.685 163.264C99.3533 156.452 97.2464 150.281 95.7058 145.776C94.9396 143.569 94.315 141.778 93.8653 140.471L93.374 139.022C93.3089 138.846 93.2615 138.665 93.2324 138.48Z" fill="#263238"/>
<path d="M127.623 126.273C127.541 126.199 127.468 126.115 127.406 126.023L126.815 125.266C126.299 124.608 125.549 123.6 124.567 122.434C121.889 119.156 118.986 116.067 115.881 113.19L116.214 113.049C116.122 116.863 116.022 121.143 115.914 125.657C115.914 126.057 115.914 126.49 115.914 126.823V127.714L115.531 126.881C111.992 119.628 108.819 113.107 106.504 108.344C105.388 106.012 104.489 104.113 103.831 102.747C103.539 102.115 103.306 101.607 103.131 101.215C103.042 101.041 102.967 100.86 102.906 100.674C103.025 100.831 103.126 101.002 103.206 101.182C103.406 101.557 103.664 102.015 103.981 102.672L106.779 108.21C109.127 112.957 112.342 119.453 115.939 126.69L115.531 126.781C115.531 126.406 115.531 126.015 115.531 125.615C115.656 121.102 115.764 116.821 115.864 113.007V112.566L116.181 112.866C119.28 115.774 122.155 118.911 124.783 122.251C125.741 123.475 126.449 124.474 126.948 125.157L127.49 125.948C127.548 126.05 127.593 126.16 127.623 126.273Z" fill="#263238"/>
<path d="M160.369 146.616C160.461 146.699 153.707 153.886 145.379 162.663C137.052 171.441 130.156 178.486 130.073 178.411C129.99 178.336 136.694 171.149 145.063 162.364C153.432 153.578 160.286 146.533 160.369 146.616Z" fill="#263238"/>
<path d="M147.886 182.834C147.611 181.98 147.394 181.11 147.237 180.227C146.862 178.611 146.296 176.396 145.521 173.998C144.747 171.599 143.897 169.468 143.248 167.944C142.863 167.131 142.527 166.297 142.24 165.445C142.745 166.191 143.177 166.983 143.531 167.81C144.461 169.772 145.262 171.791 145.929 173.856C146.603 175.917 147.14 178.02 147.537 180.152C147.744 181.032 147.861 181.93 147.886 182.834Z" fill="#263238"/>
<path d="M91.5071 137.099C89.5687 136.047 87.702 134.867 85.9192 133.568C84.0507 132.394 82.2619 131.098 80.5645 129.688C82.506 130.736 84.3755 131.913 86.1607 133.21C88.0265 134.387 89.8126 135.686 91.5071 137.099Z" fill="#263238"/>
<path d="M180.672 164.505C180.672 164.505 180.572 164.505 180.381 164.505H179.548C179.09 164.509 178.633 164.473 178.182 164.397C177.567 164.315 176.96 164.181 176.367 163.997C174.777 163.471 173.314 162.62 172.07 161.499C170.482 160.056 169.226 158.286 168.389 156.311C167.606 153.146 166.723 149.649 165.824 145.934C164.158 138.889 162.584 132.518 161.46 127.838L160.178 122.342L159.853 120.843C159.806 120.672 159.779 120.496 159.77 120.318C159.85 120.479 159.908 120.65 159.944 120.826C160.044 121.209 160.178 121.701 160.344 122.3C160.694 123.649 161.177 125.498 161.752 127.763C162.917 132.435 164.5 138.798 166.248 145.834C167.148 149.532 168.006 153.055 168.747 156.219C169.556 158.145 170.762 159.879 172.286 161.307C173.49 162.415 174.906 163.265 176.45 163.806C177.823 164.213 179.241 164.448 180.672 164.505Z" fill="#263238"/>
<path d="M99.3366 165.021C98.7887 165.174 98.2326 165.296 97.671 165.387C95.0475 166.039 92.7435 167.607 91.1754 169.809C90.8859 170.292 90.5718 170.758 90.2344 171.208C90.3532 170.646 90.5855 170.113 90.9173 169.643C91.6513 168.458 92.6276 167.442 93.782 166.661C94.9285 165.869 96.2321 165.332 97.6044 165.088C98.1701 164.94 98.7612 164.917 99.3366 165.021Z" fill="#263238"/>
<path d="M99.4856 164.073C98.2777 164.786 96.9568 165.287 95.5799 165.555C94.2326 165.968 92.8234 166.143 91.416 166.071C91.416 165.946 93.2398 165.688 95.4549 165.139C97.6701 164.589 99.4356 163.956 99.4856 164.073Z" fill="#263238"/>
<path d="M96.8784 117.811C97.2698 117.27 97.7861 116.92 98.0942 116.512C98.4024 116.104 99.0936 115.912 99.4267 116.312C99.7598 116.712 99.4267 117.42 98.9936 117.853C100.351 117.911 101.375 116.062 102.683 116.429C102.883 116.519 103.063 116.647 103.213 116.807C103.363 116.966 103.48 117.154 103.557 117.359C103.634 117.564 103.671 117.782 103.664 118.001C103.656 118.22 103.606 118.436 103.516 118.635C103.096 119.425 102.433 120.059 101.625 120.442C100.821 120.819 100.097 121.348 99.4933 122C99.2101 122.366 99.0269 122.924 99.3351 123.274C99.8514 123.874 101.076 123.166 101.534 123.807C101.85 124.24 101.475 124.823 101.109 125.214L97.1865 129.511C96.8717 129.922 96.4556 130.243 95.979 130.444C95.7384 130.533 95.4731 130.529 95.2356 130.432C94.9981 130.334 94.8057 130.152 94.6965 129.919C94.6593 129.669 94.702 129.414 94.8187 129.189C94.9353 128.965 95.1199 128.783 95.3461 128.67C95.8058 128.461 96.2485 128.216 96.6702 127.937C96.8734 127.79 97.0114 127.57 97.0549 127.323C97.0984 127.075 97.0441 126.821 96.9034 126.613C96.4703 126.155 95.7208 126.538 95.2378 126.921L90.6493 130.527C90.3393 130.824 89.9529 131.029 89.5333 131.119C89.3231 131.154 89.1075 131.106 88.9309 130.987C88.7543 130.868 88.6301 130.685 88.584 130.477C88.5876 130.254 88.6571 130.037 88.7839 129.853C89.6231 128.395 90.7749 127.14 92.1566 126.18C92.7052 125.86 93.1998 125.455 93.6223 124.981C93.8293 124.74 93.9551 124.439 93.9821 124.123C94.009 123.806 93.9355 123.488 93.7721 123.216C92.8685 124.059 91.8742 124.799 90.8075 125.422C90.4244 125.647 89.8831 125.822 89.6 125.489C89.3168 125.156 89.6 124.656 89.8998 124.273L94.6466 118.719C94.9914 118.193 95.5302 117.824 96.1455 117.694L96.8784 117.811Z" fill="white"/>
<path d="M131.871 129.121C132.254 128.58 132.77 128.23 133.087 127.822C133.403 127.414 134.086 127.223 134.411 127.622C134.736 128.022 134.411 128.73 133.978 129.163C135.335 129.221 136.36 127.373 137.667 127.739C137.867 127.829 138.047 127.958 138.197 128.117C138.347 128.277 138.464 128.465 138.542 128.67C138.619 128.875 138.655 129.093 138.648 129.312C138.641 129.531 138.59 129.746 138.5 129.946C138.079 130.733 137.416 131.363 136.61 131.745C135.803 132.125 135.076 132.656 134.469 133.31C134.186 133.677 134.003 134.235 134.311 134.584C134.836 135.176 136.052 134.476 136.518 135.117C136.826 135.55 136.451 136.133 136.093 136.525L132.163 140.822C131.85 141.238 131.434 141.566 130.955 141.771C130.713 141.86 130.447 141.854 130.21 141.755C129.972 141.657 129.78 141.472 129.673 141.238C129.636 140.989 129.679 140.735 129.796 140.512C129.912 140.289 130.097 140.109 130.322 139.997C130.781 139.786 131.224 139.541 131.646 139.265C132.029 138.94 132.238 138.299 131.888 137.941C131.538 137.582 130.697 137.866 130.222 138.249L125.642 141.855C125.324 142.145 124.937 142.349 124.518 142.446C124.307 142.481 124.092 142.434 123.915 142.314C123.739 142.195 123.615 142.013 123.568 141.805C123.572 141.581 123.641 141.364 123.768 141.18C124.593 139.724 125.731 138.47 127.099 137.507C127.65 137.187 128.148 136.783 128.573 136.308C128.779 136.066 128.903 135.765 128.929 135.448C128.954 135.132 128.879 134.815 128.715 134.543C127.813 135.388 126.818 136.128 125.75 136.75C125.375 136.966 124.826 137.149 124.543 136.816C124.26 136.483 124.543 135.984 124.851 135.6C126.433 133.752 128.013 131.897 129.589 130.038C129.939 129.518 130.476 129.154 131.088 129.022L131.871 129.121Z" fill="white"/>
<path d="M118.539 162.274C118.93 161.733 119.446 161.383 119.754 160.975C120.063 160.567 120.754 160.384 121.087 160.775C121.42 161.167 121.087 161.891 120.654 162.316C122.011 162.374 123.036 160.525 124.343 160.892C124.543 160.982 124.723 161.11 124.873 161.27C125.023 161.43 125.14 161.617 125.217 161.822C125.295 162.027 125.331 162.246 125.324 162.465C125.317 162.684 125.266 162.899 125.176 163.099C124.756 163.888 124.093 164.522 123.285 164.906C122.481 165.282 121.757 165.811 121.153 166.463C120.87 166.829 120.687 167.387 120.995 167.737C121.512 168.337 122.736 167.629 123.194 168.27C123.51 168.703 123.135 169.286 122.769 169.677L118.847 173.975C118.532 174.385 118.116 174.706 117.639 174.907C117.399 174.996 117.133 174.992 116.896 174.895C116.658 174.798 116.466 174.615 116.357 174.383C116.319 174.132 116.362 173.877 116.479 173.653C116.596 173.428 116.78 173.247 117.006 173.133C117.468 172.929 117.912 172.684 118.33 172.401C118.534 172.253 118.672 172.033 118.715 171.786C118.759 171.539 118.704 171.284 118.564 171.076C118.13 170.618 117.381 171.002 116.898 171.385L112.309 174.991C111.999 175.287 111.613 175.492 111.194 175.582C110.983 175.617 110.768 175.57 110.591 175.45C110.414 175.331 110.29 175.149 110.244 174.941C110.248 174.717 110.317 174.5 110.444 174.316C111.273 172.864 112.41 171.61 113.775 170.643C114.327 170.328 114.822 169.923 115.241 169.444C115.448 169.203 115.574 168.903 115.601 168.586C115.627 168.269 115.554 167.952 115.391 167.679C114.489 168.524 113.495 169.265 112.426 169.886C112.043 170.11 111.502 170.294 111.218 169.952C110.935 169.611 111.218 169.119 111.518 168.745L116.265 163.182C116.61 162.656 117.149 162.288 117.764 162.158L118.539 162.274Z" fill="white"/>
<path d="M158.32 159.36C158.703 158.818 159.228 158.469 159.536 158.061C159.844 157.653 160.535 157.461 160.868 157.861C161.201 158.261 160.826 158.968 160.435 159.401C161.792 159.46 162.817 157.611 164.124 157.977C164.324 158.067 164.504 158.196 164.654 158.356C164.804 158.515 164.921 158.703 164.999 158.908C165.076 159.113 165.112 159.331 165.105 159.55C165.098 159.769 165.048 159.985 164.957 160.184C164.536 160.971 163.873 161.601 163.067 161.983C162.263 162.365 161.54 162.897 160.935 163.549C160.652 163.915 160.468 164.473 160.776 164.823C161.293 165.414 162.517 164.714 162.975 165.356C163.291 165.789 162.908 166.372 162.55 166.763L158.62 171.06C158.306 171.472 157.89 171.794 157.412 171.993C157.17 172.079 156.905 172.073 156.668 171.974C156.431 171.876 156.239 171.692 156.13 171.46C156.092 171.21 156.136 170.955 156.254 170.731C156.373 170.508 156.56 170.328 156.787 170.219C157.245 170.009 157.684 169.764 158.103 169.486C158.486 169.161 158.695 168.52 158.345 168.162C157.995 167.804 157.162 168.087 156.679 168.47L152.099 172.076C151.784 172.37 151.396 172.574 150.975 172.667C150.765 172.702 150.549 172.655 150.372 172.536C150.196 172.417 150.072 172.234 150.025 172.026C150.028 171.801 150.101 171.583 150.234 171.402C151.07 169.942 152.223 168.687 153.606 167.729C154.153 167.407 154.648 167.002 155.072 166.53C155.279 166.289 155.405 165.988 155.432 165.671C155.459 165.355 155.385 165.037 155.222 164.764C154.318 165.607 153.324 166.347 152.257 166.971C151.874 167.196 151.325 167.371 151.041 167.038C150.758 166.705 151.041 166.205 151.349 165.822L156.096 160.267C156.266 160.006 156.486 159.781 156.743 159.605C157 159.429 157.29 159.306 157.595 159.243L158.32 159.36Z" fill="white"/>
<path d="M143.13 163.814C143.039 163.711 142.964 163.596 142.905 163.472L142.322 162.448C141.822 161.565 141.123 160.258 140.298 158.634C138.633 155.386 136.459 150.822 134.319 145.684C132.179 140.546 130.48 135.783 129.322 132.31C128.756 130.569 128.323 129.162 128.04 128.146C127.915 127.696 127.815 127.313 127.732 127.014C127.685 126.882 127.657 126.745 127.648 126.605C127.72 126.726 127.776 126.854 127.815 126.989C127.915 127.288 128.048 127.655 128.206 128.096C128.556 129.12 129.039 130.503 129.614 132.177C130.813 135.616 132.553 140.346 134.685 145.501C136.817 150.656 138.941 155.203 140.515 158.476C141.289 160.075 141.93 161.382 142.413 162.356L142.921 163.414C143.01 163.536 143.081 163.671 143.13 163.814Z" fill="#263238"/>
<path d="M188.318 151.047C188.318 151.671 185.436 152.979 184.82 152.912L184.096 152.687C183.629 153.162 183.063 153.428 182.697 153.786C182.33 154.144 181.614 154.219 181.347 153.786C181.081 153.353 181.556 152.695 182.014 152.329C180.681 152.071 179.382 153.736 178.15 153.162C177.781 152.919 177.524 152.539 177.435 152.107C177.346 151.674 177.432 151.224 177.675 150.855C178.212 150.14 178.966 149.618 179.823 149.364C180.676 149.116 181.474 148.706 182.172 148.157C182.505 147.832 182.771 147.324 182.522 146.916C182.105 146.25 180.789 146.758 180.431 146.083C180.19 145.609 180.648 145.092 181.073 144.759C182.58 143.543 184.654 141.853 186.169 140.637C186.169 140.595 188.259 148.198 188.318 151.047Z" fill="white"/>
<g opacity="0.3">
<path d="M130.287 177.945C142.362 171.358 153.138 160.749 158.984 148.299L130.287 177.945Z" fill="black"/>
</g>
<g opacity="0.3">
<path d="M90.2578 171.21C92.6229 166.13 97.2781 164.739 101.8 164.797C101.845 164.533 101.791 164.263 101.648 164.036C101.505 163.81 101.283 163.645 101.026 163.573C100.505 163.431 99.9557 163.431 99.435 163.573C97.2376 163.89 95.1191 164.616 93.1892 165.713C92.3014 166.286 91.5736 167.074 91.0739 168.005C90.5743 168.936 90.3193 169.978 90.3328 171.035" fill="black"/>
</g>
<g opacity="0.3">
<path d="M103.001 100.848C106.072 112.103 110.846 122.823 117.158 132.635C119.486 129.022 120.476 124.709 119.956 120.443C121.707 122.72 124.109 124.41 126.843 125.289C123.637 120.884 120.306 116.695 116.142 113.189C116.142 113.189 115.784 127.346 115.792 126.955C111.437 118.203 107.198 109.583 102.984 100.848" fill="black"/>
</g>
<path d="M139.692 61.542C138.451 65.5809 136.686 68.6871 132.771 70.2777C129.349 71.6685 125.476 71.402 121.862 70.6608C110.112 68.2374 97.7785 61.975 91.541 51.7319L94.8721 44.4702C98.3947 38.9322 107.006 32.37 116.999 35.6178C119.702 34.8447 122.558 34.7708 125.298 35.403C128.037 36.0351 130.572 37.3526 132.663 39.232C140.325 45.7526 139.692 61.542 139.692 61.542Z" fill="#263238"/>
<path d="M111.461 41.1457C104.599 40.3129 95.7387 48.6406 95.1724 55.5443C94.5395 63.2058 94.0732 72.5828 94.8643 78.3206C96.4716 89.8628 105.266 91.495 105.266 91.495L104.841 97.3661L131.123 92.3195L132.256 51.1556L132.397 47.4415L111.461 41.1457Z" fill="#967262"/>
<path d="M99.4421 63.8555C99.4306 64.2395 99.5696 64.6129 99.8293 64.896C100.089 65.1791 100.449 65.3496 100.833 65.3711C101.021 65.3906 101.211 65.3722 101.392 65.3171C101.572 65.2619 101.74 65.1711 101.885 65.05C102.031 64.929 102.15 64.78 102.237 64.6121C102.323 64.4441 102.376 64.2605 102.39 64.072C102.402 63.6879 102.263 63.3146 102.003 63.0315C101.743 62.7484 101.383 62.5779 100.999 62.5564C100.811 62.5369 100.621 62.5553 100.441 62.6104C100.26 62.6656 100.092 62.7564 99.9467 62.8774C99.8015 62.9985 99.6821 63.1474 99.5954 63.3154C99.5088 63.4834 99.4566 63.667 99.4421 63.8555Z" fill="#263238"/>
<path d="M97.5109 60.4832C97.6858 60.6748 98.8183 59.8753 100.409 59.9086C102 59.9419 103.149 60.7414 103.324 60.5665C103.499 60.3916 103.232 60.1335 102.732 59.7337C102.051 59.247 101.238 58.9798 100.401 58.9676C99.5745 58.9511 98.7643 59.1959 98.0855 59.6671C97.5942 60.0502 97.3943 60.3916 97.5109 60.4832Z" fill="#263238"/>
<path d="M114.266 64.4313C114.257 64.8148 114.396 65.1869 114.656 65.4696C114.915 65.7522 115.274 65.9233 115.657 65.9469C115.844 65.9652 116.033 65.9459 116.213 65.8903C116.393 65.8346 116.56 65.7436 116.704 65.6226C116.848 65.5016 116.967 65.3531 117.053 65.1857C117.139 65.0184 117.191 64.8355 117.206 64.6478C117.217 64.2629 117.079 63.8886 116.819 63.6042C116.559 63.3197 116.199 63.1474 115.815 63.1238C115.627 63.1056 115.437 63.1251 115.257 63.1813C115.077 63.2375 114.909 63.3292 114.765 63.4511C114.621 63.5729 114.502 63.7224 114.416 63.8907C114.331 64.0591 114.28 64.2429 114.266 64.4313Z" fill="#263238"/>
<path d="M113.109 61.083C113.292 61.2745 114.425 60.4751 116.015 60.5084C117.606 60.5417 118.747 61.3412 118.921 61.1663C119.096 60.9914 118.83 60.7332 118.33 60.3335C117.652 59.847 116.841 59.5796 116.007 59.5674C115.18 59.5491 114.37 59.7941 113.692 60.2669C113.217 60.65 113.025 60.9914 113.109 61.083Z" fill="#263238"/>
<path d="M107.122 72.7419C106.288 72.4712 105.424 72.3006 104.549 72.2339C104.149 72.1839 103.766 72.0923 103.716 71.8175C103.69 71.3964 103.795 70.9774 104.016 70.6183C104.416 69.644 104.849 68.6197 105.274 67.5537C107.023 63.19 108.297 59.6008 108.122 59.5341C107.947 59.4675 106.381 62.9402 104.632 67.3039C104.208 68.3782 103.8 69.4108 103.425 70.3935C103.156 70.8744 103.07 71.4365 103.183 71.9757C103.238 72.1216 103.325 72.2527 103.44 72.3583C103.554 72.4639 103.692 72.5411 103.841 72.5837C104.064 72.6478 104.293 72.6841 104.524 72.6919C105.385 72.8196 106.258 72.8363 107.122 72.7419Z" fill="#263238"/>
<path d="M105.263 91.5294C110.806 91.7235 116.296 90.4019 121.144 87.707C121.144 87.707 116.938 95.6517 105.055 94.3692L105.263 91.5294Z" fill="#77574A"/>
<path d="M107.719 76.5889C108.027 76.2129 108.426 75.922 108.878 75.7441C109.33 75.5663 109.82 75.5073 110.301 75.5729C110.65 75.6099 110.988 75.7176 111.295 75.8894C111.601 76.0612 111.869 76.2935 112.083 76.5722C112.29 76.8416 112.41 77.1678 112.426 77.5072C112.443 77.8466 112.355 78.1829 112.175 78.4709C111.914 78.7508 111.576 78.9464 111.204 79.0325C110.831 79.1186 110.441 79.0912 110.084 78.9539C109.338 78.6775 108.655 78.2526 108.078 77.7048C107.903 77.574 107.754 77.4133 107.636 77.2301C107.577 77.143 107.545 77.0399 107.545 76.9344C107.545 76.829 107.577 76.726 107.636 76.6388" fill="#77574A"/>
<path d="M111.768 73.9337C111.51 73.9337 111.477 75.5992 109.978 76.8318C108.479 78.0643 106.646 77.8061 106.646 78.0476C106.646 78.1475 107.046 78.389 107.821 78.4223C108.832 78.4575 109.824 78.1329 110.619 77.5063C111.381 76.9072 111.879 76.035 112.01 75.0746C112.076 74.3584 111.893 73.9254 111.768 73.9337Z" fill="#263238"/>
<path d="M112.826 54.8552C112.968 55.2882 114.559 55.1134 116.416 55.3715C118.273 55.6297 119.747 56.2043 120.03 55.7879C120.146 55.6047 119.888 55.1966 119.289 54.7636C118.49 54.2292 117.577 53.8898 116.624 53.7726C115.674 53.6398 114.706 53.7369 113.801 54.0557C113.11 54.3305 112.76 54.647 112.826 54.8552Z" fill="#263238"/>
<path d="M98.2283 55.8962C98.4948 56.2626 99.6024 55.8962 100.91 55.8962C102.217 55.8962 103.342 56.1877 103.6 55.8129C103.716 55.6297 103.55 55.2716 103.067 54.9136C102.426 54.481 101.666 54.2597 100.893 54.2807C100.121 54.2833 99.369 54.5216 98.7363 54.9635C98.2283 55.3549 98.0618 55.7213 98.2283 55.8962Z" fill="#263238"/>
<path d="M131.332 46.2936C130.407 44.3532 128.134 43.5538 126.118 42.8209C123.27 41.7883 120.506 40.5142 117.599 39.6647C114.709 38.702 111.616 38.5154 108.63 39.1234C105.591 39.8563 102.959 41.7467 100.636 43.8369C97.571 46.5934 94.8062 49.9744 94.0234 54.0217V55.4124C100.627 53.5387 107.198 46.635 111.978 41.7133C116.1 47.4595 122.962 57.6609 129.041 60.1592C129.45 57.2195 131.54 52.9558 131.773 49.9994C131.938 48.7467 131.786 47.4726 131.332 46.2936Z" fill="#263238"/>
<path d="M153.54 92.7611C153.091 90.4626 150.817 89.0719 148.827 87.8394C146.837 86.6069 144.705 84.8414 144.821 82.5013C144.938 80.1613 147.544 78.146 147.32 75.7059C147.095 73.2659 144.072 71.9668 142.465 69.9598C140.133 67.0618 139.683 65.2547 139.683 61.5405C139.683 54.2704 136.777 44.7768 130.373 41.3125L122.012 48.3328C124.443 55.1198 126.908 62.215 126.059 69.3852C125.551 73.6323 123.885 77.7629 124.127 82.035C124.385 86.6236 126.808 90.8041 127.633 95.3177C128.416 99.5981 127.741 104.003 127.958 108.351C128.174 112.698 129.623 117.394 133.304 119.701L147.203 113.039C148.71 112.315 150.409 111.374 150.626 109.708C150.842 108.042 149.368 106.577 148.96 104.911C147.961 100.556 154.39 97.1414 153.54 92.7611Z" fill="#263238"/>
<path d="M139.458 57.2363C138.798 57.5355 138.108 57.7644 137.401 57.9192C135.708 58.3955 133.973 58.7051 132.221 58.8436C130.458 58.9518 128.69 58.7603 126.991 58.2773C126.279 58.114 125.594 57.8475 124.959 57.4862C125.001 57.3113 128.132 58.6854 132.196 58.4105C133.924 58.2578 135.638 57.9794 137.326 57.5778C138.024 57.3978 138.738 57.2835 139.458 57.2363Z" fill="#455A64"/>
<path d="M139.723 59.9102C139.154 60.3439 138.522 60.6893 137.849 60.9345C136.252 61.607 134.543 61.9742 132.811 62.0171C131.082 62.0318 129.36 61.7962 127.698 61.3175C127.004 61.1604 126.333 60.917 125.699 60.593C126.4 60.6833 127.093 60.8253 127.773 61.0177C129.411 61.4008 131.088 61.5908 132.769 61.584C134.454 61.5358 136.121 61.221 137.708 60.6513C138.366 60.3685 139.039 60.1211 139.723 59.9102Z" fill="#455A64"/>
<path d="M90.8984 55.6033C91.6298 55.499 92.3667 55.4378 93.1053 55.4201C93.8307 55.2607 94.5648 55.1439 95.3038 55.0703C94.6602 55.4925 93.9277 55.7602 93.1635 55.8527C92.3994 55.9451 91.6242 55.8598 90.8984 55.6033Z" fill="#455A64"/>
<path d="M90.4824 56.9191C90.5574 56.8192 91.4401 57.4271 92.6643 57.8435C93.8885 58.2599 94.9544 58.3348 94.9544 58.4681C94.1422 58.6668 93.287 58.5906 92.5227 58.2516C91.7121 58.0495 90.9933 57.5801 90.4824 56.9191Z" fill="#455A64"/>
<path d="M129.414 114.115C129.207 114.085 129.005 114.026 128.815 113.94C128.248 113.701 127.74 113.344 127.324 112.891C126.66 112.17 126.226 111.269 126.075 110.301C125.984 109.69 126.029 109.067 126.208 108.477C126.417 107.83 126.711 107.214 127.083 106.645C127.483 106.04 127.842 105.408 128.157 104.754C128.461 104.043 128.622 103.279 128.631 102.506C128.571 100.777 128.057 99.0938 127.141 97.6259C126.095 96.0021 124.961 94.4369 123.743 92.9374C122.405 91.2901 121.482 89.345 121.053 87.2662C120.737 85.1705 120.862 83.0318 121.42 80.9871C121.929 79.1045 122.583 77.2642 123.377 75.4825C124.093 73.7753 124.792 72.1514 125.317 70.6108C125.823 69.1779 126.178 67.6957 126.375 66.1888C126.717 64.0125 126.583 61.788 125.983 59.6682C125.737 58.9 125.392 58.1667 124.959 57.4863C125.108 57.6345 125.239 57.7994 125.35 57.9777C125.696 58.4961 125.976 59.0556 126.183 59.6432C126.852 61.7798 127.035 64.0392 126.716 66.2554C126.535 67.7865 126.192 69.294 125.692 70.7524C125.175 72.3263 124.484 73.9502 123.776 75.6657C123 77.4317 122.363 79.2554 121.869 81.1204C121.328 83.1054 121.206 85.1815 121.511 87.2162C121.929 89.2301 122.823 91.1148 124.118 92.7125C125.341 94.2273 126.478 95.8093 127.524 97.451C128.463 98.9854 128.98 100.741 129.023 102.539C129.006 103.357 128.828 104.164 128.498 104.913C128.165 105.564 127.79 106.193 127.374 106.795C127.012 107.34 126.718 107.927 126.5 108.544C126.334 109.082 126.283 109.649 126.35 110.209C126.475 111.135 126.869 112.003 127.482 112.707C128.003 113.326 128.666 113.809 129.414 114.115Z" fill="#263238"/>
<path d="M117.44 35.4915C116.203 36.0493 115.075 36.8218 114.109 37.7733C113.244 38.8144 112.568 39.998 112.11 41.271C112.062 40.8574 112.122 40.4384 112.285 40.0551C112.594 39.0975 113.107 38.2182 113.788 37.4778C114.469 36.7374 115.303 36.1535 116.232 35.7664C116.604 35.5724 117.02 35.4778 117.44 35.4915Z" fill="#455A64"/>
<path d="M161.568 113.773L155.897 104.837L155.506 96.0517L157.729 90.0391C157.729 90.0391 159.503 89.6143 159.795 91.7046C159.9 93.2933 159.676 94.8867 159.137 96.3848L160.353 100.649C160.353 100.649 160.752 101.107 161.127 99.3328C161.502 97.559 160.852 84.4095 160.844 83.5101C160.836 82.6107 160.911 80.4539 162.251 80.6537C163.592 80.8536 164.017 82.644 164.017 83.5518C164.017 84.4595 164.999 93.2869 164.999 93.2869C164.999 93.2869 165.316 94.078 165.632 93.9614C165.949 93.8448 165.349 84.4928 165.291 83.0188C165.233 81.5448 164.9 78.2637 166.632 78.2637C168.364 78.2637 168.364 79.9292 168.464 81.7113C168.564 83.4935 169.688 93.645 169.688 93.645C169.688 93.645 169.954 94.2779 170.204 93.4284C170.454 92.579 170.762 81.5698 170.954 81.0535C171.145 80.5371 172.161 79.8543 172.944 81.1034C173.727 82.3526 173.544 85.2673 173.435 90.3888C173.335 95.0107 173.194 96.9261 173.719 97.2925C174.243 97.6589 176.217 94.7942 176.217 94.7942C176.217 94.7942 178.582 88.6983 180.589 88.9148C182.596 89.1313 181.247 90.6886 180.905 92.1043C180.614 93.3035 177.108 100.432 177.033 100.524C176.958 100.615 173.51 113.315 173.51 113.315L181.122 127.864C182.47 130.394 182.985 133.284 182.596 136.125C182.138 139.231 180.547 142.695 175.992 144.111C172.661 145.16 170.163 143.661 168.497 141.896C167.087 140.33 166.154 138.394 165.807 136.316C164.833 130.703 161.552 113.756 161.552 113.756L161.568 113.773Z" fill="#967262"/>
<path d="M167.23 107.361C167.155 107.361 167.23 106.678 167.047 105.645C166.8 104.297 166.156 103.053 165.198 102.072C164.441 101.274 163.432 100.759 162.341 100.615C161.66 100.534 160.972 100.69 160.393 101.056L160.309 101.106V101.032C160.201 100.798 160.151 100.665 160.176 100.657C160.201 100.648 160.285 100.74 160.443 100.957H160.326C160.61 100.713 160.939 100.528 161.295 100.413C161.652 100.299 162.027 100.257 162.4 100.29C163.596 100.383 164.715 100.918 165.539 101.789C166.563 102.826 167.213 104.174 167.388 105.62C167.482 106.204 167.428 106.803 167.23 107.361Z" fill="#77574A"/>
<path d="M172.019 100.607C172.094 100.716 171.328 101.374 170.579 102.348C170.174 102.984 169.729 103.593 169.246 104.172C169.42 103.411 169.758 102.698 170.237 102.082C170.716 101.466 171.325 100.963 172.019 100.607Z" fill="#77574A"/>
<path d="M95.0702 180.161C95.1762 183.873 96.6194 187.422 99.1341 190.154C100.999 192.175 102.967 194.099 105.03 195.917L119.37 202.346C119.37 202.346 123.11 202.912 126.865 199.256C128.068 198.205 129.057 196.933 129.78 195.509C129.78 195.509 134.077 197.432 135.759 197.357C138.591 197.233 138.141 195.234 138.141 195.234C138.141 195.234 128.673 190.021 126.424 188.005C124.176 185.99 117.697 184.674 113.1 185.266L110.435 184.741L109.469 181.16C109.469 181.16 104.272 173.424 99.4756 176.163C94.6788 178.903 95.0702 180.161 95.0702 180.161Z" fill="#967262"/>
</svg>
