<svg width="20" height="20" viewBox="0 0 20 20" fill="none" xmlns="http://www.w3.org/2000/svg">
<path d="M8.54102 15.8327C8.54102 15.4875 8.82084 15.2077 9.16602 15.2077H10.8327C11.1779 15.2077 11.4577 15.4875 11.4577 15.8327C11.4577 16.1779 11.1779 16.4577 10.8327 16.4577H9.16602C8.82084 16.4577 8.54102 16.1779 8.54102 15.8327Z" fill="#EE5F35"/>
<path fill-rule="evenodd" clip-rule="evenodd" d="M9.95289 1.04102H10.0458C11.3813 1.041 12.4471 1.04099 13.283 1.15337C14.1466 1.26948 14.8577 1.51573 15.4204 2.07835C15.983 2.64096 16.2292 3.35214 16.3453 4.21569C16.4577 5.0516 16.4577 6.1174 16.4577 7.4529V12.5458C16.4577 13.8813 16.4577 14.9471 16.3453 15.783C16.2292 16.6466 15.983 17.3577 15.4204 17.9204C14.8577 18.483 14.1466 18.7292 13.283 18.8453C12.4471 18.9577 11.3813 18.9577 10.0458 18.9577H9.9529C8.6174 18.9577 7.5516 18.9577 6.71569 18.8453C5.85214 18.7292 5.14096 18.483 4.57835 17.9204C4.01573 17.3577 3.76948 16.6466 3.65337 15.783C3.54099 14.9471 3.541 13.8813 3.54102 12.5458V7.4529C3.541 6.1174 3.54099 5.0516 3.65337 4.21569C3.76948 3.35214 4.01573 2.64096 4.57835 2.07835C5.14096 1.51573 5.85214 1.26948 6.71569 1.15337C7.5516 1.04099 8.6174 1.041 9.95289 1.04102ZM6.88225 2.39223C6.15731 2.48969 5.75389 2.67058 5.46223 2.96223C5.17057 3.25389 4.98969 3.65731 4.89223 4.38225C4.79234 5.12518 4.79102 6.10675 4.79102 7.49935V12.4994C4.79102 13.8919 4.79234 14.8735 4.89223 15.6164C4.98969 16.3414 5.17057 16.7448 5.46223 17.0365C5.75389 17.3281 6.15731 17.509 6.88225 17.6065C7.62518 17.7064 8.60675 17.7077 9.99935 17.7077C11.3919 17.7077 12.3735 17.7064 13.1164 17.6065C13.8414 17.509 14.2448 17.3281 14.5365 17.0365C14.8281 16.7448 15.009 16.3414 15.1065 15.6164C15.2064 14.8735 15.2077 13.8919 15.2077 12.4994V7.49935C15.2077 6.10675 15.2064 5.12518 15.1065 4.38225C15.009 3.65731 14.8281 3.25389 14.5365 2.96223C14.2448 2.67058 13.8414 2.48969 13.1164 2.39223C13.0828 2.38771 13.0487 2.38339 13.0141 2.37926C12.9475 2.77688 12.886 3.12496 12.8028 3.40866C12.7035 3.74685 12.5547 4.0644 12.2682 4.31857C11.9719 4.58147 11.6306 4.69191 11.265 4.74244C10.9204 4.79007 10.4951 4.79102 9.99939 4.79102C9.50372 4.79102 9.07839 4.79007 8.73373 4.74244C8.36818 4.69191 8.0269 4.58147 7.73059 4.31857C7.44411 4.0644 7.29527 3.74685 7.19602 3.40867C7.11275 3.12496 7.05126 2.77688 6.98467 2.37926C6.95003 2.38338 6.9159 2.3877 6.88225 2.39223ZM8.23961 2.30314C8.29669 2.63752 8.34161 2.87327 8.39543 3.05666C8.45922 3.27402 8.51593 3.34429 8.56017 3.38354C8.60885 3.42673 8.68464 3.47377 8.90487 3.50421C9.146 3.53753 9.47518 3.54102 9.99939 3.54102C10.5236 3.54102 10.8528 3.53753 11.0939 3.50421C11.3141 3.47377 11.3899 3.42673 11.4386 3.38354C11.4829 3.34429 11.5396 3.27402 11.6034 3.05666C11.6572 2.87326 11.7021 2.63752 11.7592 2.30314C11.2565 2.29133 10.6765 2.29102 9.99935 2.29102C9.32219 2.29102 8.74222 2.29133 8.23961 2.30314Z" fill="#EE5F35"/>
</svg>
