<svg width="496" height="329" viewBox="0 0 496 329" fill="none" xmlns="http://www.w3.org/2000/svg">
<g clip-path="url(#clip0_527_19063)">
<path d="M329.095 29.4765L94.0026 79.0101C69.1596 84.2445 55.7141 111.157 66.5196 134.022L140.621 290.827C149.291 309.175 170.595 317.913 189.742 310.975L384.737 240.316C403.676 233.453 414.351 213.472 409.474 194.013L375.471 58.3324C370.34 37.8607 349.841 25.1054 329.095 29.4765Z" fill="#EE5F35"/>
<path opacity="0.7" d="M329.095 29.4765L94.0026 79.0101C69.1596 84.2445 55.7141 111.157 66.5196 134.022L140.621 290.827C149.291 309.175 170.595 317.913 189.742 310.975L384.737 240.316C403.676 233.453 414.351 213.472 409.474 194.013L375.471 58.3324C370.34 37.8607 349.841 25.1054 329.095 29.4765Z" fill="white"/>
<g opacity="0.3">
<path d="M388.913 120.564C402.415 119.095 412.164 107.013 410.687 93.5793C409.211 80.1452 397.069 70.4455 383.566 71.9144C370.064 73.3834 360.315 85.4647 361.792 98.8989C363.268 112.333 375.411 122.033 388.913 120.564Z" stroke="black" stroke-miterlimit="10" stroke-linecap="round" stroke-linejoin="round"/>
<path d="M404.664 106.16C410.165 96.0225 406.365 83.3674 396.177 77.8938C385.988 72.4201 373.269 76.2008 367.767 86.3381C362.266 96.4754 366.066 109.131 376.255 114.604C386.443 120.078 399.163 116.297 404.664 106.16Z" stroke="black" stroke-miterlimit="10" stroke-linecap="round" stroke-linejoin="round"/>
<path d="M395.151 100.433C395.151 93.415 385.153 93.2604 385.153 90.3297C385.153 88.788 385.966 88.3248 387.633 88.3248C389.067 88.3248 390.268 88.942 391.664 90.1764L394.958 86.3968C393.427 84.7801 391.558 83.5786 389.106 83.1687V79.2246H384.764V83.2858C381.029 84.0899 378.795 86.7403 378.795 90.6396C378.795 97.388 388.795 97.8125 388.795 100.897C388.795 102.401 388.021 103.057 386.083 103.057C384.455 103.057 382.827 102.44 380.734 100.897L377.866 105.37C379.788 107.091 382.548 108.011 384.765 108.282V112.157H389.107V108.011C393.154 107.053 395.151 104.146 395.151 100.433Z" stroke="black" stroke-miterlimit="10" stroke-linecap="round" stroke-linejoin="round"/>
</g>
<g opacity="0.3">
<path d="M400.878 237.418C407.074 237.418 412.097 232.42 412.097 226.255C412.097 220.09 407.074 215.092 400.878 215.092C394.681 215.092 389.658 220.09 389.658 226.255C389.658 232.42 394.681 237.418 400.878 237.418Z" stroke="black" stroke-miterlimit="10" stroke-linecap="round" stroke-linejoin="round"/>
<path d="M407.637 232.985C411.372 229.269 411.372 223.243 407.637 219.527C403.902 215.81 397.846 215.81 394.11 219.527C390.375 223.243 390.375 229.269 394.11 232.985C397.846 236.702 403.902 236.702 407.637 232.985Z" stroke="black" stroke-miterlimit="10" stroke-linecap="round" stroke-linejoin="round"/>
<path d="M404.948 228.164C404.948 224.962 400.387 224.891 400.387 223.554C400.387 222.851 400.758 222.64 401.519 222.64C402.173 222.64 402.72 222.921 403.358 223.484L404.86 221.761C404.162 221.023 403.309 220.475 402.191 220.288V218.488H400.21V220.341C398.506 220.708 397.487 221.917 397.487 223.696C397.487 226.774 402.049 226.968 402.049 228.375C402.049 229.061 401.696 229.36 400.812 229.36C400.069 229.36 399.326 229.079 398.371 228.375L397.063 230.415C397.94 231.2 399.199 231.62 400.21 231.744V233.511H402.191V231.62C404.037 231.184 404.948 229.857 404.948 228.164Z" stroke="black" stroke-miterlimit="10" stroke-linecap="round" stroke-linejoin="round"/>
</g>
<g opacity="0.3">
<path d="M199.388 48.9411C208.988 47.4137 215.527 38.432 213.992 28.8798C212.456 19.3277 203.429 12.8223 193.829 14.3497C184.228 15.877 177.69 24.8588 179.225 34.4109C180.76 43.9631 189.787 50.4685 199.388 48.9411Z" stroke="black" stroke-miterlimit="10" stroke-linecap="round" stroke-linejoin="round"/>
<path d="M209.261 39.6481C213.7 32.6849 211.625 23.4596 204.627 19.0429C197.628 14.6262 188.356 16.6905 183.917 23.6537C179.478 30.6169 181.553 39.8422 188.551 44.2589C195.55 48.6757 204.822 46.6114 209.261 39.6481Z" stroke="black" stroke-miterlimit="10" stroke-linecap="round" stroke-linejoin="round"/>
<path d="M202.986 34.6397C202.986 29.6165 195.83 29.506 195.83 27.4083C195.83 26.3048 196.412 25.9732 197.605 25.9732C198.632 25.9732 199.491 26.4154 200.491 27.2984L202.848 24.5934C201.752 23.4359 200.414 22.5759 198.659 22.2825V19.459H195.552V22.366C192.879 22.9411 191.28 24.8388 191.28 27.6294C191.28 32.4597 198.437 32.7631 198.437 34.9713C198.437 36.0478 197.882 36.5176 196.496 36.5176C195.331 36.5176 194.165 36.0755 192.667 34.9713L190.614 38.1732C191.99 39.4049 193.965 40.0636 195.552 40.2577V43.0312H198.659V40.0643C201.556 39.3786 202.986 37.2974 202.986 34.6397Z" stroke="black" stroke-miterlimit="10" stroke-linecap="round" stroke-linejoin="round"/>
</g>
<g opacity="0.3">
<path d="M58.9415 240.361C65.0579 239.373 69.2116 233.639 68.2189 227.554C67.2263 221.468 61.4632 217.335 55.3468 218.323C49.2303 219.311 45.0767 225.045 46.0693 231.13C47.062 237.216 52.8251 241.349 58.9415 240.361Z" stroke="black" stroke-miterlimit="10" stroke-linecap="round" stroke-linejoin="round"/>
<path d="M66.7042 229.341C66.7042 224.085 62.4221 219.824 57.1393 219.824C51.8566 219.824 47.5745 224.085 47.5745 229.341C47.5745 234.597 51.8566 238.858 57.1393 238.858C62.4221 238.858 66.7042 234.597 66.7042 229.341Z" stroke="black" stroke-miterlimit="10" stroke-linecap="round" stroke-linejoin="round"/>
<path d="M61.2091 231.251C61.2091 228.05 56.6478 227.979 56.6478 226.642C56.6478 225.939 57.0188 225.727 57.7794 225.727C58.4334 225.727 58.981 226.009 59.6185 226.572L61.1211 224.848C60.4227 224.111 59.5696 223.563 58.4513 223.376V221.576H56.4706V223.429C54.767 223.796 53.7479 225.005 53.7479 226.784C53.7479 229.862 58.3098 230.056 58.3098 231.463C58.3098 232.149 57.9566 232.448 57.0724 232.448C56.3297 232.448 55.5871 232.167 54.6321 231.463L53.324 233.503C54.2009 234.288 55.4601 234.708 56.4713 234.832V236.6H58.452V234.709C60.2984 234.272 61.2091 232.945 61.2091 231.251Z" stroke="black" stroke-miterlimit="10" stroke-linecap="round" stroke-linejoin="round"/>
</g>
<g opacity="0.3">
<path d="M338.34 290.386C344.467 289.47 348.688 283.785 347.767 277.688C346.847 271.592 341.133 267.392 335.005 268.308C328.878 269.224 324.657 274.909 325.577 281.006C326.498 287.103 332.212 291.302 338.34 290.386Z" stroke="black" stroke-miterlimit="10" stroke-linecap="round" stroke-linejoin="round"/>
<path d="M346.243 279.335C346.243 274.079 341.961 269.818 336.678 269.818C331.395 269.818 327.113 274.079 327.113 279.335C327.113 284.591 331.395 288.852 336.678 288.852C341.961 288.852 346.243 284.591 346.243 279.335Z" stroke="black" stroke-miterlimit="10" stroke-linecap="round" stroke-linejoin="round"/>
<path d="M340.749 281.244C340.749 278.043 336.188 277.972 336.188 276.635C336.188 275.932 336.559 275.72 337.319 275.72C337.973 275.72 338.521 276.002 339.158 276.565L340.661 274.841C339.963 274.103 339.109 273.555 337.991 273.368V271.568H336.01V273.421C334.307 273.788 333.288 274.997 333.288 276.776C333.288 279.855 337.85 280.048 337.85 281.455C337.85 282.141 337.496 282.441 336.612 282.441C335.87 282.441 335.127 282.159 334.172 281.455L332.864 283.495C333.741 284.28 335 284.7 336.011 284.824V286.591H337.992V284.7C339.838 284.264 340.749 282.938 340.749 281.244Z" stroke="black" stroke-miterlimit="10" stroke-linecap="round" stroke-linejoin="round"/>
</g>
<g opacity="0.3">
<path d="M114.849 113.861C121.046 113.861 126.069 108.863 126.069 102.698C126.069 96.533 121.046 91.5352 114.849 91.5352C108.653 91.5352 103.63 96.533 103.63 102.698C103.63 108.863 108.653 113.861 114.849 113.861Z" stroke="black" stroke-miterlimit="10" stroke-linecap="round" stroke-linejoin="round"/>
<path d="M123.843 105.931C125.641 100.989 123.072 95.5319 118.105 93.7428C113.138 91.9537 107.654 94.5098 105.855 99.4519C104.057 104.394 106.626 109.851 111.593 111.64C116.561 113.429 122.045 110.873 123.843 105.931Z" stroke="black" stroke-miterlimit="10" stroke-linecap="round" stroke-linejoin="round"/>
<path d="M118.919 104.608C118.919 101.406 114.358 101.335 114.358 99.9982C114.358 99.2948 114.729 99.0836 115.489 99.0836C116.143 99.0836 116.691 99.3652 117.329 99.9278L118.831 98.2039C118.133 97.4663 117.28 96.9181 116.161 96.7313V94.9316H114.181V96.7846C112.477 97.1511 111.458 98.3605 111.458 100.139C111.458 103.218 116.02 103.411 116.02 104.818C116.02 105.504 115.667 105.804 114.782 105.804C114.04 105.804 113.297 105.522 112.342 104.818L111.034 106.859C111.911 107.644 113.17 108.063 114.181 108.187V109.955H116.162V108.064C118.008 107.628 118.919 106.302 118.919 104.608Z" stroke="black" stroke-miterlimit="10" stroke-linecap="round" stroke-linejoin="round"/>
</g>
<g opacity="0.3">
<path d="M107.906 262.233C121.407 260.758 131.151 248.674 129.669 235.241C128.187 221.808 116.041 212.114 102.54 213.588C89.0393 215.063 79.296 227.147 80.7778 240.58C82.2597 254.013 94.4055 263.707 107.906 262.233Z" stroke="black" stroke-miterlimit="10" stroke-linecap="round" stroke-linejoin="round"/>
<path d="M124.04 247.15C129.164 236.818 124.899 224.31 114.515 219.212C104.131 214.114 91.5586 218.357 86.4348 228.689C81.3109 239.021 85.5754 251.529 95.9598 256.627C106.344 261.725 118.916 257.482 124.04 247.15Z" stroke="black" stroke-miterlimit="10" stroke-linecap="round" stroke-linejoin="round"/>
<path d="M114.152 242.101C114.152 235.084 104.154 234.928 104.154 231.998C104.154 230.457 104.968 229.993 106.634 229.993C108.068 229.993 109.269 230.611 110.665 231.844L113.959 228.065C112.428 226.448 110.559 225.247 108.107 224.837V220.893H103.765V224.954C100.03 225.758 97.7961 228.408 97.7961 232.308C97.7961 239.056 107.796 239.48 107.796 242.564C107.796 244.069 107.022 244.725 105.084 244.725C103.456 244.725 101.828 244.107 99.7345 242.564L96.8669 247.038C98.7888 248.759 101.549 249.679 103.765 249.95V253.825H108.108V249.679C112.155 248.722 114.152 245.814 114.152 242.101Z" stroke="black" stroke-miterlimit="10" stroke-linecap="round" stroke-linejoin="round"/>
</g>
<path d="M91.1305 120.208C91.2886 123.346 88.6353 129.875 88.6333 129.88C88.6056 129.947 84.8393 126.833 84.6243 126.609C82.1357 124.022 78.8575 117.563 80.776 114.036C82.1582 111.495 85.4193 111.019 87.7233 112.578C90.077 114.171 90.995 117.536 91.1305 120.208Z" fill="#EE5F35"/>
<path d="M155.491 182.563C155.632 182.647 155.765 182.723 155.905 182.805L155.954 185.64C155.396 185.301 154.83 184.954 154.249 184.594C152.601 183.576 150.861 182.456 149.084 181.288C148.742 181.66 146.784 183.767 144.708 185.506C146.068 188.213 146.643 194.054 146.712 194.808C148.621 194.762 150.478 194.697 152.23 194.609C153.436 194.551 154.593 194.486 155.708 194.416L154.761 196.905C153.965 196.935 153.159 196.963 152.32 196.985C150.381 197.041 148.307 197.061 146.179 197.063C146.059 197.824 145.042 204.042 143.408 206.504C141.925 208.735 139.414 211.169 136.573 211.349C133.792 211.525 131.228 209.465 131.338 206.577C131.489 202.569 137.613 198.668 141.079 197.7C141.283 197.642 143.572 197.269 145.019 197.056C144.149 197.052 143.304 197.057 142.409 197.042C140.638 197.025 138.871 196.955 136.971 196.887C136.054 196.823 135.128 196.757 134.193 196.691C133.263 196.644 132.289 196.478 131.327 196.376C129.102 196.091 126.861 195.695 124.613 195.246C124.593 196.788 124.445 202.266 123.314 204.707C122.189 207.137 120.077 209.921 117.296 210.526C114.574 211.12 111.726 209.47 111.394 206.598C110.933 202.613 116.393 197.835 119.672 196.355C119.875 196.262 122.348 195.463 123.714 195.051C122.365 194.77 121.017 194.496 119.661 194.169C115.747 193.223 111.814 192.144 107.886 191.086C106.683 190.761 105.481 190.452 104.278 190.138C104.277 190.687 104.242 197.201 102.976 199.935C101.851 202.365 99.7384 205.149 96.9575 205.754C94.2361 206.348 91.387 204.698 91.0564 201.827C90.5961 197.842 96.0554 193.064 99.333 191.584C99.5796 191.472 103.139 190.327 104.059 190.08C101.409 189.388 98.7636 188.725 96.1281 188.175C92.4935 187.412 88.8839 186.864 85.3477 186.589C85.3477 186.844 85.3425 193.644 84.0456 196.444C82.92 198.874 80.8077 201.658 78.0275 202.263C75.3054 202.856 72.4577 201.207 72.1257 198.335C71.6654 194.35 77.1247 189.573 80.403 188.092C80.6602 187.976 84.49 186.746 85.2003 186.572C84.99 186.557 84.7737 186.518 84.5634 186.504C80.7845 186.259 77.093 186.494 73.6474 186.882C71.6449 187.104 69.7429 187.427 67.9004 187.783C68.0301 189.05 68.5572 194.844 67.6703 197.492C66.8198 200.03 65.0276 203.029 62.3307 203.934C59.6907 204.821 56.6776 203.493 56.0308 200.676C55.1334 196.765 60.0326 191.42 63.1276 189.589C63.2956 189.49 65.1195 188.667 66.4561 188.086C65.6261 188.259 64.7677 188.422 63.9768 188.605C61.0041 189.28 58.3243 190.08 55.9568 190.808C54.6143 191.233 53.408 191.643 52.2837 192.04C51.7599 193.348 49.5789 198.596 47.6015 200.505C45.6711 202.367 42.6924 204.207 39.8791 203.774C37.1246 203.35 35.0659 200.79 35.7973 197.994C36.8118 194.112 43.6355 191.612 47.2298 191.408C47.5406 191.391 52.4305 191.669 52.4034 191.737C52.4034 191.737 52.3783 191.801 52.3723 191.817C53.4464 191.414 54.6024 190.995 55.8754 190.562C58.2324 189.781 60.9016 188.92 63.8703 188.179C66.8357 187.43 70.0782 186.699 73.5641 186.235C77.0573 185.766 80.7554 185.451 84.609 185.616C84.652 185.617 84.6977 185.625 84.7413 185.627C83.6289 185.231 80.557 184.019 80.3329 183.899C77.1578 182.212 72.0179 177.094 72.7355 173.146C73.2526 170.302 76.2015 168.839 78.8799 169.605C81.6152 170.388 83.5423 173.301 84.5085 175.798C85.5977 178.614 85.2056 185.144 85.1738 185.664C88.8416 185.854 92.59 186.347 96.3556 187.052C98.5096 187.453 100.666 187.924 102.822 188.423C101.872 188.049 101.025 187.709 100.912 187.648C97.7358 185.96 92.5973 180.843 93.3148 176.895C93.8313 174.05 96.7809 172.588 99.4586 173.354C102.195 174.137 104.122 177.05 105.087 179.547C106.067 182.081 105.846 187.655 105.767 189.129C106.592 189.329 107.419 189.52 108.243 189.723C112.199 190.698 116.141 191.687 120.039 192.54C121.412 192.842 122.775 193.088 124.138 193.339C123.295 193.007 122.587 192.719 122.484 192.665C119.309 190.976 114.17 185.859 114.887 181.912C115.405 179.068 118.353 177.604 121.032 178.371C123.767 179.153 125.694 182.068 126.66 184.564C127.596 186.981 127.438 192.129 127.352 193.882C128.756 194.098 130.162 194.316 131.533 194.462C132.471 194.54 133.368 194.681 134.315 194.708C135.251 194.754 136.178 194.8 137.096 194.845C138.867 194.867 140.695 194.902 142.423 194.881C143.625 194.876 144.771 194.847 145.925 194.823C144.554 194.539 141.883 193.927 141.666 193.85C139.41 193.059 136.075 190.901 134.116 188.365C133.782 188.251 133.46 188.108 133.153 187.932C130.736 186.552 129.739 183.427 131.432 181.078C133.78 177.818 141.051 177.926 144.479 179.021C144.681 179.085 146.797 180.029 148.121 180.647C147.399 180.165 146.691 179.707 145.952 179.203C144.485 178.216 143.051 177.188 141.502 176.089C140.773 175.532 140.038 174.968 139.295 174.399C138.546 173.851 137.825 173.177 137.079 172.564C135.382 171.105 133.732 169.544 132.106 167.936C131.234 169.212 128.073 173.699 125.777 175.114C123.491 176.523 120.185 177.685 117.531 176.665C114.932 175.665 113.47 172.727 114.786 170.15C116.611 166.573 123.814 165.584 127.37 166.149C127.591 166.184 130.096 166.874 131.465 167.28C130.496 166.305 129.522 165.337 128.573 164.319C125.832 161.382 123.15 158.325 120.461 155.285C119.638 154.354 118.807 153.436 117.978 152.513C117.672 152.971 114.031 158.385 111.459 159.971C109.174 161.379 105.868 162.542 103.213 161.521C100.614 160.521 99.1524 157.583 100.468 155.006C102.294 151.429 109.496 150.44 113.052 151.005C113.32 151.047 116.922 152.046 117.826 152.344C116.001 150.314 114.162 148.308 112.268 146.403C109.659 143.771 106.954 141.332 104.156 139.163C104.014 139.376 100.239 145.044 97.6049 146.668C95.3193 148.077 92.014 149.239 89.3587 148.218C86.7597 147.219 85.2988 144.28 86.6142 141.703C88.4395 138.127 95.6421 137.138 99.1974 137.703C99.4765 137.747 103.353 138.823 104.04 139.069C103.874 138.94 103.716 138.788 103.549 138.662C100.532 136.383 97.3232 134.553 94.2341 132.985C92.4412 132.071 90.6761 131.298 88.9421 130.583C88.3476 131.71 85.5746 136.833 83.3664 138.554C81.2495 140.204 78.0923 141.721 75.3418 140.996C72.6475 140.287 70.8705 137.526 71.8936 134.821C73.3128 131.067 80.3633 129.297 83.959 129.469C84.1547 129.478 86.1321 129.793 87.5692 130.042C86.7815 129.732 85.974 129.396 85.2135 129.114C82.3605 128.046 79.6808 127.242 77.3026 126.549C75.9462 126.166 74.7128 125.847 73.5562 125.561C72.3929 126.364 67.6644 129.544 64.9569 130.051C62.3142 130.545 58.8098 130.443 56.7041 128.539C54.6414 126.674 54.3444 123.409 56.5037 121.478C59.5028 118.796 66.5798 120.458 69.6913 122.259C69.9592 122.416 73.8835 125.331 73.824 125.374C73.824 125.374 73.7671 125.413 73.7539 125.422C74.8729 125.676 76.0706 125.961 77.3714 126.299C79.7701 126.94 82.4736 127.688 85.3616 128.699C88.2503 129.702 91.3606 130.872 94.5244 132.399C97.6975 133.926 100.958 135.692 104.08 137.944C104.115 137.97 104.149 138.001 104.184 138.026C103.476 137.085 101.587 134.388 101.465 134.164C99.7523 131.013 98.3039 123.924 101.091 121.026C103.099 118.938 106.37 119.336 108.179 121.445C110.026 123.599 110.018 127.087 109.439 129.699C108.787 132.646 104.839 137.878 104.523 138.293C107.477 140.465 110.331 142.933 113.08 145.589C114.654 147.105 116.192 148.681 117.713 150.281C117.128 149.448 116.611 148.698 116.549 148.586C114.837 145.435 113.389 138.345 116.176 135.448C118.184 133.358 121.454 133.757 123.263 135.866C125.111 138.019 125.103 141.509 124.524 144.121C123.937 146.772 120.662 151.299 119.778 152.486C120.355 153.106 120.939 153.718 121.513 154.341C124.273 157.325 127.012 160.314 129.79 163.164C130.768 164.169 131.769 165.123 132.767 166.082C132.248 165.341 131.816 164.713 131.76 164.611C130.048 161.46 128.599 154.371 131.386 151.472C133.394 149.384 136.665 149.783 138.474 151.892C140.322 154.046 140.314 157.534 139.734 160.147C139.174 162.677 136.188 166.884 135.146 168.299C136.198 169.249 137.249 170.203 138.311 171.077C139.049 171.657 139.72 172.268 140.494 172.809C141.25 173.362 141.998 173.908 142.739 174.45C144.203 175.441 145.709 176.473 147.162 177.404C148.168 178.059 149.139 178.665 150.115 179.278C149.129 178.289 147.241 176.313 147.101 176.129C144.928 173.274 142.418 166.485 144.732 163.199C146.399 160.832 149.692 160.733 151.801 162.545C153.955 164.396 154.479 167.845 154.305 170.514C154.112 173.454 151.155 179.008 150.781 179.7C152.397 180.709 153.981 181.675 155.491 182.563Z" fill="#EE5F35"/>
<path d="M67.2564 187.365C67.2709 187.437 62.4015 186.907 62.0986 186.839C58.5883 186.045 52.2732 182.458 51.9174 178.462C51.6608 175.584 54.117 173.398 56.9038 173.434C59.7489 173.47 62.3817 175.773 63.9761 177.928C65.8484 180.458 67.255 187.36 67.2564 187.365Z" fill="#EE5F35"/>
<path d="M418.57 120.208C418.412 123.346 421.065 129.875 421.067 129.88C421.095 129.947 424.861 126.833 425.077 126.609C427.565 124.022 430.843 117.563 428.925 114.036C427.543 111.495 424.282 111.019 421.978 112.578C419.623 114.171 418.705 117.536 418.57 120.208Z" fill="#EE5F35"/>
<path d="M354.209 182.563C354.067 182.647 353.934 182.723 353.795 182.805L353.746 185.64C354.304 185.301 354.869 184.954 355.451 184.594C357.099 183.576 358.839 182.456 360.616 181.288C360.958 181.66 362.915 183.767 364.991 185.506C363.631 188.213 363.057 194.054 362.988 194.808C361.078 194.762 359.222 194.697 357.47 194.609C356.264 194.551 355.106 194.486 353.992 194.416L354.939 196.905C355.734 196.935 356.541 196.963 357.38 196.985C359.319 197.041 361.392 197.061 363.52 197.063C363.64 197.824 364.658 204.042 366.291 206.504C367.774 208.735 370.286 211.169 373.127 211.349C375.907 211.525 378.472 209.465 378.362 206.577C378.211 202.569 372.087 198.668 368.621 197.7C368.417 197.642 366.129 197.269 364.682 197.056C365.551 197.052 366.396 197.057 367.291 197.042C369.062 197.025 370.829 196.955 372.729 196.887C373.646 196.823 374.573 196.757 375.508 196.691C376.437 196.644 377.412 196.478 378.373 196.376C380.599 196.091 382.839 195.695 385.087 195.246C385.107 196.788 385.255 202.266 386.386 204.707C387.512 207.137 389.623 209.921 392.404 210.526C395.126 211.12 397.975 209.47 398.306 206.598C398.767 202.613 393.307 197.835 390.029 196.355C389.825 196.262 387.352 195.463 385.986 195.051C387.335 194.77 388.683 194.496 390.039 194.169C393.954 193.223 397.886 192.144 401.814 191.086C403.017 190.761 404.219 190.452 405.422 190.138C405.423 190.687 405.458 197.201 406.725 199.935C407.85 202.365 409.962 205.149 412.743 205.754C415.464 206.348 418.312 204.698 418.644 201.827C419.104 197.842 413.645 193.064 410.367 191.584C410.121 191.472 406.561 190.327 405.641 190.08C408.291 189.388 410.937 188.725 413.572 188.175C417.207 187.412 420.816 186.864 424.352 186.589C424.352 186.844 424.358 193.644 425.655 196.444C426.78 198.874 428.893 201.658 431.673 202.263C434.395 202.856 437.243 201.207 437.574 198.335C438.035 194.35 432.575 189.573 429.297 188.092C429.04 187.976 425.21 186.746 424.5 186.572C424.71 186.557 424.926 186.518 425.137 186.504C428.916 186.259 432.607 186.494 436.052 186.882C438.055 187.104 439.957 187.427 441.799 187.783C441.669 189.05 441.142 194.844 442.029 197.492C442.88 200.03 444.672 203.029 447.369 203.934C450.009 204.821 453.022 203.493 453.669 200.676C454.566 196.765 449.667 191.42 446.572 189.589C446.404 189.49 444.581 188.667 443.244 188.086C444.074 188.259 444.932 188.422 445.723 188.605C448.696 189.28 451.376 190.08 453.744 190.808C455.087 191.233 456.293 191.643 457.417 192.04C457.941 193.348 460.122 198.596 462.099 200.505C464.03 202.367 467.008 204.207 469.822 203.774C472.576 203.35 474.635 200.79 473.904 197.994C472.889 194.112 466.065 191.612 462.471 191.408C462.16 191.391 457.27 191.669 457.297 191.737C457.297 191.737 457.323 191.801 457.329 191.817C456.255 191.414 455.098 190.995 453.825 190.562C451.468 189.781 448.799 188.92 445.831 188.179C442.865 187.43 439.623 186.699 436.137 186.235C432.644 185.766 428.945 185.451 425.092 185.616C425.049 185.617 425.003 185.625 424.96 185.627C426.072 185.231 429.144 184.019 429.369 183.899C432.544 182.212 437.684 177.094 436.966 173.146C436.449 170.302 433.5 168.839 430.822 169.605C428.086 170.388 426.159 173.301 425.194 175.798C424.104 178.614 424.497 185.144 424.528 185.664C420.861 185.854 417.112 186.347 413.347 187.052C411.193 187.453 409.037 187.924 406.88 188.423C407.83 188.049 408.677 187.709 408.791 187.648C411.966 185.96 417.105 180.843 416.387 176.895C415.871 174.05 412.921 172.588 410.244 173.354C407.508 174.137 405.58 177.05 404.615 179.547C403.636 182.081 403.856 187.655 403.935 189.129C403.11 189.329 402.283 189.52 401.459 189.723C397.504 190.698 393.561 191.687 389.664 192.54C388.291 192.842 386.927 193.088 385.564 193.339C386.407 193.007 387.115 192.719 387.218 192.665C390.394 190.976 395.532 185.859 394.815 181.912C394.297 179.068 391.349 177.604 388.67 178.371C385.936 179.153 384.008 182.068 383.042 184.564C382.106 186.981 382.265 192.129 382.35 193.882C380.946 194.098 379.54 194.316 378.17 194.462C377.231 194.54 376.334 194.681 375.387 194.708C374.452 194.754 373.524 194.8 372.606 194.845C370.834 194.867 369.007 194.902 367.279 194.881C366.076 194.876 364.93 194.847 363.777 194.823C365.147 194.539 367.818 193.927 368.036 193.85C370.292 193.059 373.628 190.901 375.586 188.365C375.92 188.251 376.242 188.108 376.549 187.932C378.966 186.552 379.963 183.427 378.27 181.078C375.921 177.818 368.651 177.926 365.223 179.021C365.021 179.085 362.905 180.029 361.581 180.647C362.303 180.165 363.011 179.707 363.75 179.203C365.217 178.216 366.651 177.188 368.2 176.089C368.929 175.532 369.664 174.968 370.407 174.399C371.156 173.851 371.878 173.177 372.623 172.564C374.321 171.105 375.97 169.544 377.596 167.936C378.468 169.212 381.629 173.699 383.925 175.114C386.211 176.523 389.517 177.685 392.171 176.665C394.771 175.665 396.233 172.727 394.917 170.15C393.092 166.573 385.889 165.584 382.333 166.149C382.112 166.184 379.607 166.874 378.238 167.28C379.207 166.305 380.181 165.337 381.13 164.319C383.871 161.382 386.553 158.325 389.242 155.285C390.065 154.354 390.896 153.436 391.725 152.513C392.03 152.971 395.672 158.385 398.244 159.971C400.529 161.379 403.835 162.542 406.49 161.521C409.089 160.521 410.55 157.583 409.234 155.006C407.409 151.429 400.207 150.44 396.651 151.005C396.383 151.047 392.78 152.046 391.876 152.344C393.702 150.314 395.541 148.308 397.435 146.403C400.044 143.771 402.749 141.332 405.547 139.163C405.689 139.376 409.464 145.044 412.097 146.668C414.383 148.077 417.688 149.239 420.343 148.218C422.942 147.219 424.403 144.28 423.088 141.703C421.263 138.127 414.06 137.138 410.505 137.703C410.226 137.747 406.35 138.823 405.662 139.069C405.828 138.94 405.986 138.788 406.153 138.662C409.17 136.383 412.379 134.553 415.468 132.985C417.261 132.071 419.026 131.298 420.76 130.583C421.355 131.71 424.128 136.833 426.336 138.554C428.453 140.204 431.61 141.721 434.36 140.996C437.055 140.287 438.832 137.526 437.809 134.821C436.389 131.067 429.339 129.297 425.743 129.469C425.547 129.478 423.57 129.793 422.134 130.042C422.921 129.732 423.729 129.396 424.489 129.114C427.343 128.046 430.022 127.242 432.4 126.549C433.757 126.166 434.99 125.847 436.147 125.561C437.31 126.364 442.038 129.544 444.746 130.051C447.389 130.545 450.893 130.443 452.999 128.539C455.061 126.674 455.359 123.409 453.199 121.478C450.2 118.796 443.123 120.458 440.012 122.259C439.744 122.416 435.819 125.331 435.879 125.374C435.879 125.374 435.936 125.413 435.949 125.422C434.83 125.676 433.632 125.961 432.331 126.299C429.933 126.94 427.229 127.688 424.341 128.699C421.452 129.702 418.342 130.872 415.178 132.399C412.005 133.926 408.745 135.692 405.623 137.944C405.588 137.97 405.554 138.001 405.519 138.026C406.227 137.085 408.116 134.388 408.238 134.164C409.951 131.013 411.399 123.924 408.612 121.026C406.604 118.938 403.333 119.336 401.524 121.445C399.677 123.599 399.685 127.087 400.263 129.699C400.916 132.646 404.864 137.878 405.18 138.293C402.226 140.465 399.372 142.933 396.623 145.589C395.049 147.105 393.511 148.681 391.989 150.281C392.575 149.448 393.092 148.698 393.153 148.586C394.866 145.435 396.314 138.345 393.527 135.448C391.519 133.358 388.249 133.757 386.44 135.866C384.592 138.019 384.6 141.509 385.178 144.121C385.766 146.772 389.041 151.299 389.925 152.486C389.347 153.106 388.764 153.718 388.189 154.341C385.43 157.325 382.69 160.314 379.913 163.164C378.935 164.169 377.934 165.123 376.936 166.082C377.456 165.341 377.887 164.713 377.943 164.611C379.655 161.46 381.104 154.371 378.316 151.472C376.309 149.384 373.038 149.783 371.229 151.892C369.381 154.046 369.389 157.534 369.968 160.147C370.528 162.677 373.514 166.884 374.557 168.299C373.505 169.249 372.454 170.203 371.392 171.077C370.653 171.657 369.982 172.268 369.208 172.809C368.453 173.362 367.705 173.908 366.963 174.45C365.499 175.441 363.993 176.473 362.54 177.404C361.534 178.059 360.564 178.665 359.587 179.278C360.573 178.289 362.462 176.313 362.601 176.129C364.774 173.274 367.284 166.485 364.971 163.199C363.303 160.832 360.01 160.733 357.901 162.545C355.747 164.396 355.223 167.845 355.397 170.514C355.59 173.454 358.547 179.008 358.921 179.7C357.302 180.709 355.719 181.675 354.209 182.563Z" fill="#EE5F35"/>
<path d="M442.443 187.365C442.429 187.437 447.298 186.907 447.601 186.839C451.111 186.045 457.426 182.458 457.782 178.462C458.039 175.584 455.583 173.398 452.796 173.434C449.951 173.47 447.318 175.773 445.724 177.928C443.851 180.458 442.444 187.36 442.443 187.365Z" fill="#EE5F35"/>
<path d="M166.378 64.9281L155.12 73.6992L168.785 91.0614L180.043 82.2903L166.378 64.9281Z" fill="#263238" stroke="#263238" stroke-miterlimit="10" stroke-linejoin="round"/>
<path d="M165.47 55.6982L146.332 70.6094L156.029 82.931L175.168 68.0199L165.47 55.6982Z" fill="#EE5F35" stroke="#263238" stroke-miterlimit="10" stroke-linejoin="round"/>
<path d="M150.474 67.9844L157.581 77.0148" stroke="#263238" stroke-miterlimit="10" stroke-linejoin="round"/>
<path d="M156.957 62.9336L164.064 71.964" stroke="#263238" stroke-miterlimit="10" stroke-linejoin="round"/>
<path d="M155.191 67.7773L162.299 76.8077" stroke="#263238" stroke-miterlimit="10" stroke-linejoin="round"/>
<path d="M312.461 82.3012L323.719 91.0723L337.383 73.71L326.126 64.9389L312.461 82.3012Z" fill="#263238" stroke="#263238" stroke-miterlimit="10" stroke-linejoin="round"/>
<path d="M317.338 68.0283L336.477 82.9395L346.174 70.6178L327.035 55.7067L317.338 68.0283Z" fill="#EE5F35" stroke="#263238" stroke-miterlimit="10" stroke-linejoin="round"/>
<path d="M342.028 67.9844L334.922 77.0148" stroke="#263238" stroke-miterlimit="10" stroke-linejoin="round"/>
<path d="M335.546 62.9336L328.439 71.964" stroke="#263238" stroke-miterlimit="10" stroke-linejoin="round"/>
<path d="M337.311 67.7793L330.204 76.8097" stroke="#263238" stroke-miterlimit="10" stroke-linejoin="round"/>
<path d="M256.98 34.4336H233.794V57.536H256.98V34.4336Z" fill="#263238" stroke="#263238" stroke-miterlimit="10" stroke-linejoin="round"/>
<path d="M262.163 21.1797H228.61V44.2821H262.163V21.1797Z" fill="#EE5F35" stroke="#263238" stroke-miterlimit="10" stroke-linejoin="round"/>
<path d="M231.626 21.1035V40.3579" stroke="#263238" stroke-miterlimit="10" stroke-linejoin="round"/>
<path d="M234.391 41.2172V30.9023" stroke="#263238" stroke-miterlimit="10" stroke-linejoin="round"/>
<path d="M237.328 21.6191V36.2313" stroke="#263238" stroke-miterlimit="10" stroke-linejoin="round"/>
<path d="M240.266 28.668V42.0774" stroke="#263238" stroke-miterlimit="10" stroke-linejoin="round"/>
<path d="M244.758 21.791V36.9198" stroke="#263238" stroke-miterlimit="10" stroke-linejoin="round"/>
<path d="M331.152 259.511C378.52 212.382 378.52 135.97 331.152 88.8403C283.784 41.7108 206.985 41.7108 159.616 88.8403C112.248 135.97 112.248 212.382 159.616 259.511C206.985 306.641 283.784 306.641 331.152 259.511Z" fill="#EE5F35" stroke="#EE5F35" stroke-miterlimit="10" stroke-linejoin="round"/>
<path d="M321.097 249.507C362.913 207.903 362.913 140.449 321.097 98.8441C279.282 57.2396 211.486 57.2395 169.671 98.8441C127.856 140.449 127.856 207.903 169.671 249.507C211.486 291.112 279.282 291.112 321.097 249.507Z" fill="white" stroke="#263238" stroke-miterlimit="10" stroke-linejoin="round"/>
<path d="M315.164 243.604C353.703 205.26 353.703 143.092 315.164 104.747C276.626 66.4032 214.143 66.4032 175.604 104.747C137.066 143.092 137.066 205.26 175.604 243.604C214.143 281.948 276.626 281.948 315.164 243.604Z" fill="white" stroke="#263238" stroke-miterlimit="10" stroke-linejoin="round"/>
<path d="M245.387 75.9863V89.299" stroke="#263238" stroke-miterlimit="10" stroke-linejoin="round"/>
<path d="M245.387 258.949V272.262" stroke="#263238" stroke-miterlimit="10" stroke-linejoin="round"/>
<path d="M344.022 174.125H330.642" stroke="#263238" stroke-miterlimit="10" stroke-linejoin="round"/>
<path d="M160.132 174.125H146.752" stroke="#263238" stroke-miterlimit="10" stroke-linejoin="round"/>
<path d="M315.133 104.73L305.672 114.144" stroke="#263238" stroke-miterlimit="10" stroke-linejoin="round"/>
<path d="M185.103 234.105L175.642 243.519" stroke="#263238" stroke-miterlimit="10" stroke-linejoin="round"/>
<path d="M175.642 104.73L185.103 114.144" stroke="#263238" stroke-miterlimit="10" stroke-linejoin="round"/>
<path d="M305.672 234.105L315.133 243.519" stroke="#263238" stroke-miterlimit="10" stroke-linejoin="round"/>
<path d="M269.728 164.777L271.275 170.629L170.421 194.828L169.957 193.073L269.728 164.777Z" fill="#263238" stroke="#263238" stroke-miterlimit="10" stroke-linejoin="round"/>
<path d="M249.255 174.175C249.255 172.049 247.523 170.326 245.387 170.326C243.25 170.326 241.518 172.049 241.518 174.175C241.518 176.301 243.25 178.025 245.387 178.025C247.523 178.025 249.255 176.301 249.255 174.175Z" fill="white" stroke="#263238" stroke-miterlimit="10" stroke-linejoin="round"/>
<path d="M208.226 247.131L202.179 243.16C202.179 243.16 198.43 246.771 198.188 247.131C197.946 247.492 187.665 248.696 185.609 248.696C183.553 248.696 182.102 248.214 181.86 249.178C181.618 250.14 184.763 252.306 189.359 253.51C191.174 253.985 193.818 254.929 196.421 255.861L196.011 256.879C196.011 256.879 202.905 259.407 203.994 259.527C204.367 259.568 204.726 259.008 205.037 258.262C206.146 257.244 208.226 247.131 208.226 247.131Z" fill="#263238" stroke="#263238" stroke-miterlimit="10" stroke-linejoin="round"/>
<path d="M310.698 195.635L312.176 202.692C312.176 202.692 317.394 202.76 317.821 202.673C318.248 202.586 326.395 208.939 327.854 210.381C329.313 211.823 330.002 213.182 330.855 212.668C331.708 212.155 331.011 208.413 328.602 204.337C327.651 202.728 326.443 200.204 325.256 197.719L326.268 197.283C326.268 197.283 323.166 190.656 322.479 189.808C322.243 189.517 321.592 189.663 320.843 189.974C319.335 189.917 310.698 195.635 310.698 195.635Z" fill="#263238" stroke="#263238" stroke-miterlimit="10" stroke-linejoin="round"/>
<path d="M240.057 176.837C240.057 176.837 238.122 178.041 238.364 178.762C238.606 179.484 240.178 180.688 240.178 180.688C240.178 180.688 214.612 202.616 214.129 204.301C213.645 205.986 198.188 243.158 198.188 243.158L210.04 249.055L225.86 211.641L252.756 194.526C252.756 194.526 272.198 222.044 274.133 221.803C276.068 221.562 315.85 203.131 315.85 203.131L311.979 194.106L278.366 205.557L267.875 182.131C267.875 182.131 270.415 177.799 268.843 173.587C267.271 169.375 262.674 162.877 262.674 162.877L240.057 176.837Z" fill="#263238" stroke="#263238" stroke-miterlimit="10" stroke-linejoin="round"/>
<path d="M252.756 194.527C252.756 194.527 265.638 186.851 266.726 185.768" stroke="#999999" stroke-miterlimit="10" stroke-linejoin="round"/>
<path d="M245.725 176.716C247.456 175.248 249.328 173.748 250.458 173.105C252.998 171.661 258.804 171.902 258.804 171.902" stroke="#999999" stroke-miterlimit="10" stroke-linejoin="round"/>
<path d="M241.629 180.326C241.629 180.326 242.492 179.533 243.709 178.461" stroke="#999999" stroke-miterlimit="10" stroke-linejoin="round"/>
<path d="M261.585 170.58C261.585 170.58 256.748 169.979 252.998 170.941" stroke="#999999" stroke-miterlimit="10" stroke-linejoin="round"/>
<path d="M255.78 193.324C255.78 193.324 265.818 195.129 269.084 194.889" stroke="#999999" stroke-miterlimit="10" stroke-linejoin="round"/>
<path d="M267.986 201.053C268.763 201.281 269.537 201.477 270.294 201.627" stroke="#999999" stroke-miterlimit="10" stroke-linejoin="round"/>
<path d="M255.659 195.49C255.659 195.49 260.548 198.438 265.861 200.354" stroke="#999999" stroke-miterlimit="10" stroke-linejoin="round"/>
<path d="M238.122 174.673L240.057 176.839L262.674 162.88L261.223 161.436L238.122 174.673Z" fill="#263238" stroke="#263238" stroke-miterlimit="10" stroke-linejoin="round"/>
<path d="M271.023 146.8L273.096 149.585L278.177 147.832L277.14 145.355L271.023 146.8Z" fill="white" stroke="#263238" stroke-miterlimit="10" stroke-linejoin="round"/>
<path d="M217.561 126.511C217.561 126.511 207.497 126.653 202.322 126.511C197.146 126.368 182.77 123.507 181.62 125.653C180.47 127.798 182.914 133.663 189.958 135.952C197.003 138.24 212.385 140.386 212.385 140.386C212.385 140.386 218.711 148.253 222.305 152.973C225.9 157.694 232.512 168.565 233.088 169.566C233.662 170.568 236.251 176.718 239.701 175.431C243.151 174.144 261.984 162.557 261.984 161.699C261.984 160.841 261.984 159.697 261.409 158.982C260.834 158.266 254.077 149.97 252.926 147.825C251.776 145.679 247.607 135.094 247.607 135.094L256.664 132.949C256.664 132.949 267.302 144.678 269.316 146.538C271.329 148.397 273.053 147.682 273.053 147.682C273.053 147.682 277.798 146.824 277.941 145.393C278.085 143.963 262.128 119.646 260.546 118.788C258.965 117.93 248.326 121.506 244.014 122.221C239.701 122.936 234.526 123.223 228.488 124.652C222.449 126.082 217.561 126.511 217.561 126.511Z" fill="white" stroke="#263238" stroke-miterlimit="10" stroke-linejoin="round"/>
<path d="M247.607 135.094L233.231 139.099" stroke="#263238" stroke-miterlimit="10" stroke-linejoin="round"/>
<path d="M241.138 136.953L236.107 140.958" stroke="#263238" stroke-miterlimit="10" stroke-linejoin="round"/>
<path d="M200.169 134.796L198.009 133.807" stroke="#263238" stroke-miterlimit="10" stroke-linejoin="round"/>
<path d="M202.322 133.52L212.385 140.385L201.743 135.515" stroke="#263238" stroke-miterlimit="10" stroke-linejoin="round"/>
<path d="M236.604 155.602C241.663 156.651 250.463 158.189 257.938 158.024" stroke="#263238" stroke-miterlimit="10" stroke-linejoin="round"/>
<path d="M232.456 154.668C232.456 154.668 233.325 154.888 234.802 155.215" stroke="#263238" stroke-miterlimit="10" stroke-linejoin="round"/>
<path d="M248.07 155.912C248.07 155.912 254.065 157.155 258.062 157.155" stroke="#263238" stroke-miterlimit="10" stroke-linejoin="round"/>
<path d="M217.396 134.058L219.57 141.305L222.397 133.842L217.396 134.058Z" fill="#EE5F35" stroke="#263238" stroke-miterlimit="10" stroke-linejoin="round"/>
<path d="M218.05 128.598L215.181 131.748L220.127 135.684L222.897 130.763L218.05 128.598Z" fill="white" stroke="#263238" stroke-miterlimit="10" stroke-linejoin="round"/>
<path d="M215.181 131.746L216.566 137.553L218.544 134.403L215.181 131.746Z" fill="white" stroke="#263238" stroke-miterlimit="10" stroke-linejoin="round"/>
<path d="M205.981 106.353C205.981 106.353 204.002 111.177 204.102 112.456C204.201 113.735 205.19 114.522 205.091 115.999C204.992 117.476 201.925 120.231 202.618 120.92C203.311 121.609 205.883 122.692 205.883 122.692C205.883 122.692 208.652 128.401 209.642 128.598C210.631 128.795 215.973 126.137 215.973 126.137L220.127 135.684L228.337 123.578L225.568 118.165C225.568 118.165 227.942 112.062 225.667 107.042C223.392 102.022 216.17 101.728 212.708 102.318C209.245 102.908 206.674 104.385 205.981 106.353Z" fill="white" stroke="#263238" stroke-miterlimit="10"/>
<path d="M212.609 105.27C212.609 105.27 210.432 104.581 207.96 106.353C205.486 108.125 203.409 110.093 202.42 108.321C201.43 106.549 204.497 103.597 204.497 103.597C204.497 103.597 202.024 102.908 203.013 100.054C204.002 97.1993 207.662 96.6091 207.662 97.5928C207.662 98.5772 207.365 99.3641 210.136 97.9863C212.905 96.6084 214.389 96.2143 214.982 97.7895C215.576 99.3641 219.137 98.4785 223.193 100.743C227.249 103.006 228.238 104.483 227.347 109.601C226.457 114.719 226.259 117.179 225.566 118.164C224.874 119.148 222.401 119.444 221.313 119.05C220.225 118.656 220.818 117.573 220.818 117.573C220.818 117.573 223.687 114.719 222.401 112.455C221.114 110.192 219.235 111.175 218.642 112.455C218.048 113.735 218.345 114.817 217.454 114.817C216.564 114.817 215.773 114.128 215.575 112.75C215.377 111.373 214.685 110.093 214.091 109.896C213.498 109.699 212.014 110.978 212.112 108.715C212.211 106.451 213.497 105.172 213.497 105.172L212.609 105.27Z" fill="#263238" stroke="#263238" stroke-miterlimit="10"/>
<path d="M205.982 115.015C205.982 115.015 205.846 112.777 208.157 112.357" stroke="#263238" stroke-miterlimit="10"/>
<path d="M208.328 115.984C208.517 116.523 208.462 117.032 208.204 117.122C207.946 117.213 207.584 116.849 207.394 116.31C207.204 115.771 207.26 115.262 207.517 115.172C207.775 115.081 208.138 115.445 208.328 115.984Z" fill="#263238"/>
<path d="M228.14 120.428L219.534 131.353L221.116 137.16L231.207 123.183L228.14 120.428Z" fill="white" stroke="#263238" stroke-miterlimit="10" stroke-linejoin="round"/>
<path d="M219.57 141.306C219.57 141.306 220.005 142.928 221.744 143.253C223.483 143.577 226.527 142.28 228.049 138.385C229.571 134.491 232.723 123.784 234.571 121.189C236.419 118.593 242.506 118.485 245.659 118.701C248.812 118.917 250.985 115.888 253.92 114.482C256.855 113.076 259.356 112.752 259.356 112.752L263.052 105.289L255.334 105.072C255.334 105.072 247.725 108.641 245.768 110.913C243.811 113.184 242.399 112.86 238.267 113.725C234.137 114.59 231.854 116.321 230.223 121.296C228.593 126.271 226.418 138.817 224.027 140.548C221.635 142.279 219.57 141.306 219.57 141.306Z" fill="#EE5F35" stroke="#263238" stroke-miterlimit="10" stroke-linejoin="round"/>
<path d="M192.835 133.156C193.731 134.079 193.861 135.399 193.126 136.106C192.391 136.813 191.069 136.638 190.173 135.716C189.276 134.794 189.146 133.473 189.882 132.767C190.617 132.059 191.94 132.234 192.835 133.156Z" fill="white" stroke="#263238" stroke-miterlimit="10" stroke-linejoin="round"/>
<path d="M192.129 134.952L190.698 133.44C190.698 133.44 187.747 125.789 183.813 123.742C179.879 121.696 175.14 124.81 174.156 127.746C173.173 130.682 176.66 135.575 180.326 137.087C183.992 138.6 189.357 139.756 189.357 139.756C189.357 139.756 191.056 135.753 192.129 134.952Z" fill="white" stroke="#263238" stroke-miterlimit="10" stroke-linejoin="round"/>
<path d="M187.033 139.044L187.185 139.238C188.473 139.563 189.358 139.756 189.358 139.756C189.358 139.756 191.057 135.752 192.129 134.952L190.699 133.439C190.699 133.439 186.585 134.151 187.033 139.044Z" fill="#263238" stroke="#263238" stroke-miterlimit="10" stroke-linejoin="round"/>
<path d="M201.16 146.783C201.16 146.783 202.233 148.295 202.948 148.83C203.664 149.363 203.931 149.986 203.037 149.897C202.143 149.808 201.071 149.63 200.176 148.651C199.282 147.673 198.656 146.872 198.656 146.872L201.16 146.783Z" fill="white" stroke="#263238" stroke-miterlimit="10" stroke-linejoin="round"/>
<path d="M201.607 144.115C201.607 144.115 202.859 146.162 202.412 146.695C201.965 147.229 197.851 147.407 197.226 147.229C196.6 147.051 197.047 146.25 197.047 146.25L201.607 144.115Z" fill="white" stroke="#263238" stroke-miterlimit="10" stroke-linejoin="round"/>
<path d="M201.518 141.713C201.518 141.713 202.501 143.225 202.323 143.848C202.144 144.471 197.941 146.339 197.047 146.25C196.153 146.162 196.242 145.45 196.242 145.45L201.518 141.713Z" fill="white" stroke="#263238" stroke-miterlimit="10" stroke-linejoin="round"/>
<path d="M199.819 139.934C199.819 139.934 201.428 139.756 201.607 140.912C201.785 142.069 200.802 142.425 200.176 142.958C199.55 143.492 196.868 145.45 196.242 145.45C195.616 145.45 194.454 143.67 194.454 143.67L199.819 139.934Z" fill="white" stroke="#263238" stroke-miterlimit="10" stroke-linejoin="round"/>
<path d="M192.129 134.951C192.129 134.951 196.51 136.553 198.567 137.086C200.623 137.62 200.713 139.31 199.819 139.934C198.924 140.557 196.153 143.937 195.348 144.115C194.543 144.293 193.381 143.403 193.381 143.403C193.381 143.403 190.877 142.158 190.519 141.179C190.161 140.201 189.356 139.756 189.356 139.756C189.356 139.756 189.089 136.107 192.129 134.951Z" fill="white" stroke="#263238" stroke-miterlimit="10" stroke-linejoin="round"/>
<path d="M193.38 143.402C193.38 143.402 192.665 141.711 193.291 141.267C193.917 140.822 194.901 141.8 194.901 141.8C194.901 141.8 195.259 140.643 195.616 140.377" stroke="#263238" stroke-miterlimit="10" stroke-linejoin="round"/>
<path d="M273.096 149.586C273.096 149.586 273.616 152.551 273.541 153.451C273.466 154.35 271.884 158.097 271.809 158.322C271.733 158.547 272.336 159.446 272.562 159.746C272.788 160.046 273.842 159.896 274.671 160.57C275.5 161.245 276.479 162.894 277.684 162.519C278.889 162.144 279.642 160.57 279.642 160.57C279.642 160.57 282.429 158.921 282.504 158.097C282.58 157.272 282.354 155.773 282.128 155.099C281.901 154.425 278.176 147.832 278.176 147.832L273.096 149.586Z" fill="white" stroke="#263238" stroke-miterlimit="10" stroke-linejoin="round"/>
<path d="M273.918 157.646C273.918 157.646 275.349 157.872 275.951 160.045" stroke="#263238" stroke-miterlimit="10" stroke-linejoin="round"/>
<path d="M274.671 158.77L271.432 160.418L274.445 166.039" stroke="#263238" stroke-width="3" stroke-miterlimit="10" stroke-linecap="round" stroke-linejoin="round"/>
<path d="M282.58 156.072L283.484 155.697L286.497 161.693" stroke="#263238" stroke-width="3" stroke-miterlimit="10" stroke-linejoin="round"/>
<path d="M308.398 179.613L275.993 194.002C274.728 194.564 273.244 193.999 272.68 192.74L263.983 173.353C263.418 172.094 263.986 170.618 265.252 170.056L297.658 155.667C298.923 155.105 300.406 155.67 300.971 156.929L309.667 176.316C310.231 177.575 309.663 179.051 308.398 179.613Z" fill="#EE5F35" stroke="#263238" stroke-miterlimit="10" stroke-linejoin="round"/>
</g>
<defs>
<clipPath id="clip0_527_19063">
<rect width="496" height="329" fill="white"/>
</clipPath>
</defs>
</svg>
