<svg width="31" height="31" viewBox="0 0 31 31" fill="none" xmlns="http://www.w3.org/2000/svg">
<path d="M14.5312 18.0833C14.5312 18.6184 14.9649 19.0521 15.5 19.0521C16.035 19.0521 16.4687 18.6184 16.4687 18.0833V5.85967C16.5502 5.95911 16.6379 6.06683 16.7327 6.18359L17.9773 7.71512C18.3148 8.13033 18.9249 8.19339 19.3401 7.85597C19.7553 7.51855 19.8184 6.90842 19.4809 6.49321L18.1954 4.91128C17.7709 4.38876 17.389 3.91882 17.0324 3.5886C16.6462 3.23095 16.1538 2.90625 15.5 2.90625C14.8462 2.90625 14.3538 3.23094 13.9675 3.5886C13.6109 3.91881 13.2291 4.38875 12.8046 4.91127L11.519 6.49321C11.1816 6.90842 11.2446 7.51855 11.6598 7.85597C12.0751 8.19339 12.6852 8.13033 13.0226 7.71512L14.2672 6.18359C14.3621 6.06683 14.4498 5.95911 14.5312 5.85967V18.0833Z" fill="#EE5F35"/>
<path d="M8.96811 13.8854C9.50313 13.8814 9.93363 13.4445 9.92967 12.9095C9.92571 12.3745 9.48879 11.944 8.95378 11.9479C8.0773 11.9544 7.41987 11.978 6.85575 12.1274C4.49028 12.7538 2.84321 14.8852 2.9081 17.3145C2.92691 18.0185 3.18004 18.8395 3.56207 20.0785L3.61568 20.2524C4.69488 23.7562 6.62278 27.1465 11.0901 27.9489C11.8973 28.0939 12.7892 28.0938 14.3054 28.0938H16.6946C18.2107 28.0938 19.1027 28.0939 19.9099 27.9489C24.3772 27.1465 26.3051 23.7562 27.3843 20.2524L27.438 20.0784C27.82 18.8395 28.0731 18.0185 28.0919 17.3145C28.1568 14.8852 26.5097 12.7538 24.1443 12.1274C23.5801 11.978 22.9227 11.9544 22.0462 11.9479C21.5112 11.944 21.0743 12.3745 21.0703 12.9095C21.0664 13.4445 21.4969 13.8814 22.0319 13.8854C22.9403 13.8921 23.357 13.9232 23.6483 14.0004C25.1765 14.405 26.1952 15.7632 26.1551 17.2627C26.1444 17.6641 25.9873 18.2062 25.5327 19.6821C24.5268 22.9479 22.9504 25.4343 19.5674 26.0419C18.9515 26.1525 18.2437 26.1563 16.5815 26.1563H14.4185C12.7563 26.1563 12.0485 26.1525 11.4326 26.0419C8.04963 25.4343 6.47324 22.9479 5.46734 19.6821C5.01276 18.2062 4.85563 17.6641 4.84491 17.2627C4.80485 15.7632 5.82351 14.405 7.35169 14.0004C7.64306 13.9232 8.0597 13.8921 8.96811 13.8854Z" fill="#EE5F35"/>
</svg>
