<svg width="20" height="20" viewBox="0 0 20 20" fill="none" xmlns="http://www.w3.org/2000/svg">
<path fill-rule="evenodd" clip-rule="evenodd" d="M10 1.04102C7.58375 1.04102 5.625 2.99977 5.625 5.41602C5.625 7.83226 7.58375 9.79102 10 9.79102C12.4162 9.79102 14.375 7.83226 14.375 5.41602C14.375 2.99977 12.4162 1.04102 10 1.04102ZM6.875 5.41602C6.875 3.69013 8.27411 2.29102 10 2.29102C11.7259 2.29102 13.125 3.69013 13.125 5.41602C13.125 7.14191 11.7259 8.54102 10 8.54102C8.27411 8.54102 6.875 7.14191 6.875 5.41602Z" fill="#EE5F35"/>
<path fill-rule="evenodd" clip-rule="evenodd" d="M10 11.041C5.58392 11.041 1.875 14.2384 1.875 18.3327V18.9577H18.125V18.3327C18.125 14.2384 14.4161 11.041 10 11.041ZM10 12.291C13.619 12.291 16.4841 14.7175 16.8381 17.7077H3.16185C3.51593 14.7175 6.38096 12.291 10 12.291Z" fill="#EE5F35"/>
</svg>
