<svg width="20" height="20" viewBox="0 0 20 20" fill="none" xmlns="http://www.w3.org/2000/svg">
<path d="M9.16012 12.4993C9.16012 12.0391 9.53321 11.666 9.99345 11.666H10.0009C10.4612 11.666 10.8343 12.0391 10.8343 12.4993C10.8343 12.9596 10.4612 13.3327 10.0009 13.3327H9.99345C9.53321 13.3327 9.16012 12.9596 9.16012 12.4993Z" fill="#171717"/>
<path d="M9.37496 9.99935C9.37496 10.3445 9.65478 10.6243 9.99996 10.6243C10.3451 10.6243 10.625 10.3445 10.625 9.99935V6.66602C10.625 6.32084 10.3451 6.04102 9.99996 6.04102C9.65478 6.04102 9.37496 6.32084 9.37496 6.66602V9.99935Z" fill="#171717"/>
<path fill-rule="evenodd" clip-rule="evenodd" d="M1.04163 9.99935C1.04163 5.0518 5.05241 1.04102 9.99996 1.04102C14.9475 1.04102 18.9583 5.0518 18.9583 9.99935C18.9583 14.9469 14.9475 18.9577 9.99996 18.9577C5.05241 18.9577 1.04163 14.9469 1.04163 9.99935ZM9.99996 2.29102C5.74276 2.29102 2.29163 5.74215 2.29163 9.99935C2.29163 14.2565 5.74276 17.7077 9.99996 17.7077C14.2572 17.7077 17.7083 14.2565 17.7083 9.99935C17.7083 5.74215 14.2572 2.29102 9.99996 2.29102Z" fill="#171717"/>
</svg>
