<svg width="20" height="20" viewBox="0 0 20 20" fill="none" xmlns="http://www.w3.org/2000/svg">
<path fill-rule="evenodd" clip-rule="evenodd" d="M6.45842 5.41667C6.45842 3.46066 8.04407 1.875 10.0001 1.875C11.9561 1.875 13.5417 3.46066 13.5417 5.41667C13.5417 7.37268 11.9561 8.95833 10.0001 8.95833C8.04407 8.95833 6.45842 7.37268 6.45842 5.41667ZM10.0001 3.125C8.73443 3.125 7.70842 4.15101 7.70842 5.41667C7.70842 6.68232 8.73443 7.70833 10.0001 7.70833C11.2657 7.70833 12.2917 6.68232 12.2917 5.41667C12.2917 4.15101 11.2657 3.125 10.0001 3.125Z" fill="#171717"/>
<path fill-rule="evenodd" clip-rule="evenodd" d="M11.8751 14.5833C11.8751 12.6273 13.4607 11.0417 15.4167 11.0417C17.3728 11.0417 18.9584 12.6273 18.9584 14.5833C18.9584 16.5393 17.3728 18.125 15.4167 18.125C13.4607 18.125 11.8751 16.5393 11.8751 14.5833ZM15.4167 12.2917C14.1511 12.2917 13.1251 13.3177 13.1251 14.5833C13.1251 15.849 14.1511 16.875 15.4167 16.875C16.6824 16.875 17.7084 15.849 17.7084 14.5833C17.7084 13.3177 16.6824 12.2917 15.4167 12.2917Z" fill="#171717"/>
<path fill-rule="evenodd" clip-rule="evenodd" d="M4.58341 11.0417C2.62741 11.0417 1.04175 12.6273 1.04175 14.5833C1.04175 16.5393 2.62741 18.125 4.58341 18.125C6.53942 18.125 8.12508 16.5393 8.12508 14.5833C8.12508 12.6273 6.53942 11.0417 4.58341 11.0417ZM2.29175 14.5833C2.29175 13.3177 3.31776 12.2917 4.58341 12.2917C5.84907 12.2917 6.87508 13.3177 6.87508 14.5833C6.87508 15.849 5.84907 16.875 4.58341 16.875C3.31776 16.875 2.29175 15.849 2.29175 14.5833Z" fill="#171717"/>
</svg>
