<svg width="20" height="20" viewBox="0 0 20 20" fill="none" xmlns="http://www.w3.org/2000/svg">
<path fill-rule="evenodd" clip-rule="evenodd" d="M9.99996 7.29102C8.50419 7.29102 7.29163 8.50358 7.29163 9.99935C7.29163 11.4951 8.50419 12.7077 9.99996 12.7077C11.4957 12.7077 12.7083 11.4951 12.7083 9.99935C12.7083 8.50358 11.4957 7.29102 9.99996 7.29102ZM8.54163 9.99935C8.54163 9.19393 9.19454 8.54102 9.99996 8.54102C10.8054 8.54102 11.4583 9.19393 11.4583 9.99935C11.4583 10.8048 10.8054 11.4577 9.99996 11.4577C9.19454 11.4577 8.54163 10.8048 8.54163 9.99935Z" fill="#171717"/>
<path d="M4.58329 9.99935C5.04353 9.99935 5.41663 10.3724 5.41663 10.8327V10.8402C5.41663 11.3004 5.04353 11.6735 4.58329 11.6735C4.12306 11.6735 3.74996 11.3004 3.74996 10.8402V10.8327C3.74996 10.3724 4.12306 9.99935 4.58329 9.99935Z" fill="#171717"/>
<path d="M16.25 9.15951C16.25 8.69927 15.8769 8.32617 15.4166 8.32617C14.9564 8.32617 14.5833 8.69927 14.5833 9.15951V9.16699C14.5833 9.62723 14.9564 10.0003 15.4166 10.0003C15.8769 10.0003 16.25 9.62723 16.25 9.16699V9.15951Z" fill="#171717"/>
<path fill-rule="evenodd" clip-rule="evenodd" d="M14.1666 2.29102C12.4929 2.29102 10.9415 2.6198 9.73548 3.18307C8.72059 3.65707 7.35467 3.95768 5.83329 3.95768C4.98996 3.95768 4.19153 3.86524 3.47283 3.70063C2.36746 3.44745 1.04163 4.205 1.04163 5.51099V14.4877C1.04163 15.1518 1.13098 15.8039 1.48178 16.3431C1.84787 16.9059 2.42954 17.244 3.19375 17.4191C4.00787 17.6055 4.90009 17.7077 5.83329 17.7077C7.50704 17.7077 9.05843 17.3789 10.2644 16.8156C11.2793 16.3416 12.6453 16.041 14.1666 16.041C15.01 16.041 15.8084 16.1335 16.5271 16.2981C17.6325 16.5512 18.9583 15.7937 18.9583 14.4877V5.51099C18.9583 4.84695 18.8689 4.19479 18.5181 3.65556C18.1521 3.09282 17.5704 2.75466 16.8062 2.57962C15.9921 2.39315 15.0998 2.29102 14.1666 2.29102ZM10.2644 4.31563C11.2793 3.84163 12.6453 3.54102 14.1666 3.54102C15.01 3.54102 15.8084 3.63346 16.5271 3.79807C17.081 3.92494 17.3326 4.12551 17.4704 4.3372C17.6234 4.5724 17.7083 4.93036 17.7083 5.51099V14.4877C17.7083 14.8231 17.3007 15.1929 16.8062 15.0796C15.9921 14.8932 15.0998 14.791 14.1666 14.791C12.4929 14.791 10.9415 15.1198 9.73548 15.6831C8.72059 16.1571 7.35467 16.4577 5.83329 16.4577C4.98996 16.4577 4.19153 16.3652 3.47283 16.2006C2.91894 16.0738 2.66728 15.8732 2.52957 15.6615C2.37656 15.4263 2.29163 15.0683 2.29163 14.4877V5.51099C2.29163 5.1756 2.69917 4.8058 3.19375 4.91908C4.00787 5.10554 4.90009 5.20768 5.83329 5.20768C7.50704 5.20768 9.05843 4.8789 10.2644 4.31563Z" fill="#171717"/>
</svg>
