<svg width="20" height="20" viewBox="0 0 20 20" fill="none" xmlns="http://www.w3.org/2000/svg">
<path fill-rule="evenodd" clip-rule="evenodd" d="M2.70837 7.37148C2.70837 7.39834 2.70837 7.42533 2.70837 7.45243L2.70837 17.5C2.70837 17.8452 2.9882 18.125 3.33337 18.125C3.67855 18.125 3.95837 17.8452 3.95837 17.5L3.95837 13.125L13.2742 13.125C14.1647 13.125 14.8893 13.125 15.4379 13.0609C15.9825 12.9973 16.5278 12.8554 16.887 12.4179C17.0498 12.2196 17.1703 11.9904 17.2397 11.7434C17.3961 11.1874 17.1775 10.6659 16.9013 10.207C16.6239 9.74629 16.1875 9.19057 15.6551 8.51271L15.6275 8.47761C15.3888 8.17359 15.2379 7.98038 15.1374 7.823C15.0431 7.67544 15.0264 7.60866 15.0216 7.56957C15.0159 7.52333 15.0159 7.47667 15.0216 7.43043C15.0264 7.39134 15.0431 7.32456 15.1374 7.177C15.2379 7.01962 15.3888 6.82641 15.6275 6.52239L15.655 6.48739C16.1874 5.80948 16.6239 5.25373 16.9013 4.79301C17.1775 4.33411 17.3961 3.81263 17.2397 3.25663C17.1703 3.00962 17.0498 2.78036 16.887 2.58214C16.5278 2.14461 15.9825 2.00268 15.4379 1.93906C14.8892 1.87497 14.1647 1.87498 13.2742 1.875L8.52476 1.875C7.32823 1.87499 6.36962 1.87497 5.61692 1.97162C4.83984 2.07139 4.18822 2.28385 3.66845 2.78024C3.14463 3.28049 2.91668 3.9142 2.81032 4.66969C2.73447 5.20849 2.71504 5.85565 2.71008 6.6202C2.70895 6.63554 2.70837 6.65104 2.70837 6.66667V7.37148ZM4.03591 11.875L3.95838 7.49447C3.95838 6.30045 3.95996 5.4701 4.04811 4.84395C4.13344 4.23788 4.28885 3.91621 4.53176 3.68423C4.77872 3.44838 5.12747 3.29472 5.77611 3.21144C6.43989 3.12621 7.318 3.125 8.56893 3.125L13.2321 3.125C14.1749 3.125 14.8256 3.12603 15.2929 3.18062C15.7728 3.23669 15.8871 3.33411 15.9209 3.37532C15.9757 3.44201 16.0144 3.51689 16.0364 3.595C16.0453 3.62651 16.0685 3.75264 15.8303 4.14829C15.598 4.53422 15.2111 5.0288 14.6444 5.75034L14.6271 5.77236C14.4107 6.0479 14.2213 6.28915 14.084 6.50408C13.9367 6.73455 13.8173 6.98225 13.7809 7.27774C13.7628 7.42539 13.7628 7.57461 13.7809 7.72226C13.8173 8.01775 13.9367 8.26545 14.084 8.49592C14.2213 8.71085 14.4107 8.95209 14.6272 9.22764L14.6444 9.24966C15.2111 9.9712 15.598 10.4658 15.8303 10.8517C16.0685 11.2474 16.0453 11.3735 16.0364 11.405C16.0144 11.4831 15.9757 11.558 15.9209 11.6247C15.8871 11.6659 15.7728 11.7633 15.2929 11.8194C14.8256 11.874 14.1749 11.875 13.2321 11.875L4.03591 11.875Z" fill="#171717"/>
</svg>
