<svg width="18" height="18" viewBox="0 0 18 18" fill="none" xmlns="http://www.w3.org/2000/svg">
<path fill-rule="evenodd" clip-rule="evenodd" d="M12.2618 13.3752C12.1043 13.3752 11.9468 13.3602 11.7901 13.3294C11.1234 13.1885 10.5617 12.9719 9.96091 12.6252C8.61508 11.8569 7.39926 10.6394 6.6251 9.28608C6.27093 8.67274 6.0551 8.11101 5.92344 7.46601C5.73427 6.52934 6.11508 5.54018 6.91758 4.88268C7.18091 4.66851 7.49344 4.58354 7.80011 4.64187C8.10261 4.69937 8.36842 4.89775 8.53009 5.18525L8.85927 5.78022L8.86058 5.78258C9.15234 6.30792 9.34418 6.65333 9.29758 7.09101C9.25177 7.53663 8.99117 7.83407 8.59649 8.28454L8.59592 8.28518L7.93927 9.03852C8.5226 9.92852 9.32176 10.7285 10.2068 11.3094L10.9618 10.6519L10.9655 10.6486C11.4192 10.2546 11.7172 9.99591 12.1593 9.95104C12.6176 9.90437 12.9768 10.1102 13.4734 10.3952L14.0568 10.7177C14.3459 10.8744 14.5476 11.141 14.6067 11.4477C14.6667 11.7569 14.5809 12.0702 14.3651 12.3302C13.8243 12.996 13.0484 13.3744 12.2609 13.3744L12.2618 13.3752ZM11.4034 11.9269C11.6434 12.0135 11.8534 12.0652 12.0409 12.1044C12.4543 12.186 12.9042 12.0335 13.2509 11.701L12.8659 11.4886C12.8659 11.4886 12.8634 11.4871 12.861 11.4856C12.8597 11.4848 12.8585 11.4841 12.8576 11.4835C12.6734 11.3777 12.3659 11.2019 12.2851 11.1969C12.2193 11.2186 11.9893 11.4177 11.7868 11.5935L11.4034 11.9269ZM7.14841 7.21691C7.05014 6.73137 7.27065 6.29239 7.55041 5.99739L7.76759 6.38935L7.78624 6.42311C7.91278 6.65218 8.03908 6.88082 8.05259 6.96105C8.02592 7.03771 7.82925 7.26273 7.65342 7.46357L7.32175 7.84435C7.24925 7.64268 7.19341 7.4369 7.14841 7.21691Z" fill="#171717"/>
<path fill-rule="evenodd" clip-rule="evenodd" d="M10.25 17.9577H9.00004C5.68938 17.9577 4.0275 17.9577 2.86837 16.8002C2.30499 16.2376 2.01522 15.5561 1.86619 14.6243H1.08337C0.738374 14.6243 0.458374 14.3443 0.458374 13.9993C0.458374 13.6544 0.738374 13.3743 1.08337 13.3743H1.74624C1.70837 12.6152 1.70837 11.725 1.70837 10.6661V9.62435H1.08337C0.738374 9.62435 0.458374 9.34435 0.458374 8.99935C0.458374 8.65435 0.738374 8.37435 1.08337 8.37435H1.70837V7.33268C1.70837 6.2738 1.70837 5.38345 1.74624 4.62435H1.08337C0.738374 4.62435 0.458374 4.34435 0.458374 3.99935C0.458374 3.65435 0.738374 3.37435 1.08337 3.37435H1.86619C2.01522 2.44256 2.30499 1.76106 2.86837 1.19849C4.02667 0.0410156 5.68912 0.0410156 8.99979 0.0410156H10.25C13.5607 0.0410156 15.2226 0.0410156 16.3817 1.19849C17.5417 2.35681 17.5417 4.01933 17.5417 7.33263V10.666C17.5417 13.9793 17.5417 15.6419 16.3817 16.8002C15.2234 17.9577 13.5607 17.9577 10.25 17.9577ZM3.1385 3.37435C3.25363 2.80708 3.44236 2.3922 3.75171 2.0835C4.54419 1.29102 6.0333 1.29102 8.99982 1.29102H10.25C13.2166 1.29102 14.7051 1.29102 15.4984 2.0835C16.2917 2.87516 16.2917 4.36518 16.2917 7.33268V10.666C16.2917 13.6335 16.2917 15.1235 15.4984 15.9152C14.7059 16.7077 13.2168 16.7077 10.2503 16.7077H9.00004C6.03352 16.7077 4.54502 16.7077 3.75171 15.9152C3.44236 15.6065 3.25363 15.1916 3.1385 14.6243H3.16671C3.51171 14.6243 3.79171 14.3443 3.79171 13.9993C3.79171 13.6544 3.51171 13.3743 3.16671 13.3743H2.99757C2.95837 12.6448 2.95837 11.7549 2.95837 10.666V9.62435H3.16671C3.51171 9.62435 3.79171 9.34435 3.79171 8.99935C3.79171 8.65435 3.51171 8.37435 3.16671 8.37435H2.95837V7.33268C2.95837 6.24381 2.95837 5.35386 2.99757 4.62435H3.16671C3.51171 4.62435 3.79171 4.34435 3.79171 3.99935C3.79171 3.65435 3.51171 3.37435 3.16671 3.37435H3.1385Z" fill="#171717"/>
</svg>
