<svg width="20" height="20" viewBox="0 0 20 20" fill="none" xmlns="http://www.w3.org/2000/svg">
<path d="M10.6559 10.877L10.6551 10.5612C10.6551 10.2655 10.9152 9.93277 11.1908 9.5802L11.202 9.56596C11.3384 9.39169 11.4794 9.21165 11.6026 9.01701C11.7901 8.71618 11.8892 8.35952 11.8892 7.98535C11.8892 6.93285 11.0601 6.07699 10.0309 6.07699C9.00176 6.07699 8.16423 6.93285 8.16423 7.98535H9.41423C9.41423 7.62202 9.69509 7.32699 10.0309 7.32699C10.3668 7.32699 10.6392 7.62202 10.6392 7.98535C10.6392 8.12535 10.6059 8.25284 10.5451 8.35034C10.4551 8.49201 10.3376 8.64284 10.2126 8.802L10.2108 8.80422C9.85196 9.26301 9.40592 9.83323 9.40592 10.5604V10.877H10.6559Z" fill="#171717"/>
<path d="M10.6644 13.1689H9.41439L9.40609 11.9189H10.6644V13.1689Z" fill="#171717"/>
<path fill-rule="evenodd" clip-rule="evenodd" d="M1.49115 18.3105C1.62448 18.4439 1.80456 18.5155 1.98789 18.5155L1.98619 18.5164C2.06369 18.5164 2.14117 18.5039 2.21617 18.478L5.40204 17.4189C6.50954 17.9947 8.39451 18.2305 9.87201 18.2555C10.9028 18.2722 13.4404 18.2122 14.8495 17.2756C17.6154 15.8456 20.0112 12.3205 18.4754 6.68799C18.0095 4.98882 15.982 1.78136 11.6145 1.5022V1.48633H11.2562L8.74782 1.49382V1.48633C8.60782 1.48633 8.46284 1.48636 8.30284 1.49552L8.26621 1.49886C5.34705 1.84136 2.99951 3.52886 1.82701 6.1272C0.593673 8.86053 0.833666 12.183 2.4245 14.688L1.32953 17.558C1.23203 17.8189 1.29532 18.1147 1.49115 18.3105ZM5.81789 16.2147L5.56456 16.0464L2.90619 16.9305L3.82367 14.5256L3.63617 14.2547C2.12617 12.0747 1.86283 9.08636 2.96617 6.64136C3.9645 4.43052 5.88537 3.04798 8.37787 2.74382L11.2487 2.73551C13.0204 2.78718 14.5104 3.38049 15.6762 4.50049C16.582 5.37049 17.1012 6.40052 17.2704 7.01636C17.907 9.35469 17.852 11.4063 17.1045 13.1155C16.5212 14.448 15.507 15.5364 14.247 16.1789L14.2112 16.1972L14.1778 16.2196C13.4228 16.7363 11.7795 17.0381 9.89366 17.0047C8.12199 16.9739 6.48456 16.6563 5.81789 16.2147Z" fill="#171717"/>
</svg>
