<svg width="20" height="20" viewBox="0 0 20 20" fill="none" xmlns="http://www.w3.org/2000/svg">
<path d="M9.10669 1.45899H10.8937C11.6288 1.45896 12.2478 1.45893 12.7277 1.52783C13.232 1.60022 13.7158 1.76521 14.051 2.20535C14.3197 2.55832 14.3925 2.95812 14.3719 3.36563C14.3544 3.71037 14.0608 3.97566 13.716 3.95819C13.3713 3.94071 13.106 3.64708 13.1235 3.30234C13.1342 3.0907 13.0943 3.01226 13.0565 2.96263C13.0109 2.90276 12.9166 2.81776 12.5501 2.76515C12.1696 2.71053 11.6415 2.70899 10.8463 2.70899H9.15414C8.3589 2.70899 7.83082 2.71053 7.45033 2.76515C7.08384 2.81776 6.98954 2.90276 6.94395 2.96263C6.90616 3.01226 6.86621 3.0907 6.87694 3.30234C6.89442 3.64708 6.62912 3.94071 6.28439 3.95819C5.93965 3.97566 5.64602 3.71037 5.62854 3.36563C5.60788 2.95812 5.68067 2.55833 5.94945 2.20535C6.2846 1.76521 6.76845 1.60022 7.27271 1.52783C7.75267 1.45893 8.37165 1.45896 9.10669 1.45899Z" fill="#171717"/>
<path d="M7.86102 4.79232H12.1396C13.1069 4.79229 13.9037 4.79227 14.5165 4.88404C15.1576 4.98004 15.7305 5.1942 16.1164 5.73115C16.3008 5.98766 16.4075 6.27083 16.4521 6.57717C16.5019 6.91874 16.2654 7.236 15.9238 7.28578C15.5822 7.33557 15.265 7.09904 15.2152 6.75747C15.1968 6.6311 15.1586 6.5402 15.1014 6.46067C14.9996 6.31903 14.8232 6.19389 14.3314 6.12025C13.8221 6.04399 13.1198 6.04232 12.0883 6.04232H7.91236C6.88083 6.04232 6.17853 6.04399 5.66926 6.12025C5.17749 6.19389 5.00105 6.31903 4.89925 6.46067C4.84209 6.5402 4.80388 6.6311 4.78546 6.75747C4.73567 7.09904 4.41841 7.33557 4.07684 7.28578C3.73527 7.236 3.49874 6.91874 3.54853 6.57717C3.59318 6.27083 3.69986 5.98766 3.88421 5.73115C4.27012 5.1942 4.84301 4.98004 5.48414 4.88404C6.09697 4.79227 6.89377 4.79229 7.86102 4.79232Z" fill="#171717"/>
<path fill-rule="evenodd" clip-rule="evenodd" d="M13.7543 8.12565H6.246C5.26777 8.12563 4.46293 8.1256 3.84453 8.21786C3.19849 8.31424 2.62127 8.52915 2.23383 9.06928C1.84859 9.60636 1.82368 10.2247 1.92842 10.875C2.02928 11.5012 2.2727 12.2811 2.56995 13.2334L3.18385 15.2002C3.55681 16.3951 3.94853 17.3026 4.69007 17.8614C5.43591 18.4235 6.41355 18.5423 7.67535 18.5423H12.3249C13.5867 18.5423 14.5643 18.4235 15.3102 17.8614C16.0517 17.3026 16.4434 16.3951 16.8164 15.2002L17.4303 13.2333C17.7276 12.2811 17.971 11.5012 18.0718 10.875C18.1766 10.2247 18.1517 9.60636 17.7664 9.06928C17.379 8.52915 16.8018 8.31424 16.1557 8.21786C15.5373 8.1256 14.7325 8.12563 13.7543 8.12565ZM3.24956 9.79785C3.35197 9.65508 3.53063 9.52852 4.02897 9.45418C4.54418 9.37731 5.25489 9.37565 6.29731 9.37565H13.7029C14.7454 9.37565 15.4561 9.37731 15.9713 9.45418C16.4696 9.52852 16.6483 9.65508 16.7507 9.79785C16.8553 9.94368 16.9204 10.1632 16.8377 10.6763C16.7529 11.2032 16.538 11.8969 16.2222 12.9085L15.6232 14.8278C15.2499 16.0238 14.9495 16.568 14.5579 16.8631C14.1706 17.155 13.5739 17.2923 12.3249 17.2923H7.67535C6.42634 17.2923 5.82967 17.155 5.44234 16.8631C5.05071 16.568 4.75039 16.0238 4.37708 14.8278L3.77802 12.9085C3.46229 11.8969 3.24738 11.2032 3.16252 10.6763C3.07987 10.1632 3.14495 9.94368 3.24956 9.79785Z" fill="#171717"/>
</svg>
