<svg width="20" height="20" viewBox="0 0 20 20" fill="none" xmlns="http://www.w3.org/2000/svg">
<path d="M6.31346 8.13799C6.9165 7.4146 7.42455 7.25719 7.85757 7.29836C8.35031 7.3452 8.91999 7.66197 9.58778 8.24808C10.3089 8.88098 11.1281 9.41752 12.0242 9.50272C12.9801 9.59359 13.8609 9.16177 14.6468 8.2191C14.8678 7.95397 14.8321 7.55986 14.5669 7.33884C14.3018 7.11781 13.9077 7.15357 13.6867 7.4187C13.0836 8.14209 12.5756 8.2995 12.1425 8.25833C11.6498 8.21148 11.0801 7.89472 10.4123 7.30861C9.69123 6.67571 8.87202 6.13917 7.97588 6.05397C7.02001 5.9631 6.13917 6.39492 5.35332 7.33758C5.1323 7.60272 5.16805 7.99683 5.43319 8.21785C5.69832 8.43888 6.09243 8.40312 6.31346 8.13799Z" fill="#171717"/>
<path d="M6.31346 12.5824C6.9165 11.859 7.42455 11.7016 7.85757 11.7428C8.35031 11.7896 8.91999 12.1064 9.58778 12.6925C10.3089 13.3254 11.1281 13.862 12.0242 13.9472C12.9801 14.038 13.8609 13.6062 14.6468 12.6635C14.8678 12.3984 14.8321 12.0043 14.5669 11.7833C14.3018 11.5623 13.9077 11.598 13.6867 11.8631C13.0836 12.5865 12.5756 12.7439 12.1425 12.7028C11.6498 12.6559 11.0801 12.3392 10.4123 11.7531C9.69123 11.1202 8.87202 10.5836 7.97588 10.4984C7.02001 10.4075 6.13917 10.8394 5.35332 11.782C5.1323 12.0472 5.16805 12.4413 5.43319 12.6623C5.69832 12.8833 6.09243 12.8476 6.31346 12.5824Z" fill="#171717"/>
<path fill-rule="evenodd" clip-rule="evenodd" d="M10.0477 1.45898H9.9524C8.12681 1.45897 6.69291 1.45896 5.57339 1.60948C4.42618 1.76372 3.51597 2.08625 2.8008 2.80141C2.08564 3.51658 1.76311 4.42679 1.60887 5.574C1.45835 6.69352 1.45836 8.12742 1.45837 9.95301V10.0483C1.45836 11.8739 1.45835 13.3078 1.60887 14.4273C1.76311 15.5745 2.08564 16.4847 2.8008 17.1999C3.51597 17.9151 4.42618 18.2376 5.57339 18.3918C6.6929 18.5423 8.12679 18.5423 9.95237 18.5423H10.0477C11.8733 18.5423 13.3072 18.5423 14.4267 18.3918C15.5739 18.2376 16.4841 17.9151 17.1993 17.1999C17.9144 16.4847 18.237 15.5745 18.3912 14.4273C18.5417 13.3078 18.5417 11.8739 18.5417 10.0483V9.95301C18.5417 8.12743 18.5417 6.69351 18.3912 5.574C18.237 4.42679 17.9144 3.51658 17.1993 2.80141C16.4841 2.08625 15.5739 1.76372 14.4267 1.60948C13.3072 1.45896 11.8733 1.45897 10.0477 1.45898ZM3.68469 3.6853C4.12889 3.24109 4.73135 2.98394 5.73995 2.84833C6.76654 2.71031 8.1164 2.70899 10 2.70899C11.8837 2.70899 13.2335 2.71031 14.2601 2.84833C15.2687 2.98394 15.8712 3.24109 16.3154 3.6853C16.7596 4.1295 17.0168 4.73196 17.1524 5.74056C17.2904 6.76715 17.2917 8.11701 17.2917 10.0007C17.2917 11.8843 17.2904 13.2342 17.1524 14.2607C17.0168 15.2693 16.7596 15.8718 16.3154 16.316C15.8712 16.7602 15.2687 17.0174 14.2601 17.153C13.2335 17.291 11.8837 17.2923 10 17.2923C8.1164 17.2923 6.76654 17.291 5.73995 17.153C4.73135 17.0174 4.12889 16.7602 3.68469 16.316C3.24048 15.8718 2.98333 15.2693 2.84772 14.2607C2.7097 13.2342 2.70837 11.8843 2.70837 10.0007C2.70837 8.11701 2.7097 6.76715 2.84772 5.74056C2.98333 4.73196 3.24048 4.1295 3.68469 3.6853Z" fill="#171717"/>
</svg>
